<?xml version="1.0" encoding="utf-8"?>
<!-- Generator: Adobe Illustrator 27.5.0, SVG Export Plug-In . SVG Version: 6.00 Build 0)  -->
<svg version="1.1" xmlns="http://www.w3.org/2000/svg" xmlns:xlink="http://www.w3.org/1999/xlink" x="0px" y="0px"
	 viewBox="0 0 4000 4000" style="enable-background:new 0 0 4000 4000;" xml:space="preserve">
<g>
	<g>
		<rect style="fill:#00000000;" width="4000" height="4000"/>
	</g>
	<g>
		<g style="opacity:0.15;">
			<ellipse style="fill:#080808;" cx="1967.183" cy="3537.391" rx="1067.731" ry="82.008"/>
		</g>
		<g>
			<g>
				<g>
					<path style="fill:#FFAD40;" d="M2955.753,2652.095c-12.543,139.558-113.364,279.55-301.114,338.065
						c-17.752-50.121-32.079-104.102-43.705-161.121c-7.188-35.312-13.362-71.781-18.669-109.215
						c-0.145-0.868-0.241-1.785-0.386-2.653c-10.468-74.482-17.51-152.824-22.431-233.529
						c21.998-42.065,46.696-71.781,72.842-92.187c23.734-18.476,50.797-29.571,78.631-33.72
						c58.564-8.731,120.455,13.218,161.748,61.313c13.604,15.871,25.326,32.755,35.167,50.411
						C2948.902,2525.08,2961.493,2588.564,2955.753,2652.095z"/>
				</g>
				<g>
					<path style="fill:#FFF3E9;" d="M2870.905,2851.513c-79.981,100.966-183.987,130.73-216.259,138.641
						c-17.752-50.121-32.08-104.102-43.705-161.121c31.79,3.666,102.51,7.236,178.102-29.764
						c120.841-59.094,160.156-175.738,167.344-198.507c0,0.096,0.048,0.241,0,0.338
						C2956.772,2634.048,2953.829,2746.881,2870.905,2851.513z"/>
				</g>
				<g>
					<path style="fill:#EF7F25;" d="M2820.302,2622.567c-7.912,12.446-16.16,24.988-25.326,36.517
						c-49.59,39.267-112.64,61.361-175.883,61.361h-0.048c-4.776-0.193-9.552-0.579-14.328-1.158
						c-4.293-0.531-8.586-1.206-12.832-2.123c-10.468-74.482-17.511-152.824-22.432-233.53
						c21.997-42.065,46.696-71.781,72.842-92.186c23.734-18.476,50.797-29.571,78.631-33.719c5.596,0.482,11.192,1.206,16.739,2.219
						l5.837,2.412c-32.272,8.635-57.116,35.89-70.286,66.619c-13.169,30.68-16.208,64.69-17.222,98.072
						c-0.724,23.445-0.193,48.288,12.012,68.308c10.082,16.498,27.256,27.834,45.635,34.057c18.331,6.271,37.868,7.863,57.212,8.539
						C2788.801,2638.534,2810.026,2636.556,2820.302,2622.567z"/>
				</g>
				<g>
					<path style="fill:#EF7F25;" d="M2956.386,2600.762c-7.188,22.769-46.503,139.413-167.344,198.507
						c-75.592,37-146.312,33.43-178.102,29.764c-7.188-35.312-13.363-71.781-18.669-109.215c7.043,0.097,14.086,0.386,20.888,0.579
						c1.978,0.048,3.907,0.048,5.885,0.048h0.048c22.239,1.061,44.67-1.64,66.764-5.017c23.975-3.618,48.385-8.249,69.321-20.406
						c15.63-9.069,28.462-21.756,39.798-35.939c4.631-3.618,9.118-7.381,13.459-11.336l-0.338,4.438
						c10.468,0.386,47.275,0.338,77.28-26.243c24.603-21.804,30.874-49.301,35.36-69.127c8.49-37.338,2.315-69.176-2.894-87.363
						C2940.515,2510.071,2953.347,2554.838,2956.386,2600.762z"/>
				</g>
				<g>
					<path style="fill:#080808;" d="M2654.618,3009.814c-8.115,0-15.676-5.063-18.521-13.101
						c-45.342-128.169-72.754-290.82-86.27-511.87c-0.217-3.574,0.542-7.134,2.2-10.308c22.041-42.153,48.352-75.317,78.21-98.579
						c81.113-63.179,198.533-49.878,267.319,30.283c73.03,85.103,97.373,202.93,65.117,315.19
						c-38.772,134.946-148.921,239.731-302.207,287.49C2658.524,3009.526,2656.556,3009.814,2654.618,3009.814z M2589.396,2487.968
						c12.749,204.072,37.488,356.655,77.512,477.422c130.947-46.079,224.47-138.125,257.996-254.814
						c28.589-99.507,7.219-203.711-57.17-278.74c-55.1-64.209-148.816-75.132-213.345-24.873
						C2630.094,2425.888,2608.246,2453.119,2589.396,2487.968z"/>
				</g>
				<g>
					<path style="fill:#080808;" d="M2598.699,2657.202c40.586,24.053,84.464,35.865,130.69,28.079
						c38.199-8.145,69.083-33.802,90.636-66.657c1.958-3.113,6.107-4.023,9.186-2.009c2.684,1.752,3.671,5.127,2.515,7.991
						c-9.2,22.841-22.797,44.631-41.171,62.883c-3.663,4.196-10.416,9.141-14.602,12.948c-23.938,18.381-52.525,32.76-83.107,35.088
						c-44.031,4.112-90.861-15.821-119.511-48.303C2558.373,2669.958,2579.42,2645.399,2598.699,2657.202L2598.699,2657.202z"/>
				</g>
				<g style="opacity:0.2;">
					<g>
						<path style="fill:#080808;" d="M2794.975,2659.084c-11.336,14.183-24.168,26.87-39.798,35.939
							c-20.936,12.156-45.345,16.788-69.321,20.406c-22.094,3.376-44.525,6.078-66.764,5.017
							C2682.335,2720.445,2745.385,2698.351,2794.975,2659.084z"/>
					</g>
				</g>
				<g style="opacity:0.2;">
					<g>
						<path style="fill:#080808;" d="M2794.975,2659.084c-11.336,14.183-24.168,26.87-39.798,35.939
							c-20.936,12.156-45.345,16.788-69.321,20.406c-22.094,3.376-44.525,6.078-66.764,5.017
							C2682.335,2720.445,2745.385,2698.351,2794.975,2659.084z"/>
					</g>
				</g>
				<g style="opacity:0.15;">
					<g>
						<path style="fill:#080808;" d="M2955.759,2652.089c-6.271,69.755-34.588,139.654-84.854,199.424
							c-50.266,59.769-122.385,109.408-216.259,138.641c-17.752-50.121-32.08-104.102-43.705-161.121
							c31.79,3.666,102.51,7.236,178.102-29.764c120.841-59.094,160.156-175.738,167.344-198.507c0,0.096,0.048,0.241,0,0.338
							C2957.544,2617.984,2957.303,2635.061,2955.759,2652.089z"/>
					</g>
				</g>
			</g>
			<g>
				<g>
					<path style="fill:#FFAD40;" d="M1615.07,2305.974c-140.764,0-264.692-10.42-366.864-30.584
						c-171.3-33.768-281.673-94.839-308.59-180.031c-4.487-14.327-6.657-29.378-6.368-45.056l125.134-101.448
						c32.658-26.436,75.736-36.18,116.595-26.387c43.078,10.372,90.257,15.002,140.427,15.485
						c68.5,0.675,142.597-6.319,219.202-16.884c50.749,36.855,69.032,129.524,76.074,241.585
						C1613.526,2208.048,1614.492,2256.625,1615.07,2305.974z"/>
				</g>
				<g>
					<path style="fill:#EF7F25;" d="M1615.077,2305.969c-140.764,0-264.692-10.42-366.864-30.584
						c38.061-40.859,62.615-83.889,75.785-128.801c101.014,9.503,193.345,3.714,273.182-8.587l3.618,4.872
						c3.28,6.561,6.609,13.169,9.889,19.778C1613.533,2208.041,1614.498,2256.619,1615.077,2305.969z"/>
				</g>
				<g>
					<path style="fill:#FFFFFF;" d="M1323.997,2146.584c-13.169,44.911-37.724,87.941-75.785,128.801
						c-3.087-0.627-6.175-1.206-9.262-1.882c-9.166-1.881-18.138-3.811-26.966-5.885c-2.943-0.676-5.837-1.351-8.732-2.074
						c-21.515-5.162-41.872-10.854-61.023-17.029c-1.495-0.482-2.991-0.965-4.486-1.447c-30.825-10.13-58.467-21.515-82.78-34.105
						c-3.473-1.785-6.898-3.618-10.227-5.5c-6.85-3.811-13.411-7.718-19.682-11.722c-2.895-1.881-5.741-3.762-8.49-5.692
						c-16.16-11.144-30.102-23.01-41.679-35.649c-1.013-1.061-1.93-2.123-2.846-3.184c-2.026-2.219-3.908-4.486-5.741-6.754
						c-2.846-3.618-5.596-7.332-8.056-11.047c-0.82-1.206-1.592-2.364-2.364-3.57c-0.531-0.82-1.013-1.592-1.495-2.412
						c-0.579-0.917-1.109-1.785-1.64-2.701c-0.434-0.772-0.868-1.544-1.302-2.316c-3.087-5.451-5.789-10.998-8.056-16.691
						c-0.579-1.351-1.109-2.701-1.592-4.052c-0.772-2.074-1.495-4.197-2.171-6.319c-4.486-14.327-6.657-29.378-6.368-45.056
						l125.134-101.449c32.658-26.435,75.737-36.18,116.596-26.387c43.078,10.371,90.257,15.003,140.426,15.485
						C1338.228,2010.74,1343.39,2080.64,1323.997,2146.584z"/>
				</g>
				<g>
					<path style="fill:#080808;" d="M1615.069,2325.624c-141.877,0-266.589-10.415-370.667-30.957
						c-276.289-54.399-332.39-163.12-330.801-244.746c0.112-5.791,2.773-11.235,7.271-14.883l125.134-101.448
						c37.158-30.076,87.085-41.37,133.55-30.232c39.705,9.558,84.197,14.446,136.038,14.946
						c60.637,0.588,129.375-4.714,216.326-16.702c5.022-0.701,10.127,0.583,14.231,3.565
						c78.367,56.907,86.475,215.085,88.567,400.588c0.059,5.249-1.985,10.303-5.676,14.038
						C1625.35,2323.525,1620.318,2325.624,1615.069,2325.624z M953.043,2059.55c4.824,89.844,110.4,159.434,298.96,196.563
						c96.719,19.087,212.082,29.219,343.161,30.142c-2.17-149.629-10.681-295.188-66.26-344.578
						c-84.985,11.455-153.093,16.509-213.694,15.925c-54.846-0.527-102.222-5.771-144.834-16.03
						c-34.658-8.296-71.914,0.124-99.631,22.556L953.043,2059.55z"/>
				</g>
				<g>
					<path style="fill:#FFFFFF;" d="M1197.449,2131.161c106.128-119.193,56.063-263.703-24.12-242.235
						c-7.236-111.524-105.396-119.996-128.64-44.792c-72.36-40.613-152.093,25.017-111.755,73.968
						c-81.793-7.505-111.756,98.892,39.396,156.78L1197.449,2131.161z"/>
				</g>
				<g>
					<path style="fill:#080808;" d="M1186.715,2121.022c25.881-41.789,47.629-86.063,47.672-135.402
						c0.266-37.161-16.593-92.226-61.273-83.011c-10.966,2.744-22.12-4.191-24.353-15.298c-1.451-16.255-4.076-32.738-10.64-46.312
						c-10.34-23.509-34.927-40.317-58.115-26.647c-10.042,5.719-17.702,16.974-21.84,30.285
						c-3.225,10.377-14.252,16.174-24.629,12.949c-12.386-6.051-25.272-11.706-38.927-11.688
						c-27.811-2.819-75.258,24.44-51.705,54.545c10.42,13.117-0.616,33.293-17.064,31.928c-16.733-0.984-31.948,3.92-39.875,13.814
						c-30.322,46.304,48.887,95.588,83.558,117.077c6.481,3.843,2.329,14.193-4.924,12.676
						c-45.088-9.185-88.878-30.894-113.41-73.595c-13.634-23.786-14.732-57.583,3.377-80.58
						c17.526-23.041,47.904-31.895,74.866-28.528c0,0-16.961,32.064-16.961,32.064c-6.569-7.899-12.012-18.017-14.171-29.337
						c-7.061-32.23,17.092-64.004,43.073-76.918c33.37-18.064,75.358-15.824,107.636,2.657c0,0-28.391,11.331-28.391,11.331
						c12.924-46.398,61.851-77.69,108.209-55.873c39.741,18.477,56.537,65.03,58.814,105.196c0,0-24.689-17.709-24.689-17.709
						c34.134-10.403,70.341,6.988,88.022,36.499c31.149,52.311,22.581,115.288-2.652,166.222
						c-12.542,24.642-30.039,46.241-50.732,63.337C1191.149,2136,1182.194,2127.899,1186.715,2121.022L1186.715,2121.022z"/>
				</g>
				<g>
					<path style="fill:#080808;" d="M1058.892,1841.263c-7.694,35.067,13.668,67.366,35.437,94.303
						c7.446,8.853-4.626,20.815-13.393,13.33c-32.478-27.236-63.941-66.677-61.042-112.488
						C1021.908,1807.616,1064.011,1812.832,1058.892,1841.263L1058.892,1841.263z"/>
				</g>
				<g>
					<path style="fill:#080808;" d="M934.344,1894.335c32.437,15.517,62.486,39.706,80.874,70.659
						c4.885,8.156-6.076,16.589-12.694,9.853c-22.256-22.956-50.853-36.738-81.596-43.574
						C892.55,1923.182,907.339,1882.335,934.344,1894.335L934.344,1894.335z"/>
				</g>
				<g>
					<path style="fill:#080808;" d="M1181.282,1898.138c-29.3,24.99-29.779,64.296-19.995,98.828c-0.003,0.005,0.59,5.244,0.59,5.25
						c0.969,8.61-4.72,16.433-12.964,18.335c-16.27,3.772-32.145,8.73-44.443,17.111c-12.918,8.607-20.122,21.588-19.875,37.549
						c-0.027,8.804-12.862,10.242-14.829,1.668c-11.497-45.053,29.741-76.829,65.93-93.335
						c-0.001-0.001-12.374,23.576-12.374,23.576c-2.893-11.225-5.228-22.764-6.401-34.76c-4.734-37.365,8.923-78.349,37.863-103.242
						C1174.332,1852.086,1200.068,1880.132,1181.282,1898.138L1181.282,1898.138z"/>
				</g>
				<g style="opacity:0.15;">
					<g>
						<path style="fill:#080808;" d="M1323.997,2146.584c-13.169,44.911-37.724,87.941-75.785,128.801
							c-3.087-0.627-6.175-1.206-9.262-1.882c-9.166-1.881-18.138-3.811-26.966-5.885c-2.943-0.676-5.837-1.351-8.732-2.074
							c-21.515-5.162-41.872-10.854-61.023-17.029c-1.495-0.482-2.991-0.965-4.486-1.447c-30.825-10.13-58.467-21.515-82.78-34.105
							c-3.473-1.785-6.898-3.618-10.227-5.5c-6.85-3.811-13.411-7.718-19.682-11.722c-2.895-1.881-5.741-3.762-8.49-5.692
							c-16.16-11.144-30.102-23.01-41.679-35.649c-1.013-1.061-1.93-2.123-2.846-3.184c-1.978-2.219-3.908-4.486-5.741-6.754
							c-2.846-3.618-5.596-7.332-8.056-11.047c-0.82-1.206-1.592-2.364-2.364-3.57c-0.531-0.82-1.013-1.592-1.495-2.412
							c-0.579-0.917-1.109-1.785-1.64-2.701c-0.434-0.772-0.868-1.544-1.302-2.316c-3.087-5.451-5.789-10.998-8.056-16.691
							c-0.579-1.351-1.109-2.701-1.592-4.052c-0.772-2.074-1.495-4.197-2.171-6.319c4.824-10.13,11.047-19.585,18.62-28.172
							c1.689,11.047,5.741,28.655,16.836,47.42c4.052,6.85,17.559,28.317,43.416,44.622c6.271,3.956,63.098,38.544,121.806,12.06
							c12.591-5.692,22.818-13.073,31.018-20.598c15.919-14.665,37.675-20.984,58.949-17.077c9.455,1.737,19.006,3.377,28.751,4.872
							C1281.064,2141.905,1302.724,2144.606,1323.997,2146.584z"/>
					</g>
				</g>
			</g>
			<g>
				<g>
					<path style="fill:#FFAD40;" d="M2581.749,3335.847h-0.048c-48.964-13.121-97.782-56.199-137.725-140.667
						c-11.529,1.688-22.769,3.039-33.768,4.052h-0.097c-64.834,6.078-120.938,0.868-173.856-15.34
						c-38.061-11.674-74.385-28.944-111.241-51.858c-43.657-27.159-87.989-62.229-136.326-104.97
						c-19.827-17.559-42.21-32.031-66.522-42.499c-94.309-40.618-171.493-85.433-291.61-10.179c-1.93,1.206-3.859,2.46-5.837,3.715
						l-109.118,87.555c-16.547,13.314-35.457,23.445-55.814,29.523c-114.57,34.299-231.406-1.158-318.142-101.545
						c-42.451-49.108-70.141-109.794-75.254-174.484c-5.258-66.764,14.134-115.39,48.578-146.939
						c45.49-41.727,117.271-53.691,192.959-38.206c8.249-12.591,16.305-24.602,24.265-35.987
						c76.894-110.421,141.487-163.63,236.23-134.493c-14.424-97.686-19.344-200.292-16.064-307.095l-6.464-138.063
						c-0.724-15.147,7.669-29.378,21.37-35.987c253.018-121.854,586.886-104.632,922.926,59.383
						c157.599,145.202,217.513,492.722,127.449,757.848c2.122,1.013,4.197,2.074,6.271,3.087
						C2967.572,2976.846,2774.081,3387.367,2581.749,3335.847z"/>
				</g>
				<g>
					<path style="fill:#EF7F25;" d="M2316.146,3183.114c-7.236,3.763-27.014,12.832-53.064,9.648
						c-23.444-2.846-39.364-14.134-45.828-19.296c-15.823-5.403-31.597-10.854-47.372-16.257
						c-25.857-12.735-47.757-25.76-66.185-38.061s-33.382-23.927-45.104-33.768c-22.191-18.621-39.267-31.163-69.9-58.322
						c-19.827-17.56-42.21-32.031-66.523-42.499c-94.309-40.618-171.493-85.433-291.61-10.179
						c-5.837-42.692-15.003-81.67-27.159-116.982c33.478-22.19,55.283-40.859,63.677-49.446
						c13.411-13.749,23.638-26.001,30.488-34.636c3.907-10.999,8.056-26.821,8.345-46.069c0.145-10.227-0.82-19.682-2.412-28.268
						c-1.061-5.644,6.368-8.683,9.455-3.811c8.008,12.783,16.98,27.208,26.725,42.933c51.376,83.069,49.639,83.696,60.3,96.866
						c43.32,53.594,77.473,50.073,148.338,100.918c57.647,41.39,68.308,67.632,112.158,109.746
						C2108.715,3091.989,2186.815,3147.657,2316.146,3183.114z"/>
				</g>
				<g style="opacity:0.6;">
					<g>
						<path style="fill:#FFFFFF;" d="M2636.935,2848.547c2.122,1.013,4.197,2.074,6.271,3.087
							c79.254,40.161,129.885,92.905,158.606,149.643c-19.854-68.857-67.804-135.471-154.557-185.821
							C2644.058,2826.608,2640.636,2837.654,2636.935,2848.547z"/>
					</g>
					<g>
						<path style="fill:#FFFFFF;" d="M1085.686,2868.084c-5.257-66.764,14.135-115.39,48.578-146.939
							c45.49-41.727,117.271-53.691,192.959-38.206c5.333-8.708,13.46-21.374,24.265-35.987
							c43.441-58.752,82.421-111.472,141.122-126.288c20.272-5.117,42.21-5.54,64.915-24.126
							c12.172-9.964,19.716-21.179,24.236-29.247c-8.735-88.081-17.469-176.163-26.203-264.244
							c-3.221-61.56-6.443-123.119-9.664-184.678c13.08-9.885,34.67-25.449,62.728-42.049
							c251.635-148.879,635.019-151.264,842.713,47.151c17.925,17.124,38.13,39.172,58.151,67.228
							c67.539,102.105,103.864,153.382,103.334,151.873c-28.87-82.256-70.373-152.66-122.63-200.807
							c-336.04-164.016-669.908-181.237-922.926-59.383c-13.701,6.609-22.094,20.84-21.37,35.987l6.464,138.063
							c-3.28,106.803,1.641,209.409,16.064,307.095c-94.743-29.137-159.336,24.072-236.23,134.493
							c-7.96,11.385-16.016,23.396-24.265,35.987c-75.688-15.485-147.47-3.521-192.959,38.206
							c-34.443,31.549-53.836,80.175-48.578,146.939c2.959,37.431,13.516,73.503,30.079,106.786
							C1090.931,2907.165,1087.245,2887.815,1085.686,2868.084z"/>
					</g>
				</g>
				<g>
					<path style="fill:#FFFFFF;" d="M2581.755,3335.841h-0.048c-0.048,0-0.096-0.048-0.145-0.048
						c-1.833-0.482-3.618-1.013-5.451-1.592c-0.241-0.048-0.482-0.145-0.675-0.193c-1.496-0.531-3.039-1.013-4.583-1.592
						c-0.385-0.096-0.771-0.241-1.109-0.386c-1.688-0.627-3.377-1.302-5.065-2.026c-1.882-0.772-3.763-1.592-5.644-2.46
						c-1.881-0.868-3.763-1.785-5.596-2.75c-1.882-0.965-3.714-1.978-5.596-3.039c-1.64-0.917-3.232-1.882-4.872-2.895
						c-3.956-2.412-7.863-5.065-11.771-7.959c-1.833-1.351-3.666-2.75-5.5-4.245c-1.688-1.303-3.329-2.701-4.969-4.101
						c-0.241-0.145-0.531-0.386-0.772-0.676c-1.737-1.447-3.473-2.991-5.162-4.534c-1.785-1.688-3.618-3.377-5.403-5.162
						c-2.123-2.074-4.245-4.245-6.271-6.464c-1.399-1.447-2.75-2.943-4.1-4.486c-0.241-0.193-0.434-0.434-0.579-0.627
						c-1.592-1.736-3.136-3.57-4.679-5.403c-0.145-0.145-0.289-0.338-0.386-0.482c-1.737-2.075-3.425-4.149-5.113-6.32
						c-1.785-2.17-3.473-4.438-5.161-6.753c-1.737-2.315-3.425-4.679-5.114-7.091c-1.399-1.929-2.75-3.955-4.052-5.982
						c-5.017-7.381-9.841-15.244-14.569-23.637c-1.302-2.316-2.653-4.679-3.907-7.091c-1.061-1.929-2.122-3.907-3.184-5.933
						c-2.798-5.403-5.548-10.951-8.297-16.74c-11.529,1.689-22.769,3.039-33.768,4.052l104.826-26.773
						c90.064-72.408,106.803-205.936,70.43-260.833c-4.534-6.85-9.889-12.446-16.016-16.594c1.93-2.798,30.874-52.051,54.463-92.331
						C2967.578,2976.84,2774.087,3387.361,2581.755,3335.841z"/>
				</g>
				<g>
					<path style="fill:#FFFFFF;" d="M1630.562,2974.38c-1.929,1.206-3.859,2.46-5.837,3.714l-109.119,87.555
						c-16.546,13.314-35.456,23.445-55.813,29.523c-114.57,34.298-231.407-1.158-318.142-101.545
						c-42.451-49.108-70.141-109.794-75.254-174.484c-1.929-24.217-0.579-46.021,3.522-65.51c0.29-1.351,0.579-2.653,0.917-3.956
						c0.289-1.254,0.579-2.509,0.917-3.715c0.434-1.688,0.868-3.329,1.35-4.969c0.338-1.254,0.724-2.46,1.109-3.667
						c0.241-0.82,0.483-1.64,0.772-2.412c0.434-1.351,0.868-2.701,1.35-4.004c0.289-0.771,0.579-1.544,0.869-2.315
						c0.434-1.158,0.917-2.364,1.351-3.521c1.158-2.798,2.315-5.5,3.57-8.153c0.627-1.254,1.206-2.46,1.833-3.666
						c1.061-2.123,2.123-4.149,3.28-6.175c0.675-1.206,1.399-2.412,2.123-3.618c0.724-1.158,1.447-2.364,2.219-3.521
						c0.338-0.531,0.675-1.062,1.013-1.544c0.579-0.868,1.109-1.688,1.737-2.557c2.991-4.39,6.271-8.539,9.696-12.446
						c1.737-1.978,3.521-3.907,5.354-5.74c1.785-1.881,3.666-3.715,5.596-5.451c45.49-41.728,117.271-53.691,192.96-38.206
						c8.249-12.591,16.305-24.603,24.265-35.987c120.262,28.462,220.938,112.495,271.204,259.386
						C1615.559,2892.71,1624.725,2931.688,1630.562,2974.38z"/>
				</g>
				<g>
					
						<ellipse transform="matrix(0.7071 -0.7071 0.7071 0.7071 -1697.6621 1792.4692)" style="fill:#FF8080;" cx="1314.871" cy="2945.494" rx="74.016" ry="103.387"/>
				</g>
				<g>
					
						<ellipse transform="matrix(0.8281 -0.5606 0.5606 0.8281 -1410.9354 1124.8223)" style="fill:#FF8080;" cx="1128.69" cy="2863.11" rx="34.445" ry="54.526"/>
				</g>
				<g>
					
						<ellipse transform="matrix(0.8281 -0.5606 0.5606 0.8281 -1349.0808 1138.3937)" style="fill:#FF8080;" cx="1181.753" cy="2769.042" rx="34.445" ry="54.526"/>
				</g>
				<g>
					<g style="opacity:0.6;">
						<path style="fill:#FFFFFF;" d="M1175.372,2637.944c26.13-2.047,53.995-0.104,82.411,5.709
							c3.412-5.209,6.775-10.255,10.128-15.263C1234.782,2625.864,1203.255,2628.963,1175.372,2637.944z"/>
					</g>
					<g style="opacity:0.6;">
						<path style="fill:#FFFFFF;" d="M2623.911,2802.7c-2.075-1.013-4.149-2.074-6.271-3.087
							c90.063-265.126,30.15-612.646-127.449-757.848c-265.939-129.801-530.477-167.574-754.698-117.325
							c213.028-34.518,458.186,6.725,704.555,126.973c157.599,145.202,217.513,492.722,127.449,757.848
							c-12.832,40.219-41.368,89.388-76.486,142.308c47.507-9.025,85.038-54.176,116.842-120.061
							c250.594,155.109,155.227,451.613,7.423,508.716C2794.804,3340.263,2947.545,2966.698,2623.911,2802.7z"/>
					</g>
				</g>
				<g>
					
						<ellipse transform="matrix(0.8281 -0.5606 0.5606 0.8281 -1319.209 1198.717)" style="fill:#FF8080;" cx="1295.056" cy="2750.496" rx="34.445" ry="54.526"/>
				</g>
				<g>
					<path style="fill:#EF7F25;" d="M2515.04,3172.453l-104.826,26.773h-0.096c-64.834,6.078-120.937,0.868-173.857-15.34
						c-11.095-15.485-22.046-30.729-39.509-37l4.149-4.293c42.982,24.409,94.647,33.093,143.224,24.12
						c65.124-12.012,104.053-52.099,125.086-73.711c15.002-15.437,49.88-54.849,67.632-116.114
						c6.416-22.094,8.924-41.342,9.986-55.138c6.078-2.846,20.405-9.021,38.64-10.13
						C2621.843,2966.517,2605.104,3100.045,2515.04,3172.453z"/>
				</g>
				<g>
					<path style="fill:#080808;" d="M1563.452,2156.771c-0.259,102.106,6.827,204.097,24.408,303.875
						c1.698,10.645-5.557,20.65-16.204,22.344c-3.121,0.499-6.168,0.227-9.011-0.682c-24.436-7.297-49.25-9.222-72.456-3.03
						c-49.477,13.89-86.599,57.177-117.959,97.672c-14.984,19.106-33.924,47.809-47.646,68.189
						c-4.673,6.948-12.938,10.044-20.668,8.499c-80.201-17.606-182.16,0.649-209.429,87.37
						c-47.529,169.069,118.643,354.795,290.325,345.505c31.322-1.679,64.034-6.942,92.459-20.894
						c19.303-7.837,117.306-91.783,136.249-105.176c6.324-4.196,17.727-10.551,24.433-14.461c6.845-4.188,18.55-9.195,25.936-12.87
						c36.259-15.676,76.698-23.551,116.129-18.681c37.78,3.858,74.864,18.215,109.079,33.028
						c33.908,14.754,70.95,29.187,99.981,52.996c132.698,115.861,241.143,196.088,419.253,178.381
						c0,0.001,32.679-3.905,32.679-3.905c9.081-1.254,17.686,3.68,21.471,11.506c29.866,62.136,78.89,133.625,154.719,133.427
						c110.805-5.886,177.854-142.083,175.472-242.056c0.456-94.804-55.462-181.523-134.279-231.819
						c-15.711-10.608-32.384-19.855-49.365-28.332c-9.242-4.413-13.536-15.012-10.32-24.474
						c20.897-61.692,33.136-126.482,38.306-191.786c11.3-161.366-13.79-332.502-99.708-471.598
						c-17.332-27.031-37.386-52.115-60.394-73.621l4.681,3.197c-72.738-35.183-148.018-65.023-225.33-87.842
						c-173.225-52.159-358.661-63.936-536.12-28.278c-19.913,3.283-39.082,9.362-58.641,14.34
						c-8.707,1.726-20.428,6.077-28.894,8.905c-11.893,4.168-24.006,7.953-35.961,12.056c-4.569,1.804-16.309,6.789-21.058,8.65
						c-0.168,0.121-28.383,11.275-28.537,11.377c-2.779,1.107-5.928-0.247-7.035-3.025c-0.992-2.488-0.006-5.275,2.207-6.625
						c216.37-132.063,488.758-125.55,725.039-54.76c80.986,24.602,161.33,54.098,236.205,93.179
						c51.472,48.168,88.021,109.278,114.551,173.608c75.767,191.389,82.051,409.391,18.552,605.084
						c-0.003,0-10.321-24.474-10.321-24.474c18.687,9.275,36.992,19.408,54.327,31.079c52.907,34.757,97.961,82.468,124.688,140.697
						c126.607,277.261-209.372,609.28-379.795,250.578c0,0.001,21.47,11.507,21.47,11.507l-34.854,4.198
						c-113.49,11.881-220.95-15.379-320.333-84.767c-30.71-20.815-59.711-43.53-87.659-67.115
						c-25.531-22.023-51.612-46.799-82.596-60.695c-94.467-41.451-163.754-80.219-263.465-24.414
						c-5.484,3.186-16.676,9.492-22.116,13.123c0,0,1.887-1.349,1.887-1.349l-108.682,87.292
						c-19.983,16.177-44.214,28.909-69.181,35.15c-71.782,20.987-151.402,13.779-218.445-19.022
						c-110.099-55.11-194.067-168.741-196.296-294.15c-2.703-82.522,37.974-155.613,118.352-183.077
						c48.033-16.653,99.522-16.069,148.384-6.231l-20.769,8.65c60.801-90.795,144.257-216.194,271.773-181.223
						c0-0.001,11.257,2.942,11.257,2.942c0.001-0.007-25.229,21.681-25.216,21.642c-12.338-103.37-13.696-207.29-7.716-310.295
						C1542.522,2142.312,1562.833,2142.004,1563.452,2156.771L1563.452,2156.771z"/>
				</g>
				<g>
					<path style="fill:#080808;" d="M1204.863,2611.337c85.049-17.861,157.05,25.356,204.151,93.471
						c14.662,20.613,26.867,42.504,37.718,64.831c1.703,3.505,0.242,7.726-3.262,9.43c-3.254,1.583-7.136,0.429-9.028-2.545
						c-26.234-39.164-56.258-78.01-95.32-104.026c-37.494-25.542-82.263-33.872-126.09-23.443
						C1186.888,2655.113,1178.452,2616.649,1204.863,2611.337L1204.863,2611.337z"/>
				</g>
				<g>
					<path style="fill:#080808;" d="M2635.577,2806.725c-22.724,48.323-50.199,99.333-94.237,132.121
						c-8.621,6.394-18.966-5.519-11.417-13.147c36.783-36.347,54.23-84.547,69.779-133.198
						C2609.024,2766.91,2646.326,2781.613,2635.577,2806.725L2635.577,2806.725z"/>
				</g>
				<g>
					<path style="fill:#080808;" d="M2439.857,3176.329c47.631-9.716,94.326-26.934,132.249-57.585
						c38.41-30.797,64.136-74.195,79.852-120.971c1.436-4.278,6.067-6.583,10.346-5.147c3.895,1.307,6.149,5.291,5.437,9.218
						c-4.751,25.951-13.094,51.708-25.872,75.56c-37.739,73.692-115.14,118.781-193.775,136.626
						C2422.542,3219.402,2414.295,3182.161,2439.857,3176.329L2439.857,3176.329z"/>
				</g>
				<g>
					<path style="fill:#080808;" d="M2535.631,3174.467c-3.04,0-6.082-1.143-8.428-3.433c-4.763-4.653-4.854-12.29-0.2-17.056
						c66.802-68.394,83.582-181.792,39.036-263.774c-3.181-5.85-1.016-13.174,4.836-16.353c5.859-3.179,13.179-1.016,16.355,4.839
						c50.203,92.383,32.129,215.249-42.971,292.144C2541.896,3173.251,2538.763,3174.467,2535.631,3174.467z"/>
				</g>
				<g>
					
						<path style="fill:none;stroke:#080808;stroke-width:24.1199;stroke-linecap:round;stroke-linejoin:round;stroke-miterlimit:10;" d="
						M1624.702,2978.101"/>
				</g>
				<g>
					<path style="fill:#080808;" d="M2710.681,3308.433c-47.759-29.975-68.435-91.207-62.756-145.377
						c0.703-7.24,11.265-8.271,13.372-1.377c3.995,12.25,7.696,24.192,11.969,35.677c8.255,22.373,18.771,43.319,32.909,62.112
						c6.931,9.259,14.614,17.89,22.772,26.569C2740.464,3298.354,2724.905,3317.207,2710.681,3308.433L2710.681,3308.433z"/>
				</g>
				<g>
					<path style="fill:#080808;" d="M2571.598,3346.638c-38.964-30.066-67.62-83.518-54.251-133.666
						c2.203-8.715,15.093-7.488,15.667,1.399c2.552,44.987,23.979,81.096,57.311,110.196
						C2603.867,3337.285,2586.354,3357.903,2571.598,3346.638L2571.598,3346.638z"/>
				</g>
				<g>
					<path style="fill:#FFFFFF;" d="M2332.452,2600.183c-10.034,59.962-43.03,113.991-92.813,150.75
						c-305.117,225.232-650.563-138.4-598.078-609.221c6.126-55.283,17.752-112.013,35.601-169.466
						c0.096-0.241,0.145-0.531,0.241-0.772l13.7,1.206l236.761,21.274c106.224,9.551,203.765,59.335,273.568,137.628
						c15.823,17.752,30.198,36.904,42.933,57.454l30.825,49.591c29.571,47.564,49.205,100.677,57.598,156.104
						C2343.161,2462.989,2343.74,2532.503,2332.452,2600.183z"/>
				</g>
				<g style="opacity:0.15;">
					<g>
						<path style="fill:#080808;" d="M2711.086,3197.634c-9.117,53.45-40.184,105.935-89.919,127.643
							c-12.639,5.5-25.857,8.828-39.412,10.565h-0.048c-0.048,0-0.096-0.048-0.145-0.048c-1.833-0.482-3.618-1.013-5.451-1.592
							c-0.241-0.048-0.482-0.145-0.675-0.193c-1.496-0.531-3.039-1.013-4.583-1.592c-0.385-0.096-0.771-0.241-1.109-0.386
							c-1.688-0.627-3.377-1.302-5.065-2.026c-1.882-0.772-3.763-1.592-5.644-2.46c-1.881-0.868-3.763-1.785-5.596-2.75
							c-1.882-0.965-3.714-1.978-5.596-3.039c-1.64-0.917-3.232-1.882-4.872-2.895c-3.956-2.412-7.863-5.065-11.771-7.959
							c-1.833-1.351-3.666-2.75-5.5-4.245c-1.688-1.303-3.329-2.701-4.969-4.101c-0.241-0.145-0.531-0.386-0.772-0.676
							c-1.737-1.447-3.473-2.991-5.162-4.534c-1.785-1.688-3.618-3.377-5.403-5.162c-2.123-2.074-4.245-4.245-6.271-6.464
							c-1.399-1.447-2.75-2.943-4.1-4.486c-0.241-0.193-0.434-0.434-0.579-0.627c-1.592-1.736-3.136-3.57-4.679-5.403
							c-0.145-0.145-0.289-0.338-0.386-0.482c-1.737-2.075-3.425-4.149-5.113-6.32c-1.785-2.17-3.473-4.438-5.161-6.753
							c-1.737-2.315-3.425-4.679-5.114-7.091c-1.399-1.929-2.75-3.955-4.052-5.982c-5.017-7.381-9.841-15.244-14.569-23.637
							c-1.302-2.316-2.653-4.679-3.907-7.091c-1.061-1.929-2.122-3.907-3.184-5.933c-2.798-5.403-5.548-10.951-8.297-16.74
							c-11.529,1.689-22.769,3.039-33.768,4.052l104.826-26.773c90.064-72.408,106.803-205.936,70.43-260.833
							c9.793-0.676,20.791,0.145,32.176,3.762c32.707,10.372,48.915,37.193,58.467,52.968
							c14.713,24.361,17.511,46.986,22.383,68.115C2710.652,3089.335,2720.252,3144.136,2711.086,3197.634z"/>
					</g>
				</g>
				<g style="opacity:0.15;">
					<g>
						<path style="fill:#080808;" d="M1630.562,2974.38c-1.929,1.206-3.859,2.46-5.837,3.714l-109.119,87.555
							c-16.546,13.314-35.456,23.445-55.813,29.523c-114.57,34.298-231.407-1.158-318.142-101.545
							c-42.451-49.108-70.141-109.794-75.254-174.484c-1.929-24.217-0.579-46.021,3.522-65.51c0.29-1.351,0.579-2.653,0.917-3.956
							c0.289-1.254,0.579-2.509,0.917-3.715c0.434-1.688,0.868-3.329,1.35-4.969c0.338-1.254,0.724-2.46,1.109-3.667
							c0.241-0.82,0.483-1.64,0.772-2.412c0.434-1.351,0.868-2.701,1.35-4.004c0.289-0.771,0.579-1.544,0.869-2.315
							c0.434-1.158,0.917-2.364,1.351-3.521c1.158-2.798,2.315-5.5,3.57-8.153c0.627-1.254,1.206-2.46,1.833-3.666
							c1.061-2.123,2.123-4.149,3.28-6.175c0.675-1.206,1.399-2.412,2.123-3.618c0.724-1.158,1.447-2.364,2.219-3.521
							c0.338-0.531,0.675-1.062,1.013-1.544c0.579-0.868,1.109-1.688,1.737-2.557c2.991-4.39,6.271-8.539,9.696-12.446
							c1.737-1.978,3.521-3.907,5.354-5.74c1.785-1.881,3.666-3.715,5.596-5.451c-17.849,34.443-27.255,72.601-23.01,111.048
							c8.538,77.521,72.697,141.729,147.132,164.98c74.482,23.3,156.393,10.709,228.512-19.054
							c56.151-23.155,101.979-49.301,135.795-71.781C1615.559,2892.71,1624.725,2931.688,1630.562,2974.38z"/>
					</g>
				</g>
				<g>
					<path style="fill:#EF7F25;" d="M1677.161,1972.245c-17.849,57.454-29.475,114.184-35.601,169.466
						c-20.02-9.117-39.509-19.392-58.274-30.922c-64.448-39.653-120.551-94.984-154.271-162.665
						c3.039,2.412,6.126,4.824,9.165,7.284l-9.503-10.42C1510.058,1963.562,1593.562,1969.399,1677.161,1972.245z"/>
				</g>
				<g style="opacity:0.3;">
					<g>
						<path style="fill:#080808;" d="M1428.678,1944.989l9.503,10.42c-3.039-2.46-6.126-4.872-9.165-7.284
							c-1.785-1.399-3.522-2.846-5.307-4.245c1.206,0.29,2.46,0.579,3.666,0.82c-0.434-0.82-0.82-1.64-1.206-2.46L1428.678,1944.989
							z"/>
					</g>
				</g>
				<g style="opacity:0.15;">
					<g>
						<path style="fill:#080808;" d="M2299.938,1987.73c-15.147,57.55-51.472,106.851-98.506,143.851
							c-31.501,24.747-67.777,43.995-105.694,56.441c-94.453,31.067-197.494,25.133-294.794,4.679
							c-54.656-11.529-108.733-27.641-159.384-50.99c6.126-55.283,17.752-112.013,35.601-169.466
							c4.631,0.193,9.31,0.337,13.941,0.434c19.778,0.675,39.605,1.158,59.383,1.64
							C1933.653,1978.806,2116.771,1983.244,2299.938,1987.73z"/>
					</g>
				</g>
			</g>
			<g>
				<g>
					<g>
						<g>
							<path style="fill:#FFAD40;" d="M2388.5,877.254c180.278-107.668,355.152-169.463,523.718-177.726
								c21.077-1.033,41.086,9.556,51.73,27.777c74.489,127.522,0.454,606.915-124.26,790.977
								C2755.231,1235.273,2624.363,1001.063,2388.5,877.254z"/>
						</g>
						<g>
							<path style="fill:#EF7F25;" d="M2854.525,1435.296c74.636-165.876,102.195-357.332,103.364-545.341
								c0.138-22.21-0.327-45.581-9.632-64.645c-10.951-22.438-32.756-34.815-54.357-36.732
								c-21.601-1.917-43.132,5.292-63.463,14.579c17.639,3.047,31.057,21.904,36.185,42.458
								c5.128,20.554,3.513,42.653,1.392,64.042c-8.86,89.331-26.025,178.421-59.17,259.278
								c-5.556,13.553-11.698,27.546-11.673,42.609c0.018,10.953,3.321,21.421,6.465,31.662
								c19.744,64.313,34.958,130.69,45.426,198.189"/>
						</g>
						<g style="opacity:0.6;">
							<path style="fill:#FFFFFF;" d="M2912.218,737.67c21.077-1.033,41.086,9.556,51.729,27.777
								c18.815,32.21,28.142,86.888,29.582,153.567c1.69-83.849-7.288-153.544-29.582-191.709
								c-10.643-18.221-30.653-28.81-51.729-27.777c-168.566,8.263-343.44,70.058-523.718,177.726
								c11.369,5.967,22.418,12.27,33.305,18.743C2590.332,800.311,2754.051,745.424,2912.218,737.67z"/>
						</g>
						<g>
							<path style="fill:#080808;" d="M2839.691,1537.58c-0.974,0-1.956-0.073-2.939-0.225c-7.366-1.135-13.42-6.411-15.554-13.555
								c-95.991-321.663-236.335-521.68-441.665-629.461c-6.182-3.245-10.129-9.575-10.322-16.555
								c-0.19-6.978,3.401-13.516,9.395-17.097c186.79-111.555,366.003-172.261,532.668-180.432
								c28.481-1.406,55.078,12.903,69.338,37.317c79.055,135.347,4.321,620.75-124.949,811.533
								C2852.04,1534.455,2846.026,1537.58,2839.691,1537.58z M2427.511,876.816c190.042,111.025,323.911,301.553,417.874,594.587
								c47.334-87.795,89.072-225.447,112.07-372.788c25.752-164.985,21.763-306.914-10.168-361.577
								c-6.975-11.938-20.046-18.972-34.124-18.237C2761.483,726.237,2598.246,779.367,2427.511,876.816z"/>
						</g>
						<g>
							<path style="fill:#FFFFFF;" d="M2746.44,1271.905c-21.949-47.516-47.371-92.958-76.604-136.036
								c-42.548-62.615-93.151-120.31-152.969-172.409c97.252-92.669,201.161-149.592,313.511-161.266
								c2.557-0.289,5.113-0.241,7.573,0c16.74,1.737,30.584,14.858,33.431,32.128
								C2894.102,974.072,2856.62,1147.398,2746.44,1271.905z"/>
						</g>
						<g>
							<path style="fill:#080808;" d="M2746.444,1291.213c-0.933,0-1.868-0.068-2.805-0.205c-6.448-0.947-11.98-5.083-14.714-10.998
								c-54.543-118.032-130.154-219.641-224.734-301.997c-4.097-3.567-6.499-8.691-6.621-14.121
								c-0.12-5.427,2.051-10.657,5.981-14.402c103.752-98.862,213.04-154.873,324.829-166.477
								c29.875-3.091,57.153,18.066,62.048,48.196c26.008,160.039-23.625,333.809-129.536,453.496
								C2757.201,1288.874,2751.925,1291.213,2746.444,1291.213z M2545.516,963.156c84.023,76.704,152.925,168.428,205.266,273.247
								c84.148-108.896,123.792-262.18,101.555-399.004c-1.621-9.966-10.366-16.951-19.976-16.003
								C2733.229,831.689,2639.217,878.112,2545.516,963.156z"/>
						</g>
						<g style="opacity:0.15;">
							<g>
								<path style="fill:#080808;" d="M2857.633,823.226c-27.738-0.724-54.511,15.34-71.829,37.338
									c-18.331,23.3-27.593,52.485-33.719,81.526c-8.153,38.351-11.578,78.197-5.113,116.885
									c6.416,38.688,23.3,76.316,51.423,103.619c-11.047,1.206-19.296-9.937-23.396-20.26
									c-4.148-10.275-7.67-22.287-17.511-27.401c-13.652-7.043-29.185,3.425-42.885,10.275
									c-13.941,6.898-29.185,10.227-44.766,10.661c-42.548-62.615-93.151-120.31-152.969-172.409
									c97.252-92.669,201.161-149.592,313.511-161.266c2.557-0.289,5.113-0.241,7.573,0
									C2845.863,807.837,2852.664,814.88,2857.633,823.226z"/>
							</g>
						</g>
						<g style="opacity:0.3;">
							<g>
								<path style="fill:#080808;" d="M2862.698,823.515l-2.315,4.824c-0.82-1.737-1.737-3.473-2.75-5.113
									C2859.321,823.226,2861.009,823.322,2862.698,823.515z"/>
							</g>
						</g>
					</g>
					<g>
						<g>
							<path style="fill:#FFAD40;" d="M2067.705,802c-166.379,42.499-327.066,116.451-481.337,226.583
								c-68.693,49.108-136.133,105.404-202.173,169.37c-12.301,11.819-24.506,23.975-36.711,36.373
								c4.438-13.652,8.973-27.255,13.652-40.811c110.807-323.304,279.357-605.121,462.476-711.683
								c2.219-1.351,4.39-2.605,6.609-3.811c18.38-10.227,40.714-10.661,59.576-1.351c24.602,12.157,46.841,31.26,67.005,56.586
								c3.57,4.438,7.043,9.117,10.468,13.941C2009.382,606.629,2041.944,694.281,2067.705,802z"/>
						</g>
						<g>
							<path style="fill:#EF7F25;" d="M1973.058,551.298c-1.289-0.883-3.332-2.301-5.789-4.101
								c-34.629-25.356-40.347-44.851-58.875-54.009c-16.902-8.354-34.934-3.397-49.327,0.56
								c-48.102,13.223-85.208,71.058-98.988,145.443l1.833,4.583c-57.791,50.652-99.181,118.188-126.87,189.872
								c-24.216,62.567-38.447,128.511-48.674,194.937c-68.693,49.108-136.133,105.404-202.173,169.37
								c-1.544-0.289-3.136-0.579-4.679-0.82c-6.03-1.013-12.253-2.171-18.38-3.618
								c110.807-323.304,279.357-605.121,462.476-711.683c22.672-3.956,45.586-3.956,67.247,3.522
								c26.001,8.973,46.889,27.593,65.943,47.902C1962.349,539.189,1967.752,545.268,1973.058,551.298z"/>
						</g>
						<g style="opacity:0.6;">
							<g>
								<path style="fill:#FFFFFF;" d="M1849.299,500.79c24.602,12.156,46.841,31.26,67.005,56.585
									c3.57,4.438,7.043,9.117,10.468,13.941c40.51,57.169,72.163,140.507,97.444,242.643c14.458-4.199,28.944-8.245,43.489-11.96
									c-25.76-107.719-58.322-195.371-100.436-254.803c-3.425-4.824-6.898-9.503-10.468-13.941
									c-20.164-25.326-42.403-44.429-67.005-56.586c-18.862-9.31-41.196-8.876-59.576,1.351c-2.219,1.206-4.39,2.46-6.609,3.811
									c-8.865,5.159-17.684,10.851-26.476,16.816C1813.898,491.988,1832.907,492.699,1849.299,500.79z"/>
							</g>
							<g>
								<path style="fill:#FFFFFF;" d="M1545.87,1052.703c-64.693,46.249-128.257,98.961-190.605,158.362
									c-2.601,7.75-5.251,15.479-7.781,23.26c12.205-12.397,24.41-24.554,36.711-36.373
									c66.04-63.966,133.479-120.262,202.173-169.37c28.489-20.338,57.201-39.424,86.123-57.324
									C1629.829,995.851,1587.606,1022.908,1545.87,1052.703z"/>
							</g>
						</g>
						<g>
							<path style="fill:#080808;" d="M1347.455,1253.613c-3.438,0-6.897-0.915-9.998-2.798c-7.656-4.641-11.111-13.938-8.35-22.454
								c122.258-376.816,306.081-663.608,491.724-767.173c23.867-13.315,52.842-14.001,77.503-1.826
								c81.821,40.398,143.362,151.008,188.14,338.154c2.454,10.254-3.779,20.579-13.994,23.186
								c-258.313,65.957-497.612,209.666-711.252,427.136C1357.496,1251.637,1352.501,1253.613,1347.455,1253.613z
								 M1861.251,489.286c-7.48,0-14.929,1.873-21.619,5.603c-164.878,91.98-329.548,339.241-447.778,669.07
								c198.503-186.089,417.605-312.297,652.585-375.791c-41.34-164.106-94.802-260.437-163.191-294.202
								C1874.921,490.842,1868.072,489.286,1861.251,489.286z"/>
						</g>
						<g>
							<path style="fill:#FFFFFF;" d="M1553.264,1052.945c31.966-148.905,114.505-292.339,234.167-431.758
								c8.962-10.442,24.923-11.8,35.021-2.452c51.122,47.328,79.985,125.266,86.237,234.295
								C1786.402,901.198,1667.599,966.244,1553.264,1052.945z"/>
						</g>
						<g>
							<path style="fill:#080808;" d="M1553.263,1072.243c-3.589,0-7.188-1.001-10.357-3.018c-6.807-4.331-10.2-12.441-8.508-20.33
								c31.309-145.835,109.285-289.851,238.389-440.276c7.798-9.087,19.114-14.688,31.05-15.373
								c11.789-0.693,23.098,3.342,31.724,11.328c54.807,50.737,85.891,133.96,92.395,247.349c0.476,8.32-4.441,16.006-12.192,19.06
								c-125.108,49.28-243.147,115.674-350.837,197.339C1561.49,1070.927,1557.381,1072.243,1553.263,1072.243z M1806.368,631.767
								c-0.107,0-0.215,0.002-0.322,0.007c-1.521,0.088-2.969,0.808-3.975,1.98c-109.485,127.566-180.811,249.78-216.87,371.958
								c94.636-66.624,196.379-122.119,303.294-165.396c-7.458-95.942-34.06-165.676-79.15-207.422
								C1808.534,632.145,1807.533,631.767,1806.368,631.767z"/>
						</g>
						<g style="opacity:0.15;">
							<g>
								<path style="fill:#080808;" d="M1818.692,627.208c-59.528,60.183-85.44,151.665-66.316,234.127
									c2.22,9.571,4.745,20.555-1.059,28.482c-3.594,4.908-9.578,7.342-15.249,9.542c-48.067,18.651-96.134,37.302-144.2,55.954
									c34.056-107.174,89.739-207.426,162.725-292.978c8.719-10.22,17.872-20.393,29.395-27.297
									c11.523-6.905,25.916-10.189,38.586-5.724"/>
							</g>
						</g>
						<g>
							<path style="fill:#080808;" d="M1871.711,526.237"/>
						</g>
					</g>
				</g>
				<g>
					<g>
						<path style="fill:#FFAD40;" d="M2843.547,1714.216c-1.158,5.354-2.46,10.661-3.859,15.919
							c-32.128,124.266-113.219,209.361-136.857,233.095c-242.646,243.66-625.043,160.976-666.482,151.377l-302.319-49.832
							c-472.992-115.149-643.134-405.745-439.707-735.417c6.754-11.047,13.99-22.094,21.66-33.237
							C1801.566,279.9,3039.738,816.955,2843.547,1714.216z"/>
					</g>
					<g>
						<path style="fill:#EF7F25;" d="M2843.553,1714.21c-1.109,5.065-2.315,10.131-3.666,15.099
							c-15.678-18.138-36.18-32.755-58.274-40.907c-7.188-2.653-14.472-4.824-21.804-6.512c2.653-7.719,5.114-15.63,7.333-23.686
							c1.399-4.824,2.653-9.696,3.763-14.665c123.398-532.23-334.543-926.688-802.567-889.543
							C2465.545,676.184,2974.621,1114.781,2843.553,1714.21z"/>
					</g>
					<g style="opacity:0.6;">
						<path style="fill:#FFFFFF;" d="M2769.542,1151.289c-276.163-501.893-1083.448-629.731-1453.559,144.832
							c-7.669,11.144-14.905,22.191-21.66,33.237c-107.417,174.078-110.634,337.248-20.145,469.458
							c-62.82-123.79-50.008-270.565,45.932-426.042c6.754-11.047,13.99-22.094,21.66-33.237
							c130.488-273.084,315.322-433.966,512.06-505.864c-3.464,5.465-4.939,10.914-4.029,16.158
							c4.586,26.434,67.2,37.644,139.851,25.038c72.651-12.606,127.828-44.255,123.242-70.689
							c-1.053-6.069-5.196-11.323-11.784-15.683C2368.007,785.54,2624.778,924.986,2769.542,1151.289z"/>
					</g>
					<g>
						<path style="fill:#FFFFFF;" d="M2845,1735.435c-32.128,124.266-113.219,209.361-136.856,233.095
							c-242.646,243.66-625.044,160.976-666.482,151.377l-302.319-49.832c-182.347-44.381-319.637-114.811-407.868-203.572
							c-46.455-46.6-79.306-98.313-97.975-153.933c0,0,0,0-0.048-0.048c-38.013-112.978-17.607-242.116,66.185-377.863
							c54.318,23.927,107.72,54.994,246.023,88.376c51.182,12.349,140.281,30.729,222.627-10.661
							c18.379-9.214,19.441-12.88,35.553-21.418c102.703-54.318,237.437,0.145,256.684,9.214
							c141.729,66.716,199.81,265.512,351.572,303.429c60.541,15.147,123.928,0.386,184.952-12.639
							c53.546-11.481,110.131-21.467,162.761-9.069c7.333,1.688,14.617,3.859,21.804,6.512
							c22.094,8.153,42.596,22.769,58.274,40.907C2841.72,1731.287,2843.36,1733.361,2845,1735.435z"/>
					</g>
					<g>
						<path style="fill:#080808;" d="M1732.892,2069.501c-180.341-26.312-364.924-105.882-473.7-258.109
							c-118.799-167.773-70.504-369.102,39.714-526.995c117.367-251.495,329.893-481.539,622.915-544.408
							c433.332-94.216,875.137,202.816,951.604,639.654c20.62,112.441,15.689,228.794-8.776,340.06
							c-3.274,12.6-6.867,28.2-11.183,40.514c-57.64,177.445-210.296,314.952-388.594,364.385
							c-141.026,40.313-290.054,39.009-432.708,8.035c-9.968-2.256-16.223-12.164-13.969-22.134
							c2.261-10.056,12.344-16.302,22.34-13.925c215.782,44.249,468.809,21.214,634.834-136.206
							c65.128-61.184,115.614-139.589,140.52-225.478c41.756-163.107,35.166-340.248-29.379-496.445
							c-139.05-344.617-533.708-544.472-893.033-445.738c-256.556,68.103-448.25,278.094-558.821,512.358
							c-73.201,106.25-127.226,238.392-95.38,368.057c42.271,175.955,213.982,274.474,370.201,339.189
							c41.203,16.961,83.314,32.047,125.724,47.702c2.579,0.906,3.911,3.764,2.965,6.323
							C1737.352,2068.542,1735.125,2069.811,1732.892,2069.501L1732.892,2069.501z"/>
					</g>
					<g style="opacity:0.15;">
						<path style="fill:#080808;" d="M2839.887,1729.309c-0.048,0.289-0.096,0.531-0.193,0.82
							c-32.128,124.266-113.219,209.361-136.856,233.095c-242.646,243.66-625.044,160.977-666.482,151.377l-302.319-49.832
							c-178.632-43.464-314.09-112.013-402.562-198.266c-50.893-49.542-86.205-105.018-105.211-164.98
							c2.315,3.715,4.727,7.381,7.188,10.999c0.048,0.048,0.048,0.048,0.048,0.048c76.991,112.978,231.214,202.27,454.95,253.645
							l294.939,45.828c40.425,8.828,413.512,84.95,650.225-139.317c21.467-20.309,91.318-89.389,126.196-190.837
							c7.333,1.688,14.617,3.859,21.804,6.512C2803.707,1696.554,2824.209,1711.171,2839.887,1729.309z"/>
					</g>
					<g style="opacity:0.3;">
						<g>
							<path style="fill:#080808;" d="M1947.685,1527.968c-6.029,9.042-12.134,18.24-15.413,28.601
								c-3.279,10.362-3.41,22.231,2.16,31.563c6.275,10.512,18.537,15.987,30.541,18.394c32.083,6.436,67.238-5.9,88.266-30.971
								c-7.276,31.259-35.772,55.192-67.252,61.442c-31.48,6.25-64.804-3.515-91.064-21.967c-4.74-3.331-9.592-7.061-15.346-7.735
								c-5.533-0.648-10.922,1.647-16.206,3.413c-20.573,6.877-44.345,5.726-62.696-5.841c-18.35-11.567-29.931-34.276-25.696-55.55
								c8.457,17.311,28.359,28.283,47.511,26.192c19.153-2.091,36.219-17.097,40.742-35.825c1.217-5.041,1.607-10.292,3.349-15.177
								c1.742-4.885,5.236-9.567,10.258-10.861c3.942-1.015,8.076,0.204,11.963,1.415c16.006,4.985,32.013,9.969,48.02,14.954
								c3.343,1.041,7.026,2.358,8.618,5.477s-1.156,8.042-4.448,6.846"/>
						</g>
					</g>
					<g>
						<g>
							<path style="fill:#080808;" d="M1817.438,1417.193c-11.459,36.151,18.718,80.862,43.606,109.891
								c17.233,20.099,44.422,28.717,70.087,22.216c37.066-9.39,87.489-28.553,98.948-64.705
								C2048.692,1425.876,1836.05,1358.474,1817.438,1417.193z"/>
						</g>
						<g style="opacity:0.35;">
							<path style="fill:#FFFFFF;" d="M1871.9,1420.463c-2.12,6.688,10.917,17.322,21.252,24.508
								c7.156,4.976,17.215,8.164,25.93,8.219c12.587,0.079,29.37-1.103,31.49-7.79
								C1954.015,1434.537,1875.344,1409.601,1871.9,1420.463z"/>
						</g>
						<g>
							<path style="fill:#080808;" d="M1870.765,1619.565c-1.785-3.457-16.682-35.842,9.783-107.156
								c3.245-8.743,12.961-13.201,21.704-9.956c8.743,3.245,13.198,12.961,9.956,21.704
								c-20.945,56.433-11.279,80.215-11.179,80.449l-0.259-0.535L1870.765,1619.565z"/>
						</g>
						<g>
							<path style="fill:#080808;" d="M1775.85,1536.481c15.58,61.907,36.209,75.594,96.637,53.367
								c6.804-2.443,14.168-0.282,18.68,4.823c20.851,24.27,50.871,40.839,82.861,35.741c31.813-5.055,58.128-28.927,74.24-56.661
								c4.657-8.156,15.113-10.944,23.208-6.18c8.041,4.722,10.737,15.057,6.016,23.098c-10.327,17.615-23.622,33.904-40.177,46.957
								c-55.543,44.761-127.198,32.07-171.755-20.942c0,0.001,18.679,4.823,18.679,4.823
								c-46.575,18.451-102.492,15.418-117.452-41.441c-3.738-14.532-4.022-28.814-2.99-42.675c0.25-3.364,3.181-5.889,6.545-5.637
								C1773.088,1531.955,1775.259,1533.94,1775.85,1536.481L1775.85,1536.481z"/>
						</g>
						<g>
							<path style="fill:#080808;" d="M1976.876,1907.499c-18.259,0-36.684-4.783-54.854-14.25
								c-23.423-12.205-36.675-37.678-32.974-63.386c9.38-65.186,6.301-133.428-9.15-202.837
								c-1.572-7.063,1.528-14.343,7.712-18.098c6.179-3.762,14.072-3.162,19.619,1.494c11.033,9.255,29.111,20.476,52.571,21.362
								c34.775,1.372,69.336-21.191,88.093-57.351c2.656-5.12,7.742-8.528,13.486-9.04c5.784-0.532,11.357,1.943,14.875,6.509
								c20.671,26.824,54.565,82.395,49.292,153.218c-6.313,84.756-65.398,178.213-143.291,182.241
								C1980.465,1907.453,1978.671,1907.499,1976.876,1907.499z M1920.094,1657.245c9.829,60.5,10.64,120.027,2.378,177.427
								c-1.66,11.536,4.431,23.042,15.156,28.63c14.539,7.576,28.957,11.05,42.886,10.337
								c59.224-3.066,106.221-82.056,111.357-151.03c3.391-45.53-12.769-83.982-28.491-109.858
								c-26.267,34.133-65.249,54.25-104.856,52.778C1944.122,1664.985,1931.266,1661.76,1920.094,1657.245z"/>
						</g>
						<g>
							<path style="fill:#080808;" d="M1896.379,1623.357c15.727,70.64,19.255,140.309,9.381,208.912
								c-2.714,18.858,7.169,37.203,24.065,46.008c14.276,7.44,31.912,13.24,51.561,12.224
								c70.729-3.658,121.859-93.278,127.323-166.635c5.192-69.701-31.013-122.435-45.828-141.656
								c-21.755,41.93-62.105,68.023-103.718,66.449C1927.822,1647.472,1905.44,1630.959,1896.379,1623.357z"/>
						</g>
						<g>
							<path style="fill:#FF8080;" d="M2075.539,1803.866c-69.152,44.135-32.844,191.307-138.962,163.912
								c-41.377-10.685-59.675-52.349-60.074-96.369c-0.455-47.995,20.25-98.929,55.249-116.034
								c9.968-4.852,29.029-8.106,54.962,8.476c48.875-6.017,71.611,12.28,81.625,26.102
								C2073.912,1797.602,2075.539,1803.866,2075.539,1803.866z"/>
						</g>
						<g>
							<path style="fill:#F26666;" d="M2075.539,1803.866c-69.152,44.135-32.844,191.307-138.962,163.912
								c-41.377-10.685-59.675-52.349-60.074-96.369c0,0,23.915,64.58,65.118,61.799c51.05-3.404,50.442-37.002,75.96-94.821
								c10.232-23.106,31.744-41.766,50.757-48.434C2073.912,1797.602,2075.539,1803.866,2075.539,1803.866z"/>
						</g>
						<g>
							<path style="fill:#080808;" d="M1960.572,1984.345c-8.14,0-17.19-1.194-27.3-3.806
								c-38.923-10.051-64.114-44.136-69.111-93.518c-5.295-52.332,14.565-120.405,61.809-143.486
								c10.833-5.288,33.176-11.15,63.799,6.736c65.752-6.299,93.169,29.819,98.513,50.273c1.448,5.537-0.842,11.377-5.667,14.456
								c-24.338,15.52-34.104,48.401-43.55,80.203C2027.093,1935.51,2012.582,1984.345,1960.572,1984.345z M1949.737,1764.675
								c-5.833,0-9.922,1.453-12.188,2.559c-31.001,15.147-52.149,67.69-47.146,117.131c1.809,17.866,10.247,60.51,49.465,70.637
								c47.849,12.351,58.252-14.583,73.911-67.309c9.265-31.189,19.641-66.116,45.276-87.991
								c-6.938-10.752-25.41-28.291-70.713-22.744c-3.044,0.388-6.123-0.32-8.708-1.973
								C1967.042,1766.943,1957.027,1764.675,1949.737,1764.675z"/>
						</g>
						<g>
							<path style="fill:#080808;" d="M1941.196,1871.525c-0.957-36.56,7.381-87.058,42.38-111.116
								c9.04-5.624,25.885-16.317,31.891-1.734c2.232,6.223-1.474,13.122-7.879,14.731c-8.938,2.367-16.923,6.946-23.56,13.524
								c-21.804,22.448-28.13,56.719-30.18,87.204C1952.013,1882.389,1939.618,1879.896,1941.196,1871.525L1941.196,1871.525z"/>
						</g>
					</g>
				</g>
			</g>
			<g>
				<g>
					<path style="fill:#F9A429;" d="M2464.076,2328.47c-60.413,21.324-136.563,23.023-223.511,11.256
						c-69.144-123.816-39.522-261.578,30.552-358.583c159.663-5.195,276.936,62.232,332.855,234.767
						C2554.927,2237.619,2534.514,2303.782,2464.076,2328.47z"/>
				</g>
				<g style="opacity:0.6;">
					<path style="fill:#FFFFFF;" d="M2561.912,2248.887c12.787-13.774,25.861-25.806,42.06-32.977
						c-55.919-172.535-173.192-239.962-332.855-234.767c-12.004,16.618-22.784,34.454-32.121,53.188
						C2390.787,2030.21,2503.898,2092.354,2561.912,2248.887z"/>
				</g>
				<g>
					<path style="fill:#080808;" d="M2585.615,2221.86c-48.917-152.036-153.67-227.782-313.872-221.429
						c0.001-0.001,15.014-7.988,15.014-7.988c-70.95,96.422-90.13,232.062-29.345,337.875c-0.002,0-14.26-9.713-14.26-9.713
						c71.712,12.28,147.128,19.107,217.576-1.617c5.34-1.677,11.037,1.339,12.648,6.7c1.519,5.043-1.146,10.361-5.953,12.267
						c-36.477,14.34-75.35,20.956-113.92,23.492c-38.661,2.487-77.284,0.946-115.526-2.599c-6.042-0.56-11.096-4.081-13.864-8.997
						c-68.69-118.71-48.292-272.037,31.362-380.006c3.604-5.017,9.284-7.78,15.014-7.987c77.018-2.69,158.328,11.936,222.376,58.185
						c64.627,45.345,105.568,116.654,129.46,189.918C2629.589,2234.6,2594.19,2246.098,2585.615,2221.86L2585.615,2221.86z"/>
				</g>
				<g>
					<path style="fill:#FFFFFF;" d="M2323.086,2178.525c-2.749,32.465-11.48,65.896-29.619,97.782
						c-10.757,18.91-27.208,41.535-52.919,63.436c-2.798-0.241-5.597-0.482-8.346-0.772
						c-131.598-13.797-241.923-96.432-340.573-217.128c-18.428-23.397-21.467-48.192-13.7-68.935
						c12.494-33.864,53.595-57.068,102.944-46.262c-52.388-59.818-3.618-123.012,68.115-85.577
						c22.045-51.858,93.489-56.73,112.785,29.523c1.977-26.484,14.52-36.952,28.944-44.622c46.069-9.745,79.885,24.023,89.34,74.965
						c5.692,10.999,29.957,59.624,39.846,121.854C2323.666,2126.522,2325.354,2152.186,2323.086,2178.525z"/>
				</g>
				<g>
					<path style="fill:#080808;" d="M2170.055,2198.646c66.236-57.441,122.232-155.021,83.701-241.967
						c-11.562-23.806-32.898-38.042-59.094-32.063c0,0,5.009-1.822,5.009-1.822c-13.839,7.493-17.214,13.978-18.654,29.22
						c-0.925,10.777-10.55,18.734-21.312,17.574c-8.369-0.894-14.921-7.037-16.763-14.784c-2.783-11.805-6.848-23.03-12.681-32.009
						c-17.492-28.899-50.582-23.982-62.933,6.024c-4.156,10.064-15.684,14.853-25.748,10.696
						c-11.158-5.65-23.495-10.088-34.17-9.764c-39.397,1.411-32.639,42.067-11.525,64.125c12.412,14.179-1.256,36.285-19.244,32.058
						c-52.702-13.44-108.268,31.055-71.168,81.837c70.144,86.202,156.259,167.323,264.041,201.069
						c23.549,7.43,47.738,12.689,72.328,15.307c9.764,0.824,16.986,9.583,15.886,19.329c-1.041,9.396-9.385,16.216-18.74,15.481
						c-54.21-4.318-107.235-20.688-154.926-45.684c-71.588-37.471-131.208-91.539-183.831-151.427
						c-8.817-10.216-17.483-19.989-25.809-30.844c-58.56-81.274,22.286-164.295,110.591-143.178
						c0-0.001-18.657,31.557-18.657,31.557c-33.919-36.299-40.658-99.106,11.938-123c25.952-11.389,56.911-4.502,79.639,7.553
						c0,0-26.683,9.57-26.683,9.57c13.247-34.126,53.484-59.014,90.5-45.546c34.757,12.325,51.559,46.329,58.853,78.418
						c0,0-38.073,2.78-38.073,2.78c1.013-12.152,3.994-24.653,10.957-35.46c6.73-10.841,17.835-19.209,28.472-24.655
						c11.088-4.303,23.45-4.229,35.606-2.928c30.756,3.655,57.051,28.795,68.394,55.125c29.07,66.182,7.991,144.939-33.2,200.449
						c-20.149,27.417-46.004,50.13-75.15,67.368C2170.918,2212.957,2164.293,2203.7,2170.055,2198.646L2170.055,2198.646z"/>
				</g>
				<g>
					<path style="fill:#080808;" d="M2180.798,1953.812c-4.443,21.466-2.654,48.633,7.563,67.981
						c0.811,1.773,1.061,3.698,0.837,5.501c-3.06,28.306-17.381,57.018-40.383,73.768c-6.393,4.901-14.645-3.786-9.463-9.894
						c15.18-18.446,20.47-41.395,17.506-64.518c0,0,2.169,8.417,2.169,8.417c-15.909-27.647-19.416-56.623-16.281-87.696
						C2146.999,1921.134,2185.407,1927.56,2180.798,1953.812L2180.798,1953.812z"/>
				</g>
				<g>
					<path style="fill:#080808;" d="M2067.974,1924.624c-8.091,32.522-0.66,60.523,28.84,77.099
						c2.929,1.973,4.657,5.121,4.987,8.381c1.056,10.988,0.564,22.834-3.264,33.927c-2.763,9.234-19.49,37.683-29.483,26.385
						c-2.206-2.667-2.229-6.422-0.287-9.093c9.86-14.046,9.622-29.507,3.435-44.819c-0.007-0.004,7.474,10.059,7.443,10.035
						c-19.003-9.426-36.126-25.953-44.107-46.309c-8.242-20.065-8.574-42.085-5.485-62.763
						C2034.866,1891.413,2072.979,1898.538,2067.974,1924.624L2067.974,1924.624z"/>
				</g>
				<g>
					
						<path style="fill:none;stroke:#080808;stroke-width:38.5919;stroke-linecap:round;stroke-linejoin:round;stroke-miterlimit:10;" d="
						M1980.873,2006.67"/>
				</g>
				<g>
					
						<path style="fill:none;stroke:#080808;stroke-width:38.5919;stroke-linecap:round;stroke-linejoin:round;stroke-miterlimit:10;" d="
						M1912.459,2014.665"/>
				</g>
				<g>
					<path style="fill:#080808;" d="M1996.874,1995.886l27.083,61.545c3.404,7.474-6.64,14.131-12.199,8.222
						c0,0-46.886-48.199-46.886-48.199C1944.883,1994.126,1982.737,1968.593,1996.874,1995.886L1996.874,1995.886z"/>
				</g>
				<g style="opacity:0.15;">
					<g>
						<path style="fill:#080808;" d="M2321.486,2176.937c-4.202,37.171-16.67,73.368-37.306,104.206
							c-14.498,21.679-32.349,40.532-51.663,57.827c-128.826-13.933-236.828-97.386-333.4-219.276
							c-18.04-23.628-21.014-48.668-13.412-69.617c1.228-1.705,2.55-3.362,3.92-4.969c18.748-22.118,48.735-35.71,76.408-28.5
							c-17.283-3.849-34.331,11.595-38.44,29.279c-4.109,17.684,1.605,36.246,9.303,52.615
							c25.123,53.345,73.669,95.096,129.818,107.762c38.063,8.574,79.005,3.118,113.715-14.712
							c10.908-5.603,21.204-12.423,30.601-20.364c4.864-4.141,9.492-8.574,13.836-13.3c30.507-33.273,45.949-77.948,60.589-121.208
							l20.618-2.573c10.531,19.78,7.952,44.275,12.297,66.344C2323.376,2125.541,2324.367,2151.458,2321.486,2176.937z"/>
					</g>
				</g>
				<g style="opacity:0.2;">
					<g>
						<path style="fill:#080808;" d="M2322.008,2162.396c17.128,28.078,49.796,43.882,82.436,47.922
							c36.108,4.469,72.641-3.612,107.864-11.921c6.671-1.573,13.81-1.027,19.816,2.275c14.959,8.223,11.192,25.298,6.795,38.896
							c-8.896,27.514-18.62,56.347-40.029,75.784c-30.16,27.382-74.957,29.011-115.692,29.145l-110.565,0.364
							c-4.397,0.014-8.623-1.237-12.701-2.882c-6.317-2.547-19.261-0.748-17.479-6.642c1.913-6.326,13.01-18.098,17.195-23.213
							c30.024-36.694,50.683-79.17,60.544-125.545"/>
					</g>
				</g>
			</g>
		</g>
		<g>
			<g>
				<path style="fill:#FC4F8B;" d="M1410.019,1578.528c-361.12-322.074-94.031-765.824,139.107-428.719
					c321.488-240.72,522.876,274.586-87.108,441.208C1443.731,1596.013,1424.167,1591.147,1410.019,1578.528z"/>
			</g>
			<g style="opacity:0.15;">
				<path style="fill:#080808;" d="M1462.019,1496.196c-18.288,4.996-37.851,0.13-52-12.489
					c-108.468-96.74-160.205-204.438-173.263-298.676c-16.769,110.603,26.003,262.159,173.263,393.497
					c14.149,12.619,33.712,17.485,52,12.489c326.05-89.063,420.259-277.739,388.24-397.339
					C1824.322,1302.597,1710.491,1428.324,1462.019,1496.196z"/>
			</g>
			<g style="opacity:0.6;">
				<path style="fill:#FFFFFF;" d="M1297.24,1199.777c-11.387,9.764-28.66-0.237-25.667-14.936
					c8.423-41.368,29.113-95.828,79.925-110.034c61.297-17.137,110.682,29.948,139.544,70.484
					c8.62,12.107-3.027,28.138-17.312,24.034C1429.498,1156.615,1357.308,1148.266,1297.24,1199.777z"/>
			</g>
			<g>
				<path style="fill:#080808;" d="M1447.467,1607.446c-17.073,0-33.821-6.292-47.08-18.118h-0.003
					c-175.264-156.313-201.035-336.601-169.851-443.496c20.913-71.684,67.771-120.051,125.349-129.377
					c38.496-6.245,114.18,0.73,196.575,113.083c87.519-61.147,174.556-74.216,240.483-35.605
					c56.592,33.145,85.635,99.915,75.796,174.25c-7.302,55.186-57.944,242.566-402.905,336.794
					C1459.767,1606.635,1453.595,1607.446,1447.467,1607.446z M1419.65,1567.726c10.679,9.521,25.085,13.013,38.555,9.331
					c327.754-89.529,375.127-261.958,381.838-312.673c8.284-62.581-15.369-118.323-61.729-145.476
					c-58.408-34.211-138.772-18.716-220.513,42.485l-12.029,9.006l-8.547-12.358c-56.804-82.139-119.548-122.275-176.714-113.015
					c-46.282,7.497-84.485,48.21-102.193,108.911C1229.498,1252.734,1254.481,1420.397,1419.65,1567.726L1419.65,1567.726z"/>
			</g>
		</g>
		<g>
			<g>
				<path style="fill:#FC4F8B;" d="M2291.815,1764.855c-354.375-354.569-51.77-797.674,169.342-435.159
					c346.812-229.881,524.499,315.06-116.301,451.166C2325.644,1784.942,2305.699,1778.747,2291.815,1764.855z"/>
			</g>
			<g style="opacity:0.15;">
				<path style="fill:#080808;" d="M2350.488,1682.788c-19.212,4.081-39.157-2.114-53.042-16.006
					c-106.442-106.5-153.557-220.965-161.466-319.21c-23.913,113.4,11.323,272.694,155.834,417.284
					c13.884,13.892,33.829,20.087,53.042,16.006c342.522-72.751,451.169-262.303,425.155-387.906
					C2736.716,1504.069,2611.514,1627.346,2350.488,1682.788z"/>
			</g>
			<g style="opacity:0.6;">
				<path style="fill:#FFFFFF;" d="M2197.664,1366.416c-12.357,9.423-29.629-1.948-25.66-16.972
					c11.169-42.287,35.803-97.386,89.202-109.06c64.417-14.084,112.699,37.549,140.144,81.189
					c8.197,13.034-4.802,28.923-19.333,23.83C2337.022,1329.63,2262.852,1316.706,2197.664,1366.416z"/>
			</g>
			<g>
				<path style="fill:#080808;" d="M2332.955,1797.106c-19.126,0-37.722-7.622-51.746-21.653l0,0
					c-171.99-172.083-187.937-360.088-149.333-468.796c25.886-72.9,77.227-120.139,137.332-126.367
					c40.176-4.17,118.054,7.539,196.599,128.638c94.15-58.049,184.951-66.394,250.845-22.544
					c56.565,37.644,82.639,108.428,68.047,184.729c-10.833,56.643-74.341,247.444-436.726,324.414
					C2342.979,1796.589,2337.948,1797.106,2332.955,1797.106z M2302.42,1754.257c10.471,10.479,25.161,14.946,39.321,11.938
					c344.309-73.132,403.55-248.66,413.503-300.715c12.285-64.236-8.87-123.296-55.205-154.133
					c-58.374-38.845-142.422-27.605-230.598,30.847l-12.976,8.601l-8.108-13.291c-53.877-88.332-116.414-133.574-176.06-127.388
					c-48.315,5.005-90.247,44.846-112.166,106.575C2124.454,1417.165,2140.335,1592.065,2302.42,1754.257L2302.42,1754.257z"/>
			</g>
		</g>
	</g>
</g>
</svg>
