<?xml version="1.0" encoding="utf-8"?>
<!-- Generator: Adobe Illustrator 27.5.0, SVG Export Plug-In . SVG Version: 6.00 Build 0)  -->
<svg version="1.1" id="Layer_1" xmlns="http://www.w3.org/2000/svg" xmlns:xlink="http://www.w3.org/1999/xlink" x="0px" y="0px"
	 viewBox="0 0 4000 4000" style="enable-background:new 0 0 4000 4000;" xml:space="preserve">
<g>
	<g>
		<rect style="fill:#00000000;" width="4000" height="4000"/>
	</g>
	<g>
		<g>
			<path style="fill:#FFFFFF;" d="M2838.147,3115.977c0,5.231-10.725,9.794-26.743,12.306c-8.087,1.268-14.457,7.638-15.726,15.725
				c-2.512,16.019-7.074,26.743-12.306,26.743c-5.232,0-9.794-10.725-12.306-26.743c-1.268-8.088-7.639-14.458-15.727-15.726
				c-16.031-2.512-26.781-7.075-26.781-12.306c0-5.261,10.742-9.829,26.761-12.324c8.098-1.261,14.48-7.635,15.748-15.732
				c2.512-16.036,7.074-26.759,12.306-26.759c5.231,0,9.793,10.723,12.305,26.76c1.268,8.096,7.649,14.47,15.746,15.732
				C2827.431,3106.148,2838.147,3110.716,2838.147,3115.977z"/>
		</g>
		<g>
			<path style="fill:#FFFFFF;" d="M3060.292,1741.682c-1.108,5.011-12.347,7.11-28.222,6.123
				c-8.015-0.498-15.465,4.254-18.393,11.732c-5.799,14.811-12.44,24.117-17.451,23.01s-7.11-12.346-6.124-28.221
				c0.498-8.016-4.255-15.467-11.734-18.394c-14.823-5.801-24.154-12.448-23.046-17.46c1.114-5.039,12.371-7.14,28.243-6.136
				c8.024,0.507,15.487-4.247,18.416-11.734c5.802-14.828,12.443-24.132,17.454-23.024c5.01,1.108,7.11,12.345,6.119,28.238
				c-0.5,8.024,4.262,15.48,11.751,18.404C3052.11,1729.999,3061.406,1736.644,3060.292,1741.682z"/>
		</g>
		<g>
			<path style="fill:#FFFFFF;" d="M3299.294,2883.082c-1.108,5.011-12.347,7.11-28.222,6.124
				c-8.015-0.498-15.465,4.254-18.393,11.732c-5.798,14.811-12.44,24.117-17.451,23.01c-5.011-1.108-7.11-12.347-6.124-28.221
				c0.498-8.016-4.255-15.467-11.734-18.394c-14.823-5.801-24.154-12.449-23.046-17.46c1.114-5.039,12.37-7.14,28.243-6.136
				c8.024,0.507,15.486-4.247,18.416-11.734c5.802-14.828,12.443-24.132,17.454-23.025c5.01,1.108,7.11,12.345,6.12,28.238
				c-0.5,8.024,4.262,15.48,11.75,18.404C3291.112,2871.399,3300.408,2878.043,3299.294,2883.082z"/>
		</g>
		<g>
			<path style="fill:#FFFFFF;" d="M2068.291,647.101c0,6.045-12.393,11.317-30.902,14.22c-9.345,1.465-16.705,8.826-18.171,18.171
				c-2.902,18.509-8.175,30.902-14.22,30.902c-6.045,0-11.317-12.392-14.22-30.901c-1.466-9.346-8.827-16.707-18.173-18.171
				c-18.524-2.902-30.946-8.175-30.946-14.22c0-6.079,12.412-11.358,30.923-14.24c9.358-1.457,16.732-8.823,18.197-18.179
				c2.903-18.53,8.174-30.92,14.219-30.92c6.045,0,11.317,12.391,14.219,30.921c1.466,9.356,8.838,16.72,18.195,18.179
				C2055.909,635.744,2068.291,641.023,2068.291,647.101z"/>
		</g>
		<g>
			<path style="fill:#FFFFFF;" d="M1553.776,472.06c0,6.045-12.393,11.317-30.902,14.22c-9.345,1.465-16.706,8.826-18.171,18.171
				c-2.903,18.51-8.175,30.902-14.22,30.902c-6.045,0-11.317-12.392-14.22-30.901c-1.466-9.346-8.827-16.707-18.173-18.171
				c-18.524-2.902-30.946-8.175-30.946-14.22c0-6.079,12.412-11.358,30.923-14.24c9.358-1.457,16.731-8.823,18.197-18.179
				c2.903-18.529,8.174-30.92,14.219-30.92c6.045,0,11.317,12.391,14.219,30.921c1.465,9.355,8.838,16.72,18.195,18.179
				C1541.394,460.703,1553.776,465.981,1553.776,472.06z"/>
		</g>
		<g>
			
				<ellipse transform="matrix(0.7071 -0.7071 0.7071 0.7071 -48.0273 2712.1062)" style="fill:#FFFFFF;" cx="3249.788" cy="1414.027" rx="17.754" ry="17.754"/>
		</g>
		<g>
			<path style="fill:#FFFFFF;" d="M3135.448,2527.406c-7.094,5.786-17.535,4.726-23.321-2.368
				c-5.786-7.094-4.726-17.535,2.368-23.321c7.094-5.786,17.535-4.726,23.321,2.368S3142.542,2521.62,3135.448,2527.406z"/>
		</g>
		<g>
			<path style="fill:#FFFFFF;" d="M2875.538,2861.576c-7.094,5.786-17.535,4.726-23.321-2.368s-4.726-17.535,2.368-23.321
				c7.094-5.786,17.535-4.726,23.321,2.368S2882.632,2855.79,2875.538,2861.576z"/>
		</g>
		<g>
			
				<ellipse transform="matrix(0.6906 -0.7232 0.7232 0.6906 -640.6332 2942.0837)" style="fill:#FFFFFF;" cx="3118.33" cy="2219.801" rx="21.052" ry="21.052"/>
		</g>
		<g>
			
				<ellipse transform="matrix(0.6242 -0.7813 0.7813 0.6242 -648.335 917.0982)" style="fill:#FFFFFF;" cx="629.116" cy="1132.465" rx="25.065" ry="25.065"/>
		</g>
		<g>
			
				<ellipse transform="matrix(0.1602 -0.9871 0.9871 0.1602 1368.3031 3128.552)" style="fill:#FFFFFF;" cx="2522.738" cy="760.152" rx="17.754" ry="17.754"/>
		</g>
		<g>
			
				<ellipse transform="matrix(0.4133 -0.9106 0.9106 0.4133 -131.6445 1171.7083)" style="fill:#FFFFFF;" cx="843.452" cy="688.014" rx="25.065" ry="25.065"/>
		</g>
		<g>
			
				<ellipse transform="matrix(0.1602 -0.9871 0.9871 0.1602 -2361.4744 3246.4294)" style="fill:#FFFFFF;" cx="727.123" cy="3011.005" rx="19.942" ry="19.942"/>
		</g>
		<g>
			<circle style="fill:#FFFFFF;" cx="3267.037" cy="1823.953" r="9.131"/>
		</g>
		<g>
			<circle style="fill:#FFFFFF;" cx="3436.774" cy="1924.735" r="9.131"/>
		</g>
		<g>
			<path style="fill:#FFFFFF;" d="M3364.988,2361.071c-4.634,3.779-11.454,3.087-15.233-1.547
				c-3.78-4.634-3.087-11.454,1.547-15.233c4.634-3.78,11.454-3.087,15.233,1.546
				C3370.314,2350.471,3369.622,2357.291,3364.988,2361.071z"/>
		</g>
		<g>
			
				<ellipse transform="matrix(0.8812 -0.4728 0.4728 0.8812 -214.9312 686.4509)" style="fill:#FFFFFF;" cx="1258.225" cy="770.83" rx="12.89" ry="12.89"/>
		</g>
		<g>
			
				<ellipse transform="matrix(0.2152 -0.9766 0.9766 0.2152 371.5571 2226.7725)" style="fill:#FFFFFF;" cx="1571.178" cy="882.22" rx="12.89" ry="12.89"/>
		</g>
		<g>
			
				<ellipse transform="matrix(0.1334 -0.9911 0.9911 0.1334 -752.7529 2075.4006)" style="fill:#FFFFFF;" cx="810.412" cy="1468.151" rx="12.89" ry="12.89"/>
		</g>
		<g>
			<path style="fill:#FFFFFF;" d="M830.924,2536.814c-0.011,5.664-4.611,10.247-10.275,10.237
				c-5.664-0.011-10.247-4.611-10.236-10.275c0.011-5.664,4.611-10.247,10.275-10.237
				C826.351,2526.549,830.934,2531.15,830.924,2536.814z"/>
		</g>
		<g>
			
				<ellipse transform="matrix(0.3576 -0.9339 0.9339 0.3576 -1786.2344 2123.1602)" style="fill:#FFFFFF;" cx="650.113" cy="2359.914" rx="20.808" ry="20.808"/>
		</g>
		<g>
			<path style="fill:#FFFFFF;" d="M1247.59,1784.676c0,5.231-10.725,9.794-26.743,12.306c-8.087,1.268-14.457,7.638-15.725,15.725
				c-2.512,16.019-7.075,26.743-12.306,26.743s-9.794-10.724-12.306-26.742c-1.268-8.088-7.639-14.458-15.727-15.726
				c-16.031-2.512-26.782-7.075-26.782-12.307c0-5.261,10.742-9.829,26.761-12.324c8.098-1.261,14.48-7.635,15.748-15.732
				c2.512-16.036,7.074-26.759,12.305-26.759s9.794,10.723,12.306,26.76c1.268,8.096,7.649,14.47,15.746,15.732
				C1236.874,1774.848,1247.59,1779.416,1247.59,1784.676z"/>
		</g>
		<g>
			<path style="fill:#FFFFFF;" d="M489.078,1715.72c0,5.231-10.725,9.794-26.743,12.306c-8.087,1.268-14.457,7.638-15.725,15.725
				c-2.512,16.019-7.075,26.743-12.306,26.743c-5.232,0-9.794-10.724-12.306-26.742c-1.268-8.088-7.639-14.458-15.727-15.726
				c-16.031-2.512-26.782-7.075-26.782-12.307c0-5.261,10.742-9.829,26.761-12.324c8.098-1.261,14.48-7.635,15.748-15.732
				c2.512-16.036,7.074-26.759,12.306-26.759c5.231,0,9.793,10.723,12.306,26.76c1.268,8.096,7.649,14.47,15.746,15.732
				C478.362,1705.892,489.078,1710.46,489.078,1715.72z"/>
		</g>
		<g>
			<path style="fill:#FFFFFF;" d="M1332.458,1396.293c0,5.231-10.725,9.794-26.743,12.306c-8.087,1.268-14.457,7.638-15.725,15.725
				c-2.512,16.018-7.075,26.743-12.306,26.743s-9.794-10.724-12.306-26.743c-1.268-8.088-7.639-14.458-15.727-15.726
				c-16.031-2.512-26.781-7.075-26.781-12.306c0-5.261,10.742-9.829,26.761-12.324c8.098-1.261,14.48-7.635,15.748-15.733
				c2.512-16.036,7.074-26.759,12.305-26.759c5.231,0,9.794,10.723,12.306,26.76c1.268,8.096,7.649,14.47,15.746,15.732
				C1321.743,1386.465,1332.458,1391.033,1332.458,1396.293z"/>
		</g>
		<g>
			
				<ellipse transform="matrix(0.2298 -0.9732 0.9732 0.2298 -1319.0623 2272.6567)" style="fill:#FFFFFF;" cx="776.281" cy="1969.681" rx="19.942" ry="19.942"/>
		</g>
		<g>
			
				<ellipse transform="matrix(0.7071 -0.7071 0.7071 0.7071 -398.3326 1205.1833)" style="fill:#FFFFFF;" cx="1255.619" cy="1083.422" rx="10.256" ry="10.256"/>
		</g>
		<g>
			
				<ellipse transform="matrix(0.7766 -0.63 0.63 0.7766 -387.6455 794.0834)" style="fill:#FFFFFF;" cx="925.935" cy="943.671" rx="20.808" ry="20.808"/>
		</g>
		<g>
			<g>
				<g>
					<g>
						<g>
							<g>
								<g>
									<path style="fill:#E81818;" d="M1660.518,3088.585c0,0,120.36,147.251-180.959,380.033
										c-14.157,10.937-34.764,6.184-42.586-9.905c-42.009-86.406-144.802-333.933,8.11-420.087L1660.518,3088.585z"/>
								</g>
								<g>
									<path style="fill:#E7A900;" d="M1629.523,3080.728c0,0,85.412,104.495-129.127,269.607
										c-9.392,7.229-23.07,4.061-28.278-6.585c-29.271-59.84-103.824-236.982,5.085-298.344L1629.523,3080.728z"/>
								</g>
								<g>
									<path style="fill:#FFFD01;" d="M1606.548,3066.879c0,0,57.633,70.509-87.129,181.919
										c-6.338,4.877-15.567,2.74-19.081-4.444c-19.751-40.378-70.056-159.906,3.431-201.31L1606.548,3066.879z"/>
								</g>
								<g>
									<path style="fill:#080808;" d="M1462.324,3490.947c-3.408,0-6.841-0.396-10.237-1.191
										c-13.098-3.066-23.984-11.768-29.868-23.872c-21.111-43.423-58.345-129.092-70.53-215.005
										c-15.332-108.11,14.177-186.45,85.342-226.543c3.569-2.012,7.759-2.613,11.758-1.689l215.435,49.956
										c3.535,0.82,6.699,2.788,8.997,5.6c1.406,1.719,34.348,42.964,26.123,114.864
										c-10.53,92.065-81.101,189.146-209.756,288.535C1481.66,3487.725,1472.095,3490.947,1462.324,3490.947z M1447.774,3056.094
										c-134.119,83.218-31.206,323.13,3.953,395.444c2.119,4.355,5.825,5.801,7.847,6.274c2.051,0.479,6.06,0.83,9.956-2.178
										c150.305-116.118,190.122-208.169,197.058-264.941c5.73-46.914-9.292-76.934-15.923-87.554L1447.774,3056.094z"/>
								</g>
							</g>
							<g>
								<path style="fill:#E2E8E8;" d="M1495.899,2907.096c-50.819,42.945-66.396,105.704-66.396,105.704
									s38.9,37.045,133.639,60.561c94.74,23.516,146.447,8.96,146.447,8.96s15.578-62.759-9.261-124.483"/>
							</g>
							<g>
								<path style="fill:#080808;" d="M1663.572,3103.169c-25.662,0-60.728-3.052-104.382-13.887
									c-97.832-24.282-139.285-62.969-141.001-64.604c-4.27-4.067-6.028-10.112-4.607-15.83
									c0.686-2.773,17.481-68.438,71.729-114.282c6.912-5.844,17.268-4.98,23.118,1.939c5.85,6.924,4.981,17.271-1.941,23.12
									c-34.546,29.195-51.594,69.116-57.984,87.354c15.01,10.874,52.642,34.092,118.591,50.459
									c65.906,16.362,110.015,13.438,128.423,10.85c2.876-19.092,6.479-62.358-10.41-104.326
									c-3.381-8.403,0.691-17.959,9.094-21.343c8.403-3.369,17.964,0.688,21.345,9.097
									c26.514,65.889,10.652,131.782,9.966,134.555c-1.421,5.723-5.803,10.244-11.477,11.841
									C1712.771,3098.467,1695.415,3103.169,1663.572,3103.169z"/>
							</g>
							<g>
								<path style="fill:#E81818;" d="M1429.204,2850.892c-2.559,111.938,123.215,139.854,152.62,147.152
									c29.405,7.299,153.634,41.437,203.758-58.695c50.635-101.276,129.348-570.23-37.38-611.614
									S1431.762,2737.683,1429.204,2850.892z"/>
							</g>
							<g>
								<g style="opacity:0.3;">
									<path style="fill:#000072;" d="M1471.425,2860.338c-2.028,88.285,75.733,124.281,123.146,139.153
										c-11.071-18.09-17.944-40.101-17.291-67.002c2.16-97.669,113.889-446.968,251.581-514.477
										c-13.049-39.169-33.124-68.968-62.27-83.473C1609.675,2338.297,1473.837,2752.574,1471.425,2860.338z"/>
								</g>
							</g>
							<g>
								<path style="fill:#080808;" d="M1660.713,3025.566c-23.235,0.005-49.873-3.335-80.432-11.001l-4.81-1.191
									c-136.755-33.569-163.943-107.09-162.668-162.856c2.227-98.442,104.426-413.413,231.221-510.293
									c36.216-27.676,72.595-37.222,108.132-28.413c35.525,8.819,63.208,34.268,82.278,75.64
									c66.775,144.858,9.873,471.123-34.18,559.233C1780.872,2985.41,1741.318,3025.566,1660.713,3025.566z M1726.326,2341.44
									c-20.049,0-40.615,8.223-62.383,24.854c-117.446,89.736-216.277,393.716-218.337,484.971c0,0,0,0,0,0.005
									c-1.477,64.536,43.562,107.134,137.686,130.24l4.973,1.235c94.004,23.589,153.75,6.992,182.646-50.737
									c40.83-81.665,95.579-396.646,33.728-530.821c-14.9-32.324-34.653-51.142-60.388-57.529
									C1738.311,2342.183,1732.342,2341.44,1726.326,2341.44z M1429.204,2850.894h0.049H1429.204z"/>
							</g>
							<g>
								<path style="fill:#080808;" d="M1791.86,2788.525c-117.549,0-231.855-32.139-332.847-93.916
									c-7.729-4.727-10.163-14.824-5.437-22.554c4.729-7.729,14.824-10.166,22.554-5.435
									c106.758,65.298,229.231,95.718,354.094,87.896c9.402-0.689,17.436,6.968,17.436,16.372c0,8.789-6.907,15.967-15.593,16.387
									C1818.633,2788.11,1805.227,2788.525,1791.86,2788.525z"/>
							</g>
						</g>
					</g>
					<g>
						<g>
							<g>
								<g>
									<path style="fill:#E81818;" d="M2199.797,3179.02c0,0,135.13,133.825-140.131,396.906
										c-12.933,12.36-33.925,9.793-43.39-5.387c-50.834-81.527-179.004-316.917-35.964-418.623L2199.797,3179.02z"/>
								</g>
								<g>
									<path style="fill:#E7A900;" d="M2168.149,3174.455c0,0,95.894,94.968-100.158,281.656
										c-8.583,8.173-22.518,6.457-28.813-3.585c-35.382-56.443-128.09-224.795-26.212-297.234L2168.149,3174.455z"/>
								</g>
								<g>
									<path style="fill:#FFFD01;" d="M2143.85,3163.09c0,0,64.706,64.08-67.582,190.05c-5.791,5.515-15.194,4.356-19.441-2.419
										c-23.874-38.085-86.43-151.682-17.687-200.561L2143.85,3163.09z"/>
								</g>
								<g>
									<path style="fill:#080808;" d="M2040.191,3600.181c-1.87,0-3.75-0.117-5.632-0.352c-13.345-1.68-25.083-9.194-32.202-20.61
										c-25.544-40.967-71.553-122.261-92.676-206.431c-26.58-105.908-5.442-186.909,61.125-234.243
										c3.342-2.373,7.444-3.408,11.519-2.91l219.485,27.104c3.601,0.444,6.953,2.07,9.531,4.624
										c1.58,1.563,38.662,39.126,38.02,111.499c-0.825,92.661-60.833,196.597-178.359,308.926
										C2062.603,3595.811,2051.612,3600.181,2040.191,3600.181z M1984.817,3168.999
										c-124.663,96.831,2.834,324.629,45.381,392.857c2.561,4.111,6.399,5.161,8.459,5.42c2.08,0.264,6.113,0.195,9.675-3.208
										c138.11-131.997,167.708-228.115,168.218-285.498c0.41-45.972-17.593-74.282-25.09-84.053L1984.817,3168.999z"/>
								</g>
							</g>
							<g>
								<path style="fill:#E2E8E8;" d="M2017.063,3015.785c-46.038,48.034-54.952,112.081-54.952,112.081
									s42.568,32.764,139.251,46.22c96.682,13.456,146.58-6.438,146.58-6.438s8.914-64.046-22.258-122.827"/>
							</g>
							<g>
								<path style="fill:#080808;" d="M2165.586,3195.156c-19.138,0-41.319-1.318-66.484-4.819
									c-99.839-13.897-145.12-48.022-146.997-49.473c-4.673-3.594-7.056-9.419-6.243-15.259
									c0.393-2.832,10.212-69.897,59.358-121.172c6.274-6.538,16.653-6.763,23.196-0.488c6.541,6.265,6.76,16.65,0.491,23.193
									c-31.296,32.651-44.067,74.141-48.508,92.949c16.067,9.238,55.923,28.384,123.225,37.749
									c67.266,9.38,110.823,1.851,128.852-2.671c0.862-19.287-0.09-62.69-21.284-102.661c-4.246-8.003-1.199-17.935,6.807-22.178
									c8.005-4.248,17.937-1.196,22.177,6.807c33.277,62.754,24.409,129.946,24.014,132.773
									c-0.813,5.84-4.695,10.796-10.171,12.979C2252.371,3183.54,2222.373,3195.156,2165.586,3195.156z"/>
							</g>
							<g>
								<path style="fill:#E81818;" d="M1944.844,2966.88c9.188,111.59,137.194,126.169,167.202,130.346
									s157.131,25.106,196.484-79.728c39.741-106.025,68.87-580.646-101.277-604.327
									C2037.107,2389.49,1935.523,2854.026,1944.844,2966.88z"/>
							</g>
							<g>
								<g style="opacity:0.3;">
									<path style="fill:#000072;" d="M1987.823,2971.849c7.236,88.011,88.342,115.659,137.052,125.479
										c-12.906-16.83-22.048-38-24.218-64.82c-8.088-97.358,66.415-456.443,196.273-538.011
										c-17.082-37.585-40.17-65.116-70.676-76.487C2070.596,2438.193,1978.927,2864.426,1987.823,2971.849z"/>
								</g>
							</g>
							<g>
								<path style="fill:#080808;" d="M2164.788,3117.773c-15.977,0-33.44-1.245-52.534-3.95l-4.924-0.684
									c-139.517-19.058-174.258-89.321-178.836-144.912c-8.105-98.135,60.52-422.08,176.463-531.719
									c33.113-31.319,68.284-44.634,104.558-39.59c36.255,5.049,66.453,27.456,89.756,66.602
									c81.589,137.061,59.197,467.495,24.622,559.736C2306.973,3068.33,2265.454,3117.773,2164.788,3117.773z M2194.607,2428.691
									c-22.603,0-44.658,10.425-67.109,31.655c-107.393,101.558-173.818,414.219-166.304,505.181c0,0.005,0,0.005,0,0.005
									c5.295,64.336,54.548,101.983,150.574,115.098l5.088,0.708c95.957,13.598,153.63-9.175,176.316-69.604
									c32.046-85.493,53.482-404.473-22.094-531.431c-18.206-30.586-39.824-47.231-66.084-50.884
									C2201.516,2428.936,2198.054,2428.691,2194.607,2428.691z"/>
							</g>
							<g>
								<path style="fill:#080808;" d="M2231.865,2870.381c-94.255,0-187.322-20.933-273.757-62.046
									c-8.181-3.892-11.66-13.677-7.769-21.86s13.672-11.665,21.86-7.769c112.949,53.726,237.834,71.118,361.162,50.332
									c8.218-1.499,16.372,3.447,18.708,11.635c2.49,8.711-2.546,17.788-11.258,20.274c-0.583,0.171-1.194,0.308-1.792,0.41
									C2303.328,2867.388,2267.512,2870.381,2231.865,2870.381z"/>
							</g>
						</g>
					</g>
					<g>
						<g>
							<path style="fill:#E81818;" d="M1485.601,1932.749c-1.751,10.238-3.555,20.421-5.304,30.659
								c-21.376,123.695-42.7,247.445-64.023,371.14c-102.744-15.965-198.115-45.723-284.628-91.923
								c-18.088-9.654-21.641-34.001-7.107-48.481c8.593-8.593,17.557-17.292,26.893-26.097
								c35.698-33.735,76.594-68.903,123.006-103.804c32.515-24.453,64.446-46.201,95.212-65.614
								c8.541-5.41,16.974-10.609,25.355-15.647C1426.829,1963.779,1457.223,1947.177,1485.601,1932.749z"/>
						</g>
						<g style="opacity:0.6;">
							<g>
								<path style="fill:#FFFFFF;" d="M1149.253,2215.592c8.593-8.593,17.557-17.292,26.893-26.097
									c35.698-33.735,76.594-68.902,123.006-103.804c32.515-24.453,64.447-46.201,95.212-65.614
									c8.541-5.41,16.974-10.609,25.355-15.647c20.448-12.337,40.221-23.494,59.333-33.797c0.416-2.407,0.83-4.816,1.246-7.224
									c1.75-10.238,3.553-20.421,5.304-30.659c-28.378,14.428-58.772,31.03-90.598,50.232
									c-8.381,5.039-16.814,10.237-25.355,15.647c-30.765,19.413-62.696,41.161-95.212,65.614
									c-46.412,34.902-87.308,70.069-123.006,103.804c-9.336,8.805-18.3,17.504-26.893,26.097
									c-14.534,14.48-10.98,38.827,7.107,48.481c3.521,1.88,7.08,3.69,10.631,5.516
									C1138.182,2237.412,1140.216,2224.596,1149.253,2215.592z"/>
							</g>
						</g>
						<g>
							<path style="fill:#080808;" d="M1416.27,2350.947c-0.837,0-1.682-0.063-2.534-0.195
								c-107.009-16.602-204.524-48.115-289.839-93.667c-13.23-7.066-22.073-19.624-24.26-34.453
								c-2.195-14.873,2.666-29.497,13.335-40.122c47.275-47.095,98.293-91.289,151.633-131.362
								c66.99-50.325,138.853-95.076,213.589-133.01c5.53-2.803,12.178-2.251,17.168,1.433c4.993,3.684,7.478,9.873,6.421,15.986
								l-69.368,401.777C1431.04,2345.302,1424.116,2350.947,1416.27,2350.947z M1463.806,1962.671
								c-62.554,33.625-122.81,72.129-179.495,114.707c-52.126,39.16-101.985,82.354-148.186,128.374
								c-3.223,3.213-4.69,7.617-4.031,12.09c0.654,4.434,3.298,8.188,7.256,10.298c77.82,41.553,166.396,70.991,263.499,87.598
								L1463.806,1962.671z"/>
						</g>
						<g style="opacity:0.3;">
							<g>
								<path style="fill:#080808;" d="M1480.297,1963.408c-21.376,123.695-42.7,247.445-64.023,371.14
									c-102.744-15.965-198.115-45.723-284.628-91.923c-18.088-9.654-21.641-34.001-7.107-48.481
									c8.593-8.593,17.557-17.292,26.893-26.097c11.51,31.719,35.698,59.037,66.993,71.873
									c49.383,20.368,111.602,2.812,143.056-40.365c13.686-18.777,21.695-41.214,26.045-64.022
									c8.221-42.594,4.084-87.521-11.723-127.993c-1.273-3.235-3.448-6.895-6.153-8.911c-1.856-1.326-3.978-1.909-6.259-1.061
									l1.538-2.123c9.812-4.614,19.838-8.805,30.075-12.464C1422.479,1973.008,1451.229,1966.378,1480.297,1963.408z"/>
							</g>
						</g>
					</g>
					<g>
						<g>
							<path style="fill:#E81818;" d="M2594.333,2159.2c-3.161,9.894-6.25,19.764-9.412,29.657
								c-37.993,119.641-76.059,239.306-114.099,358.923c98.552,33.147,196.912,50.656,294.98,49.491
								c20.501-0.239,34.868-20.213,28.637-39.76c-3.67-11.585-7.621-23.435-11.852-35.55
								c-16.15-46.385-36.254-96.435-61.377-148.791c-17.6-36.68-35.927-70.69-54.295-102.091
								c-5.089-8.736-10.18-17.234-15.299-25.566C2632.21,2213.811,2612.878,2185.076,2594.333,2159.2z"/>
						</g>
						<g style="opacity:0.6;">
							<g>
								<path style="fill:#FFFFFF;" d="M2762.624,2565.166c-3.67-11.585-7.621-23.435-11.852-35.551
									c-16.15-46.385-36.254-96.435-61.378-148.791c-17.6-36.68-35.927-70.69-54.295-102.091
									c-5.089-8.736-10.18-17.234-15.299-25.566c-12.469-20.368-24.882-39.378-37.1-57.325c0.74-2.329,1.481-4.657,2.221-6.986
									c3.162-9.893,6.251-19.763,9.412-29.657c18.545,25.876,37.877,54.611,57.283,86.312c5.119,8.333,10.21,16.83,15.299,25.566
									c18.368,31.401,36.695,65.411,54.295,102.091c25.123,52.355,45.228,102.406,61.377,148.791
									c4.231,12.115,8.182,23.966,11.852,35.55c6.232,19.547-8.135,39.521-28.637,39.76c-3.991,0.047-7.984,0.015-11.977,0
									C2762.402,2589.633,2766.499,2577.32,2762.624,2565.166z"/>
							</g>
						</g>
						<g>
							<path style="fill:#080808;" d="M2756.851,2613.73c-93.928,0-191.855-16.943-291.238-50.4
								c-8.481-2.857-13.11-11.982-10.4-20.513l123.462-388.574c1.88-5.918,6.934-10.264,13.064-11.235
								c6.123-0.986,12.281,1.592,15.899,6.636c48.87,68.091,92.046,140.913,128.33,216.431
								c28.892,60.137,53.823,122.861,74.099,186.436c4.575,14.346,2.153,29.565-6.643,41.758
								c-8.772,12.153-22.402,19.229-37.4,19.404C2762.971,2613.711,2759.912,2613.73,2756.851,2613.73z M2491.404,2537.261
								c93.831,29.985,186.028,44.697,274.231,43.608c4.485-0.054,8.56-2.168,11.182-5.801c2.646-3.667,3.371-8.257,1.99-12.588
								c-19.812-62.129-44.177-123.433-72.415-182.197c-30.701-63.901-66.453-125.825-106.494-184.487L2491.404,2537.261z"/>
						</g>
						<g style="opacity:0.3;">
							<g>
								<path style="fill:#080808;" d="M2584.921,2188.857c-37.993,119.641-76.059,239.306-114.099,358.923
									c98.552,33.147,196.912,50.656,294.98,49.491c20.501-0.239,34.868-20.213,28.637-39.76
									c-3.67-11.585-7.621-23.435-11.852-35.55c-24.825,22.854-58.876,35.963-92.566,32.944
									c-53.215-4.664-100.357-48.903-108.392-101.714c-3.5-22.97-0.276-46.575,6.367-68.823
									c12.319-41.594,36.682-79.567,69.353-108.212c2.62-2.285,6.236-4.532,9.565-5.076c2.259-0.322,4.411,0.137,6.044,1.941
									l-0.388-2.593c-6.585-8.615-13.554-16.952-20.955-24.915C2631.821,2224.006,2609.355,2204.88,2584.921,2188.857z"/>
							</g>
						</g>
					</g>
				</g>
				<g>
					<g>
						<path style="fill:#FFFFFF;" d="M2687.126,1736.438l-169.896,818.715c-6.524,31.455-35.592,52.778-66.834,50.497
							c-2.758-0.159-5.57-0.53-8.381-1.114l-1008.874-209.307c-5.993-1.22-11.669-3.289-16.814-6.047
							c-24.4-12.943-38.509-40.896-32.621-69.221l169.896-818.716c7.108-34.265,40.949-56.491,75.268-49.383l1008.874,209.307
							C2672.009,1668.277,2694.234,1702.119,2687.126,1736.438z"/>
					</g>
					<g style="opacity:0.3;">
						<path style="fill:#080808;" d="M2588.772,1815.614l-151.141,767.087c-1.036,5.367-2.854,10.402-5.245,15.101
							c-2.687-0.099-5.43-0.394-8.176-0.887l-985.516-177.059c-5.854-1.03-11.414-2.858-16.469-5.339
							c-0.292-4.6,0.034-9.31,0.977-14.081l151.141-767.088c6.322-32.154,38.872-53.506,72.397-47.445l892.612,160.368
							C2572.876,1752.281,2595.093,1783.459,2588.772,1815.614z"/>
					</g>
					<g>
						<path style="fill:#080808;" d="M2454.946,2622.29c-5.373,0-10.818-0.542-16.281-1.675L1429.79,2411.304
							c-43.223-8.97-71.091-51.431-62.124-94.653l169.866-818.738c4.329-20.869,16.58-38.838,34.5-50.598
							c17.92-11.758,39.282-15.852,60.149-11.524l1008.874,209.312c20.869,4.329,38.838,16.582,50.601,34.5
							c11.76,17.92,15.854,39.28,11.523,60.149l-169.866,818.74C2525.481,2596.245,2492.078,2622.29,2454.946,2622.29z
							 M1615.933,1466.929c-9.106,0-18.054,2.664-25.898,7.815c-10.593,6.951-17.83,17.546-20.378,29.834l-169.866,818.738
							c-5.29,25.508,11.157,50.567,36.665,55.86l1008.874,209.311c25.515,5.288,50.567-11.157,55.86-36.665l169.865-818.735
							c5.291-25.508-11.155-50.567-36.665-55.859l-1008.875-209.311C1622.329,1467.256,1619.121,1466.929,1615.933,1466.929z"/>
					</g>
				</g>
				<g>
					<g>
						<g>
							<g>
								<path style="fill:#FFFFFF;" d="M3183.872,2223.688c-29.916,72.669-132.024,104.919-278.475,57.552l-477.544-134.092
									l-35.592-10.025l41.055-390.448c130.698,79.299,305.739,153.293,500.777,225.007c24.135,8.858,50.656,8.647,74.632-0.636
									l50.709-19.679c14.587-5.675,31.56-1.432,40.79,11.192c14.799,20.263,17.186,52.672-13.155,94.416
									c46.943,19.255,84.126,44.026,101.206,80.148C3195.913,2169.638,3194.109,2199.024,3183.872,2223.688z"/>
							</g>
							<g>
								<path style="fill:#080808;" d="M3032.949,2319.976c-39.885,0.005-84.585-7.632-132.292-23.037l-512.842-144.019
									c-7.698-2.163-12.715-9.561-11.88-17.51L2417,1744.958c0.588-5.586,3.994-10.483,9.028-12.981
									c5.029-2.493,10.991-2.239,15.796,0.671c115.952,70.334,274.18,141.394,497.949,223.623
									c20.388,7.495,42.771,7.297,63.018-0.544l50.737-19.661c21.851-8.472,46.492-1.55,59.924,16.814
									c9.463,12.934,26.433,46.577-2.136,96.807c46.958,21.958,76.348,47.788,91.804,80.415c0.496,1.045,0.879,2.144,1.145,3.271
									c13.445,57.281,0.283,107.769-37.061,142.154C3135.169,2305.029,3088.77,2319.976,3032.949,2319.976z M2410.015,2125.073
									l499.819,140.361c0.205,0.059,0.41,0.122,0.615,0.186c101.513,32.856,189.187,27.534,234.531-14.229
									c28.301-26.06,37.878-63.643,27.742-108.779c-13.801-27.7-43.882-50.762-91.882-70.459
									c-4.656-1.909-8.179-5.855-9.553-10.698c-1.375-4.844-0.449-10.049,2.51-14.121c21.885-30.117,26.563-56.78,13.177-75.083
									c-4.614-6.304-13.687-8.662-21.589-5.593l-50.737,19.661c-27.698,10.73-58.308,10.998-86.192,0.749
									c-211.965-77.893-365.971-146.047-481.501-213.218L2410.015,2125.073z"/>
							</g>
							<g>
								<path style="fill:#080808;" d="M3093.092,2072.234c-26.312,6.713-49.485,21.757-61.755,46.856
									c-1.729,3.526-6.013,4.968-9.521,3.2c-3.028-1.523-4.483-4.93-3.666-8.083c3.982-15.393,11.839-30.5,23.107-42.886
									c11.275-12.552,25.363-22.284,40.083-29.754C3103.306,2031.606,3116.118,2064.94,3093.092,2072.234L3093.092,2072.234z"/>
							</g>
							<g>
								<path style="fill:#080808;" d="M2665.972,2229.907c-8.777,0-15.898-7.104-15.913-15.884
									c-0.242-137.881,73.33-266.809,141.631-307.192c7.563-4.473,17.322-1.97,21.797,5.601
									c4.472,7.563,1.965,17.324-5.601,21.797c-61.023,36.079-126.216,157.095-126.001,279.736
									c0.015,8.789-7.097,15.928-15.886,15.942C2665.991,2229.907,2665.982,2229.907,2665.972,2229.907z"/>
							</g>
							<g style="opacity:0.3;">
								<g>
									<path style="fill:#080808;" d="M3183.872,2223.688c-29.916,72.669-132.024,104.919-278.475,57.552l-477.544-134.092
										c-1.803-81.262,4.137-162.629,17.928-242.724l16.656-2.016c43.23,60.044,88.052,121.681,150.96,160.614
										c25.991,16.071,54.316,27.794,82.535,39.463c105.714,43.708,211.535,87.468,320.113,123.484
										c43.389,14.375,90.385,27.53,134.039,14.056C3162.283,2236.26,3173.476,2230.637,3183.872,2223.688z"/>
								</g>
							</g>
							<g style="opacity:0.3;">
								<g>
									<path style="fill:#080808;" d="M3019.501,2119.456c32.377-13.555,64.755-27.111,97.133-40.666
										c-7.81-10.103-15.619-20.206-23.428-30.309c-0.997-1.289-2.151-2.676-3.761-2.925c-1.848-0.286-3.522,1.025-4.932,2.254
										c-10.94,9.538-21.881,19.076-32.821,28.614c-9.429,8.221-19.057,16.685-25.043,27.669
										c-2.797,5.132-4.735,10.731-5.709,16.494"/>
								</g>
							</g>
						</g>
						<g>
							<g>
								<path style="fill:#FFFFFF;" d="M902.702,1720.245c-9.13,80.751,65.214,158.361,217.622,183.765l487.012,101.522
									l36.313,7.538l154.679-377.59c-154.118,11.305-344.777-3.11-551.969-29.022c-25.631-3.221-48.933-15.887-65.554-35.679
									l-35.13-41.905c-10.098-12.067-27.153-16.155-41.47-8.912c-22.968,11.634-40.921,40.251-34.556,92.825
									c-50.843-4.407-95.77,0.838-128.506,25.953C918.504,1664.985,905.728,1692.799,902.702,1720.245z"/>
							</g>
							<g>
								<path style="fill:#080808;" d="M1643.665,2029.482c-1.108,0-2.231-0.112-3.354-0.347l-523.005-109.006
									c-116.802-19.526-198.357-71.038-223.792-141.357c-18.066-49.949-5.569-103.486,35.19-150.752
									c0.735-0.852,1.555-1.626,2.449-2.309c29.175-22.354,68.816-32.383,120.825-30.457
									c-1.035-59.717,30.261-82.551,44.832-89.917c20.886-10.566,46.138-5.225,61.414,12.976l35.164,41.902
									c13.943,16.614,33.477,27.248,55,29.946c237.668,29.773,412.041,38.975,548.743,28.96c5.71-0.393,11.142,2.131,14.477,6.729
									c3.335,4.597,4.055,10.593,1.902,15.85l-154.671,377.593C1656.275,2025.552,1650.208,2029.482,1643.665,2029.482z
									 M952.432,1650.757c-31.792,37.546-41.763,78.989-28.064,116.855c21.309,58.914,93.716,102.727,198.657,120.208
									c0.217,0.037,0.434,0.076,0.652,0.122l509.971,106.292l139.568-340.723c-134.771,7.288-303.926-2.615-528.906-30.796
									c-29.763-3.728-56.772-18.433-76.055-41.411l-35.161-41.899c-5.43-6.467-14.26-8.435-21.479-4.79
									c-21.206,10.725-30.325,37.788-25.679,76.203c0.593,4.907-1.057,9.817-4.49,13.372c-3.435,3.547-8.262,5.369-13.211,4.941
									C1015.43,1624.565,978.567,1631.44,952.432,1650.757z"/>
							</g>
							<g>
								<path style="fill:#080808;" d="M1082.283,1602.324c19.23,26.894,29.007,63.427,20.146,95.563
									c-0.953,3.784-4.794,6.078-8.578,5.124c-3.297-0.831-5.463-3.854-5.335-7.122c1.457-28.463-11.239-53.656-31.502-72.637
									C1040.292,1605.619,1068.028,1582.591,1082.283,1602.324L1082.283,1602.324z"/>
							</g>
							<g>
								<path style="fill:#080808;" d="M1364.492,1970.811c-2.532,0-5.103-0.606-7.493-1.885
									c-7.749-4.146-10.669-13.789-6.524-21.538c60.308-112.727,61.975-254.746,25.691-316.665
									c-4.441-7.583-1.897-17.332,5.686-21.775c7.578-4.439,17.327-1.897,21.775,5.686c40.466,69.058,42.38,221.655-25.09,347.769
									C1375.672,1967.761,1370.173,1970.811,1364.492,1970.811z"/>
							</g>
							<g style="opacity:0.3;">
								<g>
									<path style="fill:#080808;" d="M902.702,1720.245c-9.13,80.751,65.214,158.361,217.622,183.765l487.012,101.522
										c41.325-73.72,75.867-151.178,102.859-231.16l-13.714-9.682c-67.511,34.769-137.204,70.25-211.759,76.393
										c-30.796,2.525-61.526-0.038-92.135-2.6c-114.667-9.605-229.454-19.213-342.887-37.224
										c-45.321-7.213-93.228-17.242-125.167-50.134C915.608,1741.934,908.479,1731.511,902.702,1720.245z"/>
								</g>
							</g>
							<g style="opacity:0.3;">
								<g>
									<path style="fill:#080808;" d="M1098.73,1701.896c-21.946-27.665-43.892-55.329-65.838-82.994
										c11.832-5.598,23.664-11.197,35.496-16.795c1.51-0.714,3.207-1.444,4.75-0.916c1.771,0.606,2.608,2.597,3.25,4.387
										c4.991,13.897,9.983,27.794,14.974,41.691c4.302,11.978,8.66,24.272,8.573,37.166c-0.041,6.024-1.068,12.073-3.026,17.819"
										/>
								</g>
							</g>
						</g>
					</g>
					<g>
						<g>
							<path style="fill:#FFFFFF;" d="M2536.803,3177.664c-4.084,38.509-23.445,74.26-65.667,78.026
								c-127.303,11.405-257.417,18.99-396.389,14.427c-34.372-4.668-55.165-26.309-56.703-63.227
								c-4.402-84.975-9.76-171.382-16.125-259.221c-6.099-84.072-12.942-166.713-20.421-247.869v-0.053
								c-0.584-6.099-1.114-12.146-1.698-18.193l-65.243-19.944l-41.744-12.784c-73.518,82.376-169.896,310.248-304.678,500.353
								c-17.557,24.719-47.155,37.767-77.336,35.062c-115.156-10.449-243.414-82.375-357.031-172.92
								c-35.751-31.295-40.312-86.566-18.777-127.461c20.899-39.994,66.834-66.357,132.819-43.177l228.084-559.442
								c14.268-39.517,28.537-77.867,42.859-115.05c22.702-58.824,45.404-114.732,68.212-167.615
								c34.849-80.837,69.805-154.673,104.919-221.401l106.881-195.41c218.802,50.232,437.55,100.463,656.298,150.696
								c0.849,56.278,1.644,112.557,2.494,168.834c7.266,104.124,8.804,220.552,4.72,349.075
								c-1.273,40.26-3.076,81.739-5.464,124.385c-1.379,24.56-2.917,49.542-4.667,74.897l-16.656,603.945
								c7.533,0.265,59.992,2.917,85.187,40.843C2533.408,3113.587,2540.145,3146.527,2536.803,3177.664z"/>
						</g>
						<g>
							<path style="fill:#080808;" d="M1697.599,1780.189c-79.493,168.034-145.98,341.574-209.523,516.078
								c-33.743,86.021-80.71,199.333-115.139,283.971c-36.352,88.999-73.267,177.775-110.776,266.295
								c-3.198,7.546-11.597,11.298-19.253,8.848c-24.602-8.594-50.907-10.952-73.16-2.174
								c-22.539,8.893-39.265,28.713-46.918,51.689c-10.232,30.491-5.743,66.07,16.054,89.684
								c5.122,5.47,20.587,16.864,27.005,21.952c93.567,69.891,200.199,135.563,317.387,150.915
								c28.049,5.579,58.448-5.595,73.849-30.129c1.73-2.434,12.996-18.936,15.021-21.82
								c39.945-58.537,76.032-119.424,111.054-181.26c28.02-49.496,55.08-99.645,83.027-149.619
								c29.172-50.616,56.131-101.135,94.732-146.375c4.239-4.813,10.774-6.43,16.524-4.618l106.969,32.709
								c6.366,1.875,10.662,7.496,11.191,13.735l12.853,154.735c9.701,103.848,17.403,243.97,24.046,348.588
								c0,0,1.208,19.377,1.208,19.377c0.249,28.354,13.523,47.9,43.11,51.58c105.841,3.305,230.664-0.808,342.462-10.23
								c0,0.001,42.99-3.628,42.99-3.628c13.706-0.868,22.337-2.555,32.637-9.803c34.84-25.507,34.538-103.528,6.971-134.328
								c-15.102-17.055-41.756-25.575-66.885-26.868c-8.766-0.292-15.636-7.623-15.43-16.346
								c4.745-199.593,10.276-413.748,17.795-612.604c14.17-179.335,15.746-358.945,14.507-538.844
								c-0.021-3.139,2.505-5.703,5.645-5.724c2.893-0.021,5.298,2.141,5.675,4.934c23.08,179.481,14.383,361.095,4.777,541.195
								c-2.977,107.958-5.167,216.01-8.106,323.965c-2.167,71.761-5.969,216.219-8.48,287.955
								c0.069-0.016-15.723-16.534-15.193-16.334c41.083,1.819,85.44,19.856,103.898,58.935
								c30.216,64.577,11.865,174.012-75.013,175.569c-129.785,11.556-260.565,18.162-390.905,13.831
								c-33.117-2.774-63.241-26.151-69.572-59.77c-2.848-11.597-2.858-29.274-3.88-41.308
								c-1.592-23.706-10.272-166.047-12.046-193.161c-5.207-87.622-17.931-220.087-24.752-308.75
								c-0.001,0.001,11.189,13.735,11.189,13.735l-106.968-32.709l16.522-4.619c-35.612,41.729-63.086,92.692-90.712,140.742
								c-66.015,118.507-129.839,239.438-208.023,350.886c-4.274,6.361-9.163,13.273-14.668,18.816
								c-23.274,24.468-58.81,34.669-91.698,28.82c-58.779-7.118-114.775-27.313-167.381-53.224
								c-58.608-28.77-113.339-64.777-165.248-104.115c-7.315-6.053-24.044-17.84-30.857-25.468
								c-6.81-7.75-13.256-16.458-17.675-25.761c-37.807-78.612,17.156-179.523,108.251-173.383
								c16.115,0.73,31.609,4.289,46.252,9.302l-19.483,8.772c35.036-89.42,70.666-178.584,106.859-267.524
								c33.27-84.708,81.438-198.151,116.097-283.214c31.897-84.205,63.588-169.114,100.214-251.407
								c38.664-88.305,81.146-175.1,129.515-258.527c1.794-3.095,5.758-4.149,8.854-2.355
								C1697.924,1773.502,1699.006,1777.181,1697.599,1780.189L1697.599,1780.189z"/>
						</g>
						<g>
							<path style="fill:#080808;" d="M1261.455,2832.496c16.964,31.714,48.259,57.047,81.281,70.958
								c8.607,3.192,4.744,16.186-4.203,14.137c-41.103-10.833-78.902-34.15-104.369-68.721
								C1221.649,2829.789,1250.479,2812.439,1261.455,2832.496L1261.455,2832.496z"/>
						</g>
						<g>
							<path style="fill:#080808;" d="M1714.751,2926.44c-1.111,0-2.239-0.117-3.369-0.361
								c-166.714-35.957-303.447-128.999-415.212-215.273c-6.956-5.371-8.242-15.366-2.871-22.32
								c5.369-6.958,15.359-8.252,22.319-2.876c108.945,84.102,241.96,174.741,402.473,209.355
								c8.591,1.855,14.053,10.322,12.2,18.911C1728.682,2921.338,1722.088,2926.44,1714.751,2926.44z"/>
						</g>
						<g>
							<path style="fill:#080808;" d="M2444.703,3066.578c-19.057,11.505-39.594,17.454-60.943,20.905
								c-20.636,3.096-41.515,3.759-62.267-0.058c-8.883-1.718-7.412-14.929,1.619-14.643c18.579,0.75,37.607-2.578,55.493-8.009
								c16.986-5.276,34.341-13.069,47.719-24.177C2444.391,3026.671,2463.88,3054.124,2444.703,3066.578L2444.703,3066.578z"/>
						</g>
						<g>
							<path style="fill:#080808;" d="M2128.289,2965.972c-43.201,0-87.09-3.613-131.216-12.129
								c-8.63-1.665-14.275-10.01-12.61-18.643c1.667-8.628,10.022-14.263,18.64-12.607c152.688,29.468,304.27-2.749,432.412-38.14
								c8.455-2.334,17.231,2.627,19.575,11.099c2.339,8.472-2.632,17.236-11.104,19.575
								C2348.811,2941.421,2240.891,2965.972,2128.289,2965.972z"/>
						</g>
						<g>
							<path style="fill:#080808;" d="M1693.514,2518.584c112.663,87.075,255.427,150.699,400.055,129.872
								c21.817-3.066,43.302-8.215,64.288-15.124c10.464-3.702,20.84-7.786,31.263-12.098c4.34-2.125,9.686-0.192,11.521,4.318
								c1.569,3.792,0.15,8.074-3.167,10.237c-19.82,12.941-41.534,22.973-63.945,30.974
								c-136.878,46.241-289.457-1.969-399.235-89.337c-18.177-14.792-35.694-30.357-51.68-47.378
								c-2.992-3.186-2.835-8.194,0.351-11.185C1685.948,2516.056,1690.479,2516.057,1693.514,2518.584L1693.514,2518.584z"/>
						</g>
						<g style="opacity:0.3;">
							<g>
								<path style="fill:#080808;" d="M1687.64,2514.629c3.873,4.19,6.63,8.858,8.434,13.896c-2.069-1.591-4.084-3.235-6.153-4.933
									L1687.64,2514.629z"/>
							</g>
						</g>
						<g style="opacity:0.3;">
							<g>
								<path style="fill:#080808;" d="M2421.459,3222.315c-22.453,1.23-44.906-1.788-67.158-5.029
									c-46.87-6.818-93.539-14.811-140.057-24.032c-6.141-1.23-12.535-2.571-17.469-6.819
									c-5.588-4.751-8.407-12.407-10.572-19.785c-12.082-40.799-11.88-84.615-11.075-127.537
									c2.014-104.29,7.048-208.522,15.154-312.475c2.915-37.406,6.586-75.862,18.353-110.72
									c30.322-16.196,50.754-31.231,58.386-36.996c-15.98,3.45-31.446,6.257-46.381,8.558c0.242-0.464,0.457-0.941,0.703-1.403
									l-1.349,1.499c-60.378,9.251-111.721,9.917-150.02,8.226c-0.001,0-166.558-7.354-311.184-85.753
									c-12.783-6.929-36.742-20.121-62.768-44.202c-18.481-17.101-31.519-33.692-40.009-45.748
									c0.763,18.448,4.465,49.073,21.432,80.677c-0.892-0.753-1.817-1.461-2.707-2.219c7.824,23.244-3.579,53.316-15.752,76.831
									c-80.136,155.015-167.279,305.859-257.132,454.806c-4.551,7.477-9.206,15.171-15.904,20.535
									c-17.49,14.086-42.344,8.561-63.159,1.246c-32.831-11.596-64.692-26.117-95.171-43.455
									c-28.588-16.255-56.459-35.381-77.325-61.713c-19.177-24.166-31.348-54.074-35.797-85.283
									c-20.763,41.774-16.365,98.232,18.104,130.199c109.541,92.49,233.198,165.961,344.224,176.635
									c29.098,2.763,57.635-10.565,74.562-35.815c125.942-188.203,217.105-412.638,287.132-502.896
									c56.5,26.448,98.808,33.972,98.808,33.972c25.344,4.49,49.834,6.144,73.295,5.749
									c7.091,85.435,13.579,172.428,19.363,260.929c6.042,92.553,11.126,183.596,15.305,273.13
									c1.46,38.898,21.195,61.7,53.818,66.619c131.901,4.807,255.394-3.185,376.22-15.201
									c40.074-3.969,58.449-41.637,62.326-82.212C2504.678,3201.861,2463.648,3220.08,2421.459,3222.315z"/>
							</g>
						</g>
						<g style="opacity:0.3;">
							<g>
								<path style="fill:#080808;" d="M1525.787,2167.923c0.021,1.179,0.041,2.357,0.062,3.536c0.01,0.56,0.86,0.561,0.87,0
									c0.021-1.179,0.041-2.357,0.062-3.536c0.005-0.269-0.232-0.497-0.497-0.497
									C1526.019,2167.426,1525.782,2167.653,1525.787,2167.923L1525.787,2167.923z"/>
							</g>
						</g>
						<g style="opacity:0.3;">
							<g>
								<path style="fill:#080808;" d="M2462.278,2250.369c-1.273,40.26-3.076,81.739-5.464,124.385
									c-0.583-0.053-1.114-0.105-1.697-0.159c-316.294-34.796-628.822-104.389-929.999-207.079l-6.047-1.379
									c-0.106,0-0.212,0.053-0.318,0.053c22.702-58.824,45.404-114.732,68.212-167.615c2.918,0.319,5.782,0.69,8.647,1.061
									c142.95,19.202,282.081,59.62,420.576,99.933c46.307,13.473,92.666,26.946,139.026,40.418
									c60.097,17.504,120.301,35.009,179.126,56.438C2377.834,2212.338,2420.533,2230.319,2462.278,2250.369z"/>
							</g>
						</g>
					</g>
					<g>
						<g>
							<path style="fill:#FFFFFF;" d="M1732.405,2157.744l-155.846-32.333c-27.498-5.705-46.013-24.621-39.901-40.765l28.671-75.729
								c10.245-27.061,53.231-40.412,99.324-30.849l100.695,20.891L1732.405,2157.744z"/>
						</g>
						<g style="opacity:0.3;">
							<path style="fill:#080808;" d="M1555.911,2027.563l-15.556,39.267c-5.801,14.64,12.984,32.254,40.482,37.959l155.846,32.333
								l11.845-57.094l-155.846-32.333C1576.053,2044.245,1562.657,2036.432,1555.911,2027.563z"/>
						</g>
						<g>
							<path style="fill:#FFFFFF;" d="M2306.46,2276.844l116.154,24.099c19.121,3.967,37.079-7.382,38.7-24.458l7.607-80.099
								c2.718-28.623-19.662-55.535-51.713-62.185l-77.804-16.142L2306.46,2276.844z"/>
						</g>
						<g style="opacity:0.3;">
							<path style="fill:#080808;" d="M2467.836,2220.213c-7.138,5.631-18.103,8.148-29.666,5.75l-116.154-24.099l-11.278,54.359
								l116.154,24.099c19.121,3.967,36.678-5.45,37.836-20.294L2467.836,2220.213z"/>
						</g>
						<g>
							<path style="fill:#FFFFFF;" d="M1767.704,1987.603l-47.171,227.364c-9.316,44.901,17.132,88.354,59.073,97.055
								l422.175,87.589c41.94,8.701,83.492-20.644,92.807-65.545l47.172-227.364c9.315-44.901-17.132-88.354-59.073-97.055
								l-422.175-87.589C1818.571,1913.357,1777.02,1942.702,1767.704,1987.603z"/>
						</g>
						<g style="opacity:0.3;">
							
								<ellipse transform="matrix(0.2031 -0.9791 0.9791 0.2031 -380.4876 3842.6643)" style="fill:#080808;" cx="2170.616" cy="2155.096" rx="70.553" ry="73.614"/>
						</g>
						<g>
							
								<ellipse transform="matrix(0.2031 -0.9791 0.9791 0.2031 -349.9933 3830.5596)" style="fill:#00AAFF;" cx="2178.444" cy="2130.311" rx="66.144" ry="61.783"/>
						</g>
						<g>
							
								<ellipse transform="matrix(0.2031 -0.9791 0.9791 0.2031 -349.9933 3830.5596)" style="fill:#00AAFF;" cx="2178.444" cy="2130.311" rx="66.144" ry="61.783"/>
						</g>
						<g style="opacity:0.3;">
							<path style="fill:#080808;" d="M2170.868,2166.827c-28.874-5.99-48.486-32.665-48.502-62.883
								c-1.891,4.355-3.409,8.959-4.417,13.816c-7.421,35.769,13.647,70.384,47.058,77.315s66.51-16.445,73.931-52.214
								c1.008-4.857,1.447-9.684,1.444-14.433C2228.346,2156.146,2199.741,2172.817,2170.868,2166.827z"/>
						</g>
						<g style="opacity:0.3;">
							<path style="fill:#080808;" d="M2228.052,2272.981l-422.175-87.589c-41.941-8.702-69.04-49.015-60.528-90.042
								l-20.768,100.099c-8.512,41.028,18.587,81.341,60.528,90.042l422.175,87.589c41.94,8.701,82.841-17.504,91.353-58.532
								l20.768-100.099C2310.893,2255.477,2269.993,2281.682,2228.052,2272.981z"/>
						</g>
						<g>
							<path style="fill:#080808;" d="M2216.756,2417.07c-6.06,0-12.151-0.625-18.21-1.88l-422.173-87.588
								c-50.461-10.469-82.502-62.446-71.421-115.869l47.173-227.363c5.327-25.679,19.734-47.925,40.569-62.639
								c21.17-14.949,46.406-20.376,71.052-15.254l422.173,87.59c24.648,5.115,45.645,20.122,59.119,42.261
								c13.262,21.787,17.629,47.93,12.302,73.608l-47.17,227.364c-5.327,25.679-19.736,47.925-40.571,62.642
								C2253.631,2411.216,2235.349,2417.07,2216.756,2417.07z M1845.647,1936.44c-12.107,0-24.075,3.858-34.592,11.287
								c-14.224,10.046-24.087,25.354-27.769,43.108l0,0l-47.173,227.363c-7.517,36.24,13.442,71.338,46.724,78.242l422.175,87.588
								c15.925,3.301,32.336-0.278,46.225-10.083c14.224-10.049,24.085-25.356,27.769-43.11l47.17-227.363
								c3.684-17.754,0.728-35.723-8.328-50.596c-8.838-14.526-22.476-24.346-38.396-27.647l-422.173-87.59
								C1853.418,1936.838,1849.524,1936.44,1845.647,1936.44z M1767.705,1987.603h0.049H1767.705z"/>
						</g>
						<g>
							<path style="fill:#080808;" d="M2051.204,2384.287c-1.072,0-2.158-0.112-3.25-0.337c-8.606-1.787-14.133-10.21-12.349-18.813
								l28.587-137.783l-150.242-90.591c-5.784-3.486-8.735-10.249-7.363-16.86l37.451-180.515
								c1.787-8.604,10.208-14.146,18.813-12.349c8.606,1.785,14.133,10.208,12.349,18.814l-35.161,169.475l150.242,90.591
								c5.784,3.486,8.735,10.249,7.363,16.86l-30.877,148.823C2065.208,2379.116,2058.587,2384.287,2051.204,2384.287z"/>
						</g>
						<g>
							<path style="fill:#080808;" d="M2176.936,2209.565c-4.868,0-9.758-0.498-14.624-1.509
								c-19.792-4.106-36.653-16.152-47.473-33.931c-10.642-17.486-14.148-38.457-9.873-59.063
								c4.272-20.601,15.833-38.447,32.551-50.254c16.997-12.012,37.266-16.357,57.058-12.246
								c40.515,8.408,66.243,50.122,57.346,92.993c-4.275,20.6-15.835,38.447-32.553,50.254
								C2206.548,2204.863,2191.868,2209.565,2176.936,2209.565z M2180.037,2077.588c-9.524,0-18.941,3.037-27.219,8.882
								c-11.208,7.92-18.979,19.986-21.885,33.985c-2.903,13.999-0.574,28.159,6.56,39.883
								c6.958,11.431,17.686,19.155,30.208,21.753c12.515,2.598,25.437-0.22,36.367-7.939c11.208-7.92,18.982-19.985,21.887-33.984
								c5.923-28.55-10.571-56.197-36.77-61.636C2186.148,2077.9,2183.086,2077.588,2180.037,2077.588z"/>
						</g>
						<g>
							<path style="fill:#080808;" d="M1732.422,2173.662c-1.072,0-2.158-0.112-3.25-0.337l-155.845-32.334
								c-22.197-4.604-40.474-16.494-48.887-31.812c-5.376-9.79-6.323-20.503-2.666-30.166l28.672-75.732
								c13.252-35.005,62.637-52.163,117.439-40.794l100.696,20.891c4.133,0.857,7.754,3.32,10.071,6.851
								c2.317,3.528,3.135,7.83,2.278,11.963l-32.944,158.784C1746.426,2168.491,1739.805,2173.662,1732.422,2173.662z
								 M1634.912,1990.835c-28.797,0-49.749,10.632-54.7,23.716l-28.672,75.728c-0.317,0.835-0.049,2.041,0.796,3.579
								c3.172,5.771,12.891,12.949,27.456,15.972l140.264,29.102l26.479-127.622l-85.115-17.659
								C1652.071,1991.709,1643.167,1990.835,1634.912,1990.835z"/>
						</g>
						<g>
							<path style="fill:#080808;" d="M2430.279,2317.646c-3.611,0-7.263-0.371-10.896-1.123l-116.155-24.097
								c-4.133-0.859-7.754-3.32-10.071-6.851c-2.317-3.525-3.135-7.832-2.278-11.963l32.942-158.784
								c1.787-8.604,10.208-14.121,18.813-12.349l77.805,16.138c40.168,8.335,67.822,42.417,64.323,79.272l-7.607,80.098
								c-1.143,12.041-7.307,22.754-17.356,30.171C2451.38,2314.375,2441.011,2317.646,2430.279,2317.646z M2325.274,2264.497
								l100.571,20.864c5.493,1.133,11.128,0.093,15.056-2.807c1.89-1.397,4.216-3.843,4.57-7.573l7.608-80.098
								c1.931-20.342-15.247-40.151-39.104-45.103l-62.224-12.905L2325.274,2264.497z"/>
						</g>
						<g style="opacity:0.7;">
							
								<ellipse transform="matrix(0.2032 -0.9791 0.9791 0.2032 -324.687 3839.8086)" style="fill:#FFFFFF;" cx="2196.82" cy="2119.391" rx="22.517" ry="21.032"/>
						</g>
					</g>
					<g>
						<g>
							<path style="fill:#FFFFFF;" d="M2879.255,1067.947l35.454,6.507c64.49,11.837,106.866,75.391,94.65,141.952l-42.498,231.549
								c-12.068,65.749-72.965,109.994-136.867,99.441l-71.013-11.727C2833.109,1411.86,2891.282,1273.003,2879.255,1067.947z"/>
						</g>
						<g>
							<path style="fill:#FFFFFF;" d="M1626.791,838.07l-35.454-6.507c-64.49-11.837-126.674,32.527-138.89,99.089l-42.499,231.549
								c-12.068,65.749,29.148,128.736,92.633,141.564l70.549,14.255C1547.799,1175.954,1542.728,1025.489,1626.791,838.07z"/>
						</g>
						<g style="opacity:0.3;">
							<g>
								<path style="fill:#080808;" d="M1527.237,1169.425c-63.484-12.828-104.7-75.815-92.633-141.563l-24.656,134.339
									c-12.068,65.749,29.148,128.736,92.632,141.564l70.55,14.255c-8.253-46.286-14.324-93.476-15.894-142.532L1527.237,1169.425
									z"/>
							</g>
						</g>
						<g style="opacity:0.3;">
							<g>
								<path style="fill:#080808;" d="M2870.942,1416.048c63.902,10.553,124.799-33.692,136.866-99.441l-24.656,134.339
									c-12.068,65.749-72.965,109.994-136.867,99.441l-71.013-11.727c24.152-40.338,46.586-82.297,65.474-127.598
									L2870.942,1416.048z"/>
							</g>
						</g>
						<g>
							
								<ellipse transform="matrix(0.1805 -0.9836 0.9836 0.1805 698.3282 3125.1965)" style="fill:#FFFFFF;" cx="2224.661" cy="1143.517" rx="678.143" ry="670.622"/>
						</g>
						<g style="opacity:0.3;">
							<path style="fill:#080808;" d="M2121.219,1707.107c-347.083-63.704-581.793-386.999-544.715-736.001
								c-4.426,16.827-8.254,33.947-11.447,51.346c-67.612,368.375,172.893,721.204,537.182,788.066
								s714.414-177.563,782.026-545.938c3.193-17.399,5.695-34.763,7.533-52.065
								C2802.523,1551.937,2468.302,1770.811,2121.219,1707.107z"/>
						</g>
						<g>
							
								<ellipse transform="matrix(0.1805 -0.9836 0.9836 0.1805 614.4409 3172.4604)" style="fill:#080808;" cx="2211.084" cy="1217.491" rx="511.814" ry="670.622"/>
						</g>
						<g>
							<path style="fill:#292929;" d="M2151.764,1559.498c-331.784-60.896-571.997-298.248-573.679-550.164
								c-12.05,27.643-21.032,56.731-26.605,87.094c-51.028,278.023,202.92,557.607,567.209,624.469s700.97-104.318,751.999-382.341
								c4.553-24.807,6.635-49.624,6.47-74.304C2778.865,1489.729,2476.269,1619.057,2151.764,1559.498z"/>
						</g>
						<g>
							<path style="fill:#080808;" d="M2223.46,1837.517c-41.216,0-82.705-3.752-124.094-11.348
								c-372.334-68.337-619.048-430.171-549.961-806.589c33.462-182.31,135.139-340.83,286.301-446.357
								c151.218-105.566,333.853-145.464,514.251-112.358c180.4,33.11,336.956,135.268,440.83,287.654
								c103.835,152.329,142.593,336.626,109.131,518.935l-15.652-2.874l15.652,2.874
								c-33.462,182.31-135.139,340.83-286.301,446.358C2497.092,1795.156,2361.895,1837.517,2223.46,1837.517z M2225.935,481.35
								c-131.997,0-260.884,40.388-372.012,117.969c-144.246,100.698-241.277,251.992-273.215,426.008
								c-65.918,359.155,169.328,704.37,524.404,769.538c171.963,31.57,346.091-6.484,490.286-107.151
								c144.246-100.698,241.277-251.992,273.215-426.008c31.939-174.014-5.039-349.902-104.126-495.264
								c-99.048-145.305-248.303-242.712-420.279-274.275C2304.775,484.929,2265.208,481.35,2225.935,481.35z"/>
						</g>
						<g>
							<path style="fill:#080808;" d="M2260.554,1749.829c-47.844,0-96.299-4.392-144.739-13.281
								c-372.336-68.34-627.456-384.365-568.704-704.473c58.755-320.105,409.465-524.929,781.807-456.599
								c372.336,68.34,627.456,384.365,568.704,704.473l-15.652-2.874l15.652,2.874c-28.545,155.53-125.911,288.657-274.158,374.858
								C2515.718,1717.458,2390.42,1749.829,2260.554,1749.829z M2185.305,594.143c-299.951,0-558.587,180.498-606.89,443.679
								c-55.586,302.847,188.069,602.251,543.147,667.422c172.458,31.663,345.02,3.97,485.906-77.952
								c140.081-81.453,232.009-206.848,258.85-353.091c55.586-302.847-188.069-602.251-543.147-667.422
								C2276.665,598.242,2230.515,594.143,2185.305,594.143z"/>
						</g>
						<g>
							<path style="fill:#080808;" d="M2275.261,1751.201c-52.061,0-105.449-4.744-159.446-14.653
								c-372.336-68.34-632.517-356.785-579.988-642.993c25.596-139.458,120.408-257.3,266.968-331.814
								c145.129-73.787,323.962-96.257,503.557-63.306c179.597,32.964,338.792,117.488,448.254,238
								c110.544,121.704,157.329,265.535,131.733,404.993l0,0C2841.426,1586.128,2582.195,1751.201,2275.261,1751.201z
								 M2145.4,715.442c-118.186,0-231.15,25.332-328.181,74.668c-137.51,69.912-226.326,179.719-250.088,309.192
								c-49.363,268.945,199.353,540.771,554.431,605.942c355.063,65.181,684.109-100.613,733.474-369.563
								c23.762-129.47-20.271-263.66-123.989-377.847c-104.8-115.381-257.666-196.387-430.442-228.096
								C2248.491,720.173,2196.448,715.442,2145.4,715.442z M2870.689,1338.555h0.051H2870.689z"/>
						</g>
						<g style="opacity:0.4;">
							
								<ellipse transform="matrix(0.1805 -0.9836 0.9836 0.1805 459.5559 3603.407)" style="fill:#FFFFFF;" cx="2392.251" cy="1525.915" rx="96.596" ry="103.14"/>
						</g>
						<g style="opacity:0.4;">
							
								<ellipse transform="matrix(0.1805 -0.9836 0.9836 0.1805 795.8603 3696.4397)" style="fill:#FFFFFF;" cx="2616.241" cy="1370.607" rx="84.768" ry="90.407"/>
						</g>
						<g style="opacity:0.4;">
							<path style="fill:#FFFFFF;" d="M1697.38,1152.197c-59.678-385.37,377.094-480.673,749.386-331.19
								C2124.992,827.881,1763.571,938.765,1697.38,1152.197z"/>
						</g>
						<g>
							<path style="fill:#080808;" d="M1573.13,1333.933c-1.047,0-2.104-0.103-3.152-0.315l-70.549-14.255
								c-71.511-14.453-118.674-86.243-105.134-160.034l42.5-231.55c13.782-75.085,84.382-125.256,157.415-111.868l35.452,6.506
								c4.807,0.881,8.943,3.923,11.216,8.25c2.273,4.326,2.432,9.456,0.432,13.914c-85.798,191.289-75.942,339.248-52.512,470.647
								c0.923,5.185-0.776,10.491-4.543,14.172C1581.25,1332.334,1577.246,1333.933,1573.13,1333.933z M1570.498,845.574
								c-48.96,0-92.935,36.372-102.4,87.952l-42.5,231.548c-10.43,56.836,25.518,112.056,80.134,123.093l47.822,9.663
								c-19.585-121.465-25.266-268.144,50.637-447.729l-15.73-2.886C1582.439,846.108,1576.428,845.574,1570.498,845.574z"/>
						</g>
						<g>
							<path style="fill:#080808;" d="M2848.55,1564.836c-6.992,0-14.058-0.569-21.15-1.738l-71.013-11.729
								c-5.198-0.859-9.631-4.233-11.846-9.011c-2.214-4.78-1.919-10.344,0.786-14.863
								c68.562-114.514,130.317-249.331,118.042-458.616c-0.286-4.88,1.685-9.619,5.347-12.854c3.662-3.235,8.611-4.617,13.413-3.73
								l35.454,6.509c35.464,6.509,66.167,26.851,86.455,57.278c20.183,30.268,27.629,66.919,20.972,103.198l-42.498,231.55
								C2970.303,1517.351,2912.546,1564.836,2848.55,1564.836z M2784.448,1523.748l48.137,7.949
								c54.99,9.077,108.188-29.778,118.623-86.614l42.498-231.55c5.159-28.103-0.576-56.443-16.147-79.795
								c-15.467-23.196-38.806-38.691-65.723-43.63l-15.73-2.888C2903.289,1282.051,2845.891,1417.153,2784.448,1523.748z"/>
						</g>
					</g>
				</g>
			</g>
		</g>
	</g>
</g>
</svg>
