<svg xmlns="http://www.w3.org/2000/svg" xmlns:xlink="http://www.w3.org/1999/xlink" version="1.1" id="Layer_1" x="0px" y="0px" viewBox="0 0 432 288" style="enable-background:new 0 0 432 288;" xml:space="preserve">
<g>
	<g>
		<defs>
			<rect id="SVGID_1_" x="0" width="432" height="288"/>
		</defs>
		
			<radialGradient id="SVGID_00000064348354636840172900000013001252284153238973_" cx="-27.7374" cy="100.3795" r="280.114" gradientUnits="userSpaceOnUse">
			<stop offset="0.3505" style="stop-color:#032C2F"/>
			<stop offset="1" style="stop-color:#000E0B"/>
		</radialGradient>
		<use xlink:href="#SVGID_1_" style="overflow:visible;fill:url(#SVGID_00000064348354636840172900000013001252284153238973_);"/>
		<clipPath id="SVGID_00000179618964956689375220000010453979019602584491_">
			<use xlink:href="#SVGID_1_" style="overflow:visible;"/>
		</clipPath>
		<g style="clip-path:url(#SVGID_00000179618964956689375220000010453979019602584491_);">
			<g style="opacity:0.4;">
				<g>
					
						<linearGradient id="SVGID_00000157297527130221141950000011205012811445777039_" gradientUnits="userSpaceOnUse" x1="-1962.5109" y1="-1215.2284" x2="-1659.6021" y2="-1215.2284" gradientTransform="matrix(0 -1 1 0 1300.0477 -1513.7513)">
						<stop offset="0" style="stop-color:#000000"/>
						<stop offset="0.1543" style="stop-color:#000504"/>
						<stop offset="0.3254" style="stop-color:#00120F"/>
						<stop offset="0.5044" style="stop-color:#002822"/>
						<stop offset="0.6891" style="stop-color:#00473C"/>
						<stop offset="0.8762" style="stop-color:#006F5D"/>
						<stop offset="1" style="stop-color:#008D77"/>
					</linearGradient>
					
						<rect x="84.199" y="145.85" style="fill:url(#SVGID_00000157297527130221141950000011205012811445777039_);" width="1.24" height="153.781"/>
				</g>
				<g>
					
						<linearGradient id="SVGID_00000093855385570043042710000014433138136140045461_" gradientUnits="userSpaceOnUse" x1="-1868.9475" y1="-1251.9567" x2="-1503.9213" y2="-1251.9567" gradientTransform="matrix(0 -1 1 0 1300.0477 -1513.7513)">
						<stop offset="0" style="stop-color:#000000"/>
						<stop offset="0.1543" style="stop-color:#000504"/>
						<stop offset="0.3254" style="stop-color:#00120F"/>
						<stop offset="0.5044" style="stop-color:#002822"/>
						<stop offset="0.6891" style="stop-color:#00473C"/>
						<stop offset="0.8762" style="stop-color:#006F5D"/>
						<stop offset="1" style="stop-color:#008D77"/>
					</linearGradient>
					<polygon style="fill:url(#SVGID_00000093855385570043042710000014433138136140045461_);" points="33.981,243.268        68.241,277.538 68.241,299.632 69.482,299.632 69.482,277.024 35.222,242.754 35.222,108.985 27.941,101.709 27.941,66.001        40.422,53.525 40.422,0.915 50.285,-8.954 49.408,-9.831 39.181,0.401 39.181,53.011 26.7,65.487 26.7,102.223 33.981,109.498             "/>
				</g>
				<g>
					
						<linearGradient id="SVGID_00000011000422301999028380000002362725324258222251_" gradientUnits="userSpaceOnUse" x1="-1767.2478" y1="-1245.989" x2="-1554.4623" y2="-1245.989" gradientTransform="matrix(0 -1 1 0 1300.0477 -1513.7513)">
						<stop offset="0" style="stop-color:#000000"/>
						<stop offset="0.1543" style="stop-color:#000504"/>
						<stop offset="0.3254" style="stop-color:#00120F"/>
						<stop offset="0.5044" style="stop-color:#002822"/>
						<stop offset="0.6891" style="stop-color:#00473C"/>
						<stop offset="0.8762" style="stop-color:#006F5D"/>
						<stop offset="1" style="stop-color:#008D77"/>
					</linearGradient>
					<polygon style="fill:url(#SVGID_00000011000422301999028380000002362725324258222251_);" points="61.252,111.797        61.252,253.496 60.011,253.496 60.011,112.31 46.865,99.17 46.865,40.711 48.106,40.711 48.106,98.657      "/>
				</g>
				<g>
					
						<linearGradient id="SVGID_00000114770612371020820710000008594252557288971697_" gradientUnits="userSpaceOnUse" x1="-1949.6812" y1="-1295.4518" x2="-1620.1753" y2="-1295.4518" gradientTransform="matrix(0 -1 1 0 1300.0477 -1513.7513)">
						<stop offset="0" style="stop-color:#000000"/>
						<stop offset="0.1543" style="stop-color:#000504"/>
						<stop offset="0.3254" style="stop-color:#00120F"/>
						<stop offset="0.5044" style="stop-color:#002822"/>
						<stop offset="0.6891" style="stop-color:#00473C"/>
						<stop offset="0.8762" style="stop-color:#006F5D"/>
						<stop offset="1" style="stop-color:#008D77"/>
					</linearGradient>
					<polygon style="fill:url(#SVGID_00000114770612371020820710000008594252557288971697_);" points="17.929,299.632        -7.496,274.206 -7.496,106.424 -8.737,106.424 -8.737,274.72 16.175,299.632      "/>
				</g>
				<g>
					
						<linearGradient id="SVGID_00000150817586715122685400000009931254366348826297_" gradientUnits="userSpaceOnUse" x1="-1801.4825" y1="-1264.9921" x2="-1526.7456" y2="-1264.9921" gradientTransform="matrix(0 -1 1 0 1300.0477 -1513.7513)">
						<stop offset="0" style="stop-color:#000000"/>
						<stop offset="0.1543" style="stop-color:#000504"/>
						<stop offset="0.3254" style="stop-color:#00120F"/>
						<stop offset="0.5044" style="stop-color:#002822"/>
						<stop offset="0.6891" style="stop-color:#00473C"/>
						<stop offset="0.8762" style="stop-color:#006F5D"/>
						<stop offset="1" style="stop-color:#008D77"/>
					</linearGradient>
					<polygon style="fill:url(#SVGID_00000150817586715122685400000009931254366348826297_);" points="59.598,286.854        58.721,287.731 23.179,252.189 23.179,184.912 10.513,172.24 10.513,79.881 16.999,73.39 16.999,25.434 29.443,12.994        30.32,13.871 18.24,25.948 18.24,73.903 11.753,80.395 11.753,171.727 24.42,184.399 24.42,251.676      "/>
				</g>
				<g>
					
						<linearGradient id="SVGID_00000008834239972844527270000004576491906610704004_" gradientUnits="userSpaceOnUse" x1="-1807.1128" y1="-1283.3225" x2="-1564.4288" y2="-1283.3225" gradientTransform="matrix(0 -1 1 0 1300.0477 -1513.7513)">
						<stop offset="0" style="stop-color:#000000"/>
						<stop offset="0.1543" style="stop-color:#000504"/>
						<stop offset="0.3254" style="stop-color:#00120F"/>
						<stop offset="0.5044" style="stop-color:#002822"/>
						<stop offset="0.6891" style="stop-color:#00473C"/>
						<stop offset="0.8762" style="stop-color:#006F5D"/>
						<stop offset="1" style="stop-color:#008D77"/>
					</linearGradient>
					<polygon style="fill:url(#SVGID_00000008834239972844527270000004576491906610704004_);" points="40.828,292.484        39.951,293.361 8.791,262.206 8.791,201.181 0.191,192.575 0.191,59.117 -7.378,51.555 -6.501,50.677 1.431,58.603        1.431,192.062 10.031,200.668 10.031,261.692      "/>
				</g>
				<g>
					
						<linearGradient id="SVGID_00000119819489038318973790000017353716614534353792_" gradientUnits="userSpaceOnUse" x1="-1754.4186" y1="-1249.0192" x2="-1631.4406" y2="-1249.0192" gradientTransform="matrix(0 -1 1 0 1300.0477 -1513.7513)">
						<stop offset="0" style="stop-color:#000000"/>
						<stop offset="0.1543" style="stop-color:#000504"/>
						<stop offset="0.3254" style="stop-color:#00120F"/>
						<stop offset="0.5044" style="stop-color:#002822"/>
						<stop offset="0.6891" style="stop-color:#00473C"/>
						<stop offset="0.8762" style="stop-color:#006F5D"/>
						<stop offset="1" style="stop-color:#008D77"/>
					</linearGradient>
					
						<rect x="50.408" y="117.689" style="fill:url(#SVGID_00000119819489038318973790000017353716614534353792_);" width="1.241" height="122.978"/>
				</g>
				<g>
					
						<linearGradient id="SVGID_00000016052983904067227020000002451251284853415868_" gradientUnits="userSpaceOnUse" x1="-1951.245" y1="-1164.7653" x2="-1568.5452" y2="-1164.7653" gradientTransform="matrix(0 -1 1 0 1300.0477 -1513.7513)">
						<stop offset="0" style="stop-color:#000000"/>
						<stop offset="0.1543" style="stop-color:#000504"/>
						<stop offset="0.3254" style="stop-color:#00120F"/>
						<stop offset="0.5044" style="stop-color:#002822"/>
						<stop offset="0.6891" style="stop-color:#00473C"/>
						<stop offset="0.8762" style="stop-color:#006F5D"/>
						<stop offset="1" style="stop-color:#008D77"/>
					</linearGradient>
					<polygon style="fill:url(#SVGID_00000016052983904067227020000002451251284853415868_);" points="119.241,299.632        119.241,217.455 152.564,184.127 152.564,54.794 151.324,54.794 151.324,183.613 118.001,216.942 118.001,299.632      "/>
				</g>
				<g>
					
						<linearGradient id="SVGID_00000060715801946450950130000005880701345626296194_" gradientUnits="userSpaceOnUse" x1="-1882.5623" y1="-1185.6503" x2="-1554.7793" y2="-1185.6503" gradientTransform="matrix(0 -1 1 0 1300.0477 -1513.7513)">
						<stop offset="0" style="stop-color:#000000"/>
						<stop offset="0.1543" style="stop-color:#000504"/>
						<stop offset="0.3254" style="stop-color:#00120F"/>
						<stop offset="0.5044" style="stop-color:#002822"/>
						<stop offset="0.6891" style="stop-color:#00473C"/>
						<stop offset="0.8762" style="stop-color:#006F5D"/>
						<stop offset="1" style="stop-color:#008D77"/>
					</linearGradient>
					<polygon style="fill:url(#SVGID_00000060715801946450950130000005880701345626296194_);" points="104.221,299.632        104.221,171.772 125.815,150.178 125.815,41.028 124.574,41.028 124.574,149.665 102.98,171.258 102.98,299.632      "/>
				</g>
				<g>
					
						<linearGradient id="SVGID_00000134967230295350317380000005247189183622024335_" gradientUnits="userSpaceOnUse" x1="-1707.4454" y1="-1175.2312" x2="-1539.4423" y2="-1175.2312" gradientTransform="matrix(0 -1 1 0 1300.0477 -1513.7513)">
						<stop offset="0" style="stop-color:#000000"/>
						<stop offset="0.1543" style="stop-color:#000504"/>
						<stop offset="0.3254" style="stop-color:#00120F"/>
						<stop offset="0.5044" style="stop-color:#002822"/>
						<stop offset="0.6891" style="stop-color:#00473C"/>
						<stop offset="0.8762" style="stop-color:#006F5D"/>
						<stop offset="1" style="stop-color:#008D77"/>
					</linearGradient>
					<polygon style="fill:url(#SVGID_00000134967230295350317380000005247189183622024335_);" points="140.835,25.691        140.835,102.926 133.793,109.967 133.793,169.576 109.675,193.694 108.798,192.817 132.553,169.062 132.553,109.453        139.595,102.412 139.595,25.691      "/>
				</g>
				<g>
					
						<linearGradient id="SVGID_00000161625733440643695770000017025119462221405371_" gradientUnits="userSpaceOnUse" x1="-1790.0896" y1="-1205.3629" x2="-1665.2374" y2="-1205.3629" gradientTransform="matrix(0 -1 1 0 1300.0477 -1513.7513)">
						<stop offset="0" style="stop-color:#000000"/>
						<stop offset="0.1543" style="stop-color:#000504"/>
						<stop offset="0.3254" style="stop-color:#00120F"/>
						<stop offset="0.5044" style="stop-color:#002822"/>
						<stop offset="0.6891" style="stop-color:#00473C"/>
						<stop offset="0.8762" style="stop-color:#006F5D"/>
						<stop offset="1" style="stop-color:#008D77"/>
					</linearGradient>
					
						<rect x="94.064" y="151.486" style="fill:url(#SVGID_00000161625733440643695770000017025119462221405371_);" width="1.24" height="124.852"/>
				</g>
				<g>
					
						<linearGradient id="SVGID_00000080900838048466403970000017746607317404895154_" gradientUnits="userSpaceOnUse" x1="-1664.9049" y1="-1195.5096" x2="-1511.7498" y2="-1195.5096" gradientTransform="matrix(0 -1 1 0 1300.0477 -1513.7513)">
						<stop offset="0" style="stop-color:#000000"/>
						<stop offset="0.1543" style="stop-color:#000504"/>
						<stop offset="0.3254" style="stop-color:#00120F"/>
						<stop offset="0.5044" style="stop-color:#002822"/>
						<stop offset="0.6891" style="stop-color:#00473C"/>
						<stop offset="0.8762" style="stop-color:#006F5D"/>
						<stop offset="1" style="stop-color:#008D77"/>
					</linearGradient>
					<polygon style="fill:url(#SVGID_00000080900838048466403970000017746607317404895154_);" points="114.543,103.349        114.543,151.154 113.303,151.154 113.303,103.863 94.533,85.087 94.533,-2.002 95.773,-2.002 95.773,84.574      "/>
				</g>
				<g>
					
						<linearGradient id="SVGID_00000114760485872493391910000006307879165456692653_" gradientUnits="userSpaceOnUse" x1="-1734.3376" y1="-1225.0623" x2="-1537.0927" y2="-1225.0623" gradientTransform="matrix(0 -1 1 0 1300.0477 -1513.7513)">
						<stop offset="0" style="stop-color:#000000"/>
						<stop offset="0.1543" style="stop-color:#000504"/>
						<stop offset="0.3254" style="stop-color:#00120F"/>
						<stop offset="0.5044" style="stop-color:#002822"/>
						<stop offset="0.6891" style="stop-color:#00473C"/>
						<stop offset="0.8762" style="stop-color:#006F5D"/>
						<stop offset="1" style="stop-color:#008D77"/>
					</linearGradient>
					<polygon style="fill:url(#SVGID_00000114760485872493391910000006307879165456692653_);" points="84.033,23.341        84.033,106.212 74.18,116.066 74.18,213.232 66.815,220.586 65.938,219.708 72.939,212.717 72.939,115.552 82.793,105.698        82.793,23.341      "/>
				</g>
				<g>
					
						<linearGradient id="SVGID_00000076587244244891743240000010441901234125104533_" gradientUnits="userSpaceOnUse" x1="-1842.8965" y1="-1224.3737" x2="-1774.6001" y2="-1224.3737" gradientTransform="matrix(0 -1 1 0 1300.0477 -1513.7513)">
						<stop offset="0" style="stop-color:#000000"/>
						<stop offset="0.1543" style="stop-color:#000504"/>
						<stop offset="0.3254" style="stop-color:#00120F"/>
						<stop offset="0.5044" style="stop-color:#002822"/>
						<stop offset="0.6891" style="stop-color:#00473C"/>
						<stop offset="0.8762" style="stop-color:#006F5D"/>
						<stop offset="1" style="stop-color:#008D77"/>
					</linearGradient>
					
						<rect x="75.054" y="260.849" style="fill:url(#SVGID_00000076587244244891743240000010441901234125104533_);" width="1.241" height="38.783"/>
				</g>
				<g>
					
						<linearGradient id="SVGID_00000032613660733860079690000011554677201671075512_" gradientUnits="userSpaceOnUse" x1="-1610.9539" y1="-1234.467" x2="-1490.6984" y2="-1234.467" gradientTransform="matrix(0 -1 1 0 1300.0477 -1513.7513)">
						<stop offset="0" style="stop-color:#000000"/>
						<stop offset="0.1543" style="stop-color:#000504"/>
						<stop offset="0.3254" style="stop-color:#00120F"/>
						<stop offset="0.5044" style="stop-color:#002822"/>
						<stop offset="0.6891" style="stop-color:#00473C"/>
						<stop offset="0.8762" style="stop-color:#006F5D"/>
						<stop offset="1" style="stop-color:#008D77"/>
					</linearGradient>
					<polygon style="fill:url(#SVGID_00000032613660733860079690000011554677201671075512_);" points="71.673,-12.739        71.673,51.607 60.729,62.556 60.729,97.202 59.489,97.202 59.489,62.043 70.432,51.093 70.432,-12.226 60.487,-22.176        61.365,-23.053      "/>
				</g>
				<g>
					
						<linearGradient id="SVGID_00000138551518594232321040000003589032791585912449_" gradientUnits="userSpaceOnUse" x1="-1860.214" y1="-1162.035" x2="-1749.7257" y2="-1162.035" gradientTransform="matrix(0 -1 1 0 1300.0477 -1513.7513)">
						<stop offset="0" style="stop-color:#000000"/>
						<stop offset="0.1543" style="stop-color:#000504"/>
						<stop offset="0.3254" style="stop-color:#00120F"/>
						<stop offset="0.5044" style="stop-color:#002822"/>
						<stop offset="0.6891" style="stop-color:#00473C"/>
						<stop offset="0.8762" style="stop-color:#006F5D"/>
						<stop offset="1" style="stop-color:#008D77"/>
					</linearGradient>
					
						<rect x="137.392" y="235.974" style="fill:url(#SVGID_00000138551518594232321040000003589032791585912449_);" width="1.241" height="63.657"/>
				</g>
				<g>
					
						<linearGradient id="SVGID_00000140000648846938486000000000765274610430281891_" gradientUnits="userSpaceOnUse" x1="-1925.5177" y1="-1127.4152" x2="-1468.0922" y2="-1127.4152" gradientTransform="matrix(0 -1 1 0 1300.0477 -1513.7513)">
						<stop offset="0" style="stop-color:#000000"/>
						<stop offset="0.1543" style="stop-color:#000504"/>
						<stop offset="0.3254" style="stop-color:#00120F"/>
						<stop offset="0.5044" style="stop-color:#002822"/>
						<stop offset="0.6891" style="stop-color:#00473C"/>
						<stop offset="0.8762" style="stop-color:#006F5D"/>
						<stop offset="1" style="stop-color:#008D77"/>
					</linearGradient>
					<polygon style="fill:url(#SVGID_00000140000648846938486000000000765274610430281891_);" points="171.979,105.269        190.281,123.576 190.281,299.632 191.522,299.632 191.522,123.063 173.22,104.755 173.22,-5.229 154.984,-23.454        154.984,-45.658 153.743,-45.658 153.743,-22.94 171.979,-4.715      "/>
				</g>
				<g>
					
						<linearGradient id="SVGID_00000168828484263410390550000008172631017585781658_" gradientUnits="userSpaceOnUse" x1="-1850.4717" y1="-1131.2085" x2="-1634.2091" y2="-1131.2085" gradientTransform="matrix(0 -1 1 0 1300.0477 -1513.7513)">
						<stop offset="0" style="stop-color:#000000"/>
						<stop offset="0.1543" style="stop-color:#000504"/>
						<stop offset="0.3254" style="stop-color:#00120F"/>
						<stop offset="0.5044" style="stop-color:#002822"/>
						<stop offset="0.6891" style="stop-color:#00473C"/>
						<stop offset="0.8762" style="stop-color:#006F5D"/>
						<stop offset="1" style="stop-color:#008D77"/>
					</linearGradient>
					<polygon style="fill:url(#SVGID_00000168828484263410390550000008172631017585781658_);" points="165.546,299.632        165.546,231.849 173.372,224.028 173.372,120.458 172.132,120.458 172.132,223.514 164.306,231.335 164.306,299.632      "/>
				</g>
				<g>
					
						<linearGradient id="SVGID_00000183945852214648108820000001014332854143032215_" gradientUnits="userSpaceOnUse" x1="-1883.9578" y1="-1157.5837" x2="-1434.109" y2="-1157.5837" gradientTransform="matrix(0 -1 1 0 1300.0477 -1513.7513)">
						<stop offset="0" style="stop-color:#000000"/>
						<stop offset="0.1543" style="stop-color:#000504"/>
						<stop offset="0.3254" style="stop-color:#00120F"/>
						<stop offset="0.5044" style="stop-color:#002822"/>
						<stop offset="0.6891" style="stop-color:#00473C"/>
						<stop offset="0.8762" style="stop-color:#006F5D"/>
						<stop offset="1" style="stop-color:#008D77"/>
					</linearGradient>
					<polygon style="fill:url(#SVGID_00000183945852214648108820000001014332854143032215_);" points="131.114,-32.228        147.04,-16.297 147.04,17.554 159.651,30.171 159.651,205.088 152.501,212.244 152.501,299.632 153.742,299.632        153.742,212.757 160.891,205.601 160.891,29.658 148.28,17.04 148.28,-16.81 132.355,-32.742 132.355,-72.2 124.913,-79.642        124.036,-78.765 131.114,-71.686      "/>
				</g>
				<g>
					
						<linearGradient id="SVGID_00000078017205149189974100000010970474232663112325_" gradientUnits="userSpaceOnUse" x1="-1601.1871" y1="-1188.4681" x2="-1493.277" y2="-1188.4681" gradientTransform="matrix(0 -1 1 0 1300.0477 -1513.7513)">
						<stop offset="0" style="stop-color:#000000"/>
						<stop offset="0.1543" style="stop-color:#000504"/>
						<stop offset="0.3254" style="stop-color:#00120F"/>
						<stop offset="0.5044" style="stop-color:#002822"/>
						<stop offset="0.6891" style="stop-color:#00473C"/>
						<stop offset="0.8762" style="stop-color:#006F5D"/>
						<stop offset="1" style="stop-color:#008D77"/>
					</linearGradient>
					<polygon style="fill:url(#SVGID_00000078017205149189974100000010970474232663112325_);" points="119.241,-10.243        119.241,34.864 105.158,48.947 105.158,87.436 103.918,87.436 103.918,48.433 118.001,34.35 118.001,-9.729 108.132,-19.597        109.009,-20.474      "/>
				</g>
				<g>
					
						<linearGradient id="SVGID_00000080909346608745010060000003076490130813739955_" gradientUnits="userSpaceOnUse" x1="-1535.5153" y1="-1171.9012" x2="-1493.9438" y2="-1171.9012" gradientTransform="matrix(0 -1 1 0 1300.0477 -1513.7513)">
						<stop offset="0" style="stop-color:#000000"/>
						<stop offset="0.1543" style="stop-color:#000504"/>
						<stop offset="0.3254" style="stop-color:#00120F"/>
						<stop offset="0.5044" style="stop-color:#002822"/>
						<stop offset="0.6891" style="stop-color:#00473C"/>
						<stop offset="0.8762" style="stop-color:#006F5D"/>
						<stop offset="1" style="stop-color:#008D77"/>
					</linearGradient>
					<polygon style="fill:url(#SVGID_00000080909346608745010060000003076490130813739955_);" points="134.219,-19.808        134.219,10.491 122.951,21.764 122.074,20.887 132.978,9.977 132.978,-19.808      "/>
				</g>
			</g>
			<g>
				<g>
					
						<linearGradient id="SVGID_00000011729843178379424820000003455656702411769755_" gradientUnits="userSpaceOnUse" x1="-1758.0262" y1="-1235.8074" x2="-1529.1366" y2="-1235.8074" gradientTransform="matrix(0 -1 1 0 1300.0477 -1513.7513)">
						<stop offset="0" style="stop-color:#000000"/>
						<stop offset="0.1543" style="stop-color:#000504"/>
						<stop offset="0.3254" style="stop-color:#00120F"/>
						<stop offset="0.5044" style="stop-color:#002822"/>
						<stop offset="0.6891" style="stop-color:#00473C"/>
						<stop offset="0.8762" style="stop-color:#006F5D"/>
						<stop offset="1" style="stop-color:#008D77"/>
					</linearGradient>
					<polygon style="fill:url(#SVGID_00000011729843178379424820000003455656702411769755_);" points="77.653,195.257        77.653,244.275 76.876,244.275 76.876,195.579 55.393,174.09 55.393,90.211 50.827,85.648 50.827,62.613 58.653,54.79        58.653,21.801 65.066,15.385 65.616,15.935 59.431,22.123 59.431,55.112 51.605,62.935 51.605,85.326 56.171,89.888        56.171,173.768      "/>
				</g>
				<g>
					
						<linearGradient id="SVGID_00000178198038789017318170000005099569184453530496_" gradientUnits="userSpaceOnUse" x1="-1694.2556" y1="-1232.0654" x2="-1560.8286" y2="-1232.0654" gradientTransform="matrix(0 -1 1 0 1300.0477 -1513.7513)">
						<stop offset="0" style="stop-color:#000000"/>
						<stop offset="0.1543" style="stop-color:#000504"/>
						<stop offset="0.3254" style="stop-color:#00120F"/>
						<stop offset="0.5044" style="stop-color:#002822"/>
						<stop offset="0.6891" style="stop-color:#00473C"/>
						<stop offset="0.8762" style="stop-color:#006F5D"/>
						<stop offset="1" style="stop-color:#008D77"/>
					</linearGradient>
					<polygon style="fill:url(#SVGID_00000178198038789017318170000005099569184453530496_);" points="72.493,91.651        72.493,180.504 71.715,180.504 71.715,91.974 63.472,83.734 63.472,47.077 64.25,47.077 64.25,83.412      "/>
				</g>
				<g>
					
						<linearGradient id="SVGID_00000049935907067652910310000010236082693039264148_" gradientUnits="userSpaceOnUse" x1="-1808.6503" y1="-1248.6847" x2="-1602.0339" y2="-1248.6847" gradientTransform="matrix(0 -1 1 0 1300.0477 -1513.7513)">
						<stop offset="0" style="stop-color:#000000"/>
						<stop offset="0.1543" style="stop-color:#000504"/>
						<stop offset="0.3254" style="stop-color:#00120F"/>
						<stop offset="0.5044" style="stop-color:#002822"/>
						<stop offset="0.6891" style="stop-color:#00473C"/>
						<stop offset="0.8762" style="stop-color:#006F5D"/>
						<stop offset="1" style="stop-color:#008D77"/>
					</linearGradient>
					<polygon style="fill:url(#SVGID_00000049935907067652910310000010236082693039264148_);" points="74.12,265.303 74.12,294.899        73.342,294.899 73.342,265.625 57.45,249.733 57.45,222.656 28.606,193.812 28.606,88.283 29.384,88.283 29.384,193.49        58.228,222.334 58.228,249.411      "/>
				</g>
				<g>
					
						<linearGradient id="SVGID_00000180363594867066604750000009062992346763132561_" gradientUnits="userSpaceOnUse" x1="-1715.7227" y1="-1243.9812" x2="-1543.4489" y2="-1243.9812" gradientTransform="matrix(0 -1 1 0 1300.0477 -1513.7513)">
						<stop offset="0" style="stop-color:#000000"/>
						<stop offset="0.1543" style="stop-color:#000504"/>
						<stop offset="0.3254" style="stop-color:#00120F"/>
						<stop offset="0.5044" style="stop-color:#002822"/>
						<stop offset="0.6891" style="stop-color:#00473C"/>
						<stop offset="0.8762" style="stop-color:#006F5D"/>
						<stop offset="1" style="stop-color:#008D77"/>
					</linearGradient>
					<polygon style="fill:url(#SVGID_00000180363594867066604750000009062992346763132561_);" points="71.456,201.421        70.906,201.971 48.619,179.685 48.619,137.499 40.677,129.553 40.677,71.639 44.744,67.568 44.744,37.498 52.547,29.698        53.097,30.247 45.522,37.82 45.522,67.891 41.455,71.961 41.455,129.231 49.397,137.176 49.397,179.363      "/>
				</g>
				<g>
					
						<linearGradient id="SVGID_00000048466588550127797490000009898285526461042607_" gradientUnits="userSpaceOnUse" x1="-1719.2531" y1="-1255.4753" x2="-1567.0782" y2="-1255.4753" gradientTransform="matrix(0 -1 1 0 1300.0477 -1513.7513)">
						<stop offset="0" style="stop-color:#000000"/>
						<stop offset="0.1543" style="stop-color:#000504"/>
						<stop offset="0.3254" style="stop-color:#00120F"/>
						<stop offset="0.5044" style="stop-color:#002822"/>
						<stop offset="0.6891" style="stop-color:#00473C"/>
						<stop offset="0.8762" style="stop-color:#006F5D"/>
						<stop offset="1" style="stop-color:#008D77"/>
					</linearGradient>
					<polygon style="fill:url(#SVGID_00000048466588550127797490000009898285526461042607_);" points="59.686,204.952        59.136,205.502 39.597,185.966 39.597,147.7 34.204,142.304 34.204,58.619 29.459,53.877 30.009,53.327 34.982,58.297        34.982,141.982 40.375,147.378 40.375,185.643      "/>
				</g>
				<g>
					
						<linearGradient id="SVGID_00000119116408507146319130000008457415432769578931_" gradientUnits="userSpaceOnUse" x1="-1686.2111" y1="-1233.9655" x2="-1609.0978" y2="-1233.9655" gradientTransform="matrix(0 -1 1 0 1300.0477 -1513.7513)">
						<stop offset="0" style="stop-color:#000000"/>
						<stop offset="0.1543" style="stop-color:#000504"/>
						<stop offset="0.3254" style="stop-color:#00120F"/>
						<stop offset="0.5044" style="stop-color:#002822"/>
						<stop offset="0.6891" style="stop-color:#00473C"/>
						<stop offset="0.8762" style="stop-color:#006F5D"/>
						<stop offset="1" style="stop-color:#008D77"/>
					</linearGradient>
					
						<rect x="65.693" y="95.346" style="fill:url(#SVGID_00000119116408507146319130000008457415432769578931_);" width="0.778" height="77.113"/>
				</g>
				<g>
					
						<linearGradient id="SVGID_00000042707706960226137540000014663912063742379451_" gradientUnits="userSpaceOnUse" x1="-1809.631" y1="-1188.984" x2="-1569.6598" y2="-1188.984" gradientTransform="matrix(0 -1 1 0 1300.0477 -1513.7513)">
						<stop offset="0" style="stop-color:#000000"/>
						<stop offset="0.1543" style="stop-color:#000504"/>
						<stop offset="0.3254" style="stop-color:#00120F"/>
						<stop offset="0.5044" style="stop-color:#002822"/>
						<stop offset="0.6891" style="stop-color:#00473C"/>
						<stop offset="0.8762" style="stop-color:#006F5D"/>
						<stop offset="1" style="stop-color:#008D77"/>
					</linearGradient>
					<polygon style="fill:url(#SVGID_00000042707706960226137540000014663912063742379451_);" points="129.75,55.908        129.75,137.006 108.855,157.905 108.855,252.107 93.155,265.449 93.155,295.88 92.377,295.88 92.377,265.089 108.077,251.747        108.077,157.583 128.972,136.684 128.972,55.908      "/>
				</g>
				<g>
					
						<linearGradient id="SVGID_00000042704949235788880860000015849949096456542623_" gradientUnits="userSpaceOnUse" x1="-1766.5635" y1="-1194.2301" x2="-1561.0273" y2="-1194.2301" gradientTransform="matrix(0 -1 1 0 1300.0477 -1513.7513)">
						<stop offset="0" style="stop-color:#000000"/>
						<stop offset="0.1543" style="stop-color:#000504"/>
						<stop offset="0.3254" style="stop-color:#00120F"/>
						<stop offset="0.5044" style="stop-color:#002822"/>
						<stop offset="0.6891" style="stop-color:#00473C"/>
						<stop offset="0.8762" style="stop-color:#006F5D"/>
						<stop offset="1" style="stop-color:#008D77"/>
					</linearGradient>
					<polygon style="fill:url(#SVGID_00000042704949235788880860000015849949096456542623_);" points="112.977,47.276        112.977,115.719 99.436,129.259 99.436,252.812 98.659,252.812 98.659,128.937 112.199,115.397 112.199,47.276      "/>
				</g>
				<g>
					
						<linearGradient id="SVGID_00000003806964304689255630000017394059847900577424_" gradientUnits="userSpaceOnUse" x1="-1656.7566" y1="-1187.6968" x2="-1551.4103" y2="-1187.6968" gradientTransform="matrix(0 -1 1 0 1300.0477 -1513.7513)">
						<stop offset="0" style="stop-color:#000000"/>
						<stop offset="0.1543" style="stop-color:#000504"/>
						<stop offset="0.3254" style="stop-color:#00120F"/>
						<stop offset="0.5044" style="stop-color:#002822"/>
						<stop offset="0.6891" style="stop-color:#00473C"/>
						<stop offset="0.8762" style="stop-color:#006F5D"/>
						<stop offset="1" style="stop-color:#008D77"/>
					</linearGradient>
					<polygon style="fill:url(#SVGID_00000003806964304689255630000017394059847900577424_);" points="122.396,37.659        122.396,86.089 117.98,90.504 117.98,127.882 102.856,143.005 102.306,142.455 117.202,127.56 117.202,90.182 121.618,85.767        121.618,37.659      "/>
				</g>
				<g>
					
						<linearGradient id="SVGID_00000142881437586740104410000001951974903419792041_" gradientUnits="userSpaceOnUse" x1="-1708.5786" y1="-1206.5908" x2="-1630.29" y2="-1206.5908" gradientTransform="matrix(0 -1 1 0 1300.0477 -1513.7513)">
						<stop offset="0" style="stop-color:#000000"/>
						<stop offset="0.1543" style="stop-color:#000504"/>
						<stop offset="0.3254" style="stop-color:#00120F"/>
						<stop offset="0.5044" style="stop-color:#002822"/>
						<stop offset="0.6891" style="stop-color:#00473C"/>
						<stop offset="0.8762" style="stop-color:#006F5D"/>
						<stop offset="1" style="stop-color:#008D77"/>
					</linearGradient>
					
						<rect x="93.068" y="116.539" style="fill:url(#SVGID_00000142881437586740104410000001951974903419792041_);" width="0.778" height="78.288"/>
				</g>
				<g>
					
						<linearGradient id="SVGID_00000164512161209538323020000006085563485132895153_" gradientUnits="userSpaceOnUse" x1="-1630.0815" y1="-1200.4124" x2="-1534.0458" y2="-1200.4124" gradientTransform="matrix(0 -1 1 0 1300.0477 -1513.7513)">
						<stop offset="0" style="stop-color:#000000"/>
						<stop offset="0.1543" style="stop-color:#000504"/>
						<stop offset="0.3254" style="stop-color:#00120F"/>
						<stop offset="0.5044" style="stop-color:#002822"/>
						<stop offset="0.6891" style="stop-color:#00473C"/>
						<stop offset="0.8762" style="stop-color:#006F5D"/>
						<stop offset="1" style="stop-color:#008D77"/>
					</linearGradient>
					<polygon style="fill:url(#SVGID_00000164512161209538323020000006085563485132895153_);" points="105.909,86.355        105.909,116.33 105.131,116.33 105.131,86.677 93.362,74.904 93.362,20.294 94.139,20.294 94.139,74.581      "/>
				</g>
				<g>
					
						<linearGradient id="SVGID_00000044889900720265162800000009339387665038277786_" gradientUnits="userSpaceOnUse" x1="-1673.6194" y1="-1218.9432" x2="-1549.937" y2="-1218.9432" gradientTransform="matrix(0 -1 1 0 1300.0477 -1513.7513)">
						<stop offset="0" style="stop-color:#000000"/>
						<stop offset="0.1543" style="stop-color:#000504"/>
						<stop offset="0.3254" style="stop-color:#00120F"/>
						<stop offset="0.5044" style="stop-color:#002822"/>
						<stop offset="0.6891" style="stop-color:#00473C"/>
						<stop offset="0.8762" style="stop-color:#006F5D"/>
						<stop offset="1" style="stop-color:#008D77"/>
					</linearGradient>
					<polygon style="fill:url(#SVGID_00000044889900720265162800000009339387665038277786_);" points="86.778,36.186 86.778,88.15        80.599,94.328 80.599,155.256 75.981,159.868 75.431,159.317 79.821,154.933 79.821,94.006 86,87.827 86,36.186      "/>
				</g>
				<g>
					
						<linearGradient id="SVGID_00000054240274350415004740000011949811477254075578_" gradientUnits="userSpaceOnUse" x1="-1741.691" y1="-1218.5115" x2="-1698.8658" y2="-1218.5115" gradientTransform="matrix(0 -1 1 0 1300.0477 -1513.7513)">
						<stop offset="0" style="stop-color:#000000"/>
						<stop offset="0.1543" style="stop-color:#000504"/>
						<stop offset="0.3254" style="stop-color:#00120F"/>
						<stop offset="0.5044" style="stop-color:#002822"/>
						<stop offset="0.6891" style="stop-color:#00473C"/>
						<stop offset="0.8762" style="stop-color:#006F5D"/>
						<stop offset="1" style="stop-color:#008D77"/>
					</linearGradient>
					
						<rect x="81.147" y="185.115" style="fill:url(#SVGID_00000054240274350415004740000011949811477254075578_);" width="0.778" height="42.825"/>
				</g>
				<g>
					
						<linearGradient id="SVGID_00000113343789478040896540000004172791057046301874_" gradientUnits="userSpaceOnUse" x1="-1596.2516" y1="-1224.8405" x2="-1520.8456" y2="-1224.8405" gradientTransform="matrix(0 -1 1 0 1300.0477 -1513.7513)">
						<stop offset="0" style="stop-color:#000000"/>
						<stop offset="0.1543" style="stop-color:#000504"/>
						<stop offset="0.3254" style="stop-color:#00120F"/>
						<stop offset="0.5044" style="stop-color:#002822"/>
						<stop offset="0.6891" style="stop-color:#00473C"/>
						<stop offset="0.8762" style="stop-color:#006F5D"/>
						<stop offset="1" style="stop-color:#008D77"/>
					</linearGradient>
					<polygon style="fill:url(#SVGID_00000113343789478040896540000004172791057046301874_);" points="79.027,13.561 79.027,53.909        72.165,60.775 72.165,82.5 71.387,82.5 71.387,60.453 78.249,53.587 78.249,13.883 72.013,7.644 72.563,7.094      "/>
				</g>
				<g>
					
						<linearGradient id="SVGID_00000111870294704624240210000007883360569881812357_" gradientUnits="userSpaceOnUse" x1="-1752.55" y1="-1183.6472" x2="-1683.2683" y2="-1183.6472" gradientTransform="matrix(0 -1 1 0 1300.0477 -1513.7513)">
						<stop offset="0" style="stop-color:#000000"/>
						<stop offset="0.1543" style="stop-color:#000504"/>
						<stop offset="0.3254" style="stop-color:#00120F"/>
						<stop offset="0.5044" style="stop-color:#002822"/>
						<stop offset="0.6891" style="stop-color:#00473C"/>
						<stop offset="0.8762" style="stop-color:#006F5D"/>
						<stop offset="1" style="stop-color:#008D77"/>
					</linearGradient>
					<polygon style="fill:url(#SVGID_00000111870294704624240210000007883360569881812357_);" points="121.015,169.517        121.015,230.113 112.337,238.799 111.786,238.249 120.237,229.791 120.237,169.517      "/>
				</g>
				<g>
					
						<linearGradient id="SVGID_00000031918591541952103180000012791557640979477913_" gradientUnits="userSpaceOnUse" x1="-1793.4987" y1="-1174.589" x2="-1506.6711" y2="-1174.589" gradientTransform="matrix(0 -1 1 0 1300.0477 -1513.7513)">
						<stop offset="0" style="stop-color:#000000"/>
						<stop offset="0.1543" style="stop-color:#000504"/>
						<stop offset="0.3254" style="stop-color:#00120F"/>
						<stop offset="0.5044" style="stop-color:#002822"/>
						<stop offset="0.6891" style="stop-color:#00473C"/>
						<stop offset="0.8762" style="stop-color:#006F5D"/>
						<stop offset="1" style="stop-color:#008D77"/>
					</linearGradient>
					<polygon style="fill:url(#SVGID_00000031918591541952103180000012791557640979477913_);" points="154.178,98.716        154.178,222.851 97.289,279.747 96.739,279.197 153.4,222.529 153.4,99.038 141.924,87.558 141.924,18.593 130.49,7.165        130.49,-7.08 131.267,-7.08 131.267,6.843 142.702,18.271 142.702,87.236      "/>
				</g>
				<g>
					
						<linearGradient id="SVGID_00000093888631456373976560000002658750139783109257_" gradientUnits="userSpaceOnUse" x1="-1746.441" y1="-1160.0924" x2="-1610.8339" y2="-1160.0924" gradientTransform="matrix(0 -1 1 0 1300.0477 -1513.7513)">
						<stop offset="0" style="stop-color:#000000"/>
						<stop offset="0.1543" style="stop-color:#000504"/>
						<stop offset="0.3254" style="stop-color:#00120F"/>
						<stop offset="0.5044" style="stop-color:#002822"/>
						<stop offset="0.6891" style="stop-color:#00473C"/>
						<stop offset="0.8762" style="stop-color:#006F5D"/>
						<stop offset="1" style="stop-color:#008D77"/>
					</linearGradient>
					<polygon style="fill:url(#SVGID_00000093888631456373976560000002658750139783109257_);" points="142.798,97.082        142.798,162.026 137.891,166.93 137.891,232.69 137.113,232.69 137.113,166.608 142.02,161.704 142.02,97.082      "/>
				</g>
				<g>
					
						<linearGradient id="SVGID_00000080917169224458824990000013738614328227078049_" gradientUnits="userSpaceOnUse" x1="-1767.4386" y1="-1176.631" x2="-1485.3615" y2="-1176.631" gradientTransform="matrix(0 -1 1 0 1300.0477 -1513.7513)">
						<stop offset="0" style="stop-color:#000000"/>
						<stop offset="0.1543" style="stop-color:#000504"/>
						<stop offset="0.3254" style="stop-color:#00120F"/>
						<stop offset="0.5044" style="stop-color:#002822"/>
						<stop offset="0.6891" style="stop-color:#00473C"/>
						<stop offset="0.8762" style="stop-color:#006F5D"/>
						<stop offset="1" style="stop-color:#008D77"/>
					</linearGradient>
					<polygon style="fill:url(#SVGID_00000080917169224458824990000013738614328227078049_);" points="134.972,40.146        134.972,150.472 130.488,154.959 130.488,232.81 118.568,244.73 118.568,253.687 117.79,253.687 117.79,244.408        129.71,232.488 129.71,154.637 134.194,150.15 134.194,40.468 126.286,32.557 126.286,11.331 116.3,1.341 116.3,-23.401        111.862,-27.84 112.412,-28.39 117.078,-23.723 117.078,1.019 127.064,11.009 127.064,32.235      "/>
				</g>
				<g>
					
						<linearGradient id="SVGID_00000160156764263928417520000003324116262671688330_" gradientUnits="userSpaceOnUse" x1="-1590.1274" y1="-1195.9969" x2="-1522.4625" y2="-1195.9969" gradientTransform="matrix(0 -1 1 0 1300.0477 -1513.7513)">
						<stop offset="0" style="stop-color:#000000"/>
						<stop offset="0.1543" style="stop-color:#000504"/>
						<stop offset="0.3254" style="stop-color:#00120F"/>
						<stop offset="0.5044" style="stop-color:#002822"/>
						<stop offset="0.6891" style="stop-color:#00473C"/>
						<stop offset="0.8762" style="stop-color:#006F5D"/>
						<stop offset="1" style="stop-color:#008D77"/>
					</linearGradient>
					<polygon style="fill:url(#SVGID_00000160156764263928417520000003324116262671688330_);" points="108.855,15.127        108.855,43.411 100.024,52.242 100.024,76.376 99.246,76.376 99.246,51.919 108.077,43.089 108.077,15.449 101.889,9.261        102.439,8.711      "/>
				</g>
				<g>
					
						<linearGradient id="SVGID_00000121241365980311855920000010021985585341312927_" gradientUnits="userSpaceOnUse" x1="-1548.9479" y1="-1185.6088" x2="-1522.8806" y2="-1185.6088" gradientTransform="matrix(0 -1 1 0 1300.0477 -1513.7513)">
						<stop offset="0" style="stop-color:#000000"/>
						<stop offset="0.1543" style="stop-color:#000504"/>
						<stop offset="0.3254" style="stop-color:#00120F"/>
						<stop offset="0.5044" style="stop-color:#002822"/>
						<stop offset="0.6891" style="stop-color:#00473C"/>
						<stop offset="0.8762" style="stop-color:#006F5D"/>
						<stop offset="1" style="stop-color:#008D77"/>
					</linearGradient>
					<polygon style="fill:url(#SVGID_00000121241365980311855920000010021985585341312927_);" points="118.246,9.129        118.246,28.128 111.181,35.196 110.632,34.647 117.469,27.806 117.469,9.129      "/>
				</g>
			</g>
			
				<radialGradient id="SVGID_00000076587454650448831040000013896861996838270909_" cx="-1254.8528" cy="-796.838" r="26.977" gradientTransform="matrix(0 -1.5651 0.3669 0 385.9316 -1841.6335)" gradientUnits="userSpaceOnUse">
				<stop offset="0" style="stop-color:#CCB38C"/>
				<stop offset="0.2036" style="stop-color:#8F7D62"/>
				<stop offset="0.3998" style="stop-color:#5C513F"/>
				<stop offset="0.5826" style="stop-color:#342E24"/>
				<stop offset="0.7491" style="stop-color:#171510"/>
				<stop offset="0.8936" style="stop-color:#060504"/>
				<stop offset="1" style="stop-color:#000000"/>
			</radialGradient>
			
				
			
				<radialGradient id="SVGID_00000014618628997978048430000013193799918270875058_" cx="-1240.0308" cy="-968.2667" r="51.8102" gradientTransform="matrix(0 -1.5651 0.3669 0 385.9316 -1841.6335)" gradientUnits="userSpaceOnUse">
				<stop offset="0" style="stop-color:#CCB38C"/>
				<stop offset="0.2036" style="stop-color:#8F7D62"/>
				<stop offset="0.3998" style="stop-color:#5C513F"/>
				<stop offset="0.5826" style="stop-color:#342E24"/>
				<stop offset="0.7491" style="stop-color:#171510"/>
				<stop offset="0.8936" style="stop-color:#060504"/>
				<stop offset="1" style="stop-color:#000000"/>
			</radialGradient>
			
				
			
				
			
				
			
				<radialGradient id="SVGID_00000127749285345555705930000000450846505064213156_" cx="-1216.6621" cy="-815.4608" r="30.2866" gradientTransform="matrix(0 -1.5651 0.3669 0 385.9316 -1841.6335)" gradientUnits="userSpaceOnUse">
				<stop offset="0" style="stop-color:#CCB38C"/>
				<stop offset="0.2036" style="stop-color:#8F7D62"/>
				<stop offset="0.3998" style="stop-color:#5C513F"/>
				<stop offset="0.5826" style="stop-color:#342E24"/>
				<stop offset="0.7491" style="stop-color:#171510"/>
				<stop offset="0.8936" style="stop-color:#060504"/>
				<stop offset="1" style="stop-color:#000000"/>
			</radialGradient>
			
				
			
				<radialGradient id="SVGID_00000023274808886434640430000007746910906545350309_" cx="-1286.1531" cy="-722.3345" r="30.2866" gradientTransform="matrix(0 -1.5651 0.3669 0 385.9316 -1841.6335)" gradientUnits="userSpaceOnUse">
				<stop offset="0" style="stop-color:#CCB38C"/>
				<stop offset="0.2036" style="stop-color:#8F7D62"/>
				<stop offset="0.3998" style="stop-color:#5C513F"/>
				<stop offset="0.5826" style="stop-color:#342E24"/>
				<stop offset="0.7491" style="stop-color:#171510"/>
				<stop offset="0.8936" style="stop-color:#060504"/>
				<stop offset="1" style="stop-color:#000000"/>
			</radialGradient>
			
				
			
				<radialGradient id="SVGID_00000096028056818380105310000002890392485933526461_" cx="-1331.6604" cy="-675.1155" r="30.2867" gradientTransform="matrix(0 -1.5651 0.3669 0 385.9316 -1841.6335)" gradientUnits="userSpaceOnUse">
				<stop offset="0" style="stop-color:#CCB38C"/>
				<stop offset="0.2036" style="stop-color:#8F7D62"/>
				<stop offset="0.3998" style="stop-color:#5C513F"/>
				<stop offset="0.5826" style="stop-color:#342E24"/>
				<stop offset="0.7491" style="stop-color:#171510"/>
				<stop offset="0.8936" style="stop-color:#060504"/>
				<stop offset="1" style="stop-color:#000000"/>
			</radialGradient>
			
				
			
				<radialGradient id="SVGID_00000054240954011760563700000016938927162445423800_" cx="-1254.1749" cy="-912.5221" r="30.2866" gradientTransform="matrix(0 -1.5651 0.3669 0 385.9316 -1841.6335)" gradientUnits="userSpaceOnUse">
				<stop offset="0" style="stop-color:#CCB38C"/>
				<stop offset="0.2036" style="stop-color:#8F7D62"/>
				<stop offset="0.3998" style="stop-color:#5C513F"/>
				<stop offset="0.5826" style="stop-color:#342E24"/>
				<stop offset="0.7491" style="stop-color:#171510"/>
				<stop offset="0.8936" style="stop-color:#060504"/>
				<stop offset="1" style="stop-color:#000000"/>
			</radialGradient>
			
				
		</g>
		<g style="clip-path:url(#SVGID_00000179618964956689375220000010453979019602584491_);">
			<g>
				
					<linearGradient id="SVGID_00000133525593352071676150000012230201731252166566_" gradientUnits="userSpaceOnUse" x1="95.473" y1="291.9969" x2="95.473" y2="206.7639">
					<stop offset="0" style="stop-color:#000000"/>
					<stop offset="0.1543" style="stop-color:#000504"/>
					<stop offset="0.3254" style="stop-color:#00120F"/>
					<stop offset="0.5044" style="stop-color:#002822"/>
					<stop offset="0.6891" style="stop-color:#00473C"/>
					<stop offset="0.8762" style="stop-color:#006F5D"/>
					<stop offset="1" style="stop-color:#008D77"/>
				</linearGradient>
				<path style="fill:url(#SVGID_00000133525593352071676150000012230201731252166566_);" d="M124.649,197.88      c3.064-4.321,4.873-9.592,4.873-15.281c0-13.605-10.313-24.843-23.532-26.317v-13.409H94.002v13.24h-8.158v-13.24H73.856v13.24      H53.431v14.985h14.263v60.988H53.431v14.985h20.424v13.24h11.988v-13.24h8.158v13.24h11.988v-13.24h5.038      c14.604,0,26.486-11.882,26.486-26.486C137.514,210.958,132.351,202.517,124.649,197.88z M103.036,171.098      c6.342,0,11.501,5.159,11.501,11.501s-5.159,11.501-11.501,11.501H82.68v-23.002H103.036z M111.029,232.086H82.68v-23.002      h20.356h7.992c6.342,0,11.501,5.159,11.501,11.501C122.529,226.927,117.37,232.086,111.029,232.086z"/>
				<g>
					
						<radialGradient id="SVGID_00000084509452610619799920000008422646704146734464_" cx="95.473" cy="201.5915" r="51.0659" gradientUnits="userSpaceOnUse">
						<stop offset="0.2673" style="stop-color:#006E51"/>
						<stop offset="0.3826" style="stop-color:#00654A"/>
						<stop offset="0.57" style="stop-color:#004D39"/>
						<stop offset="0.8047" style="stop-color:#00261C"/>
						<stop offset="1" style="stop-color:#000000"/>
					</radialGradient>
					<path style="fill:url(#SVGID_00000084509452610619799920000008422646704146734464_);" d="M105.504,143.358v12.923v0.435       l0.432,0.048c13.169,1.469,23.1,12.575,23.1,25.834c0,5.4-1.654,10.587-4.784,15l-0.303,0.428l0.449,0.27       c7.791,4.691,12.63,13.231,12.63,22.289c0,14.336-11.663,26-26,26h-5.039h-0.486v0.486v12.754H94.488v-12.754v-0.486h-0.486       h-8.158h-0.486v0.486v12.754H74.342v-12.754v-0.486h-0.486H53.918v-14.012h13.777h0.486v-0.486v-60.988v-0.486h-0.486H53.918       v-14.013h19.938h0.486v-0.486v-12.754h11.015v12.754v0.486h0.486h8.158h0.486v-0.486v-12.754H105.504 M82.193,194.585h0.486       h20.356c6.61,0,11.987-5.377,11.987-11.987s-5.377-11.987-11.987-11.987H82.68h-0.486v0.486v23.002V194.585 M82.193,232.572       h0.486h28.349c6.61,0,11.987-5.377,11.987-11.987c0-6.61-5.377-11.987-11.987-11.987h-7.992H82.68h-0.486v0.486v23.002V232.572        M105.99,142.872H94.002v13.24h-8.158v-13.24H73.856v13.24H53.431v14.985h14.263v60.988H53.431v14.985h20.424v13.24h11.988       v-13.24h8.158v13.24h11.988v-13.24h5.039c14.604,0,26.486-11.882,26.486-26.486c0-9.627-5.164-18.068-12.866-22.705       c3.064-4.321,4.873-9.592,4.873-15.281c0-13.605-10.313-24.843-23.532-26.317V142.872L105.99,142.872z M82.68,194.099v-23.002       h20.356c6.342,0,11.501,5.159,11.501,11.501c0,6.342-5.159,11.501-11.501,11.501H82.68L82.68,194.099z M82.68,232.086v-23.002       h20.356h7.992c6.342,0,11.501,5.159,11.501,11.501c0,6.342-5.159,11.501-11.501,11.501H82.68L82.68,232.086z"/>
				</g>
			</g>
			
				<radialGradient id="SVGID_00000083787735655036377030000010933063498061786042_" cx="-189.164" cy="126.3288" r="45.6475" gradientTransform="matrix(1.9384 0 0 1.0206 456.3266 26.0355)" gradientUnits="userSpaceOnUse">
				<stop offset="0" style="stop-color:#CCB38C"/>
				<stop offset="0.2036" style="stop-color:#8F7D62"/>
				<stop offset="0.3998" style="stop-color:#5C513F"/>
				<stop offset="0.5826" style="stop-color:#342E24"/>
				<stop offset="0.7491" style="stop-color:#171510"/>
				<stop offset="0.8936" style="stop-color:#060504"/>
				<stop offset="1" style="stop-color:#000000"/>
			</radialGradient>
			
				
		</g>
	</g>
</g>
</svg>