<?xml version="1.0" encoding="utf-8"?>
<!-- Generator: Adobe Illustrator 27.5.0, SVG Export Plug-In . SVG Version: 6.00 Build 0)  -->
<svg version="1.1" id="Layer_1" xmlns="http://www.w3.org/2000/svg" xmlns:xlink="http://www.w3.org/1999/xlink" x="0px" y="0px"
	 viewBox="0 0 4000 4000" style="enable-background:new 0 0 4000 4000;" xml:space="preserve">
<g>
	<g>
		<rect style="fill:#00000000;" width="4000" height="4000"/>
	</g>
	<g>
		<g style="opacity:0.2;">
			<ellipse style="fill:#080808;" cx="1999.593" cy="3510.917" rx="1067.399" ry="114.246"/>
		</g>
		<g>
			<circle style="fill:#FFCF11;" cx="1284.056" cy="2488.038" r="422.322"/>
		</g>
		<g>
			<path style="fill:#FFB32E;" d="M1680.045,2341.039c5.597,27.425,8.541,55.814,8.541,84.893
				c0,233.242-189.08,422.322-422.322,422.322c-181.54,0-336.288-114.564-395.99-275.324
				c39.295,192.554,209.617,337.43,413.781,337.43c233.242,0,422.321-189.08,422.321-422.322
				C1706.378,2436.335,1697.049,2386.823,1680.045,2341.039z"/>
		</g>
		<g>
			<g>
				<path style="fill:#F3960F;" d="M1304.694,2663.031l-3.638-32.705c-14.782,0.321-27.501-1.479-38.151-5.414
					c-10.658-3.941-19.659-9.178-27.005-15.718c-7.351-6.539-13.296-13.561-17.837-21.078c-4.537-7.504-8.03-14.677-10.473-21.5
					c-2.441-6.823-4.585-14.466-6.423-22.935l59.211-6.586c1.828,6.367,3.945,11.782,6.353,16.244
					c2.4,4.463,5.84,8.612,10.308,12.449c4.468,3.843,10.347,6.276,17.651,7.305l-7.449-66.969l-3.081-0.45
					c-7.995-1.207-16.716-2.928-26.17-5.168c-9.455-2.227-18.661-5.805-27.625-10.72c-8.967-4.915-16.607-12.01-22.913-21.299
					c-6.31-9.282-10.313-21.576-12.017-36.899c-1.905-17.129,0.043-32.386,5.851-45.783c5.804-13.385,14.511-24.407,26.125-33.056
					c11.609-8.648,25.199-14.628,40.774-17.939l-3.594-32.313l26.612-2.96l3.638,32.705c15.279,0.141,28.158,2.915,38.64,8.313
					c10.477,5.406,19.067,12.011,25.774,19.799c6.704,7.794,11.888,15.565,15.558,23.3c3.665,7.742,6.976,16.834,9.936,27.274
					l-57.878,6.438c-2.672-7.846-5.896-14.128-9.671-18.829c-3.781-4.706-9.153-8.109-16.122-10.229l6.843,61.514l5.826,0.931
					c7.298,1.029,15.452,2.685,24.463,4.969c9.01,2.283,17.956,6.018,26.838,11.204c8.88,5.187,16.5,12.617,22.854,22.29
					c6.349,9.674,10.396,22.295,12.128,37.871c2.771,24.914-2.309,46.374-15.235,64.366c-12.931,17.993-31.989,29.829-57.168,35.525
					l3.682,33.096L1304.694,2663.031z M1252.257,2421.717c0.751,6.756,3.4,11.913,7.952,15.472
					c4.547,3.572,11.309,6.304,20.276,8.195l-6.236-56.066c-7.81,2.441-13.632,6.636-17.459,12.584
					C1252.955,2407.846,1251.449,2414.456,1252.257,2421.717z M1342.363,2535.466c-0.808-7.267-3.56-12.81-8.246-16.622
					c-4.692-3.818-11.17-6.575-19.442-8.288l6.583,59.185c7.528-2.94,13.14-7.502,16.828-13.697
					C1341.776,2549.855,1343.2,2542.998,1342.363,2535.466z"/>
			</g>
		</g>
		<g>
			<path style="fill:#080808;" d="M1284.058,2927.958c-242.573,0-439.922-197.349-439.922-439.922
				c0-242.568,197.349-439.917,439.922-439.917c242.568,0,439.917,197.349,439.917,439.917
				C1723.975,2730.61,1526.627,2927.958,1284.058,2927.958z M1284.058,2083.315c-223.169,0-404.727,181.558-404.727,404.722
				c0,223.169,181.558,404.727,404.727,404.727c223.164,0,404.722-181.558,404.722-404.727
				C1688.78,2264.872,1507.222,2083.315,1284.058,2083.315z"/>
		</g>
		<g>
			<path style="fill:#F3960F;" d="M1284.058,2813.754c-179.6,0-325.718-146.118-325.718-325.718s146.118-325.718,325.718-325.718
				s325.718,146.118,325.718,325.718S1463.658,2813.754,1284.058,2813.754z M1284.058,2192.485
				c-162.969,0-295.552,132.583-295.552,295.552s132.583,295.552,295.552,295.552s295.552-132.583,295.552-295.552
				S1447.027,2192.485,1284.058,2192.485z"/>
		</g>
		<g>
			<g>
				<path style="fill:#FFF2E8;" d="M1102.746,2155c47.158,81.798,35.796,156.205-27.551,147.91
					c27.651,59.476-13.675,121.515-83.809,93.864c0,0,29.311,46.907-34.338,64.504c-55.303,15.284-168.02-73-139.263-197.935h0.05
					c4.324-19.003,11.966-38.863,23.579-59.324c87.982-154.999,240.467-205.275,324.276-122.32c0,0-33.886,11.161-83.256,42.583
					C1090.127,2134.538,1096.914,2144.794,1102.746,2155z"/>
			</g>
			<g>
				<path style="fill:#F8D2B6;" d="M1075.195,2302.91c27.651,59.476-13.675,121.515-83.809,93.864c0,0,29.311,46.907-34.338,64.504
					c-55.303,15.284-168.02-73-139.263-197.935h0.05c0,0,31.925,156.458,141.726,120.008l-21.97-27.148
					c0,0,107.841,35.947,90.245-64.604l-7.541-28.255c0,0,98.037-10.156,76.67-107.186c0,0,2.111-0.503,5.782-1.156
					C1149.905,2236.799,1138.542,2311.205,1075.195,2302.91z"/>
			</g>
			<g>
				<path style="fill:#080808;" d="M943.804,2480.561c-35.381,0-78.306-24.219-108.472-62.925
					c-23.555-30.215-71.602-112.368-9.219-222.305c53.701-94.609,134.585-157.832,216.362-169.116
					c52.153-7.192,100.322,8.066,135.591,42.979c4.355,4.307,6.152,10.571,4.751,16.533c-1.401,5.962-5.806,10.767-11.621,12.686
					c-0.264,0.088-25.576,8.647-63.569,31.06c40.41,60.938,52.993,124.458,31.006,162.061c-8.877,15.186-22.446,24.785-39.37,28.203
					c6.143,29.307-0.659,58.296-19.438,78.228c-16.187,17.183-38.955,24.946-64.077,22.705c0,5.991-0.962,12.422-3.506,18.955
					c-7.139,18.33-24.131,31.323-50.508,38.613C956.07,2479.804,950.054,2480.561,943.804,2480.561z M1067.852,2059.633
					c-6.704,0-13.564,0.479-20.566,1.445c-70.996,9.8-142.236,66.479-190.567,151.626c-51.904,91.47-12.837,158.657,6.367,183.296
					c28.916,37.095,68.906,53.97,89.273,48.315c10.303-2.847,23.359-8.164,27.031-17.319c3.731-9.302-2.944-20.928-3.013-21.045
					c-3.862-6.465-3.228-14.751,1.646-20.488c4.878-5.742,12.813-7.817,19.819-5.063c23.599,9.316,43.613,6.968,56.367-6.567
					c14.053-14.917,16.03-39.844,5.029-63.506c-2.705-5.82-2.026-12.651,1.772-17.827c3.799-5.176,10.103-7.896,16.475-7.036
					c22.207,2.935,28.657-8.081,30.767-11.694c13.647-23.335,4.302-79.961-39.897-138.936c-2.94-3.921-4.107-8.892-3.228-13.711
					c0.879-4.819,3.725-9.053,7.861-11.685c23.398-14.893,43.476-25.41,58.452-32.466
					C1112.735,2065.497,1091.265,2059.633,1067.852,2059.633z"/>
			</g>
			<g>
				<path style="fill:#080808;" d="M1082.452,2141.879c-5.361,0-10.649-2.437-14.106-7.061c-3.369-4.507-7.158-9.272-11.26-14.165
					c-6.24-7.451-5.264-18.55,2.183-24.79c7.446-6.245,18.545-5.264,24.79,2.183c4.517,5.391,8.711,10.669,12.471,15.698
					c5.82,7.783,4.228,18.809-3.555,24.629C1089.815,2140.737,1086.114,2141.879,1082.452,2141.879z"/>
			</g>
			<g>
				<path style="fill:#080808;" d="M1073.411,2320.416c-30.521-7.601-56.659-30.35-69.675-58.635
					c-3.176-6.33,5.532-12.177,10.178-6.911c8.433,9.711,18.477,17.828,30.041,23.089c10.303,4.688,21.957,7.973,33.025,7.446
					C1100.03,2288.467,1096.63,2322.064,1073.411,2320.416L1073.411,2320.416z"/>
			</g>
			<g>
				<path style="fill:#080808;" d="M986.045,2413.54c-21.605-10.787-39.016-28.874-51.839-48.903
					c-4.109-6.356-7.483-13.08-10.593-19.777c-1.13-2.431-0.076-5.319,2.356-6.448c2.081-0.972,4.405-0.315,5.828,1.314
					c16.445,16.532,36.115,29.13,57.664,37.269c1.748,0.75,5.789,2.239,7.268,3.014
					C1018.658,2387.736,1008.432,2419.921,986.045,2413.54L986.045,2413.54z"/>
			</g>
		</g>
		<g>
			<path style="fill:#FFAC40;" d="M3122.544,2952.264c-9.804,227.044-245.093,445.541-525.177,333.175
				c-10.156-4.022-20.412-8.546-30.719-13.524l-179.382-29.009l-53.594-133.23l38.159-367.463c0,0,74.508-83.206,194.817-84.764
				c22.775-0.352,47.209,2.262,73.101,8.949c162.59,41.929,183.103,149.97,264.801,149.167
				c60.029-3.368,92.959-41.477,101.053-79.788c3.721-17.596,26.043-23.579,37.857-10.004
				c11.413,13.121,21.518,26.695,30.316,40.672C3110.427,2824.313,3125.359,2888.616,3122.544,2952.264z"/>
		</g>
		<g style="opacity:0.5;">
			<path style="fill:#FFFFFF;" d="M3110.578,2848.396c-5.228-10.758-11.111-21.367-17.697-31.774
				c-8.798-13.977-18.904-27.551-30.316-40.672c-11.815-13.575-34.137-7.593-37.857,10.003
				c-8.095,38.311-41.025,76.42-101.054,79.788c-81.698,0.805-102.21-107.238-264.8-149.167c-25.892-6.687-50.326-9.302-73.1-8.949
				c-16.038,0.201-31.322,1.859-45.65,4.575c14.429-33.131,26.042-53.895,26.545-54.75c22.775-0.352,47.209,2.262,73.101,8.949
				c162.59,41.929,183.103,149.97,264.801,149.167c60.029-3.368,92.959-41.477,101.053-79.788
				c3.721-17.596,26.043-23.579,37.857-10.004c11.413,13.121,21.518,26.695,30.316,40.672
				C3090.417,2792.64,3102.534,2820.19,3110.578,2848.396z"/>
		</g>
		<g style="opacity:0.2;">
			<path style="fill:#080808;" d="M3122.544,2952.264c-9.804,227.044-245.093,445.541-525.177,333.175
				c-10.156-4.022-20.412-8.546-30.719-13.524l-179.382-29.009l-53.594-133.23l38.159-367.463c0,0,74.508-83.206,194.817-84.764
				c-2.111,3.72-221.312,395.214,58.873,525.227C2907.063,3313.292,3036.472,3146.678,3122.544,2952.264z"/>
		</g>
		<g>
			<path style="fill:#FFF2E8;" d="M3122.544,2952.264c-0.1,2.866-0.302,5.781-0.503,8.647c-0.201,2.866-0.402,5.782-0.704,8.647
				c-0.251,2.866-0.553,5.732-0.905,8.597c-0.302,2.866-0.704,5.732-1.106,8.598c-0.754,5.58-1.709,11.111-2.765,16.64
				c-0.1,0.453-0.201,0.906-0.251,1.357c-0.452,2.263-0.955,4.525-1.407,6.737c-0.151,0.654-0.302,1.307-0.453,1.96
				c-0.453,2.263-1.005,4.475-1.558,6.687c-0.05,0.503-0.201,1.007-0.302,1.458c-0.654,2.564-1.307,5.178-2.011,7.743
				c-0.603,2.363-1.257,4.776-1.96,7.139c-1.106,3.771-2.262,7.541-3.469,11.312c-0.603,1.861-1.207,3.67-1.81,5.531
				c-0.251,0.804-0.553,1.559-0.804,2.313c-0.805,2.313-1.659,4.675-2.514,6.989c-1.005,2.714-2.011,5.479-3.117,8.194
				c-1.056,2.715-2.162,5.379-3.318,8.094c-1.056,2.565-2.162,5.128-3.318,7.692c-1.508,3.418-3.067,6.838-4.726,10.206
				c-0.955,2.01-1.961,4.022-2.966,6.034c-1.709,3.469-3.469,6.887-5.329,10.255c-0.955,1.76-1.91,3.519-2.916,5.279
				c-2.865,5.178-5.832,10.256-8.949,15.234c-3.017,4.927-6.134,9.753-9.402,14.529c-0.201,0.352-0.452,0.705-0.704,1.056
				c-2.665,3.923-5.38,7.742-8.195,11.563c-0.553,0.755-1.106,1.458-1.659,2.213c-2.615,3.519-5.329,7.038-8.145,10.507
				c-2.765,3.42-5.531,6.838-8.396,10.156c-1.91,2.262-3.871,4.475-5.832,6.687c-1.961,2.212-3.972,4.373-6.033,6.535
				c-2.011,2.163-4.072,4.324-6.134,6.437c-2.061,2.111-4.173,4.222-6.284,6.284c-1.86,1.86-3.771,3.67-5.681,5.429
				c-11.111,10.458-22.875,20.261-35.243,29.361c-1.659,1.257-3.318,2.463-5.028,3.67c-1.609,1.156-3.268,2.313-4.927,3.418
				c-2.514,1.76-5.078,3.47-7.642,5.128c-4.323,2.866-8.748,5.63-13.222,8.245c-2.212,1.357-4.424,2.614-6.636,3.871
				c-2.564,1.458-5.178,2.916-7.792,4.324c-0.05,0.05-0.101,0.101-0.201,0.101c-2.363,1.257-4.776,2.514-7.189,3.771
				c-0.503,0.251-1.005,0.553-1.559,0.753c-2.413,1.207-4.826,2.414-7.29,3.571c-2.715,1.306-5.48,2.563-8.245,3.771
				c-2.313,1.056-4.625,2.061-6.988,3.016c-1.961,0.855-3.922,1.659-5.882,2.413c-0.352,0.201-0.754,0.352-1.207,0.503
				c-1.76,0.703-3.519,1.358-5.279,2.01c-1.81,0.703-3.569,1.358-5.38,2.012c-0.502,0.201-1.055,0.401-1.558,0.552
				c-2.463,0.854-4.927,1.71-7.39,2.463c-2.262,0.804-4.525,1.509-6.787,2.213c-2.464,0.754-4.978,1.507-7.491,2.161
				c-1.709,0.552-3.419,1.005-5.128,1.408c-2.514,0.703-5.028,1.357-7.592,1.96c-2.413,0.603-4.827,1.207-7.29,1.71
				c-3.067,0.703-6.134,1.306-9.2,1.91c-3.017,0.604-6.083,1.156-9.15,1.659c-1.91,0.351-3.771,0.653-5.681,0.854
				c-1.81,0.302-3.67,0.604-5.48,0.805c-9.251,1.257-18.602,2.161-28.054,2.663c-2.564,0.151-5.128,0.252-7.742,0.302
				c-27.802,1.005-56.61-1.257-86.122-7.088c-6.335-1.257-12.669-2.665-19.054-4.224c-9.552-2.363-19.155-5.128-28.858-8.245
				c-9.703-3.118-19.457-6.687-29.26-10.609c-23.479-15.284-56.308-36.751-79.938-52.588
				c-40.874-27.4-130.163-61.587-130.163-61.587V2978.96c0,0,40.522-18.602,96.428-8.246c40.572,7.492,89.239,30.165,136.448,86.173
				c112.215,133.23,328.399,104.623,411.353-70.235c81.446-171.691,28.406-226.893,26.445-228.854
				c0.704,0.302,6.485,3.318,15.836,8.647C3110.427,2824.313,3125.359,2888.616,3122.544,2952.264z"/>
		</g>
		<g>
			<path style="fill:#F8D2B6;" d="M3122.544,2952.264c-0.1,2.866-0.302,5.781-0.503,8.647c-0.201,2.866-0.402,5.782-0.704,8.647
				c-0.251,2.866-0.553,5.732-0.905,8.597c-0.302,2.866-0.704,5.732-1.106,8.598c-0.804,5.58-1.709,11.111-2.765,16.64
				c-0.1,0.453-0.201,0.906-0.251,1.357c-0.452,2.263-0.955,4.525-1.407,6.737c-0.151,0.654-0.302,1.307-0.453,1.96
				c-0.453,2.263-1.005,4.475-1.558,6.687c-0.05,0.503-0.201,1.007-0.302,1.458c-0.654,2.564-1.307,5.178-2.011,7.743
				c-0.603,2.363-1.257,4.776-1.96,7.139c-1.106,3.771-2.262,7.541-3.469,11.312c-0.603,1.861-1.207,3.67-1.81,5.531
				c-0.251,0.804-0.553,1.559-0.804,2.313c-0.805,2.313-1.659,4.675-2.514,6.989c-1.005,2.714-2.011,5.479-3.117,8.194
				c-1.056,2.715-2.162,5.379-3.318,8.094c-1.056,2.565-2.162,5.128-3.318,7.692c-1.508,3.418-3.067,6.838-4.726,10.206
				c-0.955,2.01-1.961,4.022-2.966,6.034c-1.709,3.469-3.469,6.887-5.329,10.255c-0.955,1.76-1.91,3.519-2.916,5.279
				c-2.865,5.178-5.832,10.256-8.949,15.234c-3.017,4.927-6.134,9.753-9.402,14.529c-0.201,0.352-0.452,0.705-0.704,1.056
				c-2.665,3.923-5.429,7.742-8.195,11.563c-0.553,0.755-1.106,1.458-1.659,2.213c-2.665,3.519-5.379,7.038-8.145,10.507
				c-2.765,3.42-5.531,6.838-8.396,10.156c-1.91,2.262-3.871,4.475-5.832,6.687c-1.961,2.212-3.972,4.373-6.033,6.535
				c-2.011,2.163-4.072,4.324-6.134,6.437c-2.061,2.111-4.173,4.222-6.284,6.284c-1.86,1.86-3.771,3.67-5.681,5.429
				c-11.111,10.458-22.875,20.261-35.243,29.361c-1.659,1.257-3.318,2.463-5.028,3.67c-1.609,1.156-3.268,2.313-4.927,3.418
				c-2.514,1.76-5.078,3.47-7.642,5.128c-4.323,2.866-8.748,5.63-13.222,8.245c-2.212,1.357-4.424,2.614-6.636,3.871
				c-2.564,1.458-5.178,2.916-7.792,4.324c-0.05,0.05-0.101,0.101-0.201,0.101c-2.363,1.257-4.776,2.514-7.189,3.771
				c-0.503,0.251-1.005,0.553-1.559,0.753c-2.413,1.207-4.826,2.414-7.29,3.571c-2.715,1.306-5.48,2.563-8.245,3.771
				c-2.313,1.056-4.625,2.061-6.988,3.016c-1.961,0.855-3.922,1.659-5.882,2.413c-0.352,0.201-0.754,0.352-1.207,0.503
				c-1.76,0.703-3.519,1.358-5.279,2.01c-1.81,0.703-3.569,1.358-5.38,2.012c-0.502,0.201-1.055,0.401-1.558,0.552
				c-2.463,0.854-4.927,1.71-7.39,2.463c-2.262,0.804-4.525,1.509-6.787,2.213c-2.464,0.754-4.978,1.507-7.491,2.161
				c-1.709,0.552-3.419,1.005-5.128,1.408c-2.514,0.703-5.028,1.357-7.592,1.96c-2.413,0.603-4.827,1.207-7.29,1.71
				c-3.067,0.703-6.134,1.306-9.2,1.91c-3.017,0.604-6.083,1.156-9.15,1.659c-1.91,0.351-3.771,0.653-5.681,0.854
				c-1.81,0.302-3.67,0.604-5.48,0.805c-9.251,1.257-18.602,2.161-28.054,2.663c-2.564,0.151-5.128,0.252-7.742,0.302
				c-27.802,1.005-56.61-1.257-86.122-7.088c-6.335-1.257-12.669-2.665-19.054-4.224c-9.552-2.363-19.155-5.128-28.858-8.245
				c-9.703-3.118-19.457-6.687-29.26-10.609c-23.479-15.284-56.308-36.751-79.938-52.588
				c-40.874-27.4-130.163-61.587-130.163-61.587V2978.96c0,0,40.522-18.602,96.428-8.246
				c4.776,84.312,40.874,165.155,141.827,211.962C2907.063,3313.292,3036.472,3146.678,3122.544,2952.264z"/>
		</g>
		<g>
			<path style="fill:#FFAC40;" d="M2769.058,1600.762v0.05c0,0-0.051,0.805-0.151,2.363c-0.05,0.704-0.101,1.609-0.201,2.665
				c-8.999,155.552-89.038,298.435-221.362,405.622c-2.313,1.859-4.676,3.771-7.039,5.63
				c16.591,28.004,22.725,68.425,12.318,110.958c0,0,149.569-16.34,169.679,57.817s0,98.037,0,98.037s41.477,81.698-6.284,145.799
				c0,0,40.22,142.028-235.038,162.138c-0.854,1.005-1.709,2.01-2.514,3.017c-38.461,45.297-77.424,71.591-115.08,82.602
				c35.997,243.584,22.222,485.258,20.915,506.172c-0.05,0.955-0.101,1.458-0.101,1.458c73.855,9.904,124.532,33.634,159.122,63.247
				c0.1,0,0.151,0.049,0.251,0.201c29.512,25.388,47.259,55.102,57.666,84.111c0.05,0.15,0.101,0.25,0.151,0.402
				c6.134,17.195,9.653,34.188,11.563,49.874c5.631,46.554-24.383,89.69-70.033,100.4c-126.091,29.561-281.04,14.277-390.841-4.375
				c-33.584-5.681-62.945-11.664-85.971-16.792c-33.634-7.49-61.788-30.315-76.067-61.688l-81.094-178.325l-42.583-93.613
				l-50.175-11.413l-32.78-7.441l-2.765,6.837l-49.571,122.975l-10.508,26.042c3.167,57.213-4.827,102.36-15.083,135.441
				c-13.022,41.779-50.125,71.341-93.613,75.866c-199.04,20.713-390.288-0.251-486.113-14.48
				c-43.79-6.535-76.368-43.689-77.474-87.982c-0.402-15.333,0.804-29.562,3.318-42.783
				c26.143-137.302,193.862-166.613,193.862-166.613c0.151-0.705,0.302-1.358,0.453-2.062
				c52.89-250.27,152.033-422.765,152.033-422.765c0-339.409,164.199-520.652,198.286-554.638c3.972-3.971,6.184-5.932,6.184-5.932
				c-87.982-12.117-166.512-33.583-234.132-64c-14.731-6.586-28.908-13.624-42.583-21.115
				c-223.323-121.667-304.769-355.045-178.277-681.584c2.162-5.932,4.324-11.865,6.485-17.697l0.05-0.05
				c106.835-286.57,254.896-460.171,411.755-554.538c166.21-100.098,342.224-111.208,489.38-73.754
				c430.508-583.245,743.875-195.22,562.883,418.14C2729.189,1322.99,2775.593,1466.476,2769.058,1600.762z"/>
		</g>
		<g style="opacity:0.5;">
			<path style="fill:#FFFFFF;" d="M2066.811,820.487c-147.156-37.455-323.17-26.344-489.38,73.754
				c-156.859,94.367-304.92,267.968-411.755,554.538l-0.05,0.05c-2.162,5.833-4.324,11.765-6.485,17.697
				c-53.745,138.71-69.933,260.628-53.694,364.296c-32.528-114.427-21.317-254.494,41.98-417.939
				c2.162-5.932,4.324-11.865,6.485-17.697l0.05-0.05c106.835-286.57,254.896-460.171,411.755-554.538
				c166.21-100.098,342.224-111.208,489.38-73.754c307.233-416.23,554.789-337.8,605.567-35.846
				C2590.58,474.844,2354.939,430.15,2066.811,820.487z"/>
		</g>
		<g style="opacity:0.2;">
			<path style="fill:#080808;" d="M1731.072,3239.488l-10.508,26.042c3.167,57.213-4.827,102.36-15.083,135.441
				c-13.022,41.779-50.125,71.341-93.613,75.866c-199.04,20.713-390.288-0.251-486.113-14.48
				c-43.79-6.535-76.368-43.689-77.474-87.982c-0.402-15.333,0.804-29.562,3.318-42.783
				c41.98,116.337,439.608,102.863,503.91,75.563c67.017-28.506,56.711-143.033,56.711-143.033
				c37.154-120.812,23.831-192.253,2.363-233.077l66.615,40.925l99.445,44.543L1731.072,3239.488z"/>
		</g>
		<g style="opacity:0.2;">
			<path style="fill:#080808;" d="M2152.078,3478.949c-33.584-5.681-62.945-11.664-85.971-16.792
				c-33.634-7.49-61.788-30.315-76.067-61.688l-81.094-178.325l-42.583-93.613l-50.175-11.413
				c-0.453-8.396-0.855-13.323-0.855-13.323c-53.493-9.654-102.713-26.043-145.899-42.685
				c-143.385-55.202-214.475-228.802-214.475-228.802c176.064,179.231,465.852,277.369,778.715,149.167
				c-42.081,37.455-84.161,65.308-125.638,85.468c0,0-0.05,0-0.151,0.051c-1.257,0.401-11.161,3.72-24.182,10.909
				c-0.05,0-0.05,0-0.05,0.05c-30.668,16.893-78.379,55.303-71.492,128.102c10.055,105.981,31.875,175.412,127.8,197.885
				C2184.757,3414.446,2179.579,3448.483,2152.078,3478.949z"/>
		</g>
		<g style="opacity:0.2;">
			<path style="fill:#080808;" d="M2107.886,3066.993c-8.094,3.972-16.138,7.592-24.182,10.909
				C2096.725,3070.713,2106.629,3067.394,2107.886,3066.993z"/>
		</g>
		<g style="opacity:0.2;">
			<path style="fill:#080808;" d="M2108.049,2419.647c0,0,131.393,260.063,260.331,97.562l112.599,63.738
				c0,0-54.045,88.831-100.969,95.523l-8.177,7.19l12.366,485.508l-102.018,25.24c61.864-213.19,11.038-427.731-135.094-643.412
				C2147.088,2550.998,2114.684,2471.372,2108.049,2419.647z"/>
		</g>
		<g style="opacity:0.2;">
			<path style="fill:#080808;" d="M2728.292,1395.207c41.374,784.375-1525.564,905.036-1639.432,266.146
				c0,0-37.796,369.916,327.538,472.143c365.334,102.227,787.648,46.086,787.648,46.086s244.673-78.03,392.148-204.505
				c147.474-126.475,173.452-400.839,173.452-400.839L2728.292,1395.207z"/>
		</g>
		<g>
			<path style="fill:#FFF2E8;" d="M2184.627,849.798c120.307-13,133.511,27.472,94.832,93.847
				c100.551,73.737,177.64,159.206,177.64,159.206C2594.518,769.358,2493.141,399.503,2184.627,849.798z"/>
		</g>
		<g>
			<path style="fill:#F8D2B6;" d="M2457.099,1102.834c0,0-1.81-2.011-5.279-5.732c74.256-272.14-9.502-512.155-233.982-249.617
				c-10.005,0.251-21.065,0.955-33.232,2.312C2493.146,399.482,2594.501,769.358,2457.099,1102.834z"/>
		</g>
		<g>
			<path style="fill:#FFF2E8;" d="M2769.058,1600.762v0.05c0,0-0.051,0.805-0.151,2.363c-1.006,14.781-8.296,96.83-52.99,189.488
				c-0.051,0-0.051,0.05-0.051,0.101c-25.59,53.141-63.548,109.801-119.655,159.222l-50.275,55.806c0,0,0.503,1.306,1.408,3.67
				c-2.313,1.859-4.676,3.771-7.039,5.63c0.101,0.201,0.201,0.352,0.302,0.554c16.39,27.953,22.373,68.122,12.016,110.405
				c0,0,31.372-3.418,67.319,0c42.533,4.022,91.451,17.647,102.361,57.817c20.11,74.156,0,98.037,0,98.037
				s41.477,81.698-6.284,145.799c0,0,40.22,142.028-235.038,162.138c-0.854,1.005-1.709,2.01-2.514,3.017
				c-25.59-0.302-66.112-10.156-99.796-60.481c-14.429-21.568-27.652-50.628-37.807-89.641c0,0-56.409-29.059,37.455-329.354
				l-51.331,17.194l-144.441,48.365c0,0-0.654,0.452-1.86,1.307c-13.926,10.557-101.104,82.954-74.357,231.116l33.584,122.571
				c-35.997,509.542-1014.959,309.044-522.763-348.056c-2.313-0.201-7.994-0.804-20.914-2.363
				c-43.337-5.38-114.93-20.01-206.129-60.079c-7.139-3.117-14.429-6.385-21.82-9.854c-13.775-6.435-28.003-13.475-42.583-21.115
				c0,0-178.478-139.615-164.953-267.918c2.162-20.06,8.949-39.869,21.87-58.772c95.523-139.966,239.814,13.977,405.974-85.92
				c0,0,42.734-27.149,144.542-115.382c101.808-88.234,391.846-14.027,445.49,4.776c49.823,17.445,157.613-9.803,308.238-96.931
				c41.125-23.78,87.882-37.003,135.442-35.746c36.399,0.956,75.614,10.156,104.372,38.36
				c15.736,15.435,28.355,36.651,35.595,65.308v0.05l1.458,6.335c2.363,10.809,3.972,22.674,4.776,35.595
				C2768.856,1589.55,2769.007,1595.08,2769.058,1600.762z"/>
		</g>
		<g>
			<path style="fill:#F8D2B6;" d="M2716.017,2429.702c0,0,40.22,142.028-235.038,162.138c-0.854,1.005-1.709,2.01-2.514,3.017
				c-25.59-0.302-66.112-10.156-99.796-60.481c106.936,34.991,86.373-72.347,85.468-77.022
				c13.977,38.762,120.359,69.933,163.093,18.853c39.466-47.158-33.031-60.783-44.594-62.643
				c8.698,1.106,53.644,3.821,82.854-50.477c32.377-60.33-45.549-100.551-45.549-100.551c102.461-63.699,0-134.487,0-134.487
				c42.533,4.022,91.451,17.647,102.361,57.817c20.11,74.156,0,98.037,0,98.037S2763.779,2365.601,2716.017,2429.702z"/>
		</g>
		<g>
			<path style="fill:#F8D2B6;" d="M2769.661,1574.216c0,0-0.352,3.52-1.156,10.005c-3.62,29.109-16.943,117.393-52.588,208.442
				c-0.051,0-0.051,0.05-0.051,0.101c-26.193,66.715-64.352,134.889-119.655,182.299c-16.943,14.529-35.193,28.405-54.197,41.577
				c-16.742-28.455-49.773-42.833-87.429-41.577c-34.992,1.207-57.214,83.206-67.017,129.961
				c-21.116,10.156-41.528,19.357-60.582,27.551c-70.738,30.366-122.923,47.008-122.923,47.008s-8.245,1.106-23.378,2.665
				c-93.462,9.955-449.964,39.215-764.286-48.767c-8.999-2.514-17.747-5.178-26.294-8.045c-7.139-3.117-14.429-6.385-21.82-9.854
				c-13.775-6.435-28.003-13.475-42.583-21.115c0,0-178.478-139.615-164.953-267.918
				c318.897,426.235,1505.295,288.932,1565.927-349.615c15.736,15.435,28.355,36.651,35.595,65.308v0.05l1.458,6.335
				L2769.661,1574.216z"/>
		</g>
		<g>
			<path style="fill:#FFF2E8;" d="M1720.565,3265.53c3.167,57.213-4.827,102.36-15.083,135.441
				c-13.022,41.779-50.125,71.341-93.613,75.866c-199.04,20.713-390.288-0.251-486.113-14.48
				c-43.79-6.535-76.368-43.689-77.474-87.982c-0.201-7.29,0-14.328,0.503-21.166c0.402-5.028,0.955-9.904,1.659-14.68
				c0.352-2.313,0.754-4.625,1.156-6.888v-0.049c26.143-137.302,193.862-166.613,193.862-166.613
				c0.151-0.705,0.302-1.358,0.453-2.062l8.346-0.955c0,0,92.356-13.976,170.283,38.814
				c49.219,33.332,121.767,59.425,187.678,63.346c38.46,2.313,74.659-2.967,102.713-18.702c5.681-3.218,11.061-5.128,16.138-5.932
				L1720.565,3265.53z"/>
		</g>
		<g>
			<path style="fill:#F8D2B6;" d="M1720.565,3265.53c3.167,57.213-4.827,102.36-15.083,135.441
				c-13.022,41.779-50.125,71.341-93.613,75.866c-199.04,20.713-390.288-0.251-486.113-14.48
				c-43.79-6.535-76.368-43.689-77.474-87.982c-0.101-3.644-0.101-7.227-0.012-10.752c0.088-3.539,0.264-7.013,0.515-10.413
				c0.352-5.028,0.905-9.904,1.659-14.68c0.352-2.313,0.754-4.625,1.156-6.888c42.08,116.288,439.608,102.814,503.91,75.514
				c67.017-28.506,56.711-143.033,56.711-143.033c38.46,2.313,74.659-2.967,102.713-18.702c5.681-3.218,11.061-5.128,16.138-5.932
				L1720.565,3265.53z"/>
		</g>
		<g>
			<path style="fill:#FFF2E8;" d="M2542.919,3483.323c-126.091,29.561-281.04,14.277-390.841-4.375
				c-2.665-0.453-5.329-0.905-7.944-1.358c-3.57-0.653-7.039-1.257-10.508-1.86c-2.413-0.453-4.826-0.854-7.189-1.307
				c-8.597-1.609-16.892-3.168-24.735-4.776c-4.173-0.805-8.245-1.659-12.217-2.465c-8.346-1.759-16.189-3.418-23.378-5.028
				c-33.634-7.49-61.788-30.315-76.067-61.688l-81.094-178.325c0,0,35.394,45.196,111.008,42.332
				c15.736-0.654,33.282-3.368,52.538-9c99.294-29.009,176.818-65.66,261.633-71.844c10.709-0.804,21.518-1.106,32.478-0.854
				c5.932,0.151,11.814,0.452,17.697,0.854c59.124,4.475,115.533,24.485,159.021,64.705c0.1,0,0.151,0.049,0.251,0.201
				c23.629,21.769,43.388,49.571,57.666,84.111c0.05,0.15,0.101,0.25,0.151,0.402c6.134,17.195,9.653,34.188,11.563,49.874
				C2618.583,3429.478,2588.569,3472.614,2542.919,3483.323z"/>
		</g>
		<g>
			<path style="fill:#F8D2B6;" d="M2542.919,3483.323c-126.091,29.561-281.04,14.277-390.841-4.375
				c-2.665-0.453-5.329-0.905-7.944-1.358c-3.57-0.653-7.039-1.257-10.508-1.86c-5.379-0.955-10.608-1.961-15.686-2.916
				c-2.664-0.503-5.329-1.005-7.893-1.509c-2.815-0.552-5.631-1.106-8.346-1.658c-4.173-0.805-8.245-1.659-12.217-2.465
				c-4.173-0.854-8.245-1.709-12.116-2.563c-1.961-0.403-3.871-0.855-5.731-1.257c-1.86-0.403-3.72-0.805-5.531-1.208
				c-33.634-7.49-61.788-30.315-76.067-61.688l-25.892-56.911l-55.203-121.415c0,0,35.394,45.196,111.008,42.332
				c13.776,73.101,42.985,121.364,119.857,139.414c0.05,0.05,0.1,0.05,0.151,0.05c159.474,23.277,336.242-11.463,341.018-81.045
				c7.139-104.321-147.307-139.212-147.307-139.212l0.452-0.05c10.709-0.804,21.518-1.106,32.478-0.854
				c5.932,0.151,11.814,0.452,17.697,0.854c59.124,4.475,115.533,24.485,159.021,64.705c0.1,0,0.151,0.049,0.251,0.201
				c23.629,21.769,43.388,49.571,57.666,84.111c0.05,0.15,0.101,0.25,0.151,0.402c6.134,17.195,9.653,34.188,11.563,49.874
				C2618.583,3429.478,2588.569,3472.614,2542.919,3483.323z"/>
		</g>
		<g>
			<path style="fill:#080808;" d="M2055.047,1768.178c-25.188,145.397-140.268,216.184-232.876,183.857
				c-55.806-19.456-103.467-76.469-118.348-177.17c115.633,30.718,280.688-6.687,346.9-155.854
				C2062.135,1674.868,2062.638,1724.842,2055.047,1768.178z"/>
		</g>
		<g>
			<path style="fill:#FF7F80;" d="M2055.047,1768.178c-25.188,145.397-140.268,216.184-232.876,183.857
				c-0.05-0.05-0.05-0.05-0.05-0.05c23.63-111.963,107.941-99.193,107.941-99.193
				C1967.97,1758.828,2052.281,1767.827,2055.047,1768.178z"/>
		</g>
		<g>
			<path style="fill:#080808;" d="M1710.636,1577.022c45.989-40.57,103.286-56.643,171.888-48.218
				c19.754,2.426,33.056,21.709,27.841,40.916c-8.221,30.28-27.021,73.365-69.677,100.327c-6.173,3.902-13.515,5.543-20.777,4.762
				c-21.532-2.316-69.969-11.671-110.026-49.449C1695.925,1612.192,1696.244,1589.718,1710.636,1577.022z"/>
		</g>
		<g>
			<path style="fill:#FFFFFF;" d="M1847.761,1553.71c2.647,8.714-21.927,15.523-47.605,23.322
				c-25.677,7.799-42.734,13.634-45.381,4.92c-2.647-8.715,16.023-22.101,41.701-29.9
				C1822.153,1544.253,1845.114,1544.995,1847.761,1553.71z"/>
		</g>
		<g>
			<path style="fill:#080808;" d="M1868.092,1974.875c-18.384,0-36.636-3.21-54.136-9.768
				c-66.416-24.885-110.83-91.665-125.073-188.037c-0.742-5.02,1.094-10.076,4.878-13.455c3.789-3.379,9.014-4.631,13.916-3.328
				c114.429,30.408,268.682-10.93,329.243-147.395c2.656-5.994,8.833-9.585,15.41-8.877c6.519,0.706,11.836,5.544,13.149,11.97
				c26.68,130.322-3.34,247.39-80.298,313.152C1950.054,1959.152,1908.76,1974.875,1868.092,1974.875z M1722.628,1794.531
				c15.43,73.154,51.152,123.308,101.914,142.329c45.781,17.148,98.511,5.698,141.04-30.654
				c60.063-51.321,87.676-139.321,77.085-240.728C1970.186,1777.165,1833.668,1814.98,1722.628,1794.531z"/>
		</g>
		<g>
			<path style="fill:#080808;" d="M1699.036,1789.174c-26.068-11.726-50.839-25.147-74.385-41.278
				c-3.44-2.374-4.304-7.087-1.931-10.528c2.124-3.081,6.138-4.098,9.414-2.568c12.31,5.522,24.949,10.339,37.786,14.596
				c12.596,4.176,25.9,8.12,38.657,11.16c8.145,1.903,13.206,10.05,11.304,18.196
				C1717.845,1787.9,1707.564,1793.012,1699.036,1789.174L1699.036,1789.174z"/>
		</g>
		<g>
			<path style="fill:#080808;" d="M1869.522,1788.051c-4.79,0-9.502-2.275-12.427-6.516c-45.273-65.6-43.604-124.58-43.511-127.058
				c0.317-8.32,7.158-14.819,15.64-14.504c8.306,0.313,14.79,7.285,14.507,15.588c-0.02,0.85-0.947,52.129,38.188,108.84
				c4.732,6.855,3.013,16.25-3.848,20.981C1875.46,1787.187,1872.476,1788.051,1869.522,1788.051z"/>
		</g>
		<g>
			<path style="fill:#080808;" d="M1822.125,1964.55c-0.859,0-1.733-0.088-2.607-0.273c-6.792-1.431-11.138-8.098-9.707-14.892
				c20.771-98.462,86.767-109.121,112.095-109.475c43.306-94.544,133.833-84.287,134.756-84.185
				c6.885,0.872,11.763,7.158,10.894,14.045c-0.874,6.87-7.061,11.731-14.004,10.901c-3.247-0.388-77.593-8.066-111.851,76.824
				c-2.178,5.403-7.764,8.586-13.54,7.725c-2.896-0.403-72.993-9.041-93.75,89.355
				C1833.16,1960.49,1827.94,1964.55,1822.125,1964.55z"/>
		</g>
		<g>
			<path style="fill:#080808;" d="M1942.332,1855.438c-5.343,15.801-9.791,32.472-12.288,48.994c-0.452,3.5-3.701,5.96-7.192,5.441
				c-2.939-0.433-5.105-2.827-5.374-5.658c-1.636-18.125-1.259-35.934,0.281-54.07
				C1920.301,1831.455,1947.708,1837.337,1942.332,1855.438L1942.332,1855.438z"/>
		</g>
		<g>
			<path style="fill:#FFAC40;" d="M1565.717,840.598c-156.859,94.367-304.92,267.968-411.755,554.538l-0.05,0.05
				C891.021,575.798,1210.421,617.325,1565.717,840.598z"/>
		</g>
		<g style="opacity:0.5;">
			<path style="fill:#FFFFFF;" d="M1565.717,840.598c-11.362,6.838-22.624,14.077-33.886,21.719
				c-323.723-187.628-592.998-190.343-376.16,528.244c-0.553,1.508-1.157,3.066-1.71,4.575l-0.05,0.05
				C891.021,575.798,1210.421,617.325,1565.717,840.598z"/>
		</g>
		<g>
			<path style="fill:#FFF2E8;" d="M1228.895,1224.371c-91.875-342.438-36.413-438.386,182.789-260.405"/>
		</g>
		<g>
			<path style="fill:#F8D2B6;" d="M1411.673,963.974l-24.484,34.891c-148.111-97.735-193.812-24.132-145.346,206.985l-12.971,18.501
				C1137.018,881.924,1192.472,785.999,1411.673,963.974z"/>
		</g>
		<g>
			<path style="fill:#080808;" d="M2379.683,2133.602c-64.602,25.985-131.685,44.168-199.451,55.581
				c-9.298,1.457-12.354-12.125-3.222-14.734c65.363-17.743,128.679-41.891,187.973-72.823
				C2387.009,2091.147,2402.042,2123.643,2379.683,2133.602L2379.683,2133.602z"/>
		</g>
		<g>
			<path style="fill:#080808;" d="M1153.917,1412.807c-7.441,0-14.356-4.758-16.748-12.224
				c-121.558-378.865-129.658-602.615-24.771-684.04c85.791-66.587,241.46-29.868,462.695,109.15
				c8.232,5.171,10.708,16.033,5.537,24.263c-5.166,8.235-16.045,10.698-24.258,5.537
				c-204.487-128.494-350.542-166.934-422.393-111.15c-62.236,48.313-106.392,199.517,36.694,645.488
				c2.969,9.253-2.124,19.163-11.377,22.131C1157.51,1412.536,1155.699,1412.807,1153.917,1412.807z"/>
		</g>
		<g>
			<path style="fill:#080808;" d="M1228.887,1241.972c-7.769,0-14.878-5.181-16.987-13.04
				c-56.362-210.088-57.363-324.319-3.14-359.495c43.398-28.145,111.396-2.451,214.019,80.869
				c7.544,6.125,8.691,17.207,2.568,24.751c-6.133,7.546-17.212,8.694-24.756,2.568c-113.584-92.229-156.948-88.872-172.676-78.662
				c-21.665,14.053-48.14,74.424,17.979,320.847c2.515,9.387-3.052,19.038-12.437,21.555
				C1231.929,1241.777,1230.396,1241.972,1228.887,1241.972z"/>
		</g>
		<g>
			<path style="fill:#080808;" d="M2457.1,1120.446c-4.937,0-9.697-2.078-13.066-5.808c-0.757-0.842-77.153-85.063-174.98-156.802
				c-7.261-5.325-9.331-15.271-4.8-23.049c15.454-26.511,20.61-46.277,14.526-55.654c-3.975-6.128-20.942-19.558-92.266-11.838
				c-6.851,0.737-13.467-2.566-16.992-8.464c-3.525-5.898-3.296-13.308,0.586-18.977
				c150.732-219.993,242.876-233.459,293.623-206.006c91.162,49.302,95.576,267.148,9.639,475.708
				c-2.305,5.586-7.31,9.599-13.267,10.632C2459.102,1120.361,2458.096,1120.446,2457.1,1120.446z M2302.193,938.635
				c66.616,50.356,121.138,103.64,148.667,131.977c71.382-191.05,58.252-372.214-3.872-405.811
				c-48.628-26.301-132.305,35.09-226.738,165.015c46.001-0.752,74.39,9.087,88.057,30.164
				C2320.894,879.384,2318.912,905.209,2302.193,938.635z"/>
		</g>
		<g>
			<path style="fill:#080808;" d="M1392.49,1244.921c21.125-44.33,77.092-69.531,124.153-52.544
				c19.2,7.058,58.838,29.892,36.849,51.854c-4.971,4.263-11.406,5.276-17.288,3.628c-21.387-4.955-39.068-8.444-59.365-4.756
				c-17.984,3.189-36.82,12.61-53.235,21.892c-1.194,0.55-2.61,1.548-3.408,1.628l-11.98,1.201
				C1396.096,1269.403,1386.737,1255.551,1392.49,1244.921L1392.49,1244.921z"/>
		</g>
		<g>
			<path style="fill:#080808;" d="M2036.558,1133.379c21.123-44.333,77.092-69.529,124.153-52.544
				c19.197,7.058,58.835,29.894,36.848,51.854c-4.972,4.264-11.409,5.275-17.291,3.628c-21.386-4.956-39.066-8.444-59.363-4.756
				c-17.985,3.189-36.822,12.61-53.235,21.892c-1.196,0.55-2.61,1.548-3.408,1.628l-11.98,1.201
				C2040.165,1157.862,2030.799,1144.009,2036.558,1133.379L2036.558,1133.379z"/>
		</g>
		<g>
			<path style="fill:#080808;" d="M2379.537,3517.641c-121.528,0.005-242.324-21.655-317.246-38.306
				c-38.809-8.643-71.802-35.4-88.267-71.577l-120.068-264.004l-59.834-13.599l-55.786,138.354
				c2.339,49.473-3.057,95.767-16.045,137.671c-15.044,48.267-57.666,82.861-108.599,88.159
				c-200.728,20.898-393.486-0.166-490.518-14.575c-52.266-7.798-91.157-51.938-92.485-104.951
				c-4.141-161.387,154.717-213.081,199.912-224.497c49.316-227.095,134.258-386.816,149.761-414.79
				c1.294-303.848,130.156-481.318,185.664-543.726c-206.631-35.054-356.509-123.101-434.653-255.82
				c-81.079-137.7-81.201-320.781-0.352-529.456c101.143-280.19,247.578-477.695,435.102-586.641
				c147.578-85.742,318.228-111.467,481.826-72.91c175.527-234.141,351.133-330.798,482.803-265.337
				c76.274,37.922,129.053,128.33,148.618,254.568c19.78,127.627,5.273,281.311-41.943,444.946
				c113.169,143.459,163.818,300.19,146.538,453.811c-16.406,145.857-94.883,282.722-221.484,386.853
				c11.328,25.601,15.308,56.016,11.475,87.285c46.343-1.411,146.768,3.716,165.327,72.163
				c15.474,57.056,9.038,88.438,2.627,103.423c9.717,23.711,31.157,90.708-7.251,149.063c2.124,15.522,2.891,49.155-21.104,83.423
				c-36.104,51.548-111.411,82.368-223.896,91.641c-33.867,39.277-69.697,66.318-106.777,80.605
				c29.658,212.178,22.588,421.875,19.756,480.654c179.199,30.112,219.736,144.16,227.788,210.737
				c6.709,55.474-29.185,106.909-83.486,119.648C2494.136,3512.836,2436.744,3517.641,2379.537,3517.641z M1783.404,3092.079
				c1.289,0,2.598,0.142,3.906,0.439l82.954,18.853c5.356,1.216,9.839,4.868,12.114,9.873l123.677,271.938
				c11.914,26.182,35.796,45.547,63.877,51.797c86.348,19.199,304.897,59.692,468.97,21.211
				c36.812-8.633,61.133-43.521,56.582-81.152c-8.628-71.372-52.695-160.972-213.618-182.51c-9.18-1.23-15.84-9.365-15.225-18.608
				c0.166-2.515,16.265-253.955-20.664-503.887c-1.284-8.687,4.033-16.992,12.461-19.458
				c37.222-10.903,73.901-37.817,109.019-79.995c3.057-3.672,7.471-5.942,12.236-6.289c130.659-9.546,183.34-46.919,204.526-76.587
				c22.764-31.88,15.161-62.09,14.824-63.359c-1.362-5.181-0.337-10.859,2.861-15.156c40.503-54.355,5.049-126.631,4.688-127.358
				c-3.379-6.738-3.296-13.628,1.914-18.931c1.729-3.105,12.275-25.41-3.188-82.427c-13.228-48.779-113.325-48.984-150.796-44.927
				c-5.747,0.605-11.357-1.592-15.132-5.903c-3.779-4.316-5.225-10.2-3.862-15.771c8.711-35.596,4.834-72.158-10.361-97.807
				c-4.492-7.583-2.686-17.319,4.233-22.778c125.776-99.324,203.765-231.528,219.595-372.258
				c16.494-146.65-33.55-297.07-144.717-435c-3.623-4.497-4.81-10.483-3.174-16.023c105.43-357.297,36.533-605.923-86.021-666.853
				c-116.616-57.979-279.116,38.291-445.83,264.143c-4.248,5.757-11.582,8.372-18.496,6.602
				c-291.123-74.121-676.958,53.74-886.777,634.961c-76.968,198.662-77.705,371.174-2.28,499.268
				c76.709,130.283,229.941,214.668,443.12,244.028c6.802,0.938,12.437,5.747,14.434,12.314c1.997,6.572-0.01,13.701-5.141,18.267
				c-1.968,1.758-198.564,181.86-198.564,547.417c0,3.076-0.811,6.099-2.339,8.765c-0.986,1.714-98.979,174.238-150.523,419.683
				c-1.479,7.041-7.1,12.476-14.194,13.716c-7.598,1.348-186.646,34.932-182.617,191.606c0.898,35.898,27.173,65.767,62.48,71.035
				c95.381,14.155,284.834,34.854,481.694,14.385c36.924-3.848,67.793-28.809,78.638-63.604
				c12.08-38.979,16.895-82.466,14.307-129.233c-0.142-2.578,0.283-5.156,1.25-7.554l62.847-155.854
				C1769.82,3096.327,1776.358,3092.079,1783.404,3092.079z M2708.844,2272.573c0,0,0,0-0.005,0
				C2708.844,2272.573,2708.839,2272.573,2708.844,2272.573z"/>
		</g>
		<g>
			<path style="fill:#080808;" d="M2111.44,2387.728c18.395,99.6,59.124,213.359,152.775,262.918
				c29.276,14.667,62.321,18.163,94.203,9.932c9.414-2.431,19.019,3.231,21.448,12.646c2.327,9.009-2.822,18.209-11.514,21.115
				c-83.103,27.982-164.257-20.666-209.501-88.284c-43.75-63.647-64.832-141.027-62.462-217.334
				C2096.786,2379.754,2109.886,2378.802,2111.44,2387.728L2111.44,2387.728z"/>
		</g>
		<g>
			<path style="fill:#080808;" d="M2356.091,2481.382c-41.006-38.541-56.177-99.175-42.355-153.232
				c3.245-11.48,7.482-22.975,11.11-34.351c18.249-58.355,24.958-120.622,36.177-181.671c1.094-14.578,6.982-47.83,15.408-67.831
				c16.312-46.708,62.075-96.885,117.371-85.114c14.128,2.795,26.886,9.923,37.231,18.697c10.398,8.851,18.406,19.51,24.626,30.618
				c4.836,8.481,1.828,19.295-6.692,24.062c-8.521,4.777-19.313,1.683-24.019-6.875c-18.585-34.778-54.498-44.228-84.326-17.087
				c-29.17,26.481-40.873,69.453-44.804,108.613c-5.664,30.691-9.796,62.09-14.69,93.913
				c-5.381,35.093-12.239,71.812-26.128,105.963c-2.379,5.853-5.533,14.602-7.82,20.523c-4.775,16.713-8.198,34.367-7.012,51.906
				c1.187,28.427,11.185,57.693,26.892,81.515C2372.784,2478.21,2363.064,2487.671,2356.091,2481.382L2356.091,2481.382z"/>
		</g>
		<g>
			<path style="fill:#080808;" d="M2380.957,3202.385c-40.018-9.223-83.511-6.224-121.335,10.266
				c-8.569,4.036-15.294-8.213-7.248-13.227c39.829-25.122,88.219-35.407,135.068-31.63
				C2412.807,3171.314,2405.92,3208.297,2380.957,3202.385L2380.957,3202.385z"/>
		</g>
		<g>
			<path style="fill:#080808;" d="M1242.568,3147.622c33.802-2.281,67.446,0.419,100.078,9.356
				c10.764,3.008,21.262,7.11,31.36,11.914c3.765,1.791,5.364,6.295,3.572,10.06c-1.668,3.522-5.711,5.12-9.282,3.9
				c-38.729-11.407-80.925-9.091-119.941-0.516C1223.694,3187.461,1217.517,3150.809,1242.568,3147.622L1242.568,3147.622z"/>
		</g>
		<g>
			<path style="fill:#080808;" d="M1778.809,3126.661c-64.143-22.153-123.573-55.332-177.454-96.19
				c-17.895-13.35-34.58-28.232-50.876-43.365c-3.052-2.834-3.23-7.605-0.396-10.657c2.766-2.987,7.383-3.2,10.427-0.607
				c16.973,13.49,34.165,26.631,52.444,38.2c45.079,29.377,94.054,52.75,144.983,69.858c10.163,3.294,20.804,6.569,30.452,8.883
				C1811.605,3099.248,1802.11,3133.302,1778.809,3126.661L1778.809,3126.661z"/>
		</g>
		<g>
			<path style="fill:#080808;" d="M2480.225,2609.42c-20.676-3.808-39.961-11.113-58.069-21.511
				c-5.894-3.329-11.44-7.34-16.77-11.432c-3.318-2.547-3.943-7.302-1.396-10.62c2.23-2.913,6.133-3.716,9.299-2.225
				c5.54,2.25,11.042,4.349,16.812,5.802c16.592,4.372,34.636,6.268,51.636,4.827
				C2509.825,2572.114,2508.147,2613.815,2480.225,2609.42L2480.225,2609.42z"/>
		</g>
		<g>
			<path style="fill:#080808;" d="M2607.457,2568.598c-2.69,0-5.405-0.049-8.159-0.151c-54.585-2.021-103.862-23.203-131.821-56.655
				c-18.208-21.787-24.78-43.335-19.531-64.048c4.307-17.012,15.737-29.355,26.533-37.622c-19.053-20.815-28.149-43.008-27.1-66.206
				c1.162-25.557,14.785-46.475,27.544-60.64c-22.515-14.077-37.124-37.695-37.9-64.131c-0.532-18.086,5.894-79.321,110.957-108.066
				c9.38-2.549,19.053,2.959,21.616,12.329c2.563,9.375-2.954,19.053-12.329,21.616c-63.794,17.451-85.771,49.199-85.068,73.086
				c0.596,20.2,16.558,37.593,38.813,42.295c6.909,1.46,12.275,6.909,13.633,13.843c1.353,6.929-1.567,13.999-7.417,17.954
				c-0.288,0.195-33.428,23.252-34.697,53.452c-0.747,17.817,10.088,36.011,32.207,54.082c4.829,3.945,7.207,10.151,6.255,16.313
				c-0.947,6.162-5.093,11.362-10.889,13.667c-6.577,2.686-24.6,12.793-28.066,26.763c-2.271,9.131,1.919,20.146,12.441,32.744
				c25.518,30.527,71.548,42.773,106.118,44.058c29.453,1.05,55.059-5.171,65.498-15.933c6.772-6.982,17.91-7.144,24.883-0.381
				c6.978,6.768,7.144,17.91,0.381,24.883C2674.708,2559.013,2644.415,2568.598,2607.457,2568.598z"/>
		</g>
		<g>
			<path style="fill:#080808;" d="M2505.781,2260.095l65.43,4.148c8.627,0.555,9.673,12.969,1.367,15.021
				c0,0-63.611,15.879-63.611,15.879C2482.162,2300.177,2478.488,2259.99,2505.781,2260.095L2505.781,2260.095z"/>
		</g>
		<g>
			<path style="fill:#080808;" d="M2507.266,2396.151l56.98,22.404c7.975,3.135,5.326,15.16-3.137,14.752
				c0,0-61.167-2.734-61.167-2.734C2472.494,2427.666,2480.991,2387.637,2507.266,2396.151L2507.266,2396.151z"/>
		</g>
		<g>
			<path style="fill:#080808;" d="M2747.882,3333.715c-58.516,0.005-121.963-13.599-188.882-45.933
				c-8.75-4.229-12.417-14.751-8.188-23.501c4.229-8.745,14.756-12.407,23.501-8.188c203.716,98.452,372.217,7.441,454.6-100.41
				c85.015-111.284,118.374-283.794,1.265-418.34c-1.099-1.26-2.495-1.68-4.155-1.25c-1.206,0.313-2.744,1.143-3.203,3.32
				c-8.608,40.669-44.482,89.619-117.275,93.721c-0.659,0.029-1.299,0.029-1.934,0.034c-43.613,0-71.611-25.508-103.989-55
				c-35.737-32.549-80.21-73.057-164.243-94.712c-150.469-38.77-249.453,69.38-250.435,70.474
				c-6.484,7.241-17.603,7.861-24.849,1.372c-7.241-6.484-7.852-17.607-1.372-24.849c4.6-5.127,114.541-125.137,285.435-81.079
				c92.495,23.838,140.547,67.607,179.16,102.778c29.17,26.567,50.308,45.82,80.361,45.82c0.098,0,0.2,0,0.303,0
				c52.612-3.13,78.101-36.035,84.404-65.845c3.13-14.771,14.16-26.304,28.799-30.103c14.541-3.755,29.692,0.908,39.536,12.212
				c57.52,66.084,86.431,147.266,83.613,234.766c-2.578,79.985-32.217,160.972-83.452,228.042
				C2993.614,3259.863,2884.19,3333.705,2747.882,3333.715z"/>
		</g>
		<g>
			<path style="fill:#080808;" d="M1167.061,3472.799c-14.41-37.906-13.93-82.254,5.539-118.12
				c5.957-11.849,14.51-21.905,23.211-31.287c2.827-3.048,7.59-3.228,10.64-0.401c2.992,2.76,3.148,7.298,0.683,10.365
				c-27.48,35.146-29.747,85.148-8.556,123.782C1211.16,3479.421,1177.287,3496.331,1167.061,3472.799L1167.061,3472.799z"/>
		</g>
		<g>
			<path style="fill:#080808;" d="M1374.07,3487.51c-14.211-40.771-17.038-90.414,9.541-126.76
				c2.403-3.397,7.105-4.204,10.503-1.802c3.252,2.287,4.048,6.608,2.19,9.95c-16.397,32.952-7.22,72.531,9.541,103.484
				C1418.818,3495.198,1383.691,3511.995,1374.07,3487.51L1374.07,3487.51z"/>
		</g>
		<g>
			<path style="fill:#080808;" d="M2309.944,3367.914c34.389,30.205,42.072,79.314,37.949,122.766
				c-3.018,25.829-40.677,19.178-34.641-6.199c9.287-34.556,9.951-75.786-13.164-105.149
				C2293.244,3372.468,2302.282,3361.979,2309.944,3367.914L2309.944,3367.914z"/>
		</g>
		<g>
			<path style="fill:#080808;" d="M2487.861,3362.872c34.388,30.203,42.073,79.317,37.949,122.766
				c-3.019,25.829-40.674,19.178-34.641-6.199c9.287-34.556,9.954-75.787-13.164-105.149
				C2471.168,3367.421,2480.2,3356.938,2487.861,3362.872L2487.861,3362.872z"/>
		</g>
		<g>
			<path style="fill:#080808;" d="M1602.417,2161.986l160.881,10.055c9.294,0.661,9.328,14.431,0,15.083
				c0,0-160.881,10.055-160.881,10.055C1577.717,2197.762,1577.642,2161.427,1602.417,2161.986L1602.417,2161.986z"/>
		</g>
		<g>
			<g>
				<g>
					<g>
						<path style="fill:#080808;" d="M2147.995,1217.097c62.568-5.622,119.448,63.482,127.044,154.345
							c7.597,90.864-36.966,169.081-99.534,174.702c-62.567,5.621-119.449-63.481-127.045-154.345
							C2040.863,1300.936,2085.428,1222.718,2147.995,1217.097z"/>
					</g>
				</g>
			</g>
			<g>
				<g>
					<g>
						<path style="fill:#FFFFFF;" d="M2151.93,1255.168c19.814,8.552,28.017,39.547,18.322,69.228
							c-9.695,29.682-33.615,46.81-53.429,38.257c-19.813-8.551-28.016-39.546-18.321-69.227
							C2108.196,1263.745,2132.116,1246.615,2151.93,1255.168z"/>
					</g>
				</g>
			</g>
			<g>
				<g>
					<g>
						<path style="fill:#B098C4;" d="M2216.605,1451.09c9.344,7.091,10.287,24.136,2.106,38.071
							c-8.18,13.936-22.386,19.485-31.729,12.394c-9.344-7.089-10.287-24.135-2.106-38.069
							C2193.055,1449.55,2207.263,1444.001,2216.605,1451.09z"/>
					</g>
				</g>
			</g>
		</g>
		<g>
			<g>
				<g>
					<g>
						<path style="fill:#080808;" d="M1504.106,1340.355c-62.548,5.841-105.924,84.131-96.883,174.862
							c9.04,90.732,67.075,159.548,129.623,153.707c62.547-5.842,105.925-84.129,96.883-174.862
							C1624.689,1403.331,1566.653,1334.514,1504.106,1340.355z"/>
					</g>
				</g>
			</g>
			<g>
				<g>
					<g>
						<path style="fill:#FFFFFF;" d="M1507.155,1378.507c-17.93,12.01-20.364,43.979-5.437,71.405
							c14.927,27.426,41.561,39.922,59.492,27.911c17.929-12.009,20.364-43.979,5.437-71.403
							C1551.72,1378.994,1525.085,1366.496,1507.155,1378.507z"/>
					</g>
				</g>
			</g>
			<g>
				<g>
					<g>
						<path style="fill:#B098C4;" d="M1479.158,1582.92c-7.9,8.671-5.729,25.604,4.847,37.82
							c10.576,12.218,25.554,15.093,33.453,6.422c7.9-8.669,5.729-25.603-4.847-37.818
							C1502.036,1577.126,1487.057,1574.251,1479.158,1582.92z"/>
					</g>
				</g>
			</g>
		</g>
		<g>
			<g>
				<path style="fill:#FFFFFF;" d="M2921.373,1092.501c-21.222-41.062-29.69-89.133-21.075-138.171
					c20.911-119.025,134.351-198.561,253.376-177.65c119.025,20.911,198.562,134.351,177.65,253.376
					c-20.911,119.025-134.351,198.561-253.376,177.65c-33.107-5.817-63.144-18.81-88.828-37.073l-102.626,15.407L2921.373,1092.501z
					"/>
			</g>
			<g style="opacity:0.5;">
				<g>
					<path style="fill:#FFFFFF;" d="M3093.314,816.641c-112.105,13.276-194.302,109.102-193.062,219.49
						c-1.712-7.522-3.087-15.189-4.015-23.022c-14.212-120.009,71.553-228.816,191.562-243.028
						c120.009-14.212,228.817,71.553,243.029,191.562c0.932,7.867,1.409,15.682,1.5,23.429
						C3307.794,877.39,3205.456,803.361,3093.314,816.641z"/>
				</g>
			</g>
			<g>
				<path style="fill:#080808;" d="M3116.319,1228.664c-13.75,0-27.593-1.201-41.416-3.628
					c-32.544-5.718-62.798-17.808-90.039-35.972l-95.757,14.377c-6.177,0.925-12.358-1.479-16.279-6.318
					c-3.926-4.839-4.995-11.394-2.822-17.231l32.217-86.399c-21.162-44.441-27.822-93.433-19.253-142.207
					c22.559-128.393,145.361-214.504,273.75-191.938c62.192,10.928,116.411,45.42,152.666,97.124
					c36.25,51.706,50.195,114.434,39.268,176.628c-10.923,62.195-45.415,116.411-97.119,152.664
					C3211.319,1213.959,3164.429,1228.664,3116.319,1228.664z M2989.122,1153.036c3.633,0,7.202,1.125,10.195,3.254
					c24.458,17.393,51.938,28.86,81.675,34.082c52.959,9.316,106.328-2.568,150.337-33.425
					c44.009-30.854,73.364-77.002,82.666-129.937c9.297-52.937-2.573-106.328-33.428-150.334
					c-30.854-44.009-77.002-73.367-129.941-82.666c-109.263-19.202-213.789,54.092-232.998,163.364
					c-7.681,43.728-0.977,87.659,19.375,127.048c2.28,4.409,2.593,9.575,0.859,14.226l-24.443,65.554l73.091-10.974
					C2987.379,1153.1,2988.253,1153.036,2989.122,1153.036z"/>
			</g>
			<g style="opacity:0.25;">
				<path style="fill:#080808;" d="M2920.299,1090.317c56.154,54.852,136.921,82.901,220.164,68.412
					c92.317-16.069,164.096-80.341,194.144-162.439c-0.223,11.155-1.291,22.434-3.282,33.766
					c-20.911,119.025-134.351,198.561-253.376,177.65c-33.107-5.816-63.144-18.809-88.828-37.073l-102.626,15.408l34.879-93.54
					C2921.001,1091.78,2920.663,1091.041,2920.299,1090.317z"/>
			</g>
			<g>
				<path style="fill:#FF0068;" d="M3044.897,930.694L3044.897,930.694c18.937-18.937,49.639-15.544,68.575,3.393l2.947,2.947
					l2.947-2.947c18.937-18.937,49.639-22.33,68.575-3.393l0,0c18.937,18.936,18.937,49.639,0,68.575l-2.947,2.947l-59.536,59.536
					c-4.992,4.992-13.086,4.992-18.079,0l-59.536-59.536l-2.947-2.947C3025.961,980.333,3025.961,949.63,3044.897,930.694z"/>
			</g>
		</g>
	</g>
</g>
</svg>
