<?xml version="1.0" encoding="utf-8"?>
<!-- Generator: Adobe Illustrator 27.5.0, SVG Export Plug-In . SVG Version: 6.00 Build 0)  -->
<svg version="1.1" id="Layer_1" xmlns="http://www.w3.org/2000/svg" xmlns:xlink="http://www.w3.org/1999/xlink" x="0px" y="0px"
	 viewBox="0 0 4000 4000" style="enable-background:new 0 0 4000 4000;" xml:space="preserve">
<g>
	<g>
		<rect style="fill:#00000000;" width="4000" height="4000"/>
	</g>
	<g>
		<g style="opacity:0.2;">
			<ellipse style="fill:#080808;" cx="1834.213" cy="3474.646" rx="1007.942" ry="136.91"/>
		</g>
		<g>
			<g>
				<path style="fill:#FFCF11;" d="M1822.013,2942.816c0,85.05-16.7,165.85-46.65,238.601
					c-82.5,200.35-265.65,339.649-478.35,339.649c-213.55,0-397.3-140.4-479.3-342c-0.15-0.35-0.25-0.55-0.25-0.55
					c-29.2-72-45.45-151.75-45.45-235.7c0-319.35,235.05-578.25,525-578.25S1822.013,2623.466,1822.013,2942.816z"/>
			</g>
			<g style="opacity:0.6;">
				<path style="fill:#FFFFFF;" d="M910.346,2564.4c0,0,22.3-12.488,57.765-3.531c22.496,5.682,32.489,32.241,19.114,51.202
					c-29.485,41.799-76.367,125.365-89.443,247.687c-2.229,20.852-16.887,38.501-37.152,43.895
					c-24.2,6.441-57.245,8.282-86.392-14.253C774.238,2889.4,783.679,2717.733,910.346,2564.4z"/>
			</g>
			<g style="opacity:0.2;">
				<path style="fill:#080808;" d="M1776.313,3184.116c-83.65,199.9-267.55,338.15-480.25,336.95
					c-213.55-1.2-396.5-142.65-477.4-344.7c3.45,7.35,43.35,88.25,145.85,83.5c21.35-1,41.25,9.7,52.55,27.85
					c38.5,61.9,118.8,116.95,214.2,142.8c442.4,103.899,398-386.101,318.9-697.75l85.9,124.95l40.95,398.85l-5.7,20.5
					c9.1-12.45,17.9-25.7,26.35-39.8L1776.313,3184.116z"/>
			</g>
			<g>
				<path style="fill:#080808;" d="M1297.012,3538.569c-299.136,0-542.5-267.251-542.5-595.752
					c0-328.496,243.364-595.747,542.5-595.747s542.5,267.251,542.5,595.747C1839.512,3271.318,1596.148,3538.569,1297.012,3538.569z
					 M1297.012,2382.07c-279.839,0-507.5,251.548-507.5,560.747s227.661,560.752,507.5,560.752s507.5-251.553,507.5-560.752
					S1576.851,2382.07,1297.012,2382.07z"/>
			</g>
			<g>
				<path style="fill:#F3960F;" d="M1342.012,3421.257c-89.784,1.783-178.527-32.741-246.487-90.901
					c-253.482-212.82-228.546-674.254,61.542-843.732c206.899-118.23,441.833-16.411,545.227,187.161
					c41.483,80.001,61.505,170.017,61.385,259.459c-0.01,8.284-6.736,14.991-15.02,14.98c-8.247-0.011-14.932-6.677-14.98-14.911
					c-0.457-84.948-20.078-169.95-59.551-244.806c-100.213-193.299-320.747-285.916-514.586-165.981
					c-261.119,166.788-278.379,589.157-49.308,790.737c47.697,42.062,105.862,72.988,168.344,85.792
					c20.903,4.149,42.165,6.647,63.567,7.204C1351.737,3406.566,1351.813,3420.983,1342.012,3421.257L1342.012,3421.257z"/>
			</g>
			<g style="opacity:0.6;">
				<g>
					<path style="fill:#FFFFFF;" d="M1365.73,3218.094l-5.445-48.949c-22.124,0.481-41.161-2.214-57.099-8.104
						c-15.952-5.898-29.423-13.736-40.417-23.525c-11.003-9.787-19.899-20.296-26.696-31.546
						c-6.791-11.232-12.018-21.967-15.676-32.179c-3.653-10.212-6.863-21.651-9.613-34.327l88.619-9.857
						c2.736,9.53,5.905,17.634,9.509,24.313c3.591,6.68,8.74,12.89,15.427,18.632c6.688,5.752,15.487,9.394,26.418,10.933
						l-11.149-100.232l-4.611-0.673c-11.966-1.807-25.019-4.382-39.167-7.735c-14.151-3.333-27.929-8.689-41.346-16.045
						c-13.421-7.356-24.856-17.976-34.293-31.878c-9.445-13.893-15.435-32.292-17.986-55.227
						c-2.852-25.637,0.064-48.471,8.757-68.523c8.687-20.032,21.719-36.53,39.101-49.475c17.375-12.944,37.715-21.893,61.025-26.849
						l-5.38-48.363l39.829-4.43l5.445,48.949c22.867,0.211,42.143,4.362,57.831,12.442c15.681,8.09,28.538,17.977,38.575,29.632
						c10.034,11.665,17.793,23.296,23.286,34.872c5.486,11.587,10.44,25.195,14.871,40.821l-86.625,9.636
						c-3.999-11.743-8.825-21.146-14.475-28.18c-5.659-7.043-13.7-12.137-24.13-15.311l10.241,92.068l8.72,1.393
						c10.923,1.54,23.127,4.019,36.613,7.436c13.486,3.417,26.874,9.007,40.168,16.77c13.291,7.763,24.695,18.883,34.205,33.361
						c9.502,14.479,15.559,33.369,18.152,56.681c4.148,37.288-3.456,69.407-22.802,96.336c-19.354,26.93-47.877,44.644-85.563,53.17
						l5.51,49.535L1365.73,3218.094z M1287.248,2856.924c1.125,10.111,5.089,17.83,11.901,23.157
						c6.806,5.346,16.926,9.435,30.346,12.266l-9.334-83.913c-11.69,3.654-20.403,9.932-26.131,18.835
						C1288.294,2836.163,1286.04,2846.057,1287.248,2856.924z M1422.108,3027.17c-1.21-10.877-5.328-19.172-12.342-24.878
						c-7.023-5.714-16.717-9.84-29.099-12.404l9.853,88.581c11.267-4.401,19.666-11.228,25.185-20.5
						C1421.23,3048.706,1423.362,3038.443,1422.108,3027.17z"/>
				</g>
			</g>
			<g>
				<g>
					<path style="fill:#F3960F;" d="M1354.48,3214.284l-5.445-48.949c-22.124,0.481-41.161-2.214-57.099-8.104
						c-15.952-5.898-29.423-13.737-40.417-23.525c-11.003-9.787-19.899-20.297-26.696-31.547
						c-6.791-11.231-12.018-21.967-15.676-32.179c-3.653-10.212-6.863-21.651-9.613-34.327l88.619-9.857
						c2.736,9.53,5.905,17.634,9.509,24.313c3.591,6.68,8.74,12.89,15.427,18.632c6.688,5.752,15.487,9.394,26.418,10.933
						l-11.149-100.232l-4.611-0.673c-11.966-1.807-25.019-4.382-39.167-7.735c-14.151-3.333-27.929-8.689-41.346-16.045
						c-13.421-7.356-24.856-17.976-34.293-31.878c-9.445-13.892-15.435-32.292-17.986-55.227
						c-2.852-25.637,0.064-48.471,8.757-68.523c8.687-20.032,21.719-36.53,39.101-49.475c17.375-12.944,37.715-21.893,61.025-26.849
						l-5.38-48.363l39.829-4.43l5.445,48.949c22.867,0.211,42.143,4.362,57.831,12.442c15.681,8.09,28.538,17.977,38.575,29.632
						c10.034,11.665,17.793,23.296,23.286,34.872c5.486,11.587,10.44,25.195,14.871,40.821l-86.625,9.636
						c-3.999-11.743-8.825-21.146-14.475-28.18c-5.659-7.043-13.7-12.137-24.13-15.311l10.241,92.068l8.72,1.393
						c10.923,1.54,23.127,4.019,36.613,7.436c13.486,3.417,26.874,9.007,40.168,16.77c13.291,7.763,24.695,18.883,34.205,33.361
						c9.502,14.479,15.559,33.369,18.152,56.681c4.148,37.288-3.456,69.407-22.802,96.336c-19.354,26.93-47.877,44.644-85.563,53.17
						l5.51,49.535L1354.48,3214.284z M1275.998,2853.114c1.125,10.111,5.089,17.83,11.901,23.157
						c6.806,5.346,16.926,9.435,30.346,12.266l-9.334-83.913c-11.69,3.654-20.403,9.932-26.131,18.835
						C1277.044,2832.354,1274.79,2842.247,1275.998,2853.114z M1410.858,3023.36c-1.21-10.877-5.328-19.172-12.342-24.878
						c-7.023-5.714-16.717-9.84-29.099-12.405l9.853,88.581c11.267-4.401,19.666-11.228,25.185-20.5
						C1409.98,3044.896,1412.112,3034.633,1410.858,3023.36z"/>
				</g>
			</g>
		</g>
		<g>
			<path style="fill:#FFAC40;" d="M3149.513,2891.066c-100.85,363.35-513.4,491.65-698.6,164.95l-3.95-134.75l13.4-100.2
				c81.7,16.65,125.55-50.35,125.55-50.35c10.4,19.75,25.8,32.15,43.25,38.101c11.6,4,24.1,5.25,36.65,3.899
				c16.45-1.7,32.95-7.75,47.6-17.5c40.55-27,56.1-80.2,37-125c-17.4-40.9-60.15-63.4-116.05-43.35c23.55-101.2-26-200.35-26-200.35
				c28.95-18.949,58.8-33.35,89.05-43.45c120.25-40.199,245.85-12.85,337.6,62.101c1.85,1.5,3.65,2.999,5.5,4.6
				c56.25,47.85,99.05,114,118.9,193.75C3177.463,2716.017,3176.563,2799.767,3149.513,2891.066z"/>
		</g>
		<g style="opacity:0.2;">
			<path style="fill:#080808;" d="M2665.363,2821.066c0,0,0.25-3.15,0.45-8.35c16.45-1.7,32.95-7.75,47.6-17.5
				c40.55-27,56.1-80.2,37-125c-17.4-40.9-60.15-63.4-116.05-43.35c23.55-101.2-26-200.35-26-200.35
				c28.95-18.949,58.8-33.35,89.05-43.45l22.95,6.35c0,0-81.7,68.3,0,131.65C2802.013,2584.416,2870.363,2770.366,2665.363,2821.066
				z"/>
		</g>
		<g style="opacity:0.2;">
			<path style="fill:#080808;" d="M3149.513,2891.066c-100.85,363.35-513.4,491.65-698.6,164.95l-3.95-134.75l13.4-100.2
				c81.7,16.65,125.55-50.35,125.55-50.35c10.4,19.75,25.8,32.15,43.25,38.101c-20,51.15-83.5,255.35,145.35,327.25
				c248.8,78.2,442.85-335.85,297.95-631.3c25.3,40.3,55.45,88.35,86.95,138.75
				C3177.463,2716.017,3176.563,2799.767,3149.513,2891.066z"/>
		</g>
		<g>
			<path style="fill:#FFF2E8;" d="M3039.563,3098.917c-0.1,0.099-0.15,0.199-0.2,0.25c-0.1,0.1-0.25,0.2-0.35,0.3
				c-97.2,87.45-183.55,132.45-263.05,142.85c-50.2,6.601-97.7-0.65-143.45-19.649c-0.7-0.3-1.4-0.601-2.1-0.851
				c-27.4-11.6-54.2-27.5-80.6-47.149c-0.15-0.1-0.3-0.2-0.4-0.3c-47.5-35.5-74.7-71.65-89.95-103.9c-3.55-7.5-6.4-14.801-8.75-21.8
				c-17.35-51.9-5.05-89.3-5.05-89.3l1.95-16.05l3.3-27.25c51.95,86.25,129.35,135.85,210.05,154.95
				c97.1,23.1,199.1,2.25,267.7-51.601c178.35-140,175.8-484-117.4-654.85c250.1,12.7,328.25,212.2,347.2,277.4v0.05
				c2.15,7.3,3.5,12.951,4.3,16.4c0.15,0.5,0.25,1.05,0.35,1.55c0.2,0.899,0.35,1.6,0.4,2c0.05,0.1,0.05,0.15,0.05,0.25
				c0.05,0.15,0.05,0.2,0.05,0.2S3235.213,2922.216,3039.563,3098.917z"/>
		</g>
		<g style="opacity:0.2;">
			<path style="fill:#080808;" d="M3149.513,2891.066c-22.8,82.15-61.55,152.3-109.95,207.851c-0.1,0.099-0.15,0.199-0.2,0.25
				c-72.95,83.55-167.8,134.15-263.4,143.15c-48.55,4.55-97.3-1.65-143.45-19.649c-0.7-0.3-1.4-0.601-2.1-0.851
				c-28.05-11.2-55.15-26.849-80.6-47.149c-0.15-0.1-0.3-0.2-0.4-0.3c-33.2-26.5-63.65-60.95-89.95-103.9
				c-2.9-4.7-5.75-9.55-8.55-14.45l-0.2-7.35l-3.1-105.35l3.3-27.25c51.95,86.25,129.35,135.85,210.05,154.95
				c25.65,26.2,62.25,48.95,113.55,65.05c248.8,78.2,442.85-335.85,297.95-631.3c25.05,39.9,54.85,87.35,86,137.2v0.05
				c0.3,0.5,0.65,1,0.95,1.5c1.2,4.9,2.35,9.85,3.35,14.9c0.15,0.5,0.25,1.05,0.35,1.55c0.15,0.649,0.3,1.35,0.4,2
				c0.05,0.1,0.05,0.15,0.05,0.25C3177.113,2730.316,3174.263,2807.517,3149.513,2891.066z"/>
		</g>
		<g>
			<path style="fill:#FFAC40;" d="M2264.363,724.966c-0.05,0-0.05,0-0.05,0c-243.05-30.1-434.65,33.95-579.1,184.1l-0.1,0.05
				c0,0,26.9-262.75,113.55-404.7c60.6-99.25,156.7-155,246.7-76.7C2135.363,506.066,2264.363,724.966,2264.363,724.966z"/>
		</g>
		<g style="opacity:0.5;">
			<path style="fill:#FFFFFF;" d="M2264.363,724.966c-0.05,0-0.05,0-0.05,0c-8.3-1.05-16.5-1.95-24.65-2.75
				c-43.85-69.55-125.15-191.75-187.65-246.15c-90-78.3-186.1-22.55-246.7,76.7c-59.95,98.2-91.3,254.15-104.9,341
				c-5.15,5-10.2,10.1-15.2,15.3l-0.1,0.05c0,0,26.9-262.75,113.55-404.7c60.6-99.25,156.7-155,246.7-76.7
				C2135.363,506.066,2264.363,724.966,2264.363,724.966z"/>
		</g>
		<g>
			<path style="fill:#FFAC40;" d="M2938.663,1219.416c51.65,406.25,16.3,881.85-506.65,868.151c76.7,150.199,190.5,302.35,202.3,452
				c13,165.3-43.45,296-173.95,281.5l-0.95,7.1l-14.9,111.65c0,0,1.95,32.9,4.5,80.05c1.55,28.399,3.3,62,4.95,96.65
				c3.4,71.2,6.4,146.85,6.4,191.2c0,101.7-35,161.7-163.35,163.35h-193.25c-19.3,0-38.05-5.55-53.95-15.85
				c-8.35-5.3-15.85-12-22.3-19.8c-4.75-5.8-9.35-12.2-13.4-19.2c0,0,1.25,48.199-48.75,54.85h-218.35
				c-116.65,0-168.35-126.25-58.35-201.65c0,0-41.2-122.049-54.8-377.6c-0.05-1.349-0.15-2.75-0.2-4.1
				c-38.5-46.95-67.25-101.95-85.75-162c-28-90.9-32.45-193.5-11.45-297.7c-65.85-38.4-133.3-57.9-203.85-62.15
				c8.1-143.45,185.65-283.55,395.2-458.1c-278.45-125.4-389-335.3-222.45-715.05c48.85-114.8,108.65-209.65,179.85-283.65
				c144.45-150.15,336.05-214.2,579.1-184.1c0,0,0,0,0.05,0c86.75,10.75,180.1,33.5,280.15,68.6c0,0,365.85-237.5,494.15-109.15
				C3038.663,684.416,3172.013,788.567,2938.663,1219.416z"/>
		</g>
		<g style="opacity:0.2;">
			<path style="fill:#080808;" d="M2453.963,3116.516c3.4,71.2,6.4,146.85,6.4,191.2c0,101.7-35,161.7-163.35,163.35h-193.25
				c-19.3,0-38.05-5.55-53.95-15.85c-29.1-31.65-44.75-58.15-44.75-58.15c356.4,119.351,360.3-101,362.35-259.35
				c2.1-158.3-50.4-155-50.4-155c-103.55,30.6-218.3,30.35-301.85,23.65l1.9,10.05c0,0,24.3,119.249,40,191.55
				c15.65,72.3,3.7,21.85-42.35,99.25c-46.05,77.45-0.6,109-3.95,127.6c-3.35,18.6-77.5,53.75-247.5,36.25
				s-129.85-134.15-129.85-134.15c1.45,124.6,268.6,70.4,312.35,36.65s32.5-143.75,11.25-266.25
				c-0.515-2.967-1.078-5.872-1.687-8.716c-12.919-60.321-61.98-105.834-122.481-117.881
				c-91.9-18.299-155.267-51.618-198.982-88.904c-97.15-82.949-118.1-243.449-118.1-244.5c3.55,6.9,13.515,12.653,17.615,19.403
				c136.9,227.1,618.635,294.347,759.785-133.986c49.15,93.55,139.9,292.983,166.25,295.433c7.2,0.701,11.35,0.4,11.35,0.4
				l-23.8,98.75l2.05,92.55l1.9,87.85C2450.913,3107.716,2452.013,3110.917,2453.963,3116.516z"/>
		</g>
		<g style="opacity:0.2;">
			<path style="fill:#080808;" d="M2394.513,2091.066c120,205,252.5,815.928-62.5,614.167c0,0,51.102,135.833,166.082,115.833
				s137.919-226.684,137.919-226.684s13.361-134.987-100.371-321.07l-99.88-179.747"/>
		</g>
		<g style="opacity:0.2;">
			<path style="fill:#080808;" d="M2938.663,1219.416c96.683,1063.317-1569.983,773.3-1487.484,123.879
				c0,0-91.905,242.263,67.798,419.184s724.703,309.921,831.369,325.087c106.667,15.167,360,0.184,481.667-137.325
				c121.667-137.508,110.701-399.8,110.701-399.8l19.299-134.375"/>
		</g>
		<g>
			<path style="fill:#FFF2E8;" d="M2906.513,1796.317c-38.75,123.75-154.95,238.199-320.55,279.8
				c-48.15,12.049-100.4,17.95-156.2,16.2c-40.75-1.3-83.3-6.75-127.5-16.9c0,0-0.5,1.1-1.4,3.2c-8.7,20.45-52.9,137.049-7.6,302.45
				l7.1,175.85c67.5-31.25,154.4-48.55,222.65-46.55c55.65,1.7,98.85,16.2,109,46.55c0,0,2.7,21,2.05,51.101
				c-1.25,60.85-16.05,158.75-93.85,195.45c-25.8,12.2-58.5,17.6-99.9,12.75c0,0-20.55-7.15-45.85-23.5
				c-39.85-25.75-91.5-74.4-93.25-154c-47.55,332.35-689.4,422.049-776.8-117.65l12.05-93c0,0-111.95-66.799-203.85-63.5
				c0,0,24.45-120.15,94.4-170.15c0,0,73.05,5.601,154.85,89.451c0,0,126.8-251.15,240.15-332.8
				c-78.75-34.45-151.4-72.1-212.55-115.85c-68.7-49-122.8-105.65-154.7-173.95c-29.15-62.3-39.75-134.301-26-219.05
				c2.8-17.65,6.75-35.9,11.75-54.7c0,0,2.85-9.85,8.6-23c16.8-38.65,58.6-105.85,126.65-36.5
				c91.25,93.05,108.75,175.95,327.5,111.4c0,0,56.25-20.45,145,0c88.75,20.4,144,74.75,203.55,139.15
				c59.6,64.4,150.8,58.1,280.8,17.5c83.45-26.05,237.75-12.8,322.2,49.25C2901.963,1679.917,2927.363,1729.716,2906.513,1796.317z"
				/>
		</g>
		<g style="opacity:0.2;">
			<path style="fill:#080808;" d="M2296.262,2664.366c-60.8,249.05-464.7,344.351-666.85,102.45
				c194,135.25,544.9,121.65,662.9-231.6C2291.813,2562.967,2291.663,2615.216,2296.262,2664.366z"/>
		</g>
		<g style="opacity:0.2;">
			<path style="fill:#080808;" d="M2634.063,2608.017c-6.25,38.899-29.4,150.45-93.85,195.45c-12.45,8.65-26.4,14.85-42.1,17.6
				c-43.45,7.55-77.8-7.149-103.65-28.35c-42.65-34.9-62.45-87.5-62.45-87.5c170.95,109.55,210.1-20.35,191-194.85
				c55.65,1.7,98.85,16.2,109,46.55C2632.013,2556.916,2634.712,2577.917,2634.063,2608.017z"/>
		</g>
		<g style="opacity:0.2;">
			<path style="fill:#080808;" d="M2906.513,1796.317c-38.75,123.75-154.95,238.199-320.55,279.8c-55.25,11.45-109.85,16-156.2,16.2
				c-30.85,0.1-58.05-1.7-79.4-4.75c-11.5-1.65-28.4-4.65-49.5-8.95c-146.6-29.75-498.25-121.25-691.4-243.4
				c-36.75-23.2-67.75-47.5-90.5-72.75c-29.05-32.2-49.8-66.55-64.2-101.2c-32.85-78.65-33.5-158.85-26-219.05
				c7.3-59.1,22.4-98.9,22.4-98.9c-0.9,7.1-1.6,14.2-2.05,21.2c-36.7,526.65,1080.1,803.7,1405.7,280.8
				C2901.963,1679.917,2927.363,1729.716,2906.513,1796.317z"/>
		</g>
		<g style="opacity:0.5;">
			<path style="fill:#FFFFFF;" d="M1715.662,1914.867c14.25,7.45,29,14.55,44.3,21.45c-185.9,154.85-368.8,304.05-408.35,431.1
				c-6.3-0.65-12.65-1.15-19-1.55C1340.263,2230.316,1521.363,2076.317,1715.662,1914.867z"/>
		</g>
		<g style="opacity:0.5;">
			<path style="fill:#FFFFFF;" d="M3075.413,779.666c-11.2-33.1-26.75-45.25-26.75-45.25c-128.3-128.35-494.15,109.15-494.15,109.15
				c-100.05-35.1-193.4-57.85-280.15-68.6c-0.05,0-0.05,0-0.05,0c-243.05-30.1-434.65,33.95-579.1,184.1
				c-71.2,74-131,168.85-179.85,283.65c-65.5,149.35-88.15,272.451-74.6,374.45c-30-111.1-12-249.8,64.6-424.45
				c48.85-114.8,108.65-209.65,179.85-283.65c144.45-150.15,336.05-214.2,579.1-184.1c0,0,0,0,0.05,0
				c86.75,10.75,180.1,33.5,280.15,68.6c0,0,365.85-237.5,494.15-109.15C3038.663,684.416,3069.013,708.116,3075.413,779.666z"/>
		</g>
		<g>
			<path style="fill:#FFF2E8;" d="M2458.713,3342.967c-0.05,0.4-0.1,0.75-0.15,1.1c-8.15,56.8-28.1,113-165.15,127
				c-15.55,1.601-32.65,2.65-51.4,3.1c-51.4,1.25-89.9,0-119.15-3.1c-40.45-4.25-63.3-12-78.35-21.75c-0.05,0-0.05-0.049-0.1-0.099
				c-12.95-8.45-20.1-18.4-27.7-28.8c0,0-3.9,56.8-96.4,51.15c-2.1-0.149-4.2-0.3-6.4-0.5c-44.25-3.9-86.45,1.2-124.95,2.3
				c-39.6,1.15-75.25-1.949-105.2-23.299c-6-4.351-11.8-9.351-17.35-15.25c-24.25-25.75-30.95-54.05-30.3-78.6
				c0.9-36.3,17.8-64.55,17.8-64.55s86.85-65.6,181.85-40c46.6,12.6,98.8,13.15,139.85,10.4c42.65-2.8,73.3-9.1,73.3-9.1l14.5-5.35
				l10.5-3.9c0,0,74.35-35.15,154.35-11.4c40.15,11.9,90.85,14.7,134.45,8.9c43.3-5.7,79.65-19.95,91.8-42.05
				c0,0,2.35,14.55,4.35,36.1c0,0.1,0,0.2,0.05,0.25C2461.613,3264.767,2463.762,3306.767,2458.713,3342.967z"/>
		</g>
		<g style="opacity:0.2;">
			<path style="fill:#080808;" d="M2010.763,3434.816c-2.05,11.3-30.3,28.75-90.45,36.75c-33.5,4.45-77,5.95-131.35,1.8
				c-8.3-0.65-16.85-1.4-25.7-2.3c-34.4-3.55-60.25-11.15-79.5-21c-75.9-38.95-50.35-113.151-50.35-113.151
				c0.1,7.001,1,13.4,2.7,19.301c28,99.3,268.35,49.2,309.65,17.35c23.65-18.25,31.25-58.75,29.85-111.5
				c42.65-2.8,73.3-9.1,73.3-9.1l14.5-5.35c-1.65,13.55-17.15,6.6-48.7,59.6C1968.663,3384.667,2014.113,3416.217,2010.763,3434.816
				z"/>
		</g>
		<g style="opacity:0.2;">
			<path style="fill:#080808;" d="M2460.363,3307.716c0,12.451-0.55,24.3-1.7,35.5c0,0.3-0.05,0.55-0.1,0.85
				c-8.5,79.5-49.35,125.55-161.55,127h-193.25c-19.3,0-38.05-5.55-53.95-15.85c-1.8-2-3.6-3.95-5.3-5.9
				c-0.05,0-0.05-0.049-0.1-0.099c-25.65-28.9-39.35-52.15-39.35-52.15c282.1,94.45,343.35-23.85,357.65-155.85
				c43.3-5.7,79.65-19.95,91.8-42.05c0,0,2.35,14.65,4.4,36.35C2459.813,3263.566,2460.363,3288.566,2460.363,3307.716z"/>
		</g>
		<g>
			<path style="fill:#FFF2E8;" d="M2921.313,954.416c-24.85,77.6-59.3,145.8-59.3,145.8c-57.5-76.65-129.15-130.8-129.15-130.8
				s97.5-10,81.65-72.5c-0.05-0.1-0.05-0.2-0.1-0.3c-12.1-46.4-89.6-21.75-127.8-6.45c-12.85,5.15-21.25,9.25-21.25,9.25
				c3.25-3.85,6.45-7.6,9.7-11.2c127.3-143.45,247.8-136.3,247.8-136.3C2961.713,789.066,2946.313,876.466,2921.313,954.416z"/>
		</g>
		<g style="opacity:0.2;">
			<path style="fill:#080808;" d="M2922.863,937.716c15.2-121.55-71.8-68.3-108.45-41.1c-12.1-46.4-89.6-21.75-127.8-6.45
				l-11.55-1.95c127.3-143.45,247.8-136.3,247.8-136.3c38.85,37.15,23.45,124.55-1.55,202.5
				C2921.613,949.167,2922.113,943.617,2922.863,937.716z"/>
		</g>
		<g>
			<path style="fill:#FFF2E8;" d="M1986.213,735.966l-185.4,77.8c0,0,5.45-26.9,14.95-64.35c23.05-90.6,69.95-242.8,121.25-223.35
				c39.75,15.1,70.5,59.1,90.15,95.8c16.2,30.2,24.85,55.45,24.85,55.45C1965.763,635.467,1932.763,694.217,1986.213,735.966z"/>
		</g>
		<g style="opacity:0.2;">
			<path style="fill:#080808;" d="M2027.163,621.866c-139.85-60.85-206.8,139.2-206.8,139.2l-4.6-11.65
				c23.05-90.6,69.95-242.8,121.25-223.35C1976.763,541.166,2007.512,585.167,2027.163,621.866z"/>
		</g>
		<g>
			<path style="fill:#080808;" d="M2103.76,3488.569c-31.387,0-60.879-12.261-82.471-33.97
				c-9.258,15.85-25.796,30.117-53.618,33.818c-0.767,0.103-1.538,0.151-2.31,0.151h-218.35c-63.55,0-115.19-34.131-131.558-86.953
				c-15.21-49.087,4.985-101.367,52.852-138.955c-10.635-37.017-40.469-156.782-51.821-368.35
				c-95.127-118.989-131.138-284.663-99.58-457.261c-58.452-32.139-119.219-49.731-185.342-53.711
				c-9.624-0.581-16.968-8.833-16.421-18.457c8.11-143.643,167.485-276.089,369.258-443.772l11.035-9.18
				c-137.354-66.833-223.242-152.2-262.188-260.379c-44.966-124.897-26.621-277.283,56.089-465.864
				c94.439-221.875,230.2-369.519,403.433-438.657c175.713-70.129,394.194-60.969,649.497,27.224
				c54.463-34.167,380.005-229.587,508.237-102.747c13.818,11.98,132.021,131.728-93.774,551.284
				c19.395,155.159,22.031,286.035,8.062,399.939c-17.734,144.609-63.301,258.372-135.435,338.125
				c-85.43,94.46-209.253,142.991-368.296,144.46c16.563,30.933,34.487,62.173,51.948,92.607
				c63.789,111.172,129.746,226.128,138.75,340.264c9.058,115.205-15.405,209.995-67.119,260.073
				c-29.033,28.11-66.514,42.095-109.097,41.343l-13.462,100.864c1.353,22.935,15.781,270.483,15.781,367.246
				c0,123.472-55.708,179.248-180.625,180.854H2103.76z M2014.176,3398.788c6.108,0,11.909,3.179,15.083,8.662
				c3.247,5.605,7.212,11.284,11.792,16.875c15.264,18.574,38.13,29.243,62.71,29.243h193.252
				c121.416-1.563,145.85-56.968,145.85-145.854c0-99.961-15.659-364.199-15.82-366.855c-0.063-1.118-0.024-2.241,0.122-3.354
				l15.85-118.75c1.26-9.429,9.775-16.123,19.282-15.078c39.546,4.399,72.52-5.884,97.993-30.562
				c44.194-42.793,64.814-127.417,56.577-232.178c-8.384-106.289-72.354-217.778-134.214-325.596
				c-22.524-39.258-45.82-79.854-66.226-119.814c-2.808-5.498-2.51-12.07,0.781-17.29c3.286-5.22,9.014-8.354,15.264-8.164
				c162.52,4.224,287.441-40.381,370.928-132.693c121.533-134.375,161.201-375.191,117.905-715.757
				c-0.464-3.633,0.225-7.319,1.973-10.542c220.889-407.844,105.552-512.07,104.36-513.076c-0.562-0.44-0.845-0.711-1.353-1.216
				c-96.958-97.014-373.77,47.568-472.246,111.458c-4.546,2.944-10.205,3.63-15.322,1.833
				c-498.496-174.91-831.25-47.5-1017.251,389.49c-79.014,180.156-97.07,324.065-55.288,440.127
				c37.891,105.249,125.825,187.715,268.823,252.112c5.498,2.478,9.336,7.612,10.151,13.589c0.815,5.976-1.504,11.953-6.138,15.815
				l-32.241,26.814c-179.238,148.955-335.112,278.491-354.839,401.807c68.701,6.66,132.129,27.373,193.34,63.066
				c6.47,3.77,9.819,11.235,8.34,18.574c-34.014,168.921,0.093,331.167,93.579,445.142c2.368,2.891,3.755,6.465,3.945,10.195
				c13.037,252.256,53.701,375.806,54.111,377.021c2.49,7.417-0.239,15.596-6.694,20.02
				c-42.837,29.365-61.406,69.517-49.668,107.402c11.728,37.856,50.244,62.314,98.125,62.314h217.114
				c31.128-4.741,32.529-31.655,32.49-37.056c-0.059-7.939,5.234-15.01,12.896-17.1
				C2011.06,3398.993,2012.628,3398.788,2014.176,3398.788z"/>
		</g>
		<g>
			<path style="fill:#080808;" d="M2431.55,2105.06c-78.972-6.386-155.808-22.805-230.654-44.12
				c-2.659-0.757-4.202-3.527-3.445-6.187c0.706-2.478,3.196-3.978,5.679-3.561c76.201,13.106,153.257,20.939,229.346,18.88
				C2456.823,2070.298,2455.99,2106.085,2431.55,2105.06L2431.55,2105.06z"/>
		</g>
		<g>
			<path style="fill:#080808;" d="M1987.507,1997.581c-90.707-17.411-180.532-39.723-266.885-73.859
				c-8.992-3.568-13.391-13.75-9.822-22.744c3.724-9.54,15.096-13.833,24.202-9.167c40.154,20.331,81.995,37.984,124.656,53.76
				c42.678,15.769,86.204,29.665,130.161,42.281C1995.76,1989.598,1993.779,1998.687,1987.507,1997.581L1987.507,1997.581z"/>
		</g>
		<g>
			<path style="fill:#080808;" d="M1685.137,926.63c-0.596,0-1.196-0.029-1.802-0.093c-9.614-0.984-16.611-9.575-15.625-19.19
				c1.113-10.891,28.306-268.374,116.03-412.068c42.173-69.075,96.069-111.851,151.763-120.452
				c42.1-6.504,84.028,7.236,121.333,39.705c91.099,79.287,217.251,292.534,222.578,301.572c4.907,8.328,2.134,19.055-6.196,23.962
				c-8.32,4.895-19.053,2.134-23.96-6.194c-1.274-2.165-128.589-217.38-215.4-292.939c-29.707-25.854-61.001-36.47-93.013-31.516
				c-44.678,6.899-91.055,44.844-127.231,104.099c-83.564,136.882-110.82,394.807-111.089,397.397
				C1701.602,919.921,1694,926.63,1685.137,926.63z"/>
		</g>
		<g>
			<path style="fill:#080808;" d="M2862.008,1117.734c-5.474,0-10.674-2.571-13.994-6.999
				c-55.244-73.662-125.024-126.851-125.723-127.378c-5.732-4.341-8.232-11.748-6.294-18.672c1.934-6.914,7.896-11.948,15.039-12.69
				l0,0c13.193-1.399,50.293-9.109,63.286-27.759c4.536-6.506,5.562-13.828,3.228-23.039c-1.362-5.374-3.96-8.601-8.687-10.798
				c-24.209-11.25-83.911,9.199-115.854,24.736c-7.441,3.606-16.392,1.531-21.47-4.99c-5.078-6.526-4.897-15.713,0.435-22.031
				c134.912-159.844,266.367-154.038,271.909-153.682c4.146,0.244,8.066,1.956,11.064,4.824
				c84.424,80.793-42.554,339.617-57.31,368.862c-2.729,5.405-8.057,9.016-14.087,9.548
				C2863.038,1117.712,2862.52,1117.734,2862.008,1117.734z M2771.524,978.62c22.52,19.622,55.405,50.603,86.924,88.811
				c46.523-99.971,94.59-248.364,56.724-297.93c-22.393,1.196-98.545,11.14-185.059,88.149c25.859-6.045,53.438-8.306,73.477,0.996
				c14.297,6.636,23.94,18.376,27.886,33.955c4.814,19.006,1.88,36.892-8.496,51.729
				C2810.626,961.994,2789.879,972.48,2771.524,978.62z"/>
		</g>
		<g>
			<path style="fill:#080808;" d="M2919.475,734.728c22.331-1.339,44.611,2.469,65.427,10.286
				c6.763,2.469,13.215,5.752,19.446,9.162c3.647,1.996,4.985,6.569,2.991,10.216c-1.768,3.238-5.546,4.616-8.911,3.566
				c-6.147-1.558-12.236-2.949-18.472-3.564c-17.874-1.982-36.633-0.72-53.74,4.679
				C2898.331,779.655,2889.338,736.223,2919.475,734.728L2919.475,734.728z"/>
		</g>
		<g>
			<path style="fill:#080808;" d="M1800.85,831.247c-1.152,0-2.314-0.112-3.486-0.349c-9.473-1.917-15.601-11.145-13.687-20.62
				c5.356-26.504,54.267-260.017,121.85-297.327c12.319-6.802,25.357-7.925,37.691-3.247
				c79.267,30.066,123.501,156.558,125.347,161.929c2.295,6.687,0.342,14.097-4.951,18.784c-5.283,4.685-12.876,5.735-19.243,2.642
				c-38.272-18.579-60.2-13.184-65.044-5.422c-4.214,6.763,0.542,21.165,17.661,34.536c7.617,5.947,8.97,16.946,3.022,24.563
				c-5.957,7.62-16.958,8.967-24.566,3.02c-35.351-27.607-38.438-60.393-25.815-80.637c10.229-16.409,33.994-28.97,71.016-21.333
				c-17.226-36.299-48.638-89.729-89.839-105.356c-1.929-0.73-4.282-1.094-8.364,1.162
				c-40.293,22.244-85.454,179.636-104.458,273.621C1816.304,825.514,1809.005,831.247,1800.85,831.247z"/>
		</g>
		<g>
			<path style="fill:#080808;" d="M1872.744,2977.973c37.709,9.114,76.095,14.785,114.619,18.812
				c12.769,1.3,25.784,2.449,38.269,3.193c8.046,0.887,14.15,7.274,14.983,15.002c4.022,38.51,10.07,76.91,17.5,114.985
				c7.375,37.823,15.946,76.007,25.781,113.146c1.829,6.809-0.592,13.754-5.649,18.023c-11.448,10.124-22.942,20.347-32.19,31.93
				c-9.419,11.419-17.51,23.63-22.764,36.502c-11.066,26.128-8.264,53.998,6.192,78.29c10.679,20.264-18.533,37.061-30.501,17.158
				c-42.683-72.663-1.206-143.116,56.793-190.714c-0.001,0-5.648,18.021-5.648,18.021c-10.191-38.501-18.765-76.719-26.375-115.689
				c-7.588-38.905-13.755-78.05-17.903-117.554c-0.007-0.001,15.059,15.59,15.027,15.575
				c-51.675-11.943-102.373-26.866-151.299-47.193C1864.07,2985.223,1866.722,2976.431,1872.744,2977.973L1872.744,2977.973z"/>
		</g>
		<g>
			<path style="fill:#080808;" d="M2432.012,2105.068c-9.663,0-17.549-7.886-17.549-17.549s7.837-17.5,17.5-17.5
				c4.844,0,9.229,1.968,12.397,5.151c3.184,3.169,5.151,7.554,5.151,12.397C2449.512,2097.231,2441.676,2105.068,2432.012,2105.068
				z"/>
		</g>
		<g>
			<path style="fill:#080808;" d="M1702.817,2100.817c-74.802,96.612-128.345,210.465-149.199,330.658
				c-1.653,9.526-10.715,15.91-20.242,14.258s-15.908-10.714-14.258-20.24c14.189-62.388,36.858-122.461,66.16-178.669
				c29.18-55.953,65.034-108.073,105.93-155.507C1697.509,2084.213,1708.629,2093.029,1702.817,2100.817L1702.817,2100.817z"/>
		</g>
		<g>
			<path style="fill:#080808;" d="M2744.581,3261.303c-126.133,0-237.056-69.946-308.887-196.68
				c-4.766-8.408-1.812-19.087,6.597-23.853c8.403-4.761,19.082-1.812,23.853,6.597c72.588,128.066,188.257,192.437,317.285,176.519
				c158.262-19.478,298.604-155.107,349.224-337.495c62.173-209.912-21.787-363.491-121.064-437.324
				c-115.439-85.845-269.951-88.96-393.652-7.93c-8.086,5.303-18.931,3.037-24.229-5.049s-3.037-18.936,5.049-24.229
				c136.128-89.16,306.382-85.586,433.716,9.121c138.774,103.203,190.049,285.234,133.818,475.059
				c-27.515,99.155-79.194,186.187-149.37,251.392c-67.349,62.578-146.606,101.025-229.219,111.196
				C2773.16,3260.414,2758.77,3261.303,2744.581,3261.303z"/>
		</g>
		<g>
			<path style="fill:#080808;" d="M2656.304,2830.805c-8.599,0.005-17.104-1.03-25.337-3.135
				c-26.362-6.733-47.295-23.618-60.527-48.833c-4.492-8.56-1.196-19.136,7.358-23.628c8.574-4.492,19.136-1.196,23.628,7.358
				c8.501,16.196,21.709,26.982,38.198,31.191c20.112,5.137,44.058,0.229,64.092-13.101c33.188-22.104,46.348-66.646,30.605-103.608
				c-15.366-36.108-51.426-49.019-94.053-33.696c-9.121,3.267-19.121-1.46-22.388-10.552c-3.267-9.097,1.455-19.121,10.552-22.388
				c59.966-21.528,115.459-0.269,138.096,52.925c22.593,53.062,4.331,114.653-43.413,146.45
				C2702.388,2823.588,2679.019,2830.805,2656.304,2830.805z"/>
		</g>
		<g>
			<path style="fill:#080808;" d="M2458.076,2832.823c-110.807-14.999-165.762-108.998-177.765-212.319
				c-4.515-36.022-4.775-71.969-2.797-107.937c1.23-23.054,4.663-45.177,3.973-68.178c-0.519-33.856-5.418-67.754-12.678-101.042
				c-0.882-3.377,1.214-6.869,4.641-7.618c2.744-0.613,5.474,0.71,6.765,3.056c5.933,10.783,10.364,21.765,14.668,33.043
				c12.829,34.322,19.495,70.438,18.604,107.57c-4.15,94.724-5.891,211.864,65.421,283.527
				c23.058,22.83,52.083,37.088,84.015,44.792C2478.373,2811.727,2474.058,2834.832,2458.076,2832.823L2458.076,2832.823z"/>
		</g>
		<g>
			<path style="fill:#080808;" d="M2058.813,3232.273c30.21-11.532,62.471-16.594,94.614-16.763
				c10.466-0.126,20.903,0.73,31.191,1.808c2.756,0.289,4.753,2.756,4.465,5.51c-0.257,2.479-2.286,4.336-4.68,4.487
				c-38.381,3.613-76.559,15.382-109.192,35.878C2052.852,3277.513,2034.387,3242.842,2058.813,3232.273L2058.813,3232.273z"/>
		</g>
		<g>
			<path style="fill:#080808;" d="M1678.469,3255.188c18.786-10.083,40.267-13.445,60.954-15.75
				c14.181-1.534,29.578-1.633,43.787-1.376c0,0,14.412,0.682,14.412,0.682c5.874,0.237,6.423,9.011,0.627,9.959
				c-17.785,2.916-37.294,7.051-54.253,12.765c-15.877,5.512-32.353,11.625-45.105,22.142
				C1679.84,3296.6,1660.049,3269.14,1678.469,3255.188L1678.469,3255.188z"/>
		</g>
		<g>
			<path style="fill:#080808;" d="M1722.432,3475.471c-23.233-43.331-16.926-97.849,22.74-128.923
				c4.806-4.336,11.287,2.312,7.015,7.125c-25.795,30.23-25.46,71.332-0.834,102.084
				C1769.924,3476.698,1735.476,3500.385,1722.432,3475.471L1722.432,3475.471z"/>
		</g>
		<g>
			<path style="fill:#080808;" d="M1851.143,3476.14c-25.201-43.097-20.278-95.213,19.752-127.038
				c4.802-4.312,11.265,2.32,7.013,7.125c-25.469,29.856-24.62,69.715,1.195,98.86
				C1899.022,3475.267,1865.463,3500.823,1851.143,3476.14L1851.143,3476.14z"/>
		</g>
		<g>
			<path style="fill:#080808;" d="M2122.295,3476.358c-21.049-34.521-33.759-87.968,1.074-117.883
				c4.486-3.937,10.942,2.167,7.287,6.85c-10.457,13.958-11.925,31.086-6.633,47.17c4.993,15.537,14.638,30.56,25.898,42.375
				C2169.411,3474.65,2136.941,3500.086,2122.295,3476.358L2122.295,3476.358z"/>
		</g>
		<g>
			<path style="fill:#080808;" d="M2279.348,3476.358c-21.049-34.521-33.759-87.968,1.074-117.883
				c4.486-3.937,10.942,2.167,7.287,6.85c-10.457,13.958-11.925,31.086-6.633,47.17c4.993,15.537,14.638,30.56,25.898,42.375
				C2326.464,3474.65,2293.995,3500.086,2279.348,3476.358L2279.348,3476.358z"/>
		</g>
		<g>
			<path style="fill:#080808;" d="M2391.387,2783.052c25.707-16.161,33.851-50.896,31.557-80.133
				c-0.661-6.094,8.107-7.89,9.802-1.985c11.887,35.304,8.745,77.654-16.854,106.606
				C2398.847,2827.907,2371,2800.053,2391.387,2783.052L2391.387,2783.052z"/>
		</g>
		<g>
			<path style="fill:#080808;" d="M2528.806,2794.864c21.396-21.546,21.491-57.223,12.661-85.188
				c-2.02-5.789,6.117-9.515,9.099-4.146c19.549,31.711,26.045,73.679,7.639,107.66
				C2546.2,2836.879,2512.777,2816.025,2528.806,2794.864L2528.806,2794.864z"/>
		</g>
		<g>
			<path style="fill:#080808;" d="M2112.706,1468.265c-27.929-30.443-104.44-52.582-145.749-37.63
				c-12.319,4.459-19.439,17.381-16.431,30.131c5.392,22.856,20.457,61.911,61.487,75.3c41.768,13.63,79.824-14.185,98.722-31.88
				C2120.919,1494.65,2122.138,1478.546,2112.706,1468.265z"/>
		</g>
		<g>
			<path style="fill:#FF7F80;" d="M2177.976,1693.325c0,0-50.13-38.092-108.463,8.575c0,0-72.127-37.469-115.23,34.182
				c0,0,53.163,71.253,128.363,40.202C2157.846,1745.233,2177.976,1693.325,2177.976,1693.325z"/>
		</g>
		<g>
			<path style="fill:#FFFFFF;" d="M2079.19,1476.699c-3.407,10.459-24.961,5.345-48.428-2.299
				c-23.466-7.644-39.959-14.924-36.552-25.383c3.407-10.458,25.192-12.74,48.659-5.096S2082.597,1466.24,2079.19,1476.699z"/>
		</g>
		<g>
			<path style="fill:#080808;" d="M2046.148,1799.687c-36.65,0-71.816-15.4-98.081-43.904
				c-41.777-45.334-53.052-113.643-30.166-182.72c1.768-5.342,5.996-9.507,11.367-11.191c5.351-1.692,11.201-0.696,15.708,2.666
				c5.576,4.143,135.757,98.467,268.267,5.93c6.05-4.221,14.092-4.199,20.112,0.051c6.025,4.253,8.735,11.824,6.782,18.933
				c-42.783,155.679-120.166,196.16-162.49,206.436C2067.144,1798.437,2056.583,1799.687,2046.148,1799.687z M1945.225,1605.812
				c-10.352,48.95-0.215,95.005,28.579,126.252c24.99,27.126,60.708,38.279,95.586,29.81
				c50.518-12.263,94.248-62.173,123.267-139.202C2086.9,1671.886,1987.398,1629.411,1945.225,1605.812z"/>
		</g>
		<g>
			<path style="fill:#080808;" d="M2177.976,1693.325c0,0-50.13-38.092-108.463,8.575c0,0-72.127-37.469-115.23,34.182
				c0,0-56.436-80.849-10.603-140.849c0,0,138.333,66.667,267.5,5"/>
		</g>
		<g>
			<path style="fill:#080808;" d="M1923.55,1592.208c-18.596-20.073-35.212-40.942-46.219-66.249
				c-1.604-3.845,0.213-8.263,4.058-9.868c3.321-1.389,7.054-0.212,9.055,2.583c7.222,9.344,16.13,17.64,25.53,25.338
				c9.206,7.411,19.567,14.921,29.5,20.913c8.398,4.979,11.167,15.823,6.189,24.219
				C1945.909,1599.212,1931.325,1600.749,1923.55,1592.208L1923.55,1592.208z"/>
		</g>
		<g>
			<path style="fill:#080808;" d="M2006.002,1631.611c-7.153,0-13.867-4.421-16.45-11.536
				c-22.368-61.631,5.068-108.013,6.245-109.956c5.01-8.269,15.776-10.908,24.038-5.891c8.237,4.993,10.884,15.693,5.947,23.945
				c-0.967,1.658-19.717,34.814-3.33,79.963c3.296,9.084-1.396,19.121-10.479,22.419
				C2010.001,1631.271,2007.984,1631.611,2006.002,1631.611z"/>
		</g>
		<g>
			<path style="fill:#080808;" d="M1954.273,1748.586c-2.197,0-4.419-0.579-6.436-1.792c-5.913-3.557-7.822-11.238-4.268-17.153
				c35.845-59.578,93.247-54.912,124.37-42.214c49.995-35.608,98.369-18.665,117.598-4.055c5.498,4.177,6.567,12.019,2.388,17.517
				c-4.16,5.479-11.968,6.565-17.466,2.424c-1.904-1.404-43.584-31.294-93.14,8.347c-3.862,3.091-9.185,3.608-13.569,1.333
				c-2.495-1.272-62.378-30.933-98.755,29.534C1962.647,1746.425,1958.511,1748.586,1954.273,1748.586z"/>
		</g>
		<g>
			<path style="fill:#080808;" d="M2079.019,1710.016c-12.159,11.147-22.574,25.22-31.277,39.454
				c-1.54,2.554-4.861,3.374-7.417,1.832c-2.126-1.284-3.047-3.806-2.407-6.087c2.466-8.763,5.476-17.441,9.048-25.979
				c3.923-9.104,7.677-17.155,13.264-25.795C2071.536,1678,2092.941,1696.854,2079.019,1710.016L2079.019,1710.016z"/>
		</g>
		<g>
			<path style="fill:#FFFFFF;" d="M2002.797,1146.778c-12.372,25.841-50.696,33.124-91.169,13.746
				c-40.474-19.377-67.77-58.077-55.398-83.918s55.211-31.08,95.685-11.703C1992.387,1084.28,2015.168,1120.937,2002.797,1146.778z"
				/>
		</g>
		<g>
			<path style="fill:#FFFFFF;" d="M2302.469,1215.338c-2.985,28.494,25.858,54.76,70.487,59.434
				c44.629,4.675,88.145-14.012,91.129-42.506c2.984-28.494-30.775-55.382-75.404-60.057
				C2344.052,1167.535,2305.453,1186.844,2302.469,1215.338z"/>
		</g>
		<g>
			<g>
				<g>
					<g>
						
							<ellipse transform="matrix(0.217 -0.9762 0.9762 0.217 409.0255 3388.7607)" style="fill:#080808;" cx="2317.013" cy="1439.4" rx="142.531" ry="98.193"/>
					</g>
				</g>
			</g>
			<g>
				<g>
					<g>
						<path style="fill:#FFFFFF;" d="M2340.812,1332.523c14.2,12.06,13.152,39.719-2.341,61.777
							c-15.493,22.059-39.564,30.165-53.764,18.104c-14.2-12.059-13.152-39.718,2.342-61.776
							C2302.541,1328.569,2326.611,1320.462,2340.812,1332.523z"/>
					</g>
				</g>
			</g>
			<g>
				<g>
					<g>
						<path style="fill:#B098C4;" d="M2344.773,1510.595c5.926,8.212,2.403,22.522-7.867,31.963
							c-10.27,9.442-23.398,10.438-29.322,2.227c-5.926-8.21-2.403-22.522,7.867-31.961
							C2325.719,1503.381,2338.849,1502.385,2344.773,1510.595z"/>
					</g>
				</g>
			</g>
		</g>
		<g>
			<g>
				<g>
					<g>
						<path style="fill:#080808;" d="M1830.588,1164.777c53.669,15.888,78.09,91.8,54.548,169.553
							c-23.542,77.754-86.134,127.906-139.803,112.018c-53.667-15.888-78.092-91.799-54.549-169.553
							C1714.327,1199.042,1776.92,1148.89,1830.588,1164.777z"/>
					</g>
				</g>
			</g>
			<g>
				<g>
					<g>
						<path style="fill:#FFFFFF;" d="M1821.347,1197.602c13.603,13.589,10.221,41.954-7.555,63.355
							c-17.776,21.401-43.212,27.734-56.815,14.144c-13.603-13.588-10.22-41.953,7.556-63.353
							C1782.307,1190.346,1807.744,1184.012,1821.347,1197.602z"/>
					</g>
				</g>
			</g>
			<g>
				<g>
					<g>
						<path style="fill:#B098C4;" d="M1810.585,1381.113c5.411,8.941,0.595,23.369-10.756,32.224
							c-11.351,8.857-24.939,8.788-30.349-0.152c-5.411-8.94-0.595-23.368,10.756-32.223
							C1791.586,1372.105,1805.175,1372.174,1810.585,1381.113z"/>
					</g>
				</g>
			</g>
		</g>
	</g>
</g>
</svg>
