<?xml version="1.0" encoding="utf-8"?>
<!-- Generator: Adobe Illustrator 27.5.0, SVG Export Plug-In . SVG Version: 6.00 Build 0)  -->
<svg version="1.1" xmlns="http://www.w3.org/2000/svg" xmlns:xlink="http://www.w3.org/1999/xlink" x="0px" y="0px"
	 viewBox="0 0 500 500" style="enable-background:new 0 0 500 500;" xml:space="preserve">
<g id="BACKGROUND">
	<rect style="fill:#00000000;" width="500" height="500"/>
</g>
<g id="OBJECTS">
	<g>
		<g>
			<path style="opacity:0.2;fill:#131523;" d="M389.281,397.94c0,2.545-55.835,4.608-124.71,4.608
				c-68.875,0-124.71-2.063-124.71-4.608s55.835-4.609,124.71-4.609C333.447,393.331,389.281,395.395,389.281,397.94z"/>
			<path style="opacity:0.2;fill:#131523;" d="M208.79,407.978c0,2.545-15.878,4.609-35.465,4.609s-35.465-2.063-35.465-4.609
				s15.878-4.608,35.465-4.608S208.79,405.433,208.79,407.978z"/>
			<g>
				<g>
					<path style="fill:#FCB500;" d="M373.717,370.498H231.026c-1.362,0-2.466-1.104-2.466-2.466l0,0
						c0-1.362,1.104-2.466,2.466-2.466h142.691c1.362,0,2.466,1.104,2.466,2.466l0,0
						C376.183,369.393,375.079,370.498,373.717,370.498z"/>
					<path style="fill:#FCED33;" d="M231.026,365.817h142.691c1.319,0,2.387,1.038,2.453,2.34c0.002-0.043,0.013-0.083,0.013-0.126
						c0-1.362-1.104-2.467-2.466-2.467H231.026c-1.362,0-2.466,1.104-2.466,2.467c0,0.043,0.01,0.083,0.013,0.126
						C228.64,366.855,229.707,365.817,231.026,365.817z"/>
					<path style="fill:#FCC020;" d="M225.834,395.549h152.118c3.133,0,5.673-2.54,5.673-5.673v-15.92
						c0-3.133-2.54-5.673-5.673-5.673H225.834c-3.133,0-5.673,2.54-5.673,5.673v15.92
						C220.161,393.009,222.701,395.549,225.834,395.549z"/>
					<g>
						<polygon style="fill:#FCD844;" points="227.586,395.549 270.102,395.549 297.368,368.283 254.852,368.283 						"/>
						<path style="fill:#FCD844;" d="M383.173,371.311c-0.802-1.784-2.59-3.028-4.673-3.028h-6.693l-27.266,27.266h14.394
							L383.173,371.311z"/>
						<polygon style="fill:#FCD844;" points="328.553,368.283 315.758,368.283 288.493,395.549 301.288,395.549 						"/>
						<polygon style="fill:#FCD844;" points="360.423,368.283 354.533,368.283 327.267,395.549 333.157,395.549 						"/>
					</g>
					<g>
						<rect x="259.02" y="368.283" style="fill:#FCE946;" width="4.937" height="27.265"/>
						<rect x="275.299" y="368.283" style="fill:#FCE946;" width="4.937" height="27.265"/>
						<rect x="291.579" y="368.283" style="fill:#FCE946;" width="4.937" height="27.265"/>
						<rect x="226.461" y="368.283" style="fill:#FCE946;" width="4.937" height="27.265"/>
						<rect x="242.74" y="368.283" style="fill:#FCE946;" width="4.937" height="27.265"/>
						<rect x="372.977" y="368.283" style="fill:#FCE946;" width="4.937" height="27.265"/>
						<rect x="356.697" y="368.283" style="fill:#FCE946;" width="4.937" height="27.265"/>
						<rect x="324.138" y="368.283" style="fill:#FCE946;" width="4.937" height="27.265"/>
						<rect x="307.859" y="368.283" style="fill:#FCE946;" width="4.937" height="27.265"/>
						<rect x="340.418" y="368.283" style="fill:#FCE946;" width="4.937" height="27.265"/>
					</g>
					<g>
						<rect x="258.893" y="368.283" style="fill:#FC9916;" width="4.917" height="27.265"/>
						<rect x="275.11" y="368.283" style="fill:#FC9916;" width="4.918" height="27.265"/>
						<rect x="291.326" y="368.283" style="fill:#FC9916;" width="4.917" height="27.265"/>
						<rect x="226.461" y="368.283" style="fill:#FC9916;" width="4.917" height="27.265"/>
						<rect x="242.677" y="368.283" style="fill:#FC9916;" width="4.917" height="27.265"/>
						<rect x="372.407" y="368.283" style="fill:#FC9916;" width="4.917" height="27.265"/>
						<rect x="356.191" y="368.283" style="fill:#FC9916;" width="4.918" height="27.265"/>
						<rect x="323.758" y="368.283" style="fill:#FC9916;" width="4.918" height="27.265"/>
						<rect x="307.542" y="368.283" style="fill:#FC9916;" width="4.917" height="27.265"/>
						<rect x="339.974" y="368.283" style="fill:#FC9916;" width="4.917" height="27.265"/>
					</g>
					<path style="fill:#FCE53C;" d="M378.5,368.283H225.285c-2.83,0-5.124,2.294-5.124,5.124v0.304c0-2.83,2.294-5.124,5.124-5.124
						H378.5c2.83,0,5.124,2.294,5.124,5.124v-0.304C383.624,370.577,381.33,368.283,378.5,368.283z"/>
					<path style="fill:#FC9916;" d="M220.527,392.32c0.754,1.891,2.598,3.229,4.758,3.229H378.5c2.16,0,4.004-1.338,4.758-3.229
						H220.527z"/>
				</g>
				<g>
					<path style="fill:#FCB500;" d="M360.661,340.514H217.971c-1.362,0-2.466-1.104-2.466-2.466l0,0
						c0-1.362,1.104-2.466,2.466-2.466h142.691c1.362,0,2.466,1.104,2.466,2.466l0,0
						C363.128,339.41,362.023,340.514,360.661,340.514z"/>
					<path style="fill:#FCEB1E;" d="M217.971,335.833h142.691c1.319,0,2.387,1.038,2.454,2.34c0.002-0.042,0.013-0.082,0.013-0.126
						c0-1.362-1.104-2.466-2.466-2.466H217.971c-1.362,0-2.466,1.104-2.466,2.466c0,0.043,0.011,0.083,0.013,0.126
						C215.584,336.871,216.652,335.833,217.971,335.833z"/>
					<path style="fill:#FCC020;" d="M212.778,365.565h152.118c3.133,0,5.673-2.54,5.673-5.673v-15.92
						c0-3.133-2.54-5.673-5.673-5.673H212.778c-3.133,0-5.673,2.54-5.673,5.673v15.92
						C207.105,363.025,209.645,365.565,212.778,365.565z"/>
					<g>
						<polygon style="fill:#FCD844;" points="214.531,365.565 257.047,365.565 284.312,338.3 241.796,338.3 						"/>
						<path style="fill:#FCD844;" d="M370.117,341.328c-0.802-1.784-2.59-3.028-4.673-3.028h-6.693l-27.266,27.265h14.394
							L370.117,341.328z"/>
						<polygon style="fill:#FCD844;" points="315.497,338.3 302.703,338.3 275.437,365.565 288.232,365.565 						"/>
						<polygon style="fill:#FCD844;" points="347.367,338.3 341.477,338.3 314.212,365.565 320.102,365.565 						"/>
					</g>
					<g>
						<rect x="245.964" y="338.3" style="fill:#FCE946;" width="4.937" height="27.265"/>
						<rect x="262.244" y="338.3" style="fill:#FCE946;" width="4.937" height="27.265"/>
						<rect x="278.523" y="338.3" style="fill:#FCE946;" width="4.937" height="27.265"/>
						<rect x="213.405" y="338.3" style="fill:#FCE946;" width="4.937" height="27.265"/>
						<rect x="229.685" y="338.3" style="fill:#FCE946;" width="4.937" height="27.265"/>
						<rect x="359.921" y="338.3" style="fill:#FCE946;" width="4.937" height="27.265"/>
						<rect x="343.641" y="338.3" style="fill:#FCE946;" width="4.937" height="27.265"/>
						<rect x="311.082" y="338.3" style="fill:#FCE946;" width="4.937" height="27.265"/>
						<rect x="294.803" y="338.3" style="fill:#FCE946;" width="4.937" height="27.265"/>
						<rect x="327.362" y="338.3" style="fill:#FCE946;" width="4.937" height="27.265"/>
					</g>
					<g>
						<rect x="245.838" y="338.3" style="fill:#FC9916;" width="4.917" height="27.265"/>
						<rect x="262.054" y="338.3" style="fill:#FC9916;" width="4.918" height="27.265"/>
						<rect x="278.27" y="338.3" style="fill:#FC9916;" width="4.917" height="27.265"/>
						<rect x="213.405" y="338.3" style="fill:#FC9916;" width="4.917" height="27.265"/>
						<rect x="229.621" y="338.3" style="fill:#FC9916;" width="4.917" height="27.265"/>
						<rect x="359.351" y="338.3" style="fill:#FC9916;" width="4.917" height="27.265"/>
						<rect x="343.135" y="338.3" style="fill:#FC9916;" width="4.917" height="27.265"/>
						<rect x="310.702" y="338.3" style="fill:#FC9916;" width="4.917" height="27.265"/>
						<rect x="294.486" y="338.3" style="fill:#FC9916;" width="4.917" height="27.265"/>
						<rect x="326.919" y="338.3" style="fill:#FC9916;" width="4.918" height="27.265"/>
					</g>
					<path style="fill:#FCE53C;" d="M365.444,338.3H212.229c-2.83,0-5.124,2.294-5.124,5.124v0.304c0-2.83,2.294-5.124,5.124-5.124
						h153.215c2.83,0,5.124,2.294,5.124,5.124v-0.304C370.569,340.594,368.274,338.3,365.444,338.3z"/>
					<path style="fill:#FC9916;" d="M207.472,362.336c0.754,1.891,2.598,3.229,4.758,3.229h153.215c2.16,0,4.004-1.338,4.758-3.229
						H207.472z"/>
				</g>
				<g>
					<path style="fill:#FCB500;" d="M398.743,310.53H256.052c-1.362,0-2.466-1.104-2.466-2.466l0,0c0-1.362,1.104-2.466,2.466-2.466
						h142.691c1.362,0,2.466,1.104,2.466,2.466l0,0C401.21,309.426,400.105,310.53,398.743,310.53z"/>
					<path style="fill:#FCDE20;" d="M256.052,306.098h142.691c1.276,0,2.314,0.973,2.441,2.216c0.009-0.083,0.025-0.164,0.025-0.25
						c0-1.362-1.104-2.466-2.466-2.466H256.052c-1.362,0-2.466,1.104-2.466,2.466c0,0.086,0.017,0.166,0.025,0.25
						C253.738,307.071,254.776,306.098,256.052,306.098z"/>
					<path style="fill:#FCC020;" d="M250.86,335.581h152.118c3.133,0,5.673-2.54,5.673-5.673v-15.92c0-3.133-2.54-5.673-5.673-5.673
						H250.86c-3.133,0-5.673,2.54-5.673,5.673v15.92C245.187,333.042,247.727,335.581,250.86,335.581z"/>
					<g>
						<polygon style="fill:#FCD844;" points="252.612,335.581 295.129,335.581 322.394,308.316 279.878,308.316 						"/>
						<path style="fill:#FCD844;" d="M408.199,311.344c-0.802-1.784-2.59-3.028-4.673-3.028h-6.693l-27.266,27.265h14.394
							L408.199,311.344z"/>
						<polygon style="fill:#FCD844;" points="353.579,308.316 340.784,308.316 313.519,335.581 326.314,335.581 						"/>
						<polygon style="fill:#FCD844;" points="385.449,308.316 379.559,308.316 352.293,335.581 358.184,335.581 						"/>
					</g>
					<g>
						<rect x="284.046" y="308.316" style="fill:#FCE946;" width="4.937" height="27.265"/>
						<rect x="300.326" y="308.316" style="fill:#FCE946;" width="4.937" height="27.265"/>
						<rect x="316.605" y="308.316" style="fill:#FCE946;" width="4.937" height="27.265"/>
						<rect x="251.487" y="308.316" style="fill:#FCE946;" width="4.937" height="27.265"/>
						<rect x="267.767" y="308.316" style="fill:#FCE946;" width="4.937" height="27.265"/>
						<rect x="398.003" y="308.316" style="fill:#FCE946;" width="4.937" height="27.265"/>
						<rect x="381.723" y="308.316" style="fill:#FCE946;" width="4.937" height="27.265"/>
						<rect x="349.164" y="308.316" style="fill:#FCE946;" width="4.937" height="27.265"/>
						<rect x="332.885" y="308.316" style="fill:#FCE946;" width="4.937" height="27.265"/>
						<rect x="365.444" y="308.316" style="fill:#FCE946;" width="4.937" height="27.265"/>
					</g>
					<g>
						<rect x="283.919" y="308.316" style="fill:#FC9916;" width="4.917" height="27.265"/>
						<rect x="300.136" y="308.316" style="fill:#FC9916;" width="4.918" height="27.265"/>
						<rect x="316.352" y="308.316" style="fill:#FC9916;" width="4.917" height="27.265"/>
						<rect x="251.487" y="308.316" style="fill:#FC9916;" width="4.917" height="27.265"/>
						<rect x="267.703" y="308.316" style="fill:#FC9916;" width="4.917" height="27.265"/>
						<rect x="397.433" y="308.316" style="fill:#FC9916;" width="4.917" height="27.265"/>
						<rect x="381.217" y="308.316" style="fill:#FC9916;" width="4.918" height="27.265"/>
						<rect x="348.784" y="308.316" style="fill:#FC9916;" width="4.917" height="27.265"/>
						<rect x="332.568" y="308.316" style="fill:#FC9916;" width="4.917" height="27.265"/>
						<rect x="365.001" y="308.316" style="fill:#FC9916;" width="4.917" height="27.265"/>
					</g>
					<path style="fill:#FCE53C;" d="M403.526,308.316H250.311c-2.83,0-5.124,2.294-5.124,5.124v0.304
						c0-2.83,2.294-5.124,5.124-5.124h153.215c2.83,0,5.124,2.294,5.124,5.124v-0.304
						C408.65,310.61,406.356,308.316,403.526,308.316z"/>
					<path style="fill:#FC9916;" d="M245.554,332.353c0.754,1.891,2.598,3.229,4.758,3.229h153.215c2.16,0,4.004-1.338,4.758-3.229
						H245.554z"/>
				</g>
				<g>
					<path style="fill:#FCB500;" d="M373.717,280.547H231.026c-1.362,0-2.466-1.104-2.466-2.466l0,0
						c0-1.362,1.104-2.466,2.466-2.466h142.691c1.362,0,2.466,1.104,2.466,2.466l0,0
						C376.183,279.443,375.079,280.547,373.717,280.547z"/>
					<path style="fill:#FCF024;" d="M231.026,275.935h142.691c1.307,0,2.366,1.02,2.45,2.306c0.003-0.054,0.016-0.105,0.016-0.16
						c0-1.362-1.104-2.466-2.466-2.466H231.026c-1.362,0-2.466,1.104-2.466,2.466c0,0.055,0.013,0.106,0.016,0.16
						C228.66,276.955,229.719,275.935,231.026,275.935z"/>
					<path style="fill:#FCC020;" d="M225.834,305.598h152.118c3.133,0,5.673-2.54,5.673-5.673v-15.92
						c0-3.133-2.54-5.673-5.673-5.673H225.834c-3.133,0-5.673,2.54-5.673,5.673v15.92
						C220.161,303.058,222.701,305.598,225.834,305.598z"/>
					<g>
						<polygon style="fill:#FCD844;" points="227.586,305.598 270.102,305.598 297.368,278.332 254.852,278.332 						"/>
						<path style="fill:#FCD844;" d="M383.173,281.36c-0.802-1.784-2.59-3.028-4.673-3.028h-6.693l-27.266,27.265h14.394
							L383.173,281.36z"/>
						<polygon style="fill:#FCD844;" points="328.553,278.332 315.758,278.332 288.493,305.598 301.288,305.598 						"/>
						<polygon style="fill:#FCD844;" points="360.423,278.332 354.533,278.332 327.267,305.598 333.157,305.598 						"/>
					</g>
					<g>
						<rect x="259.02" y="278.332" style="fill:#FCE946;" width="4.937" height="27.265"/>
						<rect x="275.299" y="278.332" style="fill:#FCE946;" width="4.937" height="27.265"/>
						<rect x="291.579" y="278.332" style="fill:#FCE946;" width="4.937" height="27.265"/>
						<rect x="226.461" y="278.332" style="fill:#FCE946;" width="4.937" height="27.265"/>
						<rect x="242.74" y="278.332" style="fill:#FCE946;" width="4.937" height="27.265"/>
						<rect x="372.977" y="278.332" style="fill:#FCE946;" width="4.937" height="27.265"/>
						<rect x="356.697" y="278.332" style="fill:#FCE946;" width="4.937" height="27.265"/>
						<rect x="324.138" y="278.332" style="fill:#FCE946;" width="4.937" height="27.265"/>
						<rect x="307.859" y="278.332" style="fill:#FCE946;" width="4.937" height="27.265"/>
						<rect x="340.418" y="278.332" style="fill:#FCE946;" width="4.937" height="27.265"/>
					</g>
					<g>
						<rect x="258.893" y="278.332" style="fill:#FC9916;" width="4.917" height="27.265"/>
						<rect x="275.11" y="278.332" style="fill:#FC9916;" width="4.918" height="27.265"/>
						<rect x="291.326" y="278.332" style="fill:#FC9916;" width="4.917" height="27.265"/>
						<rect x="226.461" y="278.332" style="fill:#FC9916;" width="4.917" height="27.265"/>
						<rect x="242.677" y="278.332" style="fill:#FC9916;" width="4.917" height="27.265"/>
						<rect x="372.407" y="278.332" style="fill:#FC9916;" width="4.917" height="27.265"/>
						<rect x="356.191" y="278.332" style="fill:#FC9916;" width="4.918" height="27.265"/>
						<rect x="323.758" y="278.332" style="fill:#FC9916;" width="4.918" height="27.265"/>
						<rect x="307.542" y="278.332" style="fill:#FC9916;" width="4.917" height="27.265"/>
						<rect x="339.974" y="278.332" style="fill:#FC9916;" width="4.917" height="27.265"/>
					</g>
					<path style="fill:#FCE53C;" d="M378.5,278.332H225.285c-2.83,0-5.124,2.294-5.124,5.124v0.304c0-2.83,2.294-5.124,5.124-5.124
						H378.5c2.83,0,5.124,2.295,5.124,5.124v-0.304C383.624,280.626,381.33,278.332,378.5,278.332z"/>
					<path style="fill:#FC9916;" d="M220.527,302.369c0.754,1.891,2.598,3.229,4.758,3.229H378.5c2.16,0,4.004-1.338,4.758-3.229
						H220.527z"/>
				</g>
				<g>
					<path style="fill:#FCB500;" d="M390.583,250.563H247.892c-1.362,0-2.466-1.104-2.466-2.466l0,0
						c0-1.362,1.104-2.466,2.466-2.466h142.691c1.362,0,2.466,1.104,2.466,2.466l0,0
						C393.05,249.459,391.945,250.563,390.583,250.563z"/>
					<path style="fill:#FCE82C;" d="M247.892,245.882h142.691c1.319,0,2.387,1.038,2.454,2.34c0.002-0.043,0.013-0.083,0.013-0.126
						c0-1.362-1.104-2.466-2.466-2.466H247.892c-1.362,0-2.466,1.104-2.466,2.466c0,0.043,0.01,0.083,0.013,0.126
						C245.506,246.921,246.573,245.882,247.892,245.882z"/>
					<path style="fill:#FCC020;" d="M242.7,275.614h152.118c3.133,0,5.673-2.54,5.673-5.673v-15.92c0-3.133-2.54-5.673-5.673-5.673
						H242.7c-3.133,0-5.673,2.54-5.673,5.673v15.92C237.027,273.074,239.567,275.614,242.7,275.614z"/>
					<g>
						<polygon style="fill:#FCD844;" points="244.452,275.614 286.969,275.614 314.234,248.349 271.718,248.349 						"/>
						<path style="fill:#FCD844;" d="M400.039,251.377c-0.802-1.784-2.59-3.028-4.673-3.028h-6.693l-27.266,27.265h14.394
							L400.039,251.377z"/>
						<polygon style="fill:#FCD844;" points="345.419,248.349 332.625,248.349 305.359,275.614 318.154,275.614 						"/>
						<polygon style="fill:#FCD844;" points="377.289,248.349 371.399,248.349 344.134,275.614 350.023,275.614 						"/>
					</g>
					<g>
						<rect x="275.886" y="248.349" style="fill:#FCE946;" width="4.937" height="27.265"/>
						<rect x="292.166" y="248.349" style="fill:#FCE946;" width="4.937" height="27.265"/>
						<rect x="308.445" y="248.349" style="fill:#FCE946;" width="4.937" height="27.265"/>
						<rect x="243.327" y="248.349" style="fill:#FCE946;" width="4.937" height="27.265"/>
						<rect x="259.607" y="248.349" style="fill:#FCE946;" width="4.937" height="27.265"/>
						<rect x="389.843" y="248.349" style="fill:#FCE946;" width="4.937" height="27.265"/>
						<rect x="373.563" y="248.349" style="fill:#FCE946;" width="4.937" height="27.265"/>
						<rect x="341.004" y="248.349" style="fill:#FCE946;" width="4.937" height="27.265"/>
						<rect x="324.725" y="248.349" style="fill:#FCE946;" width="4.937" height="27.265"/>
						<rect x="357.284" y="248.349" style="fill:#FCE946;" width="4.937" height="27.265"/>
					</g>
					<g>
						<rect x="275.759" y="248.349" style="fill:#FC9916;" width="4.917" height="27.265"/>
						<rect x="291.976" y="248.349" style="fill:#FC9916;" width="4.918" height="27.265"/>
						<rect x="308.192" y="248.349" style="fill:#FC9916;" width="4.918" height="27.265"/>
						<rect x="243.327" y="248.349" style="fill:#FC9916;" width="4.917" height="27.265"/>
						<rect x="259.543" y="248.349" style="fill:#FC9916;" width="4.917" height="27.265"/>
						<rect x="389.273" y="248.349" style="fill:#FC9916;" width="4.917" height="27.265"/>
						<rect x="373.057" y="248.349" style="fill:#FC9916;" width="4.917" height="27.265"/>
						<rect x="340.624" y="248.349" style="fill:#FC9916;" width="4.917" height="27.265"/>
						<rect x="324.408" y="248.349" style="fill:#FC9916;" width="4.917" height="27.265"/>
						<rect x="356.841" y="248.349" style="fill:#FC9916;" width="4.917" height="27.265"/>
					</g>
					<path style="fill:#FCE53C;" d="M395.366,248.349H242.151c-2.83,0-5.124,2.294-5.124,5.124v0.304
						c0-2.83,2.294-5.124,5.124-5.124h153.215c2.83,0,5.124,2.294,5.124,5.124v-0.304
						C400.49,250.643,398.196,248.349,395.366,248.349z"/>
					<path style="fill:#FC9916;" d="M237.394,272.386c0.754,1.891,2.598,3.229,4.758,3.229h153.215c2.16,0,4.004-1.338,4.758-3.229
						H237.394z"/>
				</g>
				<g>
					<path style="fill:#FCB500;" d="M390.583,220.58H247.892c-1.362,0-2.466-1.104-2.466-2.466l0,0c0-1.362,1.104-2.466,2.466-2.466
						h142.691c1.362,0,2.466,1.104,2.466,2.466l0,0C393.05,219.475,391.945,220.58,390.583,220.58z"/>
					<path style="fill:#FCDA34;" d="M247.892,215.899h142.691c1.319,0,2.387,1.038,2.454,2.34c0.002-0.042,0.013-0.083,0.013-0.126
						c0-1.362-1.104-2.466-2.466-2.466H247.892c-1.362,0-2.466,1.104-2.466,2.466c0,0.043,0.01,0.083,0.013,0.126
						C245.506,216.937,246.573,215.899,247.892,215.899z"/>
					<path style="fill:#FCC020;" d="M242.7,245.631h152.118c3.133,0,5.673-2.54,5.673-5.673v-15.92c0-3.133-2.54-5.673-5.673-5.673
						H242.7c-3.133,0-5.673,2.54-5.673,5.673v15.92C237.027,243.091,239.567,245.631,242.7,245.631z"/>
					<g>
						<polygon style="fill:#FCD844;" points="244.452,245.631 286.969,245.631 314.234,218.365 271.718,218.365 						"/>
						<path style="fill:#FCD844;" d="M400.039,221.393c-0.802-1.784-2.59-3.028-4.673-3.028h-6.693l-27.266,27.266h14.394
							L400.039,221.393z"/>
						<polygon style="fill:#FCD844;" points="345.419,218.365 332.625,218.365 305.359,245.631 318.154,245.631 						"/>
						<polygon style="fill:#FCD844;" points="377.289,218.365 371.399,218.365 344.134,245.631 350.023,245.631 						"/>
					</g>
					<g>
						<rect x="275.886" y="218.365" style="fill:#FCE946;" width="4.937" height="27.265"/>
						<rect x="292.166" y="218.365" style="fill:#FCE946;" width="4.937" height="27.265"/>
						<rect x="308.445" y="218.365" style="fill:#FCE946;" width="4.937" height="27.265"/>
						<rect x="243.327" y="218.365" style="fill:#FCE946;" width="4.937" height="27.265"/>
						<rect x="259.607" y="218.365" style="fill:#FCE946;" width="4.937" height="27.265"/>
						<rect x="389.843" y="218.365" style="fill:#FCE946;" width="4.937" height="27.265"/>
						<rect x="373.563" y="218.365" style="fill:#FCE946;" width="4.937" height="27.265"/>
						<rect x="341.004" y="218.365" style="fill:#FCE946;" width="4.937" height="27.265"/>
						<rect x="324.725" y="218.365" style="fill:#FCE946;" width="4.937" height="27.265"/>
						<rect x="357.284" y="218.365" style="fill:#FCE946;" width="4.937" height="27.265"/>
					</g>
					<g>
						<rect x="275.759" y="218.365" style="fill:#FC9916;" width="4.917" height="27.265"/>
						<rect x="291.976" y="218.365" style="fill:#FC9916;" width="4.918" height="27.265"/>
						<rect x="308.192" y="218.365" style="fill:#FC9916;" width="4.918" height="27.265"/>
						<rect x="243.327" y="218.365" style="fill:#FC9916;" width="4.917" height="27.265"/>
						<rect x="259.543" y="218.365" style="fill:#FC9916;" width="4.917" height="27.265"/>
						<rect x="389.273" y="218.365" style="fill:#FC9916;" width="4.917" height="27.265"/>
						<rect x="373.057" y="218.365" style="fill:#FC9916;" width="4.917" height="27.265"/>
						<rect x="340.624" y="218.365" style="fill:#FC9916;" width="4.917" height="27.265"/>
						<rect x="324.408" y="218.365" style="fill:#FC9916;" width="4.917" height="27.265"/>
						<rect x="356.841" y="218.365" style="fill:#FC9916;" width="4.917" height="27.265"/>
					</g>
					<path style="fill:#FCE53C;" d="M395.366,218.365H242.151c-2.83,0-5.124,2.294-5.124,5.124v0.304
						c0-2.83,2.294-5.124,5.124-5.124h153.215c2.83,0,5.124,2.294,5.124,5.124v-0.304
						C400.49,220.659,398.196,218.365,395.366,218.365z"/>
					<path style="fill:#FC9916;" d="M237.394,242.402c0.754,1.891,2.598,3.229,4.758,3.229h153.215c2.16,0,4.004-1.338,4.758-3.229
						H237.394z"/>
				</g>
				<g>
					<path style="fill:#FCB500;" d="M373.717,190.596H231.026c-1.362,0-2.466-1.104-2.466-2.466l0,0
						c0-1.362,1.104-2.466,2.466-2.466h142.691c1.362,0,2.466,1.104,2.466,2.466l0,0
						C376.183,189.492,375.079,190.596,373.717,190.596z"/>
					<path style="fill:#FCF22A;" d="M231.026,186.163h142.691c1.276,0,2.314,0.973,2.441,2.216c0.009-0.083,0.025-0.164,0.025-0.25
						c0-1.362-1.104-2.466-2.466-2.466H231.026c-1.362,0-2.466,1.104-2.466,2.466c0,0.086,0.017,0.167,0.025,0.25
						C228.712,187.137,229.75,186.163,231.026,186.163z"/>
					<path style="fill:#FCC020;" d="M225.834,215.647h152.118c3.133,0,5.673-2.54,5.673-5.673v-15.92
						c0-3.133-2.54-5.673-5.673-5.673H225.834c-3.133,0-5.673,2.54-5.673,5.673v15.92
						C220.161,213.107,222.701,215.647,225.834,215.647z"/>
					<g>
						<polygon style="fill:#FCD844;" points="227.586,215.647 270.102,215.647 297.368,188.382 254.852,188.382 						"/>
						<path style="fill:#FCD844;" d="M383.173,191.41c-0.802-1.784-2.59-3.028-4.673-3.028h-6.693l-27.266,27.265h14.394
							L383.173,191.41z"/>
						<polygon style="fill:#FCD844;" points="328.553,188.382 315.758,188.382 288.493,215.647 301.288,215.647 						"/>
						<polygon style="fill:#FCD844;" points="360.423,188.382 354.533,188.382 327.267,215.647 333.157,215.647 						"/>
					</g>
					<g>
						<rect x="259.02" y="188.382" style="fill:#FCE946;" width="4.937" height="27.265"/>
						<rect x="275.299" y="188.382" style="fill:#FCE946;" width="4.937" height="27.265"/>
						<rect x="291.579" y="188.382" style="fill:#FCE946;" width="4.937" height="27.265"/>
						<rect x="226.461" y="188.382" style="fill:#FCE946;" width="4.937" height="27.265"/>
						<rect x="242.74" y="188.382" style="fill:#FCE946;" width="4.937" height="27.265"/>
						<rect x="372.977" y="188.382" style="fill:#FCE946;" width="4.937" height="27.265"/>
						<rect x="356.697" y="188.382" style="fill:#FCE946;" width="4.937" height="27.265"/>
						<rect x="324.138" y="188.382" style="fill:#FCE946;" width="4.937" height="27.265"/>
						<rect x="307.859" y="188.382" style="fill:#FCE946;" width="4.937" height="27.265"/>
						<rect x="340.418" y="188.382" style="fill:#FCE946;" width="4.937" height="27.265"/>
					</g>
					<g>
						<rect x="258.893" y="188.382" style="fill:#FC9916;" width="4.917" height="27.265"/>
						<rect x="275.11" y="188.382" style="fill:#FC9916;" width="4.918" height="27.265"/>
						<rect x="291.326" y="188.382" style="fill:#FC9916;" width="4.917" height="27.265"/>
						<rect x="226.461" y="188.382" style="fill:#FC9916;" width="4.917" height="27.265"/>
						<rect x="242.677" y="188.382" style="fill:#FC9916;" width="4.917" height="27.265"/>
						<rect x="372.407" y="188.382" style="fill:#FC9916;" width="4.917" height="27.265"/>
						<rect x="356.191" y="188.382" style="fill:#FC9916;" width="4.918" height="27.265"/>
						<rect x="323.758" y="188.382" style="fill:#FC9916;" width="4.918" height="27.265"/>
						<rect x="307.542" y="188.382" style="fill:#FC9916;" width="4.917" height="27.265"/>
						<rect x="339.974" y="188.382" style="fill:#FC9916;" width="4.917" height="27.265"/>
					</g>
					<path style="fill:#FCE53C;" d="M378.5,188.382H225.285c-2.83,0-5.124,2.294-5.124,5.124v0.304c0-2.83,2.294-5.124,5.124-5.124
						H378.5c2.83,0,5.124,2.294,5.124,5.124v-0.304C383.624,190.676,381.33,188.382,378.5,188.382z"/>
					<path style="fill:#FC9916;" d="M220.527,212.418c0.754,1.891,2.598,3.229,4.758,3.229H378.5c2.16,0,4.004-1.338,4.758-3.229
						H220.527z"/>
				</g>
				<g>
					<path style="fill:#FCB500;" d="M373.095,155.071l-142.585,5.5c-1.361,0.053-2.507-1.008-2.559-2.369l0,0
						c-0.053-1.361,1.008-2.507,2.369-2.56l142.585-5.5c1.361-0.053,2.507,1.008,2.56,2.369l0,0
						C375.517,153.872,374.456,155.018,373.095,155.071z"/>
					<path style="fill:#FCCF21;" d="M230.32,155.954l142.585-5.501c1.328-0.051,2.444,0.96,2.546,2.274
						c0.004-0.072,0.016-0.142,0.013-0.216c-0.052-1.361-1.198-2.422-2.56-2.369l-142.585,5.5c-1.361,0.053-2.422,1.199-2.369,2.559
						c0.001,0.033,0.011,0.063,0.013,0.096C228.026,157.034,229.033,156.003,230.32,155.954z"/>
					<path style="fill:#FCC020;" d="M226.287,185.804l152.005-5.864c3.131-0.121,5.571-2.757,5.45-5.887l-0.614-15.908
						c-0.121-3.131-2.757-5.571-5.887-5.45l-152.005,5.864c-3.131,0.121-5.571,2.757-5.45,5.887l0.614,15.908
						C220.521,183.485,223.156,185.925,226.287,185.804z"/>
					<g>
						<polygon style="fill:#FCD844;" points="228.038,185.736 270.523,184.097 296.717,155.801 254.233,157.44 						"/>
						<path style="fill:#FCD844;" d="M382.575,155.519c-0.87-1.751-2.705-2.926-4.786-2.846l-6.688,0.258l-26.194,28.296
							l14.383-0.555L382.575,155.519z"/>
						<polygon style="fill:#FCD844;" points="327.879,154.599 315.094,155.092 288.9,183.388 301.685,182.895 						"/>
						<polygon style="fill:#FCD844;" points="359.725,153.37 353.84,153.598 327.645,181.894 333.531,181.667 						"/>
					</g>
					<g>
						
							<rect x="258.921" y="157.174" transform="matrix(0.9993 -0.0385 0.0385 0.9993 -6.3901 10.2033)" style="fill:#FCE946;" width="4.937" height="27.265"/>
						
							<rect x="275.189" y="156.547" transform="matrix(0.9993 -0.0385 0.0385 0.9993 -6.3537 10.8297)" style="fill:#FCE946;" width="4.937" height="27.265"/>
						
							<rect x="291.456" y="155.919" transform="matrix(0.9993 -0.0385 0.0385 0.9993 -6.3176 11.4565)" style="fill:#FCE946;" width="4.937" height="27.265"/>
						
							<rect x="226.387" y="158.429" transform="matrix(0.9993 -0.0385 0.0385 0.9993 -6.4627 8.95)" style="fill:#FCE946;" width="4.937" height="27.265"/>
						
							<rect x="242.654" y="157.802" transform="matrix(0.9993 -0.0385 0.0385 0.9993 -6.4263 9.5765)" style="fill:#FCE946;" width="4.937" height="27.265"/>
						
							<rect x="372.793" y="152.781" transform="matrix(0.9993 -0.0385 0.0385 0.9993 -6.1361 14.5894)" style="fill:#FCE946;" width="4.937" height="27.265"/>
						
							<rect x="356.526" y="153.409" transform="matrix(0.9993 -0.0385 0.0385 0.9993 -6.1723 13.9628)" style="fill:#FCE946;" width="4.937" height="27.265"/>
						
							<rect x="323.991" y="154.664" transform="matrix(0.9993 -0.0385 0.0385 0.9993 -6.2449 12.7095)" style="fill:#FCE946;" width="4.937" height="27.265"/>
						
							<rect x="307.724" y="155.291" transform="matrix(0.9993 -0.0385 0.0385 0.9993 -6.2812 12.0829)" style="fill:#FCE946;" width="4.937" height="27.265"/>
						
							<rect x="340.259" y="154.036" transform="matrix(0.9993 -0.0385 0.0385 0.9993 -6.2087 13.3364)" style="fill:#FCE946;" width="4.937" height="27.265"/>
					</g>
					<g>
						
							<rect x="258.795" y="157.179" transform="matrix(0.9993 -0.0385 0.0385 0.9993 -6.3885 10.1948)" style="fill:#FC9916;" width="4.917" height="27.265"/>
						
							<rect x="274.999" y="156.554" transform="matrix(0.9993 -0.0385 0.0385 0.9993 -6.3523 10.8186)" style="fill:#FC9916;" width="4.917" height="27.265"/>
						
							<rect x="291.203" y="155.929" transform="matrix(0.9993 -0.0385 0.0385 0.9993 -6.3163 11.4428)" style="fill:#FC9916;" width="4.917" height="27.265"/>
						
							<rect x="226.387" y="158.43" transform="matrix(0.9993 -0.0386 0.0386 0.9993 -6.4641 8.9516)" style="fill:#FC9916;" width="4.917" height="27.265"/>
						
							<rect x="242.591" y="157.804" transform="matrix(0.9993 -0.0385 0.0385 0.9993 -6.4247 9.5708)" style="fill:#FC9916;" width="4.917" height="27.265"/>
						
							<rect x="372.224" y="152.804" transform="matrix(0.9993 -0.0386 0.0386 0.9993 -6.1386 14.5702)" style="fill:#FC9916;" width="4.917" height="27.265"/>
						
							<rect x="356.02" y="153.429" transform="matrix(0.9993 -0.0385 0.0385 0.9993 -6.1718 13.9388)" style="fill:#FC9916;" width="4.917" height="27.265"/>
						
							<rect x="323.611" y="154.679" transform="matrix(0.9993 -0.0385 0.0385 0.9993 -6.2439 12.6905)" style="fill:#FC9916;" width="4.917" height="27.265"/>
						
							<rect x="307.407" y="155.304" transform="matrix(0.9993 -0.0385 0.0385 0.9993 -6.2801 12.0668)" style="fill:#FC9916;" width="4.917" height="27.265"/>
						
							<rect x="339.816" y="154.054" transform="matrix(0.9993 -0.0385 0.0385 0.9993 -6.2079 13.3148)" style="fill:#FC9916;" width="4.917" height="27.265"/>
					</g>
					<path style="fill:#FCE53C;" d="M377.789,152.674l-153.101,5.906c-2.828,0.109-5.032,2.49-4.923,5.318l0.012,0.304
						c-0.109-2.828,2.095-5.209,4.923-5.318l153.101-5.906c2.828-0.109,5.209,2.095,5.318,4.923l-0.012-0.304
						C382.998,154.768,380.617,152.564,377.789,152.674z"/>
					<path style="fill:#FC9916;" d="M220.86,182.782c0.827,1.86,2.721,3.126,4.879,3.043l153.101-5.906
						c2.158-0.083,3.949-1.491,4.63-3.41L220.86,182.782z"/>
				</g>
				<g>
					<path style="fill:#FCB500;" d="M344.283,107.887L204.3,135.555c-1.336,0.264-2.633-0.605-2.898-1.941l0,0
						c-0.264-1.336,0.605-2.634,1.941-2.898l139.983-27.668c1.336-0.264,2.634,0.605,2.898,1.941l0,0
						C346.488,106.325,345.619,107.623,344.283,107.887z"/>
					<path style="fill:#FCC020;" d="M204.064,161.137l149.231-29.496c3.074-0.607,5.073-3.592,4.465-6.665l-3.087-15.618
						c-0.608-3.074-3.592-5.073-6.665-4.465l-149.231,29.496c-3.074,0.607-5.073,3.592-4.465,6.665l3.087,15.618
						C198.006,159.746,200.99,161.745,204.064,161.137z"/>
					<g>
						<polygon style="fill:#FCD844;" points="205.783,160.798 247.492,152.553 268.953,120.519 227.244,128.763 						"/>
						<path style="fill:#FCD844;" d="M353.717,106.851c-1.132-1.594-3.128-2.468-5.171-2.064l-6.566,1.298l-21.461,32.035
							l14.12-2.791L353.717,106.851z"/>
						<polygon style="fill:#FCD844;" points="299.547,114.472 286.995,116.953 265.534,148.988 278.085,146.507 						"/>
						<polygon style="fill:#FCD844;" points="330.812,108.292 325.033,109.434 303.572,141.469 309.35,140.327 						"/>
					</g>
					<g>
						
							<rect x="233.93" y="127.217" transform="matrix(0.981 -0.1939 0.1939 0.981 -22.8242 48.5105)" style="fill:#FCE946;" width="4.937" height="27.265"/>
						
							<rect x="249.9" y="124.061" transform="matrix(0.981 -0.1939 0.1939 0.981 -21.9107 51.5527)" style="fill:#FCE946;" width="4.937" height="27.265"/>
						
							<rect x="265.871" y="120.904" transform="matrix(0.981 -0.1939 0.1939 0.981 -20.9935 54.5829)" style="fill:#FCE946;" width="4.937" height="27.265"/>
						
							<rect x="201.989" y="133.53" transform="matrix(0.981 -0.1939 0.1939 0.981 -24.6541 42.4361)" style="fill:#FCE946;" width="4.937" height="27.265"/>
						
							<rect x="217.959" y="130.374" transform="matrix(0.981 -0.1939 0.1939 0.981 -23.7409 45.4776)" style="fill:#FCE946;" width="4.937" height="27.265"/>
						
							<rect x="345.724" y="105.121" transform="matrix(0.981 -0.1939 0.1939 0.981 -16.418 69.7679)" style="fill:#FCE946;" width="4.937" height="27.265"/>
						
							<rect x="329.753" y="108.277" transform="matrix(0.981 -0.1939 0.1939 0.981 -17.3329 66.7298)" style="fill:#FCE946;" width="4.937" height="27.265"/>
						
							<rect x="297.812" y="114.591" transform="matrix(0.981 -0.1939 0.1939 0.981 -19.1635 60.6576)" style="fill:#FCE946;" width="4.937" height="27.265"/>
						
							<rect x="281.842" y="117.747" transform="matrix(0.981 -0.1939 0.1939 0.981 -20.0802 57.627)" style="fill:#FCE946;" width="4.937" height="27.265"/>
						
							<rect x="313.783" y="111.434" transform="matrix(0.981 -0.1939 0.1939 0.981 -18.2493 63.6997)" style="fill:#FCE946;" width="4.937" height="27.265"/>
					</g>
					<g>
						
							<rect x="233.806" y="127.244" transform="matrix(0.981 -0.1939 0.1939 0.981 -22.8321 48.4859)" style="fill:#FC9916;" width="4.917" height="27.265"/>
						
							<rect x="249.714" y="124.099" transform="matrix(0.981 -0.1939 0.1939 0.981 -21.9205 51.5109)" style="fill:#FC9916;" width="4.917" height="27.265"/>
						
							<rect x="265.623" y="120.955" transform="matrix(0.981 -0.1939 0.1939 0.981 -21.0089 54.536)" style="fill:#FC9916;" width="4.917" height="27.265"/>
						
							<rect x="201.989" y="133.532" transform="matrix(0.981 -0.1939 0.1939 0.981 -24.6554 42.436)" style="fill:#FC9916;" width="4.917" height="27.265"/>
						
							<rect x="217.897" y="130.388" transform="matrix(0.981 -0.1939 0.1939 0.981 -23.7437 45.4609)" style="fill:#FC9916;" width="4.917" height="27.265"/>
						
							<rect x="345.165" y="105.233" transform="matrix(0.981 -0.1939 0.1939 0.981 -16.4507 69.6609)" style="fill:#FC9916;" width="4.917" height="27.265"/>
						
							<rect x="329.257" y="108.377" transform="matrix(0.981 -0.1939 0.1939 0.981 -17.3623 66.6359)" style="fill:#FC9916;" width="4.917" height="27.265"/>
						
							<rect x="297.44" y="114.666" transform="matrix(0.981 -0.1939 0.1939 0.981 -19.1859 60.5872)" style="fill:#FC9916;" width="4.917" height="27.265"/>
						
							<rect x="281.531" y="117.81" transform="matrix(0.981 -0.1939 0.1939 0.981 -20.0972 57.5609)" style="fill:#FC9916;" width="4.917" height="27.265"/>
						
							<rect x="313.348" y="111.522" transform="matrix(0.981 -0.1939 0.1939 0.981 -18.274 63.6109)" style="fill:#FC9916;" width="4.917" height="27.265"/>
					</g>
					<path style="fill:#FCE53C;" d="M348.546,104.787l-150.307,29.709c-2.776,0.549-4.582,3.244-4.033,6.021l0.059,0.299
						c-0.549-2.776,1.257-5.472,4.033-6.021l150.307-29.709c2.776-0.549,5.472,1.257,6.021,4.034l-0.059-0.299
						C354.018,106.044,351.322,104.238,348.546,104.787z"/>
					<path style="fill:#FC9916;" d="M198.232,158.999c1.106,1.709,3.175,2.664,5.294,2.245l150.307-29.709
						c2.119-0.419,3.668-2.089,4.042-4.09L198.232,158.999z"/>
				</g>
				<linearGradient id="SVGID_1_" gradientUnits="userSpaceOnUse" x1="301.1033" y1="154.9385" x2="302.3697" y2="182.3717">
					<stop  offset="0.3751" style="stop-color:#FCC020;stop-opacity:0"/>
					<stop  offset="1" style="stop-color:#FCC020"/>
				</linearGradient>
				<path style="fill:url(#SVGID_1_);" d="M226.287,185.804l152.005-5.864c3.131-0.121,5.571-2.757,5.45-5.887l-0.614-15.908
					c-0.121-3.131-2.757-5.571-5.887-5.45l-152.005,5.864c-3.131,0.121-5.571,2.757-5.45,5.887l0.614,15.908
					C220.521,183.485,223.156,185.925,226.287,185.804z"/>
				
					<linearGradient id="SVGID_00000068644155502473449320000010662545273584807813_" gradientUnits="userSpaceOnUse" x1="301.8926" y1="215.6471" x2="301.8926" y2="188.3815">
					<stop  offset="0" style="stop-color:#FCC020"/>
					<stop  offset="0.6249" style="stop-color:#FCC020;stop-opacity:0"/>
				</linearGradient>
				<path style="fill:url(#SVGID_00000068644155502473449320000010662545273584807813_);" d="M225.834,215.647h152.118
					c3.133,0,5.673-2.54,5.673-5.673v-15.92c0-3.133-2.54-5.673-5.673-5.673H225.834c-3.133,0-5.673,2.54-5.673,5.673v15.92
					C220.161,213.107,222.701,215.647,225.834,215.647z"/>
				
					<linearGradient id="SVGID_00000060710171068834658130000017523140822653976979_" gradientUnits="userSpaceOnUse" x1="318.7588" y1="245.6307" x2="318.7588" y2="218.3651">
					<stop  offset="0" style="stop-color:#FCC020"/>
					<stop  offset="0.6249" style="stop-color:#FCC020;stop-opacity:0"/>
				</linearGradient>
				<path style="fill:url(#SVGID_00000060710171068834658130000017523140822653976979_);" d="M242.7,245.631h152.118
					c3.133,0,5.673-2.54,5.673-5.673v-15.92c0-3.133-2.54-5.673-5.673-5.673H242.7c-3.133,0-5.673,2.54-5.673,5.673v15.92
					C237.027,243.091,239.567,245.631,242.7,245.631z"/>
				
					<linearGradient id="SVGID_00000024001357722314557970000011439562163241821348_" gradientUnits="userSpaceOnUse" x1="318.7588" y1="275.6143" x2="318.7588" y2="248.3487">
					<stop  offset="0" style="stop-color:#FCC020"/>
					<stop  offset="0.6249" style="stop-color:#FCC020;stop-opacity:0"/>
				</linearGradient>
				<path style="fill:url(#SVGID_00000024001357722314557970000011439562163241821348_);" d="M242.7,275.614h152.118
					c3.133,0,5.673-2.54,5.673-5.673v-15.92c0-3.133-2.54-5.673-5.673-5.673H242.7c-3.133,0-5.673,2.54-5.673,5.673v15.92
					C237.027,273.074,239.567,275.614,242.7,275.614z"/>
				
					<linearGradient id="SVGID_00000080178147552029402060000013945894593822707889_" gradientUnits="userSpaceOnUse" x1="301.8926" y1="305.5978" x2="301.8926" y2="278.3322">
					<stop  offset="0" style="stop-color:#FCC020"/>
					<stop  offset="0.6249" style="stop-color:#FCC020;stop-opacity:0"/>
				</linearGradient>
				<path style="fill:url(#SVGID_00000080178147552029402060000013945894593822707889_);" d="M225.834,305.598h152.118
					c3.133,0,5.673-2.54,5.673-5.673v-15.92c0-3.133-2.54-5.673-5.673-5.673H225.834c-3.133,0-5.673,2.54-5.673,5.673v15.92
					C220.161,303.058,222.701,305.598,225.834,305.598z"/>
				
					<linearGradient id="SVGID_00000088128684208202264430000000436973052658363301_" gradientUnits="userSpaceOnUse" x1="326.9187" y1="335.5814" x2="326.9187" y2="308.3158">
					<stop  offset="0" style="stop-color:#FCC020"/>
					<stop  offset="0.6249" style="stop-color:#FCC020;stop-opacity:0"/>
				</linearGradient>
				<path style="fill:url(#SVGID_00000088128684208202264430000000436973052658363301_);" d="M250.86,335.581h152.118
					c3.133,0,5.673-2.54,5.673-5.673v-15.92c0-3.133-2.54-5.673-5.673-5.673H250.86c-3.133,0-5.673,2.54-5.673,5.673v15.92
					C245.187,333.042,247.727,335.581,250.86,335.581z"/>
				
					<linearGradient id="SVGID_00000021801953759927876960000006425413050816682631_" gradientUnits="userSpaceOnUse" x1="288.8369" y1="365.565" x2="288.8369" y2="338.2994">
					<stop  offset="0" style="stop-color:#FCC020"/>
					<stop  offset="0.6249" style="stop-color:#FCC020;stop-opacity:0"/>
				</linearGradient>
				<path style="fill:url(#SVGID_00000021801953759927876960000006425413050816682631_);" d="M212.778,365.565h152.118
					c3.133,0,5.673-2.54,5.673-5.673v-15.92c0-3.133-2.54-5.673-5.673-5.673H212.778c-3.133,0-5.673,2.54-5.673,5.673v15.92
					C207.105,363.025,209.645,365.565,212.778,365.565z"/>
				
					<linearGradient id="SVGID_00000096059172087227172920000013264776745858766748_" gradientUnits="userSpaceOnUse" x1="301.8926" y1="395.5486" x2="301.8926" y2="368.283">
					<stop  offset="0" style="stop-color:#FCC020"/>
					<stop  offset="0.6249" style="stop-color:#FCC020;stop-opacity:0"/>
				</linearGradient>
				<path style="fill:url(#SVGID_00000096059172087227172920000013264776745858766748_);" d="M225.834,395.549h152.118
					c3.133,0,5.673-2.54,5.673-5.673v-15.92c0-3.133-2.54-5.673-5.673-5.673H225.834c-3.133,0-5.673,2.54-5.673,5.673v15.92
					C220.161,393.009,222.701,395.549,225.834,395.549z"/>
			</g>
			<g>
				<path style="fill:#FCC000;" d="M239.247,244.705c-0.586-0.728-1.183-1.447-1.785-2.161
					C237.845,243.423,238.466,244.168,239.247,244.705z"/>
				<path style="fill:#FCC000;" d="M266.938,323.321c0-1.17-0.019-2.335-0.051-3.496c-0.005-0.197-0.016-0.393-0.022-0.59
					c-0.032-0.999-0.074-1.996-0.129-2.989c-0.007-0.124-0.016-0.248-0.024-0.372c-0.064-1.085-0.141-2.166-0.232-3.243
					c-0.003-0.038-0.007-0.076-0.01-0.113c-0.216-2.536-0.506-5.05-0.871-7.541c-0.088-0.6-0.181-1.199-0.278-1.797
					c-1.874-11.614-5.341-22.693-10.17-33.008c-0.05-0.108-0.101-0.216-0.151-0.324c-0.527-1.118-1.067-2.229-1.626-3.329
					c0-0.001-0.001-0.002-0.001-0.003c-0.273-0.537-0.554-1.069-0.835-1.602c-0.513-0.974-1.038-1.94-1.575-2.898
					c-0.264-0.471-0.527-0.944-0.797-1.411c-0.001-0.001-0.002-0.003-0.003-0.004c-0.536-0.928-1.086-1.847-1.645-2.76
					c-0.049-0.081-0.101-0.16-0.15-0.241c-0.525-0.853-1.06-1.699-1.605-2.537c-0.033-0.05-0.066-0.1-0.098-0.149
					c-0.571-0.877-1.153-1.746-1.745-2.607c-0.006-0.008-0.012-0.017-0.017-0.025c-0.526-0.764-1.059-1.523-1.601-2.276
					c-0.402-0.558-0.825-1.1-1.236-1.652c-2.79,0.047-5.038,2.319-5.038,5.12v0.165c0,0,0,0.001,0,0.001v16.685
					c0,0.732,0.148,1.428,0.417,2.062h-0.05c0.707,1.773,2.376,3.044,4.361,3.198c0.028,0.003,0.056,0.004,0.084,0.007
					c0.105,0.006,0.206,0.024,0.313,0.024h-11.125c-1.362,0-2.466,1.104-2.466,2.466c0,0.086,0.017,0.168,0.025,0.252h-3.134
					c-0.001,0-0.002,0-0.003,0h-0.163c-2.83,0-5.124,2.294-5.124,5.124v16.851c0,0.731,0.149,1.428,0.417,2.062h-0.05
					c0.707,1.773,2.376,3.044,4.361,3.198c0.028,0.003,0.056,0.004,0.084,0.006c0.105,0.006,0.206,0.024,0.313,0.024h30.767
					c-1.362,0-2.466,1.104-2.466,2.466c0,0.086,0.017,0.168,0.025,0.252h-3.134c-0.001,0-0.002,0-0.003,0h-0.163
					c-2.83,0-5.124,2.294-5.124,5.124v16.851c0,0.731,0.149,1.428,0.417,2.061h-0.05c0.707,1.773,2.376,3.044,4.362,3.198
					c0.027,0.003,0.054,0.004,0.081,0.006c0.106,0.006,0.208,0.025,0.315,0.025h-32.341c-1.362,0-2.466,1.104-2.466,2.466
					c0,0.086,0.017,0.168,0.025,0.252h-3.3c-2.83,0-5.124,2.294-5.124,5.125v16.851c0,0.732,0.148,1.428,0.417,2.062h-0.05
					c0.707,1.773,2.376,3.044,4.361,3.198c0.028,0.003,0.056,0.004,0.084,0.006c0.105,0.006,0.206,0.024,0.313,0.024h18.797
					c-1.362,0-2.466,1.104-2.466,2.467c0,0.086,0.017,0.168,0.025,0.251h-3.134c-0.001,0-0.002,0-0.003,0h-0.163
					c-2.83,0-5.124,2.294-5.124,5.124v16.851c0,0.731,0.149,1.428,0.417,2.061h-0.05c0.707,1.773,2.376,3.044,4.361,3.198
					c0.028,0.003,0.056,0.004,0.084,0.006c0.105,0.006,0.206,0.024,0.313,0.024h18.793
					C258.477,375.123,266.938,350.212,266.938,323.321z"/>
			</g>
			<g>
				<circle style="fill:#FCB500;" cx="174.773" cy="323.321" r="86.478"/>
				<g>
					<path style="fill:#FCCC20;" d="M88.403,318.991l82.04-82.04c-3.209,0.158-6.37,0.495-9.478,0.994l-71.568,71.568
						C88.898,312.621,88.561,315.782,88.403,318.991z"/>
					<path style="fill:#FCCC20;" d="M233.57,259.915c-9.414-8.734-20.774-15.399-33.36-19.267L92.1,348.759
						c3.868,12.586,10.533,23.945,19.267,33.36L233.57,259.915z"/>
					<path style="fill:#FCCC20;" d="M261.251,323.321c0-3.323-0.194-6.599-0.559-9.824l-95.744,95.743
						c3.225,0.365,6.502,0.559,9.824,0.559c0.686,0,1.37-0.01,2.052-0.026l84.4-84.4
						C261.241,324.691,261.251,324.007,261.251,323.321z"/>
					<path style="fill:#FCCC20;" d="M131.56,398.242l118.134-118.134c-1.51-2.611-3.155-5.134-4.92-7.564L123.996,393.322
						C126.426,395.088,128.949,396.733,131.56,398.242z"/>
					<path style="fill:#FCCC20;" d="M254.168,289.005c-0.707-1.634-1.461-3.244-2.264-4.824L135.633,400.452
						c1.58,0.803,3.189,1.557,4.824,2.264L254.168,289.005z"/>
				</g>
				<path style="fill:#FCD323;" d="M174.773,237.659c47.624,0,86.253,38.498,86.473,86.07c0.001-0.136,0.005-0.271,0.005-0.408
					c0-47.76-38.717-86.478-86.478-86.478c-47.76,0-86.478,38.718-86.478,86.478c0,0.136,0.005,0.272,0.005,0.408
					C88.52,276.157,127.149,237.659,174.773,237.659z"/>
				<path style="fill:#FCE96C;" d="M174.773,245.51c-43.592,0-78.93,35.338-78.93,78.93s35.338,78.93,78.93,78.93
					c43.592,0,78.93-35.338,78.93-78.93S218.365,245.51,174.773,245.51z M174.773,399.058c-41.211,0-74.619-33.408-74.619-74.619
					c0-41.211,33.408-74.619,74.619-74.619s74.619,33.408,74.619,74.619C249.391,365.651,215.984,399.058,174.773,399.058z"/>
				<g>
					<g>
						<path style="fill:#FCF997;" d="M174.773,383.166c-32.897,0-59.66-26.763-59.66-59.66c0-32.896,26.763-59.659,59.66-59.659
							c32.896,0,59.659,26.763,59.659,59.659C234.432,356.403,207.669,383.166,174.773,383.166z M174.773,264.835
							c-32.352,0-58.672,26.32-58.672,58.671c0,32.352,26.32,58.672,58.672,58.672s58.671-26.32,58.671-58.672
							C233.444,291.155,207.125,264.835,174.773,264.835z"/>
					</g>
					<g>
						<path style="fill:#FCF997;" d="M174.773,386.165c-34.51,0-62.587-28.077-62.587-62.587s28.076-62.586,62.587-62.586
							c34.51,0,62.587,28.076,62.587,62.586S209.283,386.165,174.773,386.165z M174.773,261.486
							c-34.238,0-62.093,27.854-62.093,62.092s27.855,62.093,62.093,62.093s62.093-27.855,62.093-62.093
							S209.011,261.486,174.773,261.486z"/>
					</g>
					<g>
						<path style="fill:#FCF997;" d="M174.773,395.938c-39.942,0-72.438-32.495-72.438-72.438c0-39.941,32.495-72.437,72.438-72.437
							c39.942,0,72.438,32.495,72.438,72.437C247.211,363.443,214.715,395.938,174.773,395.938z M174.773,251.53
							c-39.685,0-71.971,32.286-71.971,71.971c0,39.685,32.286,71.971,71.971,71.971c39.685,0,71.971-32.286,71.971-71.971
							C246.744,283.816,214.458,251.53,174.773,251.53z"/>
					</g>
				</g>
				<g>
					<path style="fill:#ED7300;" d="M174.773,244.391c-43.592,0-78.93,35.338-78.93,78.93s35.338,78.93,78.93,78.93
						c43.592,0,78.93-35.338,78.93-78.93S218.365,244.391,174.773,244.391z M174.773,397.94c-41.211,0-74.619-33.408-74.619-74.619
						c0-41.211,33.408-74.619,74.619-74.619s74.619,33.408,74.619,74.619C249.391,364.532,215.984,397.94,174.773,397.94z"/>
					<g>
						<g>
							<path style="fill:#ED7300;" d="M174.773,382.976c-32.897,0-59.66-26.763-59.66-59.66c0-32.896,26.763-59.659,59.66-59.659
								c32.896,0,59.659,26.763,59.659,59.659C234.432,356.213,207.669,382.976,174.773,382.976z M174.773,264.644
								c-32.352,0-58.672,26.32-58.672,58.671c0,32.352,26.32,58.672,58.672,58.672s58.671-26.32,58.671-58.672
								C233.444,290.964,207.125,264.644,174.773,264.644z"/>
						</g>
						<g>
							<path style="fill:#ED7300;" d="M174.773,385.902c-34.51,0-62.587-28.077-62.587-62.587c0-34.51,28.076-62.586,62.587-62.586
								c34.51,0,62.587,28.076,62.587,62.586C237.36,357.826,209.283,385.902,174.773,385.902z M174.773,261.224
								c-34.238,0-62.093,27.854-62.093,62.092c0,34.238,27.855,62.093,62.093,62.093s62.093-27.855,62.093-62.093
								C236.866,289.078,209.011,261.224,174.773,261.224z"/>
						</g>
						<g>
							<path style="fill:#ED7300;" d="M174.773,395.759c-39.942,0-72.438-32.496-72.438-72.438
								c0-39.941,32.495-72.437,72.438-72.437c39.942,0,72.438,32.495,72.438,72.437
								C247.211,363.263,214.715,395.759,174.773,395.759z M174.773,251.35c-39.685,0-71.971,32.286-71.971,71.971
								c0,39.685,32.286,71.971,71.971,71.971c39.685,0,71.971-32.286,71.971-71.971C246.744,283.636,214.458,251.35,174.773,251.35
								z"/>
						</g>
					</g>
				</g>
				<g>
					<g>
						<path style="fill:#FCE96C;" d="M218.079,346.163c-1.818-0.208-3.495,0.631-4.366,1.171c1.984,0.267,3.507,0.899,3.507,0.899
							s-1.627,0.271-3.62,0.083c0.726,0.722,2.171,1.918,3.989,2.126c2.624,0.3,4.996-1.596,4.996-1.596
							S220.703,346.464,218.079,346.163z"/>
						<path style="fill:#FCE96C;" d="M214.532,352.115c-2.072-0.237-3.984,0.72-4.978,1.334c2.262,0.305,3.999,1.025,3.999,1.025
							s-1.855,0.309-4.127,0.095c0.828,0.823,2.475,2.187,4.548,2.424c2.992,0.342,5.696-1.82,5.696-1.82
							S217.524,352.457,214.532,352.115z"/>
						<path style="fill:#FCE96C;" d="M207.123,352.781c-0.969-1.736-1.375-3.323-1.375-3.323s1.185,1.131,2.222,2.827
							c0.141-1.008,0.232-2.868-0.686-4.437c-1.324-2.264-4.244-3.02-4.244-3.02s-0.773,2.915,0.552,5.18
							C204.51,351.576,206.176,352.41,207.123,352.781z"/>
						<path style="fill:#FCE96C;" d="M220.273,321.173c0.001-0.243-0.196-0.441-0.438-0.442c-0.248,0.001-0.441,0.195-0.442,0.438
							c-0.096,23.335-16.029,38.104-16.191,38.251c-0.18,0.164-0.193,0.441-0.029,0.622c0.106,0.117,0.261,0.163,0.406,0.136
							c0.077-0.014,0.152-0.05,0.214-0.107C203.958,359.922,220.176,344.905,220.273,321.173z"/>
						<path style="fill:#FCE96C;" d="M218.686,323.608c-0.772-0.901-1.197-1.782-1.197-1.782s0.827,0.522,1.634,1.392
							c-0.036-0.606-0.203-1.706-0.925-2.515c-1.042-1.169-2.84-1.266-2.84-1.266s-0.108,1.797,0.935,2.966
							C217.015,323.212,218.088,323.503,218.686,323.608z"/>
						<path style="fill:#FCE96C;" d="M222.136,321.214c-0.939,0.544-1.44,1.536-1.664,2.101c1.038-0.574,1.987-0.813,1.987-0.813
							s-0.678,0.704-1.693,1.32c0.601,0.087,1.711,0.145,2.65-0.399c1.355-0.785,1.813-2.526,1.813-2.526
							S223.491,320.429,222.136,321.214z"/>
						<path style="fill:#FCE96C;" d="M221.884,324.772c-0.99,0.443-1.592,1.378-1.873,1.917c1.092-0.464,2.06-0.602,2.06-0.602
							s-0.748,0.63-1.821,1.137c0.589,0.149,1.687,0.322,2.677-0.121c1.429-0.64,2.066-2.324,2.066-2.324
							S223.313,324.132,221.884,324.772z"/>
						<path style="fill:#FCE96C;" d="M221.909,328.67c-1.036,0.323-1.744,1.179-2.087,1.681c1.14-0.33,2.117-0.353,2.117-0.353
							s-0.817,0.537-1.943,0.912c0.567,0.218,1.637,0.52,2.673,0.198c1.495-0.466,2.327-2.062,2.327-2.062
							S223.404,328.204,221.909,328.67z"/>
						<path style="fill:#FCE96C;" d="M221.753,332.213c-1.267,0.177-2.255,1.039-2.75,1.556c1.39-0.166,2.531-0.006,2.531-0.006
							s-1.054,0.468-2.436,0.69c0.618,0.362,1.806,0.918,3.072,0.741c1.829-0.256,3.103-1.955,3.103-1.955
							S223.582,331.957,221.753,332.213z"/>
						<path style="fill:#FCE96C;" d="M221.063,336.523c-1.374,0.017-2.544,0.801-3.143,1.285c1.503,0.012,2.698,0.338,2.698,0.338
							s-1.186,0.356-2.689,0.404c0.61,0.47,1.799,1.224,3.173,1.207c1.984-0.024,3.572-1.662,3.572-1.662
							S223.046,336.499,221.063,336.523z"/>
						<path style="fill:#FCE96C;" d="M219.702,340.898c-1.656,0.02-3.066,0.965-3.787,1.549c1.812,0.014,3.252,0.408,3.252,0.408
							s-1.43,0.429-3.241,0.487c0.735,0.566,2.168,1.475,3.824,1.455c2.391-0.03,4.305-2.002,4.305-2.002
							S222.093,340.868,219.702,340.898z"/>
						<path style="fill:#FCE96C;" d="M218.663,327.033c-0.982-0.667-1.623-1.405-1.623-1.405s0.935,0.287,1.942,0.914
							c-0.194-0.576-0.644-1.592-1.553-2.184c-1.313-0.854-3.073-0.476-3.073-0.476s0.368,1.763,1.681,2.616
							C216.947,327.09,218.059,327.089,218.663,327.033z"/>
						<path style="fill:#FCE96C;" d="M218.101,330.687c-0.982-0.667-1.623-1.405-1.623-1.405s0.935,0.287,1.942,0.914
							c-0.194-0.576-0.644-1.592-1.553-2.184c-1.313-0.854-3.073-0.476-3.073-0.476s0.368,1.762,1.681,2.616
							C216.385,330.744,217.497,330.743,218.101,330.687z"/>
						<path style="fill:#FCE96C;" d="M217.165,334.064c-1.116-0.758-1.845-1.598-1.845-1.598s1.063,0.326,2.208,1.039
							c-0.221-0.654-0.732-1.811-1.766-2.483c-1.492-0.971-3.494-0.541-3.494-0.541s0.418,2.004,1.911,2.975
							C215.213,334.128,216.477,334.127,217.165,334.064z"/>
						<path style="fill:#FCE96C;" d="M216.233,337.92c-1.329-0.903-2.197-1.902-2.197-1.902s1.265,0.388,2.629,1.237
							c-0.263-0.779-0.872-2.156-2.103-2.956c-1.777-1.156-4.16-0.645-4.16-0.645s0.498,2.386,2.275,3.542
							C213.909,337.997,215.414,337.995,216.233,337.92z"/>
						<path style="fill:#FCE96C;" d="M214.23,342.399c-1.386-1.123-2.252-2.309-2.252-2.309s1.363,0.547,2.792,1.614
							c-0.218-0.887-0.763-2.466-2.049-3.466c-1.857-1.444-4.541-1.101-4.541-1.101s0.328,2.685,2.185,4.13
							C211.653,342.267,213.318,342.406,214.23,342.399z"/>
						<path style="fill:#FCE96C;" d="M211.154,347.524c-1.185-1.333-1.847-2.644-1.847-2.644s1.256,0.762,2.493,2.046
							c-0.071-0.91-0.352-2.557-1.459-3.753c-1.598-1.727-4.301-1.824-4.301-1.824s-0.113,2.703,1.485,4.43
							C208.632,346.974,210.253,347.382,211.154,347.524z"/>
						<path style="fill:#FCE96C;" d="M219.093,320.379c-0.314-0.663-0.424-1.257-0.424-1.257s0.408,0.446,0.748,1.095
							c0.077-0.367,0.156-1.05-0.143-1.65c-0.432-0.866-1.488-1.216-1.488-1.216s-0.356,1.054,0.075,1.92
							C218.161,319.871,218.754,320.219,219.093,320.379z"/>
						<path style="fill:#FCE96C;" d="M220.597,320.829c0.375-0.02,1.055-0.118,1.558-0.56c0.727-0.639,0.795-1.749,0.795-1.749
							s-1.11-0.075-1.837,0.564c-0.503,0.442-0.688,1.104-0.756,1.474c0.561-0.473,1.107-0.731,1.107-0.731
							S221.138,320.334,220.597,320.829z"/>
					</g>
					<g>
						<path style="fill:#ED7300;" d="M218.022,345.854c-1.818-0.208-3.495,0.631-4.366,1.171c1.984,0.267,3.507,0.899,3.507,0.899
							s-1.627,0.271-3.62,0.083c0.726,0.722,2.171,1.918,3.989,2.126c2.624,0.3,4.996-1.596,4.996-1.596
							S220.646,346.154,218.022,345.854z"/>
						<path style="fill:#ED7300;" d="M214.474,351.806c-2.072-0.237-3.984,0.719-4.978,1.334c2.262,0.305,3.999,1.025,3.999,1.025
							s-1.854,0.309-4.127,0.095c0.828,0.823,2.475,2.187,4.548,2.424c2.992,0.342,5.696-1.82,5.696-1.82
							S217.466,352.148,214.474,351.806z"/>
						<path style="fill:#ED7300;" d="M207.066,352.472c-0.969-1.736-1.375-3.323-1.375-3.323s1.184,1.131,2.222,2.827
							c0.141-1.008,0.232-2.868-0.686-4.437c-1.324-2.264-4.244-3.02-4.244-3.02s-0.773,2.915,0.552,5.18
							C204.452,351.267,206.118,352.101,207.066,352.472z"/>
						<path style="fill:#ED7300;" d="M220.216,320.864c0.001-0.243-0.195-0.441-0.438-0.442c-0.248,0.001-0.441,0.195-0.442,0.438
							c-0.096,23.335-16.029,38.104-16.191,38.251c-0.18,0.164-0.193,0.441-0.029,0.622c0.106,0.117,0.261,0.163,0.406,0.136
							c0.077-0.014,0.152-0.05,0.214-0.107C203.901,359.612,220.118,344.596,220.216,320.864z"/>
						<path style="fill:#ED7300;" d="M218.629,323.299c-0.772-0.901-1.197-1.782-1.197-1.782s0.827,0.522,1.634,1.392
							c-0.036-0.607-0.203-1.706-0.925-2.515c-1.042-1.169-2.84-1.266-2.84-1.266s-0.108,1.797,0.935,2.966
							C216.957,322.903,218.031,323.194,218.629,323.299z"/>
						<path style="fill:#ED7300;" d="M222.079,320.905c-0.939,0.544-1.44,1.536-1.664,2.101c1.038-0.574,1.987-0.812,1.987-0.812
							s-0.678,0.704-1.693,1.32c0.601,0.087,1.712,0.145,2.65-0.399c1.355-0.785,1.813-2.526,1.813-2.526
							S223.434,320.12,222.079,320.905z"/>
						<path style="fill:#ED7300;" d="M221.826,324.463c-0.99,0.443-1.592,1.378-1.873,1.917c1.092-0.464,2.06-0.602,2.06-0.602
							s-0.748,0.63-1.821,1.137c0.589,0.149,1.687,0.322,2.677-0.121c1.429-0.64,2.066-2.324,2.066-2.324
							S223.255,323.822,221.826,324.463z"/>
						<path style="fill:#ED7300;" d="M221.852,328.361c-1.035,0.323-1.744,1.179-2.087,1.681c1.14-0.331,2.117-0.353,2.117-0.353
							s-0.817,0.537-1.943,0.912c0.567,0.218,1.637,0.521,2.673,0.198c1.495-0.466,2.327-2.063,2.327-2.063
							S223.347,327.895,221.852,328.361z"/>
						<path style="fill:#ED7300;" d="M221.696,331.904c-1.267,0.177-2.255,1.039-2.75,1.556c1.39-0.166,2.531-0.005,2.531-0.005
							s-1.054,0.468-2.436,0.69c0.618,0.362,1.805,0.918,3.072,0.741c1.829-0.256,3.103-1.955,3.103-1.955
							S223.524,331.647,221.696,331.904z"/>
						<path style="fill:#ED7300;" d="M221.005,336.214c-1.374,0.017-2.544,0.801-3.143,1.285c1.503,0.012,2.698,0.338,2.698,0.338
							s-1.186,0.356-2.689,0.404c0.61,0.47,1.799,1.224,3.173,1.207c1.984-0.025,3.572-1.662,3.572-1.662
							S222.989,336.19,221.005,336.214z"/>
						<path style="fill:#ED7300;" d="M219.645,340.588c-1.656,0.021-3.066,0.965-3.787,1.549c1.812,0.014,3.252,0.408,3.252,0.408
							s-1.43,0.429-3.241,0.487c0.735,0.566,2.168,1.475,3.824,1.455c2.391-0.029,4.305-2.002,4.305-2.002
							S222.036,340.559,219.645,340.588z"/>
						<path style="fill:#ED7300;" d="M218.606,326.724c-0.982-0.667-1.623-1.405-1.623-1.405s0.935,0.287,1.942,0.914
							c-0.194-0.576-0.644-1.592-1.553-2.184c-1.313-0.854-3.073-0.476-3.073-0.476s0.368,1.763,1.681,2.616
							C216.889,326.781,218.001,326.78,218.606,326.724z"/>
						<path style="fill:#ED7300;" d="M218.044,330.378c-0.982-0.667-1.623-1.405-1.623-1.405s0.935,0.287,1.942,0.914
							c-0.194-0.576-0.644-1.592-1.553-2.184c-1.313-0.854-3.073-0.476-3.073-0.476s0.368,1.762,1.681,2.616
							C216.327,330.434,217.439,330.433,218.044,330.378z"/>
						<path style="fill:#ED7300;" d="M217.108,333.754c-1.116-0.758-1.845-1.598-1.845-1.598s1.063,0.326,2.208,1.039
							c-0.221-0.655-0.732-1.811-1.766-2.483c-1.492-0.971-3.494-0.541-3.494-0.541s0.418,2.004,1.911,2.975
							C215.156,333.819,216.42,333.818,217.108,333.754z"/>
						<path style="fill:#ED7300;" d="M216.176,337.611c-1.329-0.903-2.197-1.902-2.197-1.902s1.265,0.388,2.629,1.237
							c-0.263-0.779-0.872-2.156-2.103-2.956c-1.777-1.156-4.16-0.645-4.16-0.645s0.498,2.386,2.275,3.542
							C213.852,337.687,215.357,337.686,216.176,337.611z"/>
						<path style="fill:#ED7300;" d="M214.173,342.09c-1.386-1.123-2.252-2.309-2.252-2.309s1.363,0.547,2.792,1.614
							c-0.218-0.887-0.763-2.465-2.049-3.466c-1.857-1.444-4.541-1.101-4.541-1.101s0.328,2.685,2.185,4.129
							C211.596,341.958,213.261,342.097,214.173,342.09z"/>
						<path style="fill:#ED7300;" d="M211.097,347.214c-1.185-1.333-1.847-2.644-1.847-2.644s1.256,0.762,2.493,2.046
							c-0.071-0.91-0.352-2.557-1.459-3.753c-1.598-1.727-4.301-1.824-4.301-1.824s-0.113,2.703,1.485,4.43
							C208.575,346.665,210.195,347.073,211.097,347.214z"/>
						<path style="fill:#ED7300;" d="M219.036,320.069c-0.314-0.663-0.424-1.257-0.424-1.257s0.408,0.446,0.748,1.095
							c0.077-0.367,0.156-1.05-0.143-1.65c-0.432-0.866-1.488-1.216-1.488-1.216s-0.356,1.054,0.075,1.92
							C218.104,319.562,218.696,319.909,219.036,320.069z"/>
						<path style="fill:#ED7300;" d="M220.54,320.52c0.375-0.02,1.055-0.118,1.558-0.56c0.727-0.639,0.796-1.749,0.796-1.749
							s-1.11-0.075-1.837,0.564c-0.503,0.443-0.688,1.104-0.756,1.474c0.561-0.473,1.107-0.731,1.107-0.731
							S221.081,320.025,220.54,320.52z"/>
					</g>
				</g>
				<g>
					<g>
						<path style="fill:#FCE96C;" d="M132.819,346.163c1.818-0.208,3.495,0.631,4.366,1.171c-1.984,0.267-3.507,0.899-3.507,0.899
							s1.627,0.271,3.62,0.083c-0.726,0.722-2.171,1.918-3.989,2.126c-2.624,0.3-4.996-1.596-4.996-1.596
							S130.195,346.464,132.819,346.163z"/>
						<path style="fill:#FCE96C;" d="M136.367,352.115c2.072-0.237,3.984,0.72,4.978,1.334c-2.262,0.305-3.999,1.025-3.999,1.025
							s1.854,0.309,4.127,0.095c-0.828,0.823-2.475,2.187-4.548,2.424c-2.992,0.342-5.696-1.82-5.696-1.82
							S133.375,352.457,136.367,352.115z"/>
						<path style="fill:#FCE96C;" d="M143.775,352.781c0.969-1.736,1.375-3.323,1.375-3.323s-1.184,1.131-2.222,2.827
							c-0.141-1.008-0.232-2.868,0.686-4.437c1.324-2.264,4.244-3.02,4.244-3.02s0.773,2.915-0.552,5.18
							C146.389,351.576,144.723,352.41,143.775,352.781z"/>
						<path style="fill:#FCE96C;" d="M130.625,321.173c-0.001-0.243,0.196-0.441,0.438-0.442c0.248,0.001,0.441,0.195,0.442,0.438
							c0.096,23.335,16.029,38.104,16.191,38.251c0.18,0.164,0.193,0.441,0.029,0.622c-0.106,0.117-0.261,0.163-0.406,0.136
							c-0.077-0.014-0.152-0.05-0.214-0.107C146.94,359.922,130.723,344.905,130.625,321.173z"/>
						<path style="fill:#FCE96C;" d="M132.212,323.608c0.772-0.901,1.197-1.782,1.197-1.782s-0.827,0.522-1.634,1.392
							c0.036-0.606,0.203-1.706,0.925-2.515c1.042-1.169,2.84-1.266,2.84-1.266s0.108,1.797-0.935,2.966
							C133.884,323.212,132.811,323.503,132.212,323.608z"/>
						<path style="fill:#FCE96C;" d="M128.763,321.214c0.938,0.544,1.44,1.536,1.664,2.101c-1.038-0.574-1.987-0.813-1.987-0.813
							s0.678,0.704,1.693,1.32c-0.601,0.087-1.712,0.145-2.65-0.399c-1.355-0.785-1.813-2.526-1.813-2.526
							S127.408,320.429,128.763,321.214z"/>
						<path style="fill:#FCE96C;" d="M129.015,324.772c0.99,0.443,1.592,1.378,1.873,1.917c-1.092-0.464-2.06-0.602-2.06-0.602
							s0.748,0.63,1.821,1.137c-0.589,0.149-1.687,0.322-2.677-0.121c-1.429-0.64-2.066-2.324-2.066-2.324
							S127.586,324.132,129.015,324.772z"/>
						<path style="fill:#FCE96C;" d="M128.989,328.67c1.036,0.323,1.744,1.179,2.087,1.681c-1.14-0.33-2.117-0.353-2.117-0.353
							s0.817,0.537,1.943,0.912c-0.567,0.218-1.637,0.52-2.673,0.198c-1.495-0.466-2.327-2.062-2.327-2.062
							S127.494,328.204,128.989,328.67z"/>
						<path style="fill:#FCE96C;" d="M129.146,332.213c1.267,0.177,2.255,1.039,2.75,1.556c-1.39-0.166-2.531-0.006-2.531-0.006
							s1.054,0.468,2.436,0.69c-0.618,0.362-1.806,0.918-3.072,0.741c-1.829-0.256-3.103-1.955-3.103-1.955
							S127.317,331.957,129.146,332.213z"/>
						<path style="fill:#FCE96C;" d="M129.836,336.523c1.374,0.017,2.544,0.801,3.143,1.285c-1.503,0.012-2.698,0.338-2.698,0.338
							s1.186,0.356,2.689,0.404c-0.61,0.47-1.799,1.224-3.173,1.207c-1.984-0.024-3.572-1.662-3.572-1.662
							S127.852,336.499,129.836,336.523z"/>
						<path style="fill:#FCE96C;" d="M131.196,340.898c1.656,0.02,3.066,0.965,3.787,1.549c-1.812,0.014-3.252,0.408-3.252,0.408
							s1.43,0.429,3.241,0.487c-0.735,0.566-2.168,1.475-3.824,1.455c-2.391-0.03-4.305-2.002-4.305-2.002
							S128.805,340.868,131.196,340.898z"/>
						<path style="fill:#FCE96C;" d="M132.235,327.033c0.982-0.667,1.623-1.405,1.623-1.405s-0.935,0.287-1.942,0.914
							c0.194-0.576,0.644-1.592,1.553-2.184c1.313-0.854,3.073-0.476,3.073-0.476s-0.368,1.763-1.681,2.616
							C133.952,327.09,132.84,327.089,132.235,327.033z"/>
						<path style="fill:#FCE96C;" d="M132.797,330.687c0.982-0.667,1.623-1.405,1.623-1.405s-0.935,0.287-1.942,0.914
							c0.194-0.576,0.644-1.592,1.553-2.184c1.313-0.854,3.073-0.476,3.073-0.476s-0.368,1.762-1.681,2.616
							C134.514,330.744,133.402,330.743,132.797,330.687z"/>
						<path style="fill:#FCE96C;" d="M133.733,334.064c1.116-0.758,1.845-1.598,1.845-1.598s-1.063,0.326-2.208,1.039
							c0.221-0.654,0.732-1.811,1.766-2.483c1.493-0.971,3.494-0.541,3.494-0.541s-0.418,2.004-1.911,2.975
							C135.686,334.128,134.421,334.127,133.733,334.064z"/>
						<path style="fill:#FCE96C;" d="M134.666,337.92c1.329-0.903,2.197-1.902,2.197-1.902s-1.265,0.388-2.629,1.237
							c0.263-0.779,0.872-2.156,2.103-2.956c1.777-1.156,4.16-0.645,4.16-0.645s-0.498,2.386-2.275,3.542
							C136.99,337.997,135.484,337.995,134.666,337.92z"/>
						<path style="fill:#FCE96C;" d="M136.668,342.399c1.386-1.123,2.252-2.309,2.252-2.309s-1.363,0.547-2.792,1.614
							c0.218-0.887,0.763-2.466,2.049-3.466c1.857-1.444,4.541-1.101,4.541-1.101s-0.328,2.685-2.185,4.13
							C139.246,342.267,137.581,342.406,136.668,342.399z"/>
						<path style="fill:#FCE96C;" d="M139.744,347.524c1.185-1.333,1.847-2.644,1.847-2.644s-1.256,0.762-2.493,2.046
							c0.071-0.91,0.352-2.557,1.459-3.753c1.598-1.727,4.301-1.824,4.301-1.824s0.113,2.703-1.485,4.43
							C142.266,346.974,140.646,347.382,139.744,347.524z"/>
						<path style="fill:#FCE96C;" d="M131.805,320.379c0.314-0.663,0.424-1.257,0.424-1.257s-0.408,0.446-0.748,1.095
							c-0.077-0.367-0.156-1.05,0.143-1.65c0.432-0.866,1.488-1.216,1.488-1.216s0.356,1.054-0.075,1.92
							C132.737,319.871,132.145,320.219,131.805,320.379z"/>
						<path style="fill:#FCE96C;" d="M130.301,320.829c-0.375-0.02-1.055-0.118-1.558-0.56c-0.727-0.639-0.795-1.749-0.795-1.749
							s1.11-0.075,1.837,0.564c0.503,0.442,0.688,1.104,0.756,1.474c-0.56-0.473-1.107-0.731-1.107-0.731
							S129.76,320.334,130.301,320.829z"/>
					</g>
					<g>
						<path style="fill:#ED7300;" d="M132.877,345.854c1.818-0.208,3.495,0.631,4.366,1.171c-1.984,0.267-3.507,0.899-3.507,0.899
							s1.627,0.271,3.62,0.083c-0.726,0.722-2.171,1.918-3.989,2.126c-2.624,0.3-4.996-1.596-4.996-1.596
							S130.253,346.154,132.877,345.854z"/>
						<path style="fill:#ED7300;" d="M136.424,351.806c2.072-0.237,3.984,0.719,4.978,1.334c-2.262,0.305-3.999,1.025-3.999,1.025
							s1.855,0.309,4.127,0.095c-0.828,0.823-2.475,2.187-4.548,2.424c-2.992,0.342-5.696-1.82-5.696-1.82
							S133.432,352.148,136.424,351.806z"/>
						<path style="fill:#ED7300;" d="M143.833,352.472c0.969-1.736,1.375-3.323,1.375-3.323s-1.184,1.131-2.222,2.827
							c-0.141-1.008-0.232-2.868,0.686-4.437c1.324-2.264,4.244-3.02,4.244-3.02s0.773,2.915-0.552,5.18
							C146.446,351.267,144.78,352.101,143.833,352.472z"/>
						<path style="fill:#ED7300;" d="M130.683,320.864c-0.001-0.243,0.195-0.441,0.438-0.442c0.248,0.001,0.441,0.195,0.442,0.438
							c0.096,23.335,16.029,38.104,16.191,38.251c0.18,0.164,0.193,0.441,0.029,0.622c-0.106,0.117-0.261,0.163-0.406,0.136
							c-0.077-0.014-0.152-0.05-0.214-0.107C146.998,359.612,130.78,344.596,130.683,320.864z"/>
						<path style="fill:#ED7300;" d="M132.27,323.299c0.772-0.901,1.197-1.782,1.197-1.782s-0.827,0.522-1.634,1.392
							c0.036-0.607,0.203-1.706,0.925-2.515c1.042-1.169,2.84-1.266,2.84-1.266s0.108,1.797-0.935,2.966
							C133.941,322.903,132.868,323.194,132.27,323.299z"/>
						<path style="fill:#ED7300;" d="M128.82,320.905c0.938,0.544,1.44,1.536,1.664,2.101c-1.038-0.574-1.987-0.812-1.987-0.812
							s0.678,0.704,1.693,1.32c-0.601,0.087-1.712,0.145-2.65-0.399c-1.355-0.785-1.813-2.526-1.813-2.526
							S127.465,320.12,128.82,320.905z"/>
						<path style="fill:#ED7300;" d="M129.072,324.463c0.99,0.443,1.592,1.378,1.873,1.917c-1.092-0.464-2.06-0.602-2.06-0.602
							s0.748,0.63,1.821,1.137c-0.589,0.149-1.687,0.322-2.677-0.121c-1.429-0.64-2.066-2.324-2.066-2.324
							S127.643,323.822,129.072,324.463z"/>
						<path style="fill:#ED7300;" d="M129.047,328.361c1.035,0.323,1.744,1.179,2.087,1.681c-1.14-0.331-2.117-0.353-2.117-0.353
							s0.817,0.537,1.943,0.912c-0.567,0.218-1.637,0.521-2.673,0.198c-1.495-0.466-2.327-2.063-2.327-2.063
							S127.552,327.895,129.047,328.361z"/>
						<path style="fill:#ED7300;" d="M129.203,331.904c1.267,0.177,2.255,1.039,2.75,1.556c-1.39-0.166-2.531-0.005-2.531-0.005
							s1.054,0.468,2.435,0.69c-0.618,0.362-1.805,0.918-3.072,0.741c-1.829-0.256-3.103-1.955-3.103-1.955
							S127.374,331.647,129.203,331.904z"/>
						<path style="fill:#ED7300;" d="M129.893,336.214c1.374,0.017,2.544,0.801,3.143,1.285c-1.503,0.012-2.698,0.338-2.698,0.338
							s1.186,0.356,2.689,0.404c-0.61,0.47-1.799,1.224-3.173,1.207c-1.984-0.025-3.572-1.662-3.572-1.662
							S127.91,336.19,129.893,336.214z"/>
						<path style="fill:#ED7300;" d="M131.254,340.588c1.656,0.021,3.066,0.965,3.787,1.549c-1.812,0.014-3.252,0.408-3.252,0.408
							s1.43,0.429,3.241,0.487c-0.735,0.566-2.168,1.475-3.824,1.455c-2.391-0.029-4.305-2.002-4.305-2.002
							S128.863,340.559,131.254,340.588z"/>
						<path style="fill:#ED7300;" d="M132.292,326.724c0.982-0.667,1.623-1.405,1.623-1.405s-0.935,0.287-1.942,0.914
							c0.194-0.576,0.644-1.592,1.553-2.184c1.313-0.854,3.073-0.476,3.073-0.476s-0.368,1.763-1.681,2.616
							C134.009,326.781,132.897,326.78,132.292,326.724z"/>
						<path style="fill:#ED7300;" d="M132.855,330.378c0.982-0.667,1.623-1.405,1.623-1.405s-0.935,0.287-1.942,0.914
							c0.194-0.576,0.644-1.592,1.553-2.184c1.313-0.854,3.073-0.476,3.073-0.476s-0.368,1.762-1.681,2.616
							C134.571,330.434,133.459,330.433,132.855,330.378z"/>
						<path style="fill:#ED7300;" d="M133.791,333.754c1.116-0.758,1.845-1.598,1.845-1.598s-1.063,0.326-2.208,1.039
							c0.221-0.655,0.732-1.811,1.766-2.483c1.493-0.971,3.494-0.541,3.494-0.541s-0.418,2.004-1.911,2.975
							C135.743,333.819,134.479,333.818,133.791,333.754z"/>
						<path style="fill:#ED7300;" d="M134.723,337.611c1.329-0.903,2.197-1.902,2.197-1.902s-1.265,0.388-2.629,1.237
							c0.263-0.779,0.872-2.156,2.103-2.956c1.777-1.156,4.16-0.645,4.16-0.645s-0.498,2.386-2.275,3.542
							C137.047,337.687,135.542,337.686,134.723,337.611z"/>
						<path style="fill:#ED7300;" d="M136.725,342.09c1.386-1.123,2.252-2.309,2.252-2.309s-1.363,0.547-2.792,1.614
							c0.218-0.887,0.763-2.465,2.049-3.466c1.857-1.444,4.541-1.101,4.541-1.101s-0.328,2.685-2.185,4.129
							C139.303,341.958,137.638,342.097,136.725,342.09z"/>
						<path style="fill:#ED7300;" d="M139.802,347.214c1.185-1.333,1.847-2.644,1.847-2.644s-1.256,0.762-2.493,2.046
							c0.071-0.91,0.352-2.557,1.459-3.753c1.598-1.727,4.301-1.824,4.301-1.824s0.113,2.703-1.485,4.43
							C142.324,346.665,140.703,347.073,139.802,347.214z"/>
						<path style="fill:#ED7300;" d="M131.863,320.069c0.314-0.663,0.424-1.257,0.424-1.257s-0.408,0.446-0.748,1.095
							c-0.077-0.367-0.156-1.05,0.143-1.65c0.432-0.866,1.488-1.216,1.488-1.216s0.356,1.054-0.075,1.92
							C132.795,319.562,132.202,319.909,131.863,320.069z"/>
						<path style="fill:#ED7300;" d="M130.359,320.52c-0.375-0.02-1.055-0.118-1.558-0.56c-0.727-0.639-0.796-1.749-0.796-1.749
							s1.11-0.075,1.837,0.564c0.503,0.443,0.688,1.104,0.756,1.474c-0.561-0.473-1.107-0.731-1.107-0.731
							S129.818,320.025,130.359,320.52z"/>
					</g>
				</g>
				<g>
					<path style="fill:#FCDC43;" d="M197.556,318.979c3.511,0,6.368-2.874,6.368-6.406c0-3.532-2.857-6.406-6.368-6.406h-4.584
						c-0.647-2.625-1.688-5.116-3.11-7.439h7.694c3.511,0,6.368-2.874,6.368-6.406c0-3.533-2.857-6.407-6.368-6.407h-48.464
						c-3.511,0-6.368,2.874-6.368,6.407c0,3.532,2.856,6.406,6.368,6.406h18.158c5.159,0,9.834,2.92,12.183,7.439h-30.342
						c-3.511,0-6.368,2.874-6.368,6.406c0,3.532,2.856,6.406,6.368,6.406h30.343c-2.35,4.521-7.025,7.441-12.184,7.441h-18.158
						c-3.511,0-6.368,2.874-6.368,6.407c0,3.532,2.856,6.406,6.368,6.406h26.611l7.613,26.445c0.785,2.725,3.299,4.627,6.114,4.627
						c0.599,0,1.196-0.085,1.773-0.255c1.634-0.475,2.986-1.563,3.807-3.062c0.821-1.5,1.012-3.23,0.539-4.873L183,330.94
						l6.862-4.519c1.422-2.324,2.463-4.816,3.11-7.441H197.556z"/>
					<path style="fill:#ED7300;" d="M197.556,318.781c3.511,0,6.368-2.857,6.368-6.367c0-3.511-2.857-6.368-6.368-6.368h-4.584
						c-0.647-2.609-1.688-5.085-3.11-7.395h7.694c3.511,0,6.368-2.857,6.368-6.368c0-3.512-2.857-6.368-6.368-6.368h-48.464
						c-3.511,0-6.368,2.857-6.368,6.368c0,3.511,2.856,6.368,6.368,6.368h18.158c5.159,0,9.834,2.902,12.183,7.395h-30.342
						c-3.511,0-6.368,2.857-6.368,6.368c0,3.511,2.856,6.367,6.368,6.367h30.343c-2.35,4.493-7.025,7.397-12.184,7.397h-18.158
						c-3.511,0-6.368,2.857-6.368,6.368c0,3.511,2.856,6.368,6.368,6.368h26.611l7.613,26.286c0.785,2.708,3.299,4.599,6.114,4.599
						c0.599,0,1.196-0.085,1.773-0.253c1.634-0.473,2.986-1.554,3.807-3.044c0.821-1.491,1.012-3.211,0.539-4.844l-6.587-22.745
						l-2.397-8.723l3.296-4.013c1.422-2.31,2.463-4.787,3.11-7.397H197.556z"/>
					<path style="fill:#FCED4B;" d="M187.101,337.515l-2.184-7.934l2.288-2.004c2.254-2.959,3.885-6.417,4.646-10.194h5.704
						c2.745,0,4.969-2.224,4.969-4.969c0-2.745-2.224-4.969-4.969-4.969h-5.704c-0.762-3.777-2.392-7.233-4.646-10.192h10.35
						c2.745,0,4.969-2.224,4.969-4.969s-2.224-4.969-4.969-4.969h-48.464c-2.745,0-4.969,2.225-4.969,4.969s2.225,4.969,4.969,4.969
						h18.158c6.619,0,12.245,4.269,14.309,10.192h-32.467c-2.745,0-4.969,2.225-4.969,4.969c0,2.745,2.225,4.969,4.969,4.969h32.467
						c-2.063,5.925-7.69,10.194-14.309,10.194h-18.158c-2.745,0-4.969,2.225-4.969,4.969c0,2.745,2.225,4.969,4.969,4.969h27.663
						l7.905,27.297c0.63,2.174,2.616,3.589,4.771,3.589c0.457,0,0.923-0.064,1.384-0.198c2.636-0.763,4.155-3.52,3.391-6.155
						L187.101,337.515z"/>
					<g>
						<path style="fill:#FCFF82;" d="M149.092,307.96h32.467c-0.061-0.175-0.135-0.344-0.202-0.516h-32.265
							c-2.745,0-4.969,2.224-4.969,4.969c0,0.087,0.009,0.172,0.013,0.258C144.271,310.047,146.434,307.96,149.092,307.96z"/>
						<path style="fill:#FCFF82;" d="M149.092,287.83h48.464c2.658,0,4.821,2.087,4.956,4.711c0.004-0.086,0.013-0.171,0.013-0.258
							c0-2.745-2.224-4.969-4.969-4.969h-48.464c-2.745,0-4.969,2.224-4.969,4.969c0,0.087,0.009,0.172,0.013,0.258
							C144.271,289.917,146.434,287.83,149.092,287.83z"/>
						<path style="fill:#FCFF82;" d="M149.092,328.092h18.158c6.619,0,12.246-4.269,14.309-10.194h-0.202
							c-2.205,5.653-7.684,9.679-14.107,9.679h-18.158c-2.745,0-4.969,2.224-4.969,4.969c0,0.087,0.009,0.172,0.013,0.258
							C144.271,330.18,146.434,328.092,149.092,328.092z"/>
						<path style="fill:#FCFF82;" d="M187.251,338.03h-0.149l7.105,24.533c0.108,0.374,0.166,0.75,0.186,1.123
							c0.028-0.539-0.027-1.091-0.186-1.639L187.251,338.03z"/>
						<path style="fill:#FCFF82;" d="M197.556,307.444h-5.704c-0.718-3.562-2.217-6.833-4.275-9.677h-0.371
							c2.254,2.959,3.884,6.416,4.646,10.193h5.704c2.658,0,4.821,2.087,4.956,4.711c0.004-0.086,0.013-0.171,0.013-0.258
							C202.525,309.669,200.301,307.444,197.556,307.444z"/>
					</g>
				</g>
			</g>
		</g>
		<g>
			<g>
				<polygon style="fill:#FCED4B;" points="123.996,211.348 130.987,260.228 177.483,264.835 130.987,269.441 123.996,318.322 
					119.389,269.441 70.509,264.835 119.389,260.228 				"/>
				<polygon style="fill:#FCC310;" points="125.23,238.496 128.673,262.566 151.569,264.835 128.673,267.103 125.23,291.174 
					122.357,267.103 98.892,264.835 122.357,262.566 				"/>
			</g>
			<g>
				<polygon style="fill:#FCED4B;" points="150.022,204.495 152.189,219.651 166.607,221.08 152.189,222.508 150.022,237.664 
					148.593,222.508 133.437,221.08 148.593,219.651 				"/>
				<polygon style="fill:#FCC310;" points="150.405,212.913 151.472,220.376 158.572,221.08 151.472,221.783 150.405,229.247 
					149.514,221.783 142.238,221.08 149.514,220.376 				"/>
			</g>
			<g>
				<polygon style="fill:#FCED4B;" points="163.604,223.794 165.011,233.635 174.372,234.563 165.011,235.49 163.604,245.331 
					162.676,235.49 152.835,234.563 162.676,233.635 				"/>
				<polygon style="fill:#FCC310;" points="163.852,229.26 164.546,234.106 169.155,234.563 164.546,235.019 163.852,239.865 
					163.274,235.019 158.55,234.563 163.274,234.106 				"/>
			</g>
			<g>
				<polygon style="fill:#FCED4B;" points="194.107,111.138 197.165,132.521 217.505,134.537 197.165,136.552 194.107,157.935 
					192.092,136.552 170.709,134.537 192.092,132.521 				"/>
				<polygon style="fill:#FCC310;" points="194.647,123.015 196.153,133.544 206.169,134.537 196.153,135.529 194.647,146.059 
					193.39,135.529 183.125,134.537 193.39,133.544 				"/>
			</g>
			<g>
				<polygon style="fill:#FCED4B;" points="210.403,104.689 211.268,110.734 217.018,111.304 211.268,111.873 210.403,117.919 
					209.833,111.873 203.788,111.304 209.833,110.734 				"/>
				<polygon style="fill:#FCC310;" points="210.556,108.046 210.981,111.023 213.813,111.304 210.981,111.584 210.556,114.561 
					210.2,111.584 207.298,111.304 210.2,111.023 				"/>
			</g>
			<g>
				<polygon style="fill:#FCED4B;" points="234.839,96.549 235.485,101.06 239.776,101.485 235.485,101.91 234.839,106.421 
					234.414,101.91 229.903,101.485 234.414,101.06 				"/>
				<polygon style="fill:#FCC310;" points="234.953,99.054 235.271,101.275 237.384,101.485 235.271,101.694 234.953,103.916 
					234.688,101.694 232.523,101.485 234.688,101.275 				"/>
			</g>
			<g>
				<polygon style="fill:#FCED4B;" points="188.375,173.748 189.02,178.259 193.311,178.684 189.02,179.109 188.375,183.62 
					187.949,179.109 183.438,178.684 187.949,178.259 				"/>
				<polygon style="fill:#FCC310;" points="188.488,176.254 188.806,178.475 190.919,178.684 188.806,178.894 188.488,181.115 
					188.223,178.894 186.058,178.684 188.223,178.475 				"/>
			</g>
			<g>
				<polygon style="fill:#FCED4B;" points="206.169,91.613 206.814,96.123 211.105,96.549 206.814,96.974 206.169,101.485 
					205.744,96.974 201.233,96.549 205.744,96.123 				"/>
				<polygon style="fill:#FCC310;" points="206.283,94.118 206.601,96.339 208.714,96.549 206.601,96.758 206.283,98.979 
					206.018,96.758 203.852,96.549 206.018,96.339 				"/>
			</g>
			<g>
				<polygon style="fill:#FCED4B;" points="182.298,144.051 182.943,148.562 187.234,148.988 182.943,149.413 182.298,153.924 
					181.872,149.413 177.361,148.988 181.872,148.562 				"/>
				<polygon style="fill:#FCC310;" points="182.411,146.557 182.729,148.778 184.842,148.988 182.729,149.197 182.411,151.418 
					182.146,149.197 179.981,148.988 182.146,148.778 				"/>
			</g>
			<g>
				<polygon style="fill:#FCED4B;" points="183.125,112.591 183.77,117.102 188.061,117.527 183.77,117.952 183.125,122.464 
					182.7,117.952 178.189,117.527 182.7,117.102 				"/>
				<polygon style="fill:#FCC310;" points="183.239,115.097 183.557,117.318 185.67,117.527 183.557,117.737 183.239,119.958 
					182.974,117.737 180.808,117.527 182.974,117.318 				"/>
			</g>
			<g>
				<polygon style="fill:#FCED4B;" points="163.541,152.246 163.895,154.718 166.246,154.951 163.895,155.184 163.541,157.656 
					163.309,155.184 160.837,154.951 163.309,154.718 				"/>
				<polygon style="fill:#FCC310;" points="163.604,153.619 163.778,154.836 164.936,154.951 163.778,155.066 163.604,156.283 
					163.459,155.066 162.272,154.951 163.459,154.836 				"/>
			</g>
			<g>
				<polygon style="fill:#FCED4B;" points="185.67,153.096 186.023,155.568 188.375,155.801 186.023,156.034 185.67,158.506 
					185.437,156.034 182.965,155.801 185.437,155.568 				"/>
				<polygon style="fill:#FCC310;" points="185.732,154.469 185.906,155.686 187.064,155.801 185.906,155.916 185.732,157.133 
					185.587,155.916 184.4,155.801 185.587,155.686 				"/>
			</g>
			<g>
				<polygon style="fill:#FCED4B;" points="177.483,185.677 177.837,188.149 180.188,188.382 177.837,188.615 177.483,191.086 
					177.25,188.615 174.778,188.382 177.25,188.149 				"/>
				<polygon style="fill:#FCC310;" points="177.546,187.05 177.72,188.267 178.878,188.382 177.72,188.496 177.546,189.714 
					177.4,188.496 176.214,188.382 177.4,188.267 				"/>
			</g>
			<g>
				<polygon style="fill:#FCED4B;" points="202.559,123.83 202.973,126.725 205.727,126.997 202.973,127.27 202.559,130.165 
					202.287,127.27 199.392,126.997 202.287,126.725 				"/>
				<polygon style="fill:#FCC310;" points="202.632,125.438 202.836,126.863 204.192,126.997 202.836,127.132 202.632,128.557 
					202.462,127.132 201.073,126.997 202.462,126.863 				"/>
			</g>
			<g>
				<polygon style="fill:#FCED4B;" points="201.073,114.371 201.303,115.982 202.836,116.134 201.303,116.286 201.073,117.898 
					200.921,116.286 199.309,116.134 200.921,115.982 				"/>
				<polygon style="fill:#FCC310;" points="201.114,115.266 201.227,116.059 201.982,116.134 201.227,116.209 201.114,117.003 
					201.019,116.209 200.245,116.134 201.019,116.059 				"/>
			</g>
			<g>
				<polygon style="fill:#FCED4B;" points="226.461,114.371 226.691,115.982 228.224,116.134 226.691,116.286 226.461,117.898 
					226.309,116.286 224.697,116.134 226.309,115.982 				"/>
				<polygon style="fill:#FCC310;" points="226.502,115.266 226.615,116.059 227.37,116.134 226.615,116.209 226.502,117.003 
					226.407,116.209 225.633,116.134 226.407,116.059 				"/>
			</g>
			<g>
				<polygon style="fill:#FCED4B;" points="206.283,187.95 206.513,189.562 208.047,189.714 206.513,189.865 206.283,191.477 
					206.131,189.865 204.52,189.714 206.131,189.562 				"/>
				<polygon style="fill:#FCC310;" points="206.324,188.845 206.437,189.639 207.192,189.714 206.437,189.788 206.324,190.582 
					206.229,189.788 205.455,189.714 206.229,189.639 				"/>
			</g>
			<g>
				<polygon style="fill:#FCED4B;" points="199.392,171.985 199.623,173.596 201.156,173.748 199.623,173.9 199.392,175.512 
					199.24,173.9 197.629,173.748 199.24,173.596 				"/>
				<polygon style="fill:#FCC310;" points="199.433,172.88 199.546,173.673 200.301,173.748 199.546,173.823 199.433,174.617 
					199.338,173.823 198.564,173.748 199.338,173.673 				"/>
			</g>
			<g>
				<polygon style="fill:#FCED4B;" points="265.534,102.925 265.764,104.537 267.297,104.689 265.764,104.841 265.534,106.452 
					265.382,104.841 263.77,104.689 265.382,104.537 				"/>
				<polygon style="fill:#FCC310;" points="265.574,103.821 265.688,104.614 266.443,104.689 265.688,104.764 265.574,105.557 
					265.48,104.764 264.706,104.689 265.48,104.614 				"/>
			</g>
			<g>
				<polygon style="fill:#FCED4B;" points="265.534,75.647 265.764,77.259 267.297,77.411 265.764,77.563 265.534,79.174 
					265.382,77.563 263.77,77.411 265.382,77.259 				"/>
				<polygon style="fill:#FCC310;" points="265.574,76.543 265.688,77.336 266.443,77.411 265.688,77.486 265.574,78.279 
					265.48,77.486 264.706,77.411 265.48,77.336 				"/>
			</g>
			<g>
				<polygon style="fill:#FCED4B;" points="296.516,79.174 296.746,80.786 298.279,80.938 296.746,81.09 296.516,82.701 
					296.364,81.09 294.752,80.938 296.364,80.786 				"/>
				<polygon style="fill:#FCC310;" points="296.556,80.07 296.67,80.863 297.425,80.938 296.67,81.013 296.556,81.806 
					296.462,81.013 295.688,80.938 296.462,80.863 				"/>
			</g>
			<g>
				<polygon style="fill:#FCED4B;" points="188.061,120.7 188.292,122.312 189.825,122.464 188.292,122.615 188.061,124.227 
					187.91,122.615 186.298,122.464 187.91,122.312 				"/>
				<polygon style="fill:#FCC310;" points="188.102,121.595 188.216,122.389 188.97,122.464 188.216,122.538 188.102,123.332 
					188.007,122.538 187.234,122.464 188.007,122.389 				"/>
			</g>
		</g>
	</g>
</g>

</svg>
