<?xml version="1.0" encoding="utf-8"?>
<!-- Generator: Adobe Illustrator 27.5.0, SVG Export Plug-In . SVG Version: 6.00 Build 0)  -->
<svg version="1.1" id="Layer_1" xmlns="http://www.w3.org/2000/svg" xmlns:xlink="http://www.w3.org/1999/xlink" x="0px" y="0px"
	 viewBox="0 0 4000 4000" style="enable-background:new 0 0 4000 4000;" xml:space="preserve">
<g>
	<rect style="fill:#00000000;" width="4000" height="4000"/>
	<g>
		
			<linearGradient id="SVGID_1_" gradientUnits="userSpaceOnUse" x1="1208.6553" y1="3501.3188" x2="809.4185" y2="3783.9639" gradientTransform="matrix(0.9847 0.1745 -0.1745 0.9847 641.6572 -450.1716)">
			<stop  offset="0" style="stop-color:#FF4545"/>
			<stop  offset="1" style="stop-color:#F7931E"/>
		</linearGradient>
		<path style="fill:url(#SVGID_1_);" d="M1267.632,3366.976c0,0-47.657,92.552-172.373,103.084
			c-114.292,9.608-240.993-92.972-296.267-97.19c0,0,58.904-64.532,79.557-110.26c20.686-45.721,33.209-60.808,50.419-72.431
			c0,0-23.962-1.612-28.734-4.988c0,0,31.187-29.702,50.115-49.092c0.543-0.554,1.086-1.108,1.595-1.667
			c36.259-36.908,96.4-91.817,222.107-48.101c0,0,119.842,36.281,134.62,119.853
			C1318.59,3262.354,1267.632,3366.976,1267.632,3366.976z"/>
		<g>
			<path style="fill:#512717;" d="M1079.716,3482.81c-69.951,0-141.128-35.488-199.155-64.419
				c-34.497-17.202-64.297-32.056-82.485-33.442c-4.619-0.352-8.628-3.311-10.337-7.617c-1.709-4.302-0.811-9.209,2.31-12.627
				c0.576-0.635,57.847-63.652,77.471-107.075c12.607-27.886,22.788-45.938,33.994-59.048c-5.342-1.436-7.295-2.807-8.247-3.477
				c-2.964-2.09-4.839-5.396-5.107-9.009c-0.269-3.618,1.099-7.163,3.721-9.668c0.313-0.293,31.23-29.785,49.81-48.804
				c34.385-35.191,98.359-100.713,236.352-52.729c4.717,1.416,126.689,39.321,142.544,129.175
				c10.483,59.38-39.922,163.803-42.075,168.218c-2.188,4.263-52.324,98.887-182.236,109.834
				C1090.771,3482.586,1085.248,3482.81,1079.716,3482.81z M821.635,3365.418c19.351,6.167,42.51,17.715,69.736,31.294
				c59.902,29.863,134.375,67.051,202.871,61.269c116.108-9.79,160.776-93.027,162.622-96.567
				c0.356-0.742,48.979-101.479,39.863-153.135c-13.267-75.156-125.059-110.01-126.187-110.352
				c-123.896-43.056-178.75,13.086-211.523,46.631c-9.878,10.112-23.135,23.086-33.579,33.198c1.46,0.132,2.92,0.254,4.36,0.352
				c5.161,0.356,9.531,3.95,10.869,8.945c1.343,5-0.64,10.298-4.932,13.188c-14.961,10.073-26.201,23.257-46.138,67.368
				C874.482,3301.058,840.698,3343.059,821.635,3365.418z"/>
		</g>
		<g>
			<path style="fill:#080808;" d="M1079.775,3478.777c-69.033,0-139.751-35.254-197.402-63.994
				c-34.883-17.393-65.015-32.412-83.994-33.862c-3.076-0.235-5.752-2.207-6.894-5.073c-1.138-2.871-0.537-6.143,1.543-8.423
				c0.581-0.635,58.281-64.121,78.164-108.14c15.361-33.95,26.44-51.518,37.92-63.203c-5.845-1.021-10.874-2.412-13.545-4.302
				c-1.968-1.396-3.213-3.599-3.389-6.006c-0.171-2.407,0.737-4.771,2.485-6.436c0.313-0.293,31.299-29.824,49.912-48.882
				c0.478-0.493,0.942-0.962,1.377-1.44c31.177-31.753,95.591-97.339,230.752-50.313c4.775,1.435,124.458,38.618,139.922,126.074
				c10.254,58.091-39.604,161.367-41.733,165.732c-0.024,0.054-0.054,0.107-0.083,0.161c-2.026,3.941-51.167,96.65-178.872,107.437
				C1090.571,3478.563,1085.175,3478.777,1079.775,3478.777z M814.501,3367.522c20.093,5.391,45.093,17.857,75.078,32.803
				c60.352,30.088,135.337,67.549,205.005,61.689c117.51-9.927,164.326-95.835,165.83-98.672
				c1.772-3.667,49.521-103.535,40.303-155.752c-13.73-77.656-127.856-113.184-129.009-113.531
				c-125.83-43.75-183.184,14.658-214.004,46.031c-0.352,0.4-0.972,1.035-1.592,1.665c-11.914,12.202-28.809,28.613-39.663,39.072
				c4.014,0.522,8.608,0.991,13.061,1.294c3.442,0.229,6.357,2.622,7.256,5.957c0.898,3.33-0.42,6.86-3.276,8.794
				c-15.596,10.528-27.236,24.102-47.583,69.067C869.853,3301.487,832.265,3347.01,814.501,3367.522z M1267.631,3366.975h0.049
				H1267.631z"/>
		</g>
		<g>
			<path style="fill:#FFAC48;" d="M1247.968,3197.585c-27.594-53.953-136.031-81.932-179.304-70.745
				c-36.939,9.549-52.655,28.221-61.124,46.528c-8.469,18.307-16.009,41.021-36.672,48.703c0,0,12.116,7.659,22.096,6.119
				c0,0-40.892,34.679-39.868,90.577c0,0,16.862,6.479,30.095,14.558s59.721,25.759,72.446,29.974c0,0-21.234,8.12-23.809,13.662
				c0,0,21.566,4.39,37.199,14.402c15.633,10.011,101.643,37.936,140.75-37.945
				C1248.884,3277.536,1261.016,3223.095,1247.968,3197.585z"/>
		</g>
		
			<linearGradient id="SVGID_00000062180840925026265420000006304356069567514526_" gradientUnits="userSpaceOnUse" x1="839.2171" y1="3822.2729" x2="771.3008" y2="3913.2551" gradientTransform="matrix(0.9552 0.2958 -0.2958 0.9552 1147.1123 -689.473)">
			<stop  offset="0" style="stop-color:#FF4545"/>
			<stop  offset="1" style="stop-color:#F7931E"/>
		</linearGradient>
		<path style="fill:url(#SVGID_00000062180840925026265420000006304356069567514526_);" d="M843.934,3180.079
			c0,0-11.389,13.373-18.786,33.127c-7.398,19.754-24.176,48.737-61.319,58.577c-37.143,9.84-47.974,2.519-47.974,2.519
			s30.361-8.829,45.573-34.123C776.64,3214.885,800.129,3177.817,843.934,3180.079z"/>
		<g>
			<path style="fill:#080808;" d="M730.844,3284.969c-12.637,0-18.115-3.032-19.517-3.979c-2.593-1.753-3.935-4.849-3.452-7.944
				c0.488-3.091,2.715-5.625,5.723-6.499c0.259-0.078,27.578-8.365,40.913-30.532c13.989-23.267,40.146-66.592,89.839-63.999
				c3.071,0.161,5.786,2.046,7.002,4.873c1.216,2.817,0.728,6.084-1.26,8.423l0,0c-0.107,0.122-10.615,12.656-17.383,30.728
				c-8.696,23.218-27.344,53.096-66.812,63.555C750.541,3283.66,739.15,3284.969,730.844,3284.969z M715.854,3274.3h0.049H715.854z
				 M827.729,3189.354c-27.564,5.908-44.995,31.069-59.38,54.985c-5.864,9.751-13.657,17.261-21.357,22.92
				c4.297-0.747,9.199-1.807,14.766-3.281c32.808-8.691,48.467-33.95,55.825-53.604
				C820.649,3202.19,824.34,3195.047,827.729,3189.354z"/>
		</g>
		
			<linearGradient id="SVGID_00000106133491110333691640000010833524026625158581_" gradientUnits="userSpaceOnUse" x1="832.0966" y1="4016.479" x2="777.5784" y2="4063.1064" gradientTransform="matrix(0.9552 0.2958 -0.2958 0.9552 1147.1123 -689.473)">
			<stop  offset="0" style="stop-color:#FF4545"/>
			<stop  offset="1" style="stop-color:#F7931E"/>
		</linearGradient>
		<path style="fill:url(#SVGID_00000106133491110333691640000010833524026625158581_);" d="M771.1,3345.18
			c0,0-62.847,13.836-89.488,50.896c-26.641,37.061-29.885,47.82-47.902,50.126c0,0,36.975,12.722,71.216-1.54
			c34.241-14.261,62.932-34.073,93.075-26.475c0,0-35.081-20.701-66.726-19.144C731.275,3399.044,743.69,3369.688,771.1,3345.18z"/>
		<g>
			<path style="fill:#080808;" d="M668.754,3459.519c-20.786,0-36.641-5.322-37.671-5.678c-3.55-1.221-5.791-4.727-5.405-8.457
				c0.381-3.735,3.281-6.714,7.007-7.192c10.454-1.338,13.613-5.479,28.633-27.241c3.823-5.537,8.296-12.017,13.735-19.585
				c28.12-39.121,91.621-53.481,94.307-54.072c3.608-0.791,7.256,0.938,8.926,4.204c1.675,3.267,0.933,7.256-1.802,9.702
				c-15.723,14.057-26.328,29.961-32.202,40.215c29.204,3.115,56.509,19.038,57.822,19.815c3.462,2.041,4.893,6.313,3.369,10.029
				c-1.528,3.716-5.557,5.737-9.443,4.76c-20.586-5.176-41.299,4.565-65.303,15.85c-7.285,3.428-14.819,6.968-22.695,10.249
				C694.565,3457.722,680.829,3459.519,668.754,3459.519z M657.587,3442.747c12.471,1.26,28.779,0.899,44.233-5.542
				c7.544-3.14,14.907-6.601,22.031-9.951c13.042-6.133,25.718-12.09,38.462-15.611c-9.648-2.93-20.366-5.005-30.645-4.531
				c-2.725,0.112-5.42-1.167-7.017-3.442c-1.592-2.276-1.899-5.21-0.815-7.769c0.376-0.893,6.865-15.996,20.557-33.721
				c-18.989,7.515-42.847,19.995-56.226,38.608c-5.371,7.476-9.785,13.867-13.56,19.336
				C667.753,3430.061,662.67,3437.425,657.587,3442.747z"/>
		</g>
		
			<linearGradient id="SVGID_00000056409042669391280780000000832422281617976965_" gradientUnits="userSpaceOnUse" x1="671.5859" y1="4124.4844" x2="617.0677" y2="4173.2637" gradientTransform="matrix(0.9552 0.2958 -0.2958 0.9552 1147.1123 -689.473)">
			<stop  offset="0" style="stop-color:#FF4545"/>
			<stop  offset="1" style="stop-color:#F7931E"/>
		</linearGradient>
		<path style="fill:url(#SVGID_00000056409042669391280780000000832422281617976965_);" d="M580.732,3449.231
			c0,0-13.029,23.531-45.079,32.128c-23.08,6.191-48.644,21.72-48.644,21.72S509.822,3420.666,580.732,3449.231z"/>
		<g>
			<path style="fill:#080808;" d="M487.011,3511.155c-1.719,0-3.438-0.552-4.873-1.636c-2.642-1.997-3.794-5.405-2.91-8.594
				c0.483-1.753,12.241-43.032,45.239-59.336c17.554-8.672,37.5-8.628,59.282,0.152c2.148,0.864,3.818,2.607,4.595,4.79
				c0.771,2.178,0.576,4.585-0.547,6.611c-0.601,1.084-15.088,26.641-50.049,36.016c-21.719,5.825-46.299,20.674-46.543,20.825
				C489.911,3510.764,488.461,3511.155,487.011,3511.155z M552.392,3451.316c-7.393,0-14.312,1.572-20.703,4.721
				c-13.145,6.465-22.3,18.535-28.208,29.106c8.916-4.272,19.673-8.794,30.078-11.582c16.929-4.546,27.852-13.574,33.97-20.22
				C562.289,3451.99,557.236,3451.316,552.392,3451.316z"/>
		</g>
		<g>
			<g>
				<path style="fill:#FAA327;" d="M2833.847,1663.139c-13.303,20.356-37.249,43.035-69.05,66.137
					c-98.234,71.627-271.219,147.773-434.745,173.535c0,0-1.901,0.338-5.279,0.591c-21.708,1.732-104.062-0.929-125.432-135.736
					c-1.225-7.771-1.985-15.161-2.323-22.257c-3.463-71.923,35.137-110.101,50.974-113.564
					c84.34-18.414,198.241-65.292,329.966-149.716c0.506-0.295,1.056-0.634,1.562-0.971c3.633-2.323,7.138-4.519,10.643-6.715
					c153.094-95.066,204.829-54.945,233.717-10.516c3.717,5.659,7.348,12.627,10.77,20.483
					C2855.09,1531.33,2867.507,1611.826,2833.847,1663.139z"/>
			</g>
			<g>
				<path style="fill:#FF9343;" d="M2577.959,1482.129c-83.452,115.127-217.583,208.081-380.94,263.279
					c-3.463-71.923,35.137-110.101,50.974-113.564C2332.333,1613.43,2446.235,1566.552,2577.959,1482.129z"/>
			</g>
			<g>
				<path style="fill:#F9D3B7;" d="M2292.085,1707.568c-82.734,38.263-175.604,66.137-275.063,81.045
					c-54.607-75.892-172.141-121.715-172.141-121.715l24.917-208.926c0,0,251.032-44.176,306.146,29.268
					C2215.179,1539.481,2266.027,1648.822,2292.085,1707.568z"/>
			</g>
			<g>
				<path style="fill:#FF9343;" d="M2294.197,1706.554c-128.177,59.717-280.764,94.39-444.542,94.39
					c-49.37,0-97.727-3.167-144.732-9.207c36.531-97.811,63.011-206.096,53.002-343.31l111.875,9.545l342.973,29.268
					L2294.197,1706.554z"/>
			</g>
			<g>
				<path style="fill:#EF7F25;" d="M2833.862,1663.137c-13.322,20.366-37.273,43.035-69.049,66.154
					c-98.252,71.625-271.243,147.774-434.771,173.51c0,0-1.903,0.349-5.268,0.602c20.899-7.174-52.135-144.762-23.265-126.091
					c89.089,57.614,295.323,10.54,353.454-50.35c29.25-30.638,46.047-63.635,41.096-97.901
					c-9.677-67.248-6.675-103.827,9.333-124.378c33.729-43.37,83.278-39.391,129.278-20.29
					C2855.091,1531.328,2867.49,1611.827,2833.862,1663.137z"/>
			</g>
			<g>
				<path style="fill:#FF9343;" d="M2833.862,1663.137c-13.322,20.366-37.273,43.035-69.049,66.154
					c-40.86,5.13-73.027-1.415-98.192-15.514c21.925-26.827,33.678-55.311,29.438-84.717c-9.677-67.248-6.675-103.827,9.333-124.378
					c33.729-43.37,83.278-39.391,129.278-20.29c2.197,5.07,4.312,10.551,6.296,16.328c0.454,1.327,0.864,2.619,1.322,3.986
					c0.056,0.156,0.108,0.272,0.124,0.432c0.47,1.487,0.939,2.974,1.414,4.501c0.251,0.903,0.541,1.803,0.792,2.706
					c0.43,1.491,0.821,2.986,1.254,4.517c0.326,1.259,0.656,2.559,0.987,3.857c0.661,2.599,1.281,5.201,1.87,7.887
					c0.362,1.619,0.728,3.278,1.053,4.941c0.962,4.829,1.816,9.789,2.513,14.805c0.158,1.195,0.357,2.386,0.476,3.585
					c0.159,1.195,0.317,2.39,0.436,3.589C2857.477,1593.001,2853.568,1633.059,2833.862,1663.137z"/>
			</g>
			<g>
				<path style="fill:#FFFFFF;" d="M2833.862,1663.137c-13.322,20.366-37.273,43.035-69.049,66.154
					c-177.871,22.311-191.543-176.755-174.648-254.863c153.082-95.046,204.833-54.922,233.721-10.52
					C2849.683,1503.572,2873.099,1603.241,2833.862,1663.137z"/>
			</g>
			<g style="opacity:0.2;">
				<path style="fill:#080808;" d="M2833.862,1663.137c-13.322,20.366-37.273,43.035-69.049,66.154
					c-40.86,5.13-73.027-1.415-98.192-15.514c21.925-26.827,33.678-55.311,29.438-84.717c-9.677-67.248-6.675-103.827,9.333-124.378
					c33.729-43.37,83.278-39.391,129.278-20.29c2.197,5.07,4.312,10.551,6.296,16.328c0.454,1.327,0.864,2.619,1.322,3.986
					c0.056,0.156,0.108,0.272,0.124,0.432c0.47,1.487,0.939,2.974,1.414,4.501c0.251,0.903,0.541,1.803,0.792,2.706
					c0.43,1.491,0.86,2.982,1.254,4.517c0.326,1.259,0.656,2.559,0.987,3.857c0.661,2.599,1.285,5.241,1.87,7.887
					c0.362,1.619,0.728,3.278,1.053,4.941c0.962,4.829,1.816,9.789,2.513,14.805c0.158,1.195,0.357,2.386,0.476,3.585
					c0.159,1.195,0.317,2.39,0.436,3.589C2857.477,1593.001,2853.568,1633.059,2833.862,1663.137z"/>
			</g>
			<g>
				<path style="fill:#080808;" d="M2198.435,1627.65c119.41-16.986,228.947-74.446,331.861-135.163
					c85.049-51.441,227.216-155.035,305.042-40.408c40.718,63.6,53.614,175.845,0.298,235.471
					c-76.655,85.009-215.859,147.251-322.785,185.253c-58.59,20.168-118.766,36.138-180.313,45.945
					c-8.809,1.404-17.087-4.6-18.491-13.409c-1.404-8.81,4.6-17.089,13.408-18.493c59.29-9.439,117.806-24.937,174.846-44.578
					c101.405-36.008,235.79-95.714,308.612-175.506c43.701-48.749,30.243-144.992-2.292-196.527
					c-50.813-80.96-161.73-11.284-222.221,25.695c-117.667,73.898-245.227,139.753-385.582,155.833
					C2185.307,1652.93,2182.411,1629.76,2198.435,1627.65L2198.435,1627.65z"/>
			</g>
			<g>
				<path style="fill:#FFFFFF;" d="M2687.278,1425.808c26.283-15.214,101.983-118.181,163.373-93.502
					c63.955,25.71,23.605,126.024-38.047,148.054"/>
			</g>
			<g>
				<path style="fill:#080808;" d="M2812.602,1496.519c-6.631,0-12.852-4.119-15.21-10.723c-3.003-8.401,1.377-17.644,9.775-20.644
					c31.167-11.138,59.072-49.727,59.712-82.578c0.337-17.339-7.148-29.209-22.256-35.278
					c-35.752-14.382-86.499,34.915-116.826,64.355c-13.35,12.959-23.892,23.196-32.427,28.137c-7.71,4.475-17.603,1.831-22.07-5.889
					c-4.468-7.72-1.831-17.6,5.889-22.07c5.078-2.939,15.767-13.318,26.104-23.354c38.291-37.173,96.138-93.357,151.382-71.152
					c27.612,11.099,43.101,35.112,42.505,65.881c-0.903,46.296-37.305,96.704-81.143,112.368
					C2816.24,1496.214,2814.408,1496.519,2812.602,1496.519z"/>
			</g>
			<g>
				<path style="fill:#FFFFFF;" d="M2887.509,1581.637c-9.903,58.207-42.755,107.584-98.189,97.972
					c-70.585-12.231-70.722-137.286-58.508-192.937c11.234-51.276,43.289-66.674,71.328-67.994l0.04-0.004
					c9.879-0.493,19.289,0.797,27.08,2.851C2879.771,1434.813,2899.001,1514.192,2887.509,1581.637z"/>
			</g>
			<g style="opacity:0.2;">
				<path style="fill:#080808;" d="M2887.509,1581.637c-9.903,58.207-42.755,107.584-98.189,97.972
					c-70.585-12.231-70.722-137.286-58.508-192.937c11.234-51.276,43.289-66.674,71.328-67.994l0.04-0.004
					c40.21,55.229,63.836,149.267-29.562,157.333c0,0-4.663,60.998,47.06,58.385
					C2845.419,1633.098,2870.331,1605.855,2887.509,1581.637z"/>
			</g>
			<g>
				<path style="fill:#080808;" d="M2802.88,1696.958c-5.313,0-10.757-0.474-16.313-1.436
					c-21.167-3.665-38.525-15.378-51.592-34.817c-32.334-48.106-29.39-134.397-19.941-177.488
					c6.929-31.604,21.655-54.485,43.77-68.008c29.868-18.262,62.1-12.595,74.575-9.312l0,0
					c63.774,16.79,84.995,110.991,68.086,188.64C2887.397,1659.156,2850.365,1696.958,2802.88,1696.958z M2806.254,1434.759
					c-9.263,0-20.366,1.758-30.596,8.013c-14.321,8.755-24.102,24.69-29.072,47.366c-8.921,40.681-10.103,114.905,15.2,152.549
					c8.071,12.004,17.979,18.875,30.288,21.006c54.766,9.465,73.423-55.791,77.827-76.025
					c13.486-61.941-2.788-139.473-44.746-150.527l0,0C2821.962,1436.299,2814.916,1434.759,2806.254,1434.759z"/>
			</g>
			<g>
				<path style="fill:#FFFFFF;" d="M2595.821,1471.651c0,0,123.081-91.363,181.27-52.254c62.156,41.775,48.15,121.238,6.164,132.152
					c-52.802,13.726-85.119-46.148-85.119-46.148"/>
			</g>
			<g>
				<path style="fill:#080808;" d="M2586.194,1458.681c48.413-33.398,129.365-82.774,189.262-58.523
					c47.395,22.388,75.669,82.679,52.558,132.111c-23.961,51.404-89.74,45.544-120.763,4.281
					c-6.714-8.464-12.078-17.083-16.223-27.313c-1.68-4.15,0.32-8.877,4.47-10.558c3.621-1.479,7.568-0.106,9.744,2.886
					c11.282,13.431,25.288,26.12,39.792,32.127c12.624,5.486,26.416,6.054,38.54,0.302c11.182-6.493,18.065-21.468,18.745-37.613
					c1.164-23.529-11.298-47.001-30.635-60.945c-41.349-31.697-129.526,23.557-166.237,49.183
					C2588.024,1497.253,2568.969,1471.811,2586.194,1458.681L2586.194,1458.681z"/>
			</g>
		</g>
		<g>
			<g>
				<path style="fill:#FAA327;" d="M1856.932,2365.215c0,0-195.606,304.753-509.369,248.688
					c-205.368-36.721-305.69-187.791-319.869-346.729c-18.092-202.664,103.904-418.19,326.891-425.739
					c133.553-4.529,203.289,88.062,231.033,165.703l0.018,0.04c18.463,51.473,18.428,96.419,6.393,102.028
					c-56.12,26.201-148.767-71.014-189.229,36.597c-20.061,53.325,17.78,130.368,93.085,173.036
					c72.638,41.172,180.167,50.348,304.168-24.587l50.508,63.038L1856.932,2365.215z"/>
			</g>
			<g>
				<path style="fill:#EF7F25;" d="M1856.932,2365.215c0,0-195.606,304.753-509.369,248.688
					c-205.368-36.721-305.69-187.791-319.869-346.729c72.828,195.792,282.516,295.731,468.191,51.664
					c72.638,41.172,180.167,50.348,304.168-24.587l50.508,63.038L1856.932,2365.215z"/>
			</g>
			<g>
				<path style="fill:#F9D3B7;" d="M1856.932,2365.215c0,0-195.606,304.753-509.369,248.688
					c-48.274-8.639-90.794-23.594-127.665-43.483c-3.507-1.887-6.993-3.831-10.399-5.81c-1.732-1.001-3.424-2.019-5.098-2.998
					c-3.344-2.055-6.688-4.109-9.951-6.199c-4.893-3.183-9.685-6.461-14.356-9.79c-4.69-3.37-9.219-6.81-13.687-10.325
					c-2.957-2.369-5.874-4.756-8.752-7.159c-4.286-3.644-8.508-7.364-12.571-11.153c-4.081-3.83-8.043-7.712-11.942-11.67
					c-6.435-6.561-12.562-13.401-18.411-20.364c-3.495-4.232-6.892-8.46-10.187-12.781c-3.273-4.378-6.448-8.751-9.561-13.2
					c-6.129-8.893-11.854-18.059-17.179-27.403c-7.597-13.4-14.333-27.229-20.194-41.349c-1.068-2.631-2.136-5.262-3.186-7.854
					c-2.997-7.747-5.793-15.583-8.332-23.484c-0.225-0.617-0.41-1.251-0.595-1.886c-0.697-2.222-1.393-4.445-2.049-6.686
					c-2.392-8.109-4.545-16.326-6.463-24.549c-0.651-2.768-1.245-5.514-1.815-8.317c-0.594-2.745-1.147-5.509-1.661-8.29
					c-0.514-2.78-1.027-5.562-1.501-8.36c-0.456-2.76-0.889-5.575-1.306-8.352c-0.513-3.211-0.946-6.457-1.32-9.682
					c-0.674-5.193-1.209-10.4-1.688-15.584c47.558,127.848,153.476,214.801,272.965,191.853
					c146.04,124.885,424.616,74.706,549.903-101.738L1856.932,2365.215z"/>
			</g>
			<g>
				<path style="fill:#FFFFFF;" d="M1856.932,2365.215c0,0-195.606,304.753-509.369,248.688
					c-467.232-83.507-390.819-758.982,7.022-772.468c133.553-4.529,203.289,88.062,231.033,165.703
					c-50.462-35.508-138.698-77.614-238.422-36.858c-181.007,73.977-210.124,307.448-71.274,464.448
					c136.904,154.757,441.852,109.58,574.639-77.438L1856.932,2365.215z"/>
			</g>
			<g style="opacity:0.2;">
				<path style="fill:#080808;" d="M1856.932,2365.215c0,0-195.606,304.753-509.369,248.688
					c-48.274-8.639-90.794-23.594-127.665-43.483c-3.507-1.887-6.993-3.831-10.399-5.81c-1.732-1.001-3.424-2.019-5.098-2.998
					c-3.344-2.055-6.688-4.109-9.951-6.199c-4.893-3.183-9.685-6.461-14.356-9.79c-4.69-3.37-9.259-6.792-13.687-10.325
					c-2.957-2.369-5.874-4.756-8.752-7.159c-4.326-3.627-8.508-7.364-12.571-11.153c-4.122-3.812-8.083-7.695-11.942-11.67
					c-6.435-6.561-12.602-13.383-18.411-20.364c-3.535-4.215-6.932-8.442-10.187-12.781c-3.273-4.378-6.448-8.751-9.561-13.2
					c-6.169-8.875-11.894-18.042-17.179-27.403c-7.597-13.4-14.333-27.229-20.194-41.349c-1.068-2.631-2.136-5.262-3.186-7.854
					c-3.036-7.729-5.833-15.565-8.332-23.484c-0.225-0.617-0.41-1.251-0.595-1.886c-0.697-2.222-1.393-4.445-2.049-6.686
					c-2.432-8.092-4.585-16.308-6.463-24.549c-0.651-2.768-1.245-5.514-1.815-8.317c-0.594-2.745-1.147-5.509-1.661-8.29
					c-0.514-2.78-1.027-5.562-1.501-8.36c-0.456-2.76-0.889-5.575-1.306-8.352c-0.513-3.211-0.946-6.457-1.32-9.682
					c-0.714-5.176-1.249-10.382-1.688-15.584c47.558,127.848,153.476,214.801,272.965,191.853
					c146.04,124.885,424.616,74.706,549.903-101.738L1856.932,2365.215z"/>
			</g>
			<g>
				<path style="fill:#080808;" d="M1423.339,2636.472c-26.133,0-52.354-2.329-78.579-7.017
					c-248.696-44.438-346.675-250.732-333.447-435.473c6.802-95.03,41.807-183.984,98.569-250.476
					c63.027-73.835,147.466-114.597,244.185-117.876c3.286-0.112,6.558-0.166,9.78-0.166c144.59,0,222.764,110.706,245.942,207.307
					c4.331,18.052,16.333,77.945-11.089,90.752c-26.27,12.275-55.845,3.872-84.448-4.263
					c-48.799-13.867-77.349-19.214-96.665,32.124c-14.6,38.809,8.101,93.257,55.205,132.407
					c31.016,25.781,145.698,101.738,319.101-3.076c7.466-4.517,17.192-2.119,21.714,5.356c4.517,7.471,2.119,17.197-5.356,21.714
					c-72.354,43.731-135.864,58.599-188.74,58.604c-86.914,0.01-145.132-40.146-166.938-58.276
					c-57.295-47.622-83.853-116.65-64.585-167.861c30.503-81.104,90.854-63.94,134.912-51.416
					c22.925,6.519,44.639,12.695,60.107,6.992c4.819-13.032,0.776-71.426-34.829-131.511
					c-30.112-50.811-87.983-110.688-193.037-107.075c-198.364,6.726-300.933,180.442-312.28,339.001
					c-12.212,170.605,78.12,361.099,307.466,402.08c299.892,53.565,491.382-238.681,493.276-241.64
					c4.722-7.354,14.507-9.478,21.851-4.771c7.354,4.717,9.487,14.502,4.771,21.851c-2.056,3.203-51.362,79.238-140.562,149.263
					C1634.198,2597.967,1529.604,2636.472,1423.339,2636.472z"/>
			</g>
		</g>
		<g>
			<path style="fill:#FFAD40;" d="M1757.907,1448.426c26.673,365.695-205.798,525.786-196.316,829.864
				c10.973,351.865,404.244,413.653,622.553,336.377c265.75-167.854,265.75-480.872,125.028-867.763l-96.383-259.677
				L1757.907,1448.426z"/>
		</g>
		<g>
			<path style="fill:#FFAD40;" d="M2286.003,2529.798c-28.254,31.379-62.082,59.76-101.865,84.888
				c-218.302,77.244-611.574,15.457-622.554-336.385c-9.46-304.076,222.989-464.181,196.34-829.875l111.875,9.545l342.973,29.268
				l96.417,259.647C2428.835,2075.88,2446.741,2351.449,2286.003,2529.798z"/>
		</g>
		<g>
			<path style="fill:#FAA327;" d="M2286.003,2529.798c-28.254,31.379-62.082,59.76-101.865,84.888
				c-31.675,11.191-67.024,19.469-104.357,24.326c-172.648,22.679-387.655-27.114-476.725-194.989
				c-0.042-0.042-0.042-0.042-0.042-0.042c-24.453-46.034-39.403-100.937-41.43-165.679
				c-9.46-304.076,222.989-464.181,196.34-829.875l111.875,9.545l342.973,29.268l96.417,259.647
				C2428.835,2075.88,2446.741,2351.449,2286.003,2529.798z"/>
		</g>
		<g>
			<path style="fill:#EF7F25;" d="M2294.197,1706.554c-128.177,59.717-280.764,94.39-444.542,94.39
				c-49.37,0-97.727-3.167-144.732-9.207c36.531-97.811,63.011-206.096,53.002-343.31l111.875,9.545l342.973,29.268
				L2294.197,1706.554z"/>
		</g>
		<g>
			<path style="fill:#EF7F25;" d="M2079.781,2639.012c-172.648,22.679-387.655-27.114-476.725-194.989
				c2.872,2.365,152.038,124.756,300.613-29.225C2023.4,2290.676,2066.519,2527.771,2079.781,2639.012z"/>
		</g>
		<g>
			<path style="fill:#FFF3E9;" d="M2286.003,2529.798c-301.88,97.052-476.808-253.903-328.318-448.005
				c60.435-79.017,85.628-158.395,86.693-214.325c2.321-121.902-199.497-200.57-199.497-200.57l24.917-208.926
				c0,0,251.046-44.175,306.154,29.255s133.236,259.66,133.236,259.66C2428.835,2075.88,2446.741,2351.449,2286.003,2529.798z"/>
		</g>
		<g>
			<path style="fill:#FFFFFF;" d="M2286.003,2529.798c-301.88,97.052-476.808-253.903-328.318-448.005
				c17.696-23.144,32.393-46.329,44.302-68.924c28.845-54.607,41.642-105.878,42.402-145.408
				c2.323-121.884-199.508-200.564-199.508-200.564l24.917-208.926c0,0,251.032-44.176,306.146,29.268
				c55.114,73.4,133.245,259.647,133.245,259.647c27.62,75.935,49.792,149.04,65.629,218.724
				C2427.567,2197.933,2409.661,2392.626,2286.003,2529.798z"/>
		</g>
		<g style="opacity:0.2;">
			<path style="fill:#080808;" d="M2286.003,2529.798c-301.88,97.052-476.808-253.903-328.318-448.005
				c17.696-23.144,32.393-46.329,44.302-68.924l138.608-25.889c7.771,11.74,228.353,158.457,234.223-21.37
				C2427.567,2197.933,2409.661,2392.626,2286.003,2529.798z"/>
		</g>
		<g style="opacity:0.2;">
			<path style="fill:#080808;" d="M2292.085,1707.568c-82.734,38.263-175.604,66.137-275.063,81.045
				c-54.607-75.892-172.141-121.715-172.141-121.715l24.917-208.926c0,0,251.032-44.176,306.146,29.268
				C2215.179,1539.481,2266.027,1648.822,2292.085,1707.568z"/>
		</g>
		<g>
			<path style="fill:#080808;" d="M1774.016,1447.251c19.528,248.941-80.749,394.465-160.656,611.684
				c-54.662,156.384-59.171,356.179,80.035,469.663c131.271,106.442,328.048,121.58,484.957,69.711
				c215.604-137.838,236.437-374.5,183.311-619.073c-16.082-77.122-37.762-153.242-60.081-229.572
				c-1.262-4.287,1.191-8.785,5.479-10.047c3.953-1.164,8.091,0.846,9.7,4.526c47.895,110.272,82.434,227.675,96.363,347.656
				c26.409,215.184-27.068,417.484-219.711,537.54c-69.633,26.193-144.572,33.902-217.806,31.657
				c-108.008-4.345-219.696-35.473-304.087-106.353c-150.122-123.389-148.858-336.59-88.958-506.174
				c77.944-211.775,178.745-359.495,159.233-598.87C1740.759,1429.003,1771.552,1425.365,1774.016,1447.251L1774.016,1447.251z"/>
		</g>
		<g>
			<g>
				<g>
					<path style="fill:#FF2727;" d="M1273.48,3183.847c11.16,31.259,23.849,56.687,36.472,77.142
						c16.372,26.54,32.601,44.824,45.407,56.813c13.166,12.405,33.203,13.914,48.232,3.8l74.532-50.3l-101.926-284.876
						l-41.111,3.897l-48.373,4.567c-18.033,1.671-32.576,15.529-34.92,33.483C1247.803,3059.17,1247.83,3112.178,1273.48,3183.847z"
						/>
				</g>
				<g style="opacity:0.3;">
					<g>
						<path style="fill:#FFFFFF;" d="M1271.888,3179.292c-13.177-54.058-12.432-95.122-9.078-121.441
							c2.595-19.61,18.472-34.746,38.19-36.554l52.844-4.996l31.975-3.031l-9.623-26.845l-41.111,3.897l-48.373,4.567
							c-18.033,1.671-32.576,15.529-34.92,33.483C1247.867,3058.538,1247.807,3109.908,1271.888,3179.292z"/>
					</g>
				</g>
				<g style="opacity:0.2;">
					<path style="fill:#080808;" d="M1309.952,3260.989c16.372,26.54,32.601,44.824,45.407,56.813
						c13.166,12.405,33.203,13.914,48.232,3.8l74.532-50.3l-101.926-284.876l-41.111,3.897
						c-2.24,47.377-2.166,134.519,21.727,201.925c11.516,32.49-11.156,67.408-45.602,68.703
						C1310.792,3260.965,1310.373,3260.979,1309.952,3260.989z"/>
				</g>
				<g>
					<path style="fill:#080808;" d="M1381.703,3345.227c-13.711,0-27.295-5.102-37.93-15.088
						c-24.688-23.193-59.688-66.406-86.221-140.581c-26.538-74.185-26.89-129.785-22.515-163.365
						c3.369-25.874,23.955-45.669,50.063-48.13l89.531-8.452c9.214-0.933,17.529,5.938,18.403,15.229
						c0.879,9.287-5.942,17.529-15.229,18.403l-89.531,8.452c-10.303,0.972-18.413,8.726-19.732,18.857
						c-3.901,29.902-3.452,79.78,20.82,147.627c24.268,67.832,55.562,106.685,77.544,127.329c7.451,7.002,18.643,7.842,27.217,2.061
						l74.58-50.254c7.734-5.225,18.232-3.174,23.447,4.571c5.215,7.734,3.169,18.232-4.57,23.447l-74.575,50.254
						C1403.422,3342.054,1392.524,3345.227,1381.703,3345.227z"/>
				</g>
				<g>
					<path style="fill:#FF2727;" d="M1171.985,2719.948c46.675,24.962,266.929,140.461,270.18,275.601l220.517-112.946
						c-1.042-6.547-2.499-13.372-4.391-20.336l0.005-0.034c-27.33-100.031-147.393-236.312-477.713-154.038
						c-2.457,0.598-4.92,1.229-7.417,1.856C1168.464,2711.245,1167.696,2717.646,1171.985,2719.948z"/>
				</g>
				<g style="opacity:0.3;">
					<g>
						<path style="fill:#FFFFFF;" d="M1187.925,2728.518c-11.58-6.587-6.691-3.615-15.948-8.566
							c-4.309-2.304-3.52-8.683,1.194-9.905c359.298-92.175,473.468,71.609,489.51,172.558l-23.883,12.224
							C1605.653,2802.498,1463.89,2675.108,1187.925,2728.518z"/>
					</g>
				</g>
				<g>
					<path style="fill:#080808;" d="M1442.157,3012.454c-9.141,0-16.655-7.3-16.88-16.49
						c-1.108-46.035-36.245-141.025-259.067-259.936l-2.202-1.177c-8.149-4.355-12.695-13.096-11.587-22.275
						c1.104-9.184,7.603-16.601,16.553-18.901c173.535-44.512,309.165-35.801,403.11,25.893
						c82.427,54.126,102.48,130.186,107.28,160.376c1.465,9.214-4.819,17.871-14.033,19.336c-9.243,1.45-17.871-4.824-19.336-14.033
						c-4.092-25.757-21.294-90.708-92.456-137.437c-79.365-52.119-199.004-61.802-347.251-28.384
						c205.425,114.937,251.25,212.891,252.768,275.728c0.225,9.326-7.153,17.07-16.484,17.295
						C1442.436,3012.449,1442.299,3012.454,1442.157,3012.454z"/>
				</g>
				<g>
					<path style="fill:#FF2727;" d="M1479.234,3578.78c20.249-48.904,117.258-277.905,34.05-384.439l242.119-52.563
						c3.347,5.723,6.551,11.923,9.505,18.507l0.026,0.023c42.324,94.667,35.952,276.18-271.597,422.104
						c-2.279,1.096-4.583,2.17-6.911,3.27C1482.032,3587.742,1477.378,3583.281,1479.234,3578.78z"/>
				</g>
				<g style="opacity:0.2;">
					<path style="fill:#080808;" d="M1479.234,3578.78c20.249-48.904,117.258-277.905,34.05-384.439l242.119-52.563
						c3.347,5.723,6.551,11.923,9.505,18.507l0.026,0.023c42.324,94.667,35.952,276.18-271.597,422.104
						c-2.279,1.096-4.583,2.17-6.911,3.27C1482.032,3587.742,1477.378,3583.281,1479.234,3578.78z"/>
				</g>
				<g>
					<path style="fill:#080808;" d="M1484.14,3603.104c-5.596,0-11.099-2.134-15.356-6.216c-6.68-6.396-8.706-16.04-5.171-24.571
						l0.962-2.314c96.821-233.261,63.731-328.979,35.391-365.273c-5.742-7.354-4.434-17.969,2.92-23.711
						c7.349-5.742,17.964-4.443,23.711,2.92c38.682,49.531,65.386,154.326-20.508,373.482
						c135.801-68.203,222.139-151.573,250.439-242.207c25.371-81.265-2.529-142.388-15.703-164.893
						c-4.712-8.052-2.007-18.403,6.045-23.115c8.052-4.707,18.394-2.007,23.115,6.045c15.439,26.382,48.179,97.905,18.794,192.031
						c-33.501,107.29-132.822,200.059-295.21,275.718C1490.536,3602.415,1487.319,3603.104,1484.14,3603.104z"/>
				</g>
				<g>
					<path style="fill:#FFFFFF;" d="M1355.931,2929.1c-5.925,30.469-15.726,112.821,21.713,217.489
						c37.471,104.722,97.281,162.118,121.174,181.953c6.291,5.151,14.044,8.249,22.197,8.803
						c86.115,5.628,624.743,35.019,1041.408-77.062c665.402-179.012,834.208-586.348,876.759-767.069
						c13.217-55.954-7.682-114.316-53.33-149.176c-126.806-96.933-431.993-263.99-913.92-128.887
						c-5.337,1.507-10.771,3.036-16.172,4.618c-74.019,21.59-152.167,50.314-234.344,87.428
						c-190.212,85.975-381.45,215.608-535.365,333.179c-16.501,12.6-32.563,25.08-48.165,37.354
						c-139.663,109.837-241.117,203.096-270.38,230.492C1361.527,2913.81,1357.505,2921.062,1355.931,2929.1z"/>
				</g>
				<g style="opacity:0.2;">
					<path style="fill:#080808;" d="M2416.688,2378.353c-86.789,84.255-230.253,69.346-230.253,69.346
						c26.353,124.967-72.598,219.484-72.598,219.484c-137.933-18.329-200.269-92.195-226.284-171.001
						c106.173-70.656,220.201-137.637,333.85-188.992c82.186-37.123,160.317-65.842,234.309-87.422
						C2468.929,2265.676,2470.154,2326.365,2416.688,2378.353z"/>
				</g>
				<g>
					<path style="fill:#DD3740;" d="M1398.722,3196.557c1.136,2.308,2.269,4.568,3.4,6.78c1.133,2.26,2.264,4.472,3.44,6.633
						c1.881,3.622,3.806,7.146,5.776,10.618c1.547,2.77,3.139,5.489,4.726,8.112c1.169,2.017,2.335,3.985,3.547,5.903
						c2.168,3.559,4.331,7.021,6.534,10.336c1.417,2.148,2.784,4.251,4.149,6.306c0.101,0.091,0.104,0.139,0.154,0.185
						c1.466,2.146,2.878,4.198,4.339,6.247c17.445,24.889,34.514,43.516,47.848,56.346c1.833,1.789,3.611,3.435,5.237,4.944
						c4.164,3.841,7.859,7.029,10.94,9.574c0.807,0.634,1.613,1.269,2.417,1.854c0.604,0.451,1.253,0.852,1.902,1.253
						c4.542,2.758,9.518,4.575,14.826,5.359c1.022,0.139,2.044,0.279,3.061,0.323c2.328,0.168,4.994,0.318,7.951,0.501
						c1.017,0.043,2.036,0.135,3.102,0.176c7.418,0.48,16.577,0.967,27.333,1.514c1.504,0.114,3.054,0.178,4.651,0.239
						c0.533,0.02,1.068,0.089,1.6,0.109c1.986,0.089,4.02,0.176,6.105,0.308c8.524,0.374,17.87,0.754,27.944,1.191
						c4.649,0.191,9.443,0.375,14.381,0.55c10.942,0.393,22.656,0.793,35.046,1.157c3,0.084,6.049,0.166,9.098,0.248
						c12.293,0.37,25.21,0.658,38.752,0.866c10.109,0.195,20.605,0.369,31.338,0.482c3.335,0.018,6.721,0.082,10.105,0.098
						c0,0-54.113-55.099-106.377-148.664C1545.267,3198.098,1466.004,3197.811,1398.722,3196.557z"/>
				</g>
				<g>
					<path style="fill:#DD3740;" d="M2900.123,2918.022c64.117,103.96,114.544,146.834,114.544,146.834
						c13.971-9.093,27.547-18.358,40.633-27.743c4.378-3.129,8.66-6.253,12.941-9.377c0.652-0.469,1.256-0.936,1.862-1.354
						c3.676-2.706,7.255-5.406,10.834-8.107c4.134-3.165,8.269-6.329,12.404-9.494c3.759-2.951,7.519-5.903,11.229-8.852
						c0.276-0.256,0.604-0.467,0.88-0.723c3.805-3.002,7.511-6.048,11.217-9.093c0.419-0.312,0.835-0.672,1.205-0.981
						c7.597-6.246,15.047-12.532,22.302-18.856c14.467-12.55,28.248-25.257,41.449-37.982c2.346-2.249,4.69-4.547,6.986-6.842
						c8.178-8.064,16.113-16.164,23.855-24.253c2.975-3.152,5.903-6.302,8.83-9.451c24.375-26.31,46.232-52.729,65.781-78.931
						c2.438-3.269,4.827-6.535,7.217-9.801c2.344-3.216,4.686-6.479,6.979-9.741c2.342-3.264,4.587-6.523,6.834-9.733
						c2.197-3.256,4.396-6.465,6.593-9.72c2.152-3.206,4.3-6.459,6.355-9.66c2.103-3.203,4.158-6.404,6.213-9.604
						c2.232-3.5,4.465-6.999,6.601-10.494c3.742-6.043,7.388-12.082,10.843-18.062c1.819-3.091,3.635-6.231,5.404-9.368
						c3.585-6.277,6.982-12.447,10.331-18.615c1.674-3.084,3.303-6.117,4.881-9.196c4.833-9.193,9.385-18.227,13.652-27.148
						c1.261-2.676,2.524-5.303,3.785-7.978c1.522-3.221,2.996-6.439,4.47-9.657c1.297-2.919,2.593-5.838,3.892-8.709
						c1.119-2.62,2.289-5.194,3.41-7.765c1.334-3.114,2.621-6.226,3.907-9.338c1.16-2.767,2.319-5.534,3.43-8.298
						c-0.003-0.048-0.003-0.048-0.003-0.048c5.349-13.183,10.139-25.949,14.375-38.252c1.135-3.249,2.269-6.498,3.312-9.645
						c0.792-2.409,1.583-4.819,2.378-7.18c0.043-0.099,0.084-0.246,0.125-0.393c1.54-4.72,2.984-9.435,4.387-14.002
						c0.781-2.602,1.563-5.204,2.299-7.756c1.274-4.271,2.454-8.489,3.591-12.607c0.731-2.648,1.416-5.245,2.101-7.842
						c0.609-2.207,1.125-4.36,1.688-6.515c0.32-1.273,0.685-2.597,0.957-3.868c0.409-1.423,0.718-2.889,1.076-4.357
						c0.358-1.469,0.721-2.84,1.033-4.258c3.244-13.7,4.405-27.485,3.692-41.074c-0.126-2.41-0.301-4.817-0.572-7.219
						c-0.208-2.115-0.458-4.132-0.76-6.194c-0.089-0.768-0.223-1.486-0.357-2.204c-0.238-1.776-0.57-3.498-0.902-5.22
						c-0.4-2.105-0.897-4.205-1.442-6.303c-0.249-1.05-0.497-2.1-0.791-3.099c-0.061-0.239-0.122-0.477-0.18-0.667
						c-0.421-1.573-0.839-3.097-1.354-4.616c-0.646-2.188-1.389-4.373-2.18-6.554c-0.903-2.465-1.851-4.88-2.847-7.292
						c-0.933-2.125-1.864-4.203-2.891-6.275C3342.573,2562.738,3185.748,2760.389,2900.123,2918.022z"/>
				</g>
				<g>
					<path style="fill:#080808;" d="M1783.412,3362.034c-128.467,0-225.566-5.366-263.501-7.842
						c-11.777-0.767-22.798-5.142-31.87-12.656l-0.005-0.005c-25.034-20.737-87.456-80.688-126.289-189.248
						c-38.838-108.555-28.613-194.497-22.412-226.411c2.256-11.572,7.998-21.948,16.616-30.01
						c74.57-69.79,466.45-426.914,858.54-604.058c275.645-124.526,535.356-168.77,771.919-131.523
						c194.385,30.615,330.083,109.521,409.688,170.327c50.85,38.838,74.229,104.175,59.556,166.46
						c-22.974,97.505-77.827,244.58-208.682,391.548c-159.248,178.862-388.091,309.389-680.176,387.969
						C2305.947,3346.756,2000.112,3362.034,1783.412,3362.034z M1509.589,3315.515c3.56,2.944,7.891,4.663,12.52,4.966
						c100.986,6.582,625.562,33.867,1035.908-76.523c661.968-178.081,825.269-587.066,864.751-754.634
						c11.621-49.341-6.895-101.104-47.178-131.87c-136.816-104.492-522.476-317.085-1147.192-34.858
						c-387.236,174.951-775.469,528.784-849.365,597.939c-3.389,3.174-5.649,7.246-6.533,11.787
						c-5.669,29.17-14.961,107.905,21.06,208.584C1429.574,3241.585,1486.698,3296.555,1509.589,3315.515L1509.589,3315.515z"/>
				</g>
				<g>
					<path style="fill:#FF2727;" d="M1377.663,3146.577c37.437,104.74,97.237,162.177,121.141,181.949
						c6.31,5.221,14.033,8.295,22.197,8.794c28.857,1.887,108.552,6.42,217.429,7.463c0,0-102.455-104.351-161.516-269.465
						c-59.061-165.114-46.039-310.768-46.039-310.768c-83.563,69.796-142.269,123.863-163.374,143.642
						c-5.978,5.618-10.027,12.866-11.561,20.902C1350.008,2959.566,1340.184,3041.889,1377.663,3146.577z"/>
				</g>
				<g style="opacity:0.3;">
					<g>
						<path style="fill:#FFFFFF;" d="M1351.869,3031.144c1.079-22.72,3.733-40.304,5.946-51.534
							c1.703-8.98,6.209-17.045,12.888-23.291c21.506-20.216,78.157-72.38,159.083-140.798c-0.616-32.005,1.094-50.989,1.094-50.989
							c-83.559,69.812-142.285,123.873-163.378,143.681c-5.989,5.582-10.054,12.85-11.564,20.902
							C1352.436,2947.082,1347.608,2983.093,1351.869,3031.144z"/>
					</g>
				</g>
				<g>
					<path style="fill:#080808;" d="M1778.993,3362.059l-40.728-0.381c-109.609-1.055-189.224-5.596-218.364-7.5
						c-11.709-0.718-22.749-5.093-31.87-12.642c-25.02-20.698-87.422-80.581-126.274-189.277
						c-38.853-108.525-28.608-194.473-22.402-226.392c2.192-11.47,7.93-21.855,16.572-29.98
						c21.284-19.951,79.844-73.911,164.116-144.302l31.284-26.133l-3.628,40.601c-0.127,1.416-11.89,144.194,45.122,303.574
						c57.012,159.385,156.665,262.31,157.666,263.33L1778.993,3362.059z M1512.68,2801.956
						c-67.988,57.749-115.108,101.201-133.628,118.56c-3.403,3.203-5.664,7.271-6.523,11.753
						c-5.684,29.229-14.995,107.959,21.04,208.613l0.005,0.01c36.03,100.801,93.12,155.693,115.996,174.614
						c3.579,2.959,7.886,4.673,12.471,4.956c25.44,1.66,89.512,5.337,178.574,6.914c-34.941-42.49-97.637-129.028-139.609-246.372
						C1519.028,2963.646,1512.612,2856.961,1512.68,2801.956z"/>
				</g>
				<g>
					<path style="fill:#FF2727;" d="M2773.795,2649.308c108.328,302.865,240.894,415.568,240.894,415.568
						c298.167-195.056,393.932-441.878,424.499-571.664c13.196-55.946-7.671-114.316-53.356-149.192
						c-106.017-80.941-336.553-211-690.807-172.649C2695.025,2171.371,2665.419,2346.448,2773.795,2649.308z"/>
				</g>
				<g>
					<g style="opacity:0.2;">
						<path style="fill:#080808;" d="M1477.48,3291.212c6.313,5.178,14.061,8.251,22.207,8.789
							c86.116,5.63,624.759,35.019,1041.41-77.059c665.379-179.006,834.206-586.329,876.766-767.064
							c3.561-15.09,4.522-30.342,3.301-45.282c-116.876,217.999-355.734,485.438-843.446,646.543
							c-40.258,13.299-162.082,91.623-195.26-256.758c-9.34-98.087-476.366,1.281-455.114,101.108
							c31.686,148.839,51.895,274.486,27.396,276.712c-211.221,19.19-411.28,21.073-556.019,18.355
							c1.208,2.469,2.448,4.811,3.673,7.209C1431.95,3250.14,1462.142,3278.472,1477.48,3291.212z"/>
					</g>
				</g>
				<g style="opacity:0.3;">
					<g>
						<path style="fill:#FFFFFF;" d="M2691.307,2238.018c345.487-33.492,592.191,67.266,735.093,154.094
							c-9.665-18.435-23.336-34.921-40.552-48.08c-106.013-80.935-336.569-211.002-690.837-172.652
							C2695.011,2171.38,2691.142,2194.343,2691.307,2238.018z"/>
					</g>
				</g>
				<g>
					<path style="fill:#080808;" d="M3013.368,3085.926l-9.624-8.179c-5.552-4.721-137.256-119.165-245.854-422.744l0,0
						c-108.613-303.53-80.762-479.121-79.521-486.45l2.129-12.602l12.71-1.377c359.966-38.931,594.868,93.56,702.871,176.021
						c50.869,38.828,74.248,104.18,59.551,166.494c-31.143,132.231-128.638,383.667-431.694,581.924L3013.368,3085.926z
						 M2710.248,2186.79c-4.009,44.868-9.771,207.495,79.448,456.826l0.005,0.005c89.067,249.018,195.542,368.345,226.87,399.746
						c284.497-190.625,376.567-428.325,406.172-554.028c11.646-49.365-6.87-101.133-47.163-131.889
						C3272.919,2279.07,3050.961,2153.758,2710.248,2186.79z"/>
				</g>
				<g>
					<path style="fill:#FF2727;" d="M1281.605,3183.139c0,0,113.096,28.871,225.482-11.336s181.504-134.264,181.504-134.264
						s-113.096-28.871-225.482,11.336S1281.605,3183.139,1281.605,3183.139z"/>
				</g>
				<g style="opacity:0.3;">
					<g>
						<path style="fill:#FFFFFF;" d="M1281.609,3183.131c0,0,4.651,1.157,12.947,2.703c45.213-38.082,105.641-79.04,178.071-104.924
							c73.424-26.274,147.015-32.792,206.602-31.763c6.144-7.232,9.346-11.604,9.346-11.604s-113.09-28.859-225.456,11.345
							C1350.705,3089.095,1281.609,3183.131,1281.609,3183.131z"/>
					</g>
				</g>
				<g style="opacity:0.2;">
					<path style="fill:#080808;" d="M1281.609,3183.131c0,0,113.09,28.858,225.456-11.346
						c112.414-40.206,181.51-134.242,181.51-134.242s-4.75-1.2-13.289-2.782c-48.84,37.113-109.153,73.813-178.925,98.783
						c-71.195,25.48-142.539,35.216-204.77,37.224C1285.036,3178.457,1281.609,3183.131,1281.609,3183.131z"/>
				</g>
				<g>
					<path style="fill:#080808;" d="M1376.059,3210.159c-55.82,0-95.825-9.937-98.633-10.654c-5.44-1.387-9.834-5.391-11.729-10.679
						c-1.89-5.283-1.03-11.167,2.295-15.693c2.949-4.009,73.506-98.697,189.429-140.166
						c115.913-41.47,230.527-13.032,235.352-11.797c5.439,1.386,9.834,5.39,11.729,10.678c1.89,5.283,1.03,11.167-2.295,15.694
						c-2.949,4.009-73.511,98.696-189.424,140.166C1464.345,3205.037,1416.127,3210.159,1376.059,3210.159z M1281.606,3183.138
						h0.049H1281.606z M1313.354,3171.78c39.15,5.547,114.248,10.513,188.047-15.884c74.033-26.484,128.823-77.915,155.488-106.992
						c-39.116-5.542-114.263-10.537-188.091,15.879C1395.004,3091.179,1340.097,3142.669,1313.354,3171.78z"/>
				</g>
				<g>
					<g>
						<path style="fill:#FF2727;" d="M1922,2956.46c39.337,99.294,133.221,160.714,233.592,163.609
							c34.153,0.995,69.094-4.811,102.87-18.212c122.809-48.72,187.655-180.756,155.464-305.352
							c-2.656-10.466-6.049-20.85-10.12-31.105c-52.738-133.07-203.398-198.188-336.462-145.397S1869.209,2823.396,1922,2956.46z"/>
					</g>
					<g>
						<path style="fill:#E53939;" d="M2155.592,3120.069c34.153,0.995,69.094-4.811,102.87-18.212
							c122.809-48.72,187.655-180.756,155.464-305.352c-0.643,1.883-15.277,42.241-66.992,18.908
							c-52.949-23.888-180.387,34.936-180.387,34.936L2155.592,3120.069z"/>
					</g>
					<g>
						<path style="fill:#080808;" d="M2163.237,3132.781c-108.237,0-210.762-65.068-253.027-171.635
							c-26.768-67.5-25.65-141.382,3.149-208.042c28.799-66.656,81.831-118.111,149.331-144.878
							c139.336-55.254,297.651,13.145,352.92,152.48c55.259,139.341-13.145,297.661-152.48,352.92
							C2230.361,3126.619,2196.518,3132.781,2163.237,3132.781z M2162.607,2614.412c-30.181,0-60.854,5.581-90.571,17.368
							c-61.211,24.272-109.302,70.928-135.415,131.377c-26.118,60.439-27.129,127.437-2.856,188.643
							c24.272,61.206,70.928,109.297,131.377,135.415c60.43,26.118,127.437,27.129,188.643,2.856s109.297-70.928,135.415-131.377
							c26.113-60.444,27.129-127.436,2.856-188.643C2353.73,2673.421,2260.746,2614.412,2162.607,2614.412z"/>
					</g>
					<g>
						
							<ellipse transform="matrix(0.7071 -0.7071 0.7071 0.7071 -1417.3877 2344.6235)" style="fill:#FF2727;" cx="2121.517" cy="2883.25" rx="245.8" ry="245.8"/>
					</g>
					<g style="opacity:0.2;">
						<path style="fill:#080808;" d="M1878.482,2920.224c2.715,17.985,7.57,35.952,14.535,53.63
							c50.066,126.177,192.915,187.935,319.091,137.869c126.237-50.018,187.935-192.915,137.923-319.097
							c-0.923-2.369-1.899-4.731-2.985-7.082c16.937,110.751-43.892,222.468-152.458,265.467
							C2070.781,3100.154,1930.983,3041.626,1878.482,2920.224z"/>
					</g>
					<g style="opacity:0.7;">
						<path style="fill:#FFFFFF;" d="M1878.518,2920.549c0.551-101.165,61.605-196.541,161.329-236.085
							c110.452-43.813,233.195-5.299,300.229,86.313c-57.086-111.281-190.481-163.108-309.19-116.015
							C1922.278,2697.876,1861.407,2809.708,1878.518,2920.549z"/>
					</g>
					<g>
						<path style="fill:#080808;" d="M2121.459,3141.858c-34.8,0-69.551-7.119-102.456-21.338
							c-63.379-27.383-112.3-77.808-137.749-141.983c-25.454-64.179-24.39-134.429,2.993-197.803
							c27.383-63.379,77.808-112.3,141.983-137.749c64.18-25.454,134.433-24.394,197.803,2.993
							c63.379,27.383,112.3,77.808,137.749,141.982c25.449,64.18,24.39,134.428-2.993,197.802
							c-27.383,63.379-77.808,112.3-141.982,137.749C2185.951,3135.75,2153.681,3141.858,2121.459,3141.858z M2121.572,2649.993
							c-29.067,0-58.164,5.508-85.996,16.548c-57.891,22.954-103.369,67.08-128.066,124.243
							c-24.702,57.163-25.659,120.522-2.7,178.408c22.954,57.891,67.08,103.369,124.243,128.066
							c57.168,24.702,120.532,25.659,178.408,2.7l0,0c57.886-22.954,103.369-67.08,128.066-124.243
							c24.697-57.163,25.654-120.523,2.7-178.408c-22.954-57.891-67.08-103.369-124.243-128.066
							C2184.306,2656.419,2152.953,2649.993,2121.572,2649.993z"/>
					</g>
					<g>
						
							<ellipse transform="matrix(0.7071 -0.7071 0.7071 0.7071 -1414.0234 2344.6743)" style="fill:#30AAFC;" cx="2123.26" cy="2879.214" rx="166.201" ry="166.201"/>
					</g>
					<g style="opacity:0.3;">
						<g>
							<path style="fill:#FFFFFF;" d="M2184.529,3033.733c-85.333,33.842-181.916-7.916-215.758-93.25
								c-7.344-18.465-11.136-37.502-11.653-56.293c0.608,1.741,1.267,3.458,1.95,5.225
								c33.842,85.333,130.424,127.092,215.758,93.249c66.868-26.498,106.947-91.521,104.903-159.465
								C2309.881,2907.194,2268.096,3000.575,2184.529,3033.733z"/>
						</g>
					</g>
					<g>
						<path style="fill:#080808;" d="M2123.476,3058.089c-71.216,0-138.677-42.813-166.489-112.93
							c-36.357-91.689,8.652-195.859,100.332-232.217c44.419-17.612,93.032-16.88,136.885,2.075
							c43.857,18.946,77.715,53.843,95.327,98.252c17.617,44.414,16.88,93.032-2.07,136.89
							c-18.945,43.858-53.848,77.715-98.257,95.327l0,0C2167.641,3054.036,2145.375,3058.089,2123.476,3058.089z M2123.29,2725.598
							c-19.141,0-38.301,3.628-56.626,10.898c-78.696,31.206-117.329,120.62-86.123,199.316
							c31.216,78.696,120.62,117.329,199.316,86.118l0,0c38.125-15.117,68.076-44.175,84.341-81.821s16.899-79.375,1.777-117.495
							c-15.117-38.12-44.175-68.071-81.821-84.341C2164.609,2729.832,2143.959,2725.598,2123.29,2725.598z"/>
					</g>
					<g>
						<path style="fill:#FF2727;" d="M1968.77,2940.463c33.816,85.352,130.45,127.099,215.781,93.225
							c10.056-3.991,19.488-8.809,28.238-14.433c-73.074,8.884-162.542-18.703-190.815-92.855
							c-33.57-88.041,15.471-171.685,81.616-212.201c-13.977,1.653-27.894,5.123-41.574,10.542
							C1976.664,2758.556,1934.917,2855.191,1968.77,2940.463z"/>
					</g>
					<g style="opacity:0.2;">
						<path style="fill:#080808;" d="M1968.77,2940.463c33.816,85.352,130.45,127.099,215.781,93.225
							c10.056-3.991,19.488-8.809,28.238-14.433c-73.074,8.884-162.542-18.703-190.815-92.855
							c-33.57-88.041,15.471-171.685,81.616-212.201c-13.977,1.653-27.894,5.123-41.574,10.542
							C1976.664,2758.556,1934.917,2855.191,1968.77,2940.463z"/>
					</g>
					<g>
						<path style="fill:#080808;" d="M2123.207,3058.181c-24.077,0-48.125-4.931-70.889-14.765
							c-43.867-18.955-77.72-53.857-95.327-98.281l0,0c-17.622-44.389-16.89-92.993,2.07-136.855
							c18.955-43.867,53.862-77.715,98.286-95.317c14.458-5.723,29.512-9.541,44.751-11.348c5.884-0.684,11.509,2.803,13.462,8.433
							c1.948,5.625-0.278,11.846-5.356,14.956c-59.136,36.226-108.267,113.286-76.392,196.885
							c25.444,66.729,108.506,93.198,177.446,84.79c5.781-0.727,11.436,2.715,13.447,8.281c2.002,5.557-0.098,11.758-5.068,14.956
							c-9.38,6.031-19.614,11.26-30.41,15.552C2167.861,3053.948,2145.522,3058.181,2123.207,3058.181z M2046.611,2746.175
							c-28.559,16.367-50.996,41.396-64.292,72.158c-16.27,37.646-16.899,79.36-1.772,117.456v0.005
							c15.112,38.135,44.17,68.091,81.821,84.361c27.515,11.889,57.207,15.42,86.074,10.556
							c-58.618-9.009-115.498-39.985-138.306-99.795C1983.022,2859.813,2005.839,2793.104,2046.611,2746.175z"/>
					</g>
				</g>
			</g>
		</g>
		<g>
			<path style="fill:#FAA327;" d="M1772.283,2483.769c0,0,4.607,101.066,3.859,149.351c2.94,92.008,10.108,158.904,65.448,205.835
				c57.389,48.668,162.579,57.771,200.95,11.544c83.152-100.174,7.212-194.894,15.604-209.123
				c118.416-200.783,61.693-438.323-206.094-443.79"/>
		</g>
		<g>
			<path style="fill:#FFFFFF;" d="M1776.313,2576.912c1.671,17.754,0.88,36.381-1.651,55.252c0.483,0.326,1.009,0.661,1.501,0.944
				c2.902,92.009,10.096,158.921,65.438,205.844c57.369,48.659,162.58,57.793,200.945,11.557
				c83.133-100.186,7.23-194.916,15.588-209.137c2.371-4.046,4.699-8.102,6.938-12.175
				C2065.073,2629.197,1948.089,2693.063,1776.313,2576.912z"/>
		</g>
		<g style="opacity:0.2;">
			<path style="fill:#080808;" d="M1776.294,2576.903c1.716,17.753,0.903,36.395-1.604,55.246c0.432,0.337,0.96,0.694,1.459,0.945
				c2.923,92.023,10.113,158.948,65.466,205.841c57.34,48.693,162.589,57.796,200.936,11.571
				c35.763-43.095,42.064-85.188,38.341-120.252c-5.729,19.45-16.142,39.805-33.2,60.369
				c-38.404,46.263-143.596,37.122-200.994-11.533c-53.845-45.688-62.079-110.423-65.201-198.735
				C1779.771,2579.256,1778.062,2578.06,1776.294,2576.903z"/>
		</g>
		<g>
			<path style="fill:#080808;" d="M1886.438,2625.097c48.436,8.672,104.301,19.608,148.799-5.463
				c13.552-7.833,24.006-19.147,32.673-32.269c4.793-8.015,15.444-10.502,23.152-5.118c6.787,4.693,8.857,13.658,5.103,20.778
				c-4.873,9.264-10.515,18.406-17.942,26.305c-35.474,39.759-95.69,45.031-144.285,32.512
				c-19.046-4.826-36.889-11.593-53.816-21.878c-3.835-2.372-5.022-7.402-2.649-11.237
				C1879.402,2625.602,1883.066,2624.271,1886.438,2625.097L1886.438,2625.097z"/>
		</g>
		<g>
			<path style="fill:#080808;" d="M1780.352,2483.401c7.558,44.541,10.96,89.176,11.875,134.262
				c0.659,42.966,2.547,88.183,12.758,128.964c13.156,54.955,52.535,94.694,106.884,109.128
				c41.167,11.188,98.02,13.535,123.393-25.276c3.012-4.089,8.391-12.501,10.903-16.892c24.578-41.805,20.207-91.884,2.721-135.642
				c-3.287-10.127-10.183-23.382-9.401-35.786c0.185-3.937,1.836-8.031,3.855-11.456c68.519-113.657,90.324-285.358-31.385-371.059
				c-22.602-15.903-48.415-27.306-75.515-35.426c-27.107-8.33-55.427-13.585-84.556-18.558c-4.476-0.705-7.525-4.956-6.758-9.424
				c0.623-3.648,3.589-6.313,7.087-6.725c77.524-9.392,160.343,16.933,215.144,74.098c96.594,101.545,77.235,262.366,12.931,375.275
				c0.001,0-5.643,10.128-5.643,10.128l-0.706,1.266c-0.353,0.713,0.185-0.291,0.364-0.565c0.896-1.648,1.438-3.92,1.328-5.644
				c0.105,0.121-0.027-0.151,0.085,0.31c3.709,13.122,10.912,29.002,14.885,43.2c16.778,51.206,11.363,109.132-19.249,154.302
				c-6.88,9.766-15.129,21.939-24.352,29.714c-62.964,51.12-176.694,24.365-228.845-30.967
				c-56.806-58.537-57.196-147.063-57.975-222.867c0.565-43.293,0.173-90.513,4.032-133.623
				C1765.128,2474.711,1778.658,2474.136,1780.352,2483.401L1780.352,2483.401z"/>
		</g>
		<g>
			<path style="fill:#080808;" d="M1927.5,2765.254c7.233,34.119,3.205,86.755-34.874,100.817
				c-17.125,5.458-34.587-0.133-48.915-7.958c-6.729-3.568-12.695-7.727-18.574-11.968c-7.249-5.228-8.889-15.342-3.66-22.59
				c5.227-7.249,15.342-8.887,22.59-3.659c5.023,4.176,9.969,8.834,15.198,12.231c11.281,7.811,26.04,14.255,36.484,2.62
				c14.23-15.857,18.524-45.196,15.892-66.561C1910.405,2758.16,1925.06,2755.467,1927.5,2765.254L1927.5,2765.254z"/>
		</g>
		<g>
			<path style="fill:#080808;" d="M2036.455,2773.852c7.083,50.395-8.452,113.289-66.634,122.803
				c-21.071,3.345-26.792-27.398-5.89-31.826c19.444-0.747,34.845-10.88,43.678-28.721c9.34-18.003,12.857-40.781,12.766-61.139
				C2020.36,2764.969,2035.099,2763.949,2036.455,2773.852L2036.455,2773.852z"/>
		</g>
		<g style="opacity:0.7;">
			<path style="fill:#FFFFFF;" d="M2036.44,2351.085c9.061-5.894,6.03-48.432-53.287-86.156
				c-61.879-39.354-114.522-36.075-107.423-21.695c3.549,7.188,53.65,33.559,96.096,67.219
				C2014.291,2344.126,2031.908,2354.032,2036.44,2351.085z"/>
		</g>
		<g>
			<g>
				<path style="fill:#FAA327;" d="M1783.947,780.353l270.645,18.925l366.273,25.572c38.384-113.316-8.618-395.036-106.064-467.608
					c-29.419-21.889-63.41-24.715-101.063,1.895C2118.981,426.132,2009.965,656.884,1783.947,780.353z"/>
			</g>
			<g style="opacity:0.5;">
				<path style="fill:#FFFFFF;" d="M1783.947,780.353l48.62,3.414c202.461-127.004,304.942-337.204,394.651-400.617
					c37.652-26.61,71.643-23.784,101.062-1.895c15.356,11.444,29.481,28.133,42.242,48.495
					c-15.983-31.391-34.661-56.819-55.721-72.509c-29.419-21.889-63.41-24.715-101.063,1.895
					C2118.981,426.132,2009.965,656.884,1783.947,780.353z"/>
			</g>
			<g>
				<path style="fill:#EF7F25;" d="M2054.592,799.278l366.273,25.572c38.384-113.316-8.618-395.036-106.064-467.608
					c-16.259-0.625-33.739,6.537-49.575,29.206C2224.691,444.408,2166.658,702.395,2054.592,799.278z"/>
			</g>
			<g>
				<path style="fill:#080808;" d="M2420.878,841.289c-1.743,0-3.521-0.281-5.269-0.872c-8.594-2.91-13.198-12.234-10.288-20.828
					c17.607-52.002,16.572-146.387-2.642-240.457c-20.488-100.329-56.987-178.328-97.632-208.645
					c-25.83-19.277-52.593-18.599-81.812,2.058c-32.495,22.979-68.628,68.706-110.464,121.653
					c-77.573,98.179-174.121,220.364-320.947,300.583c-7.954,4.36-17.939,1.423-22.29-6.538c-4.351-7.961-1.421-17.942,6.538-22.29
					c140.952-77.012,235.195-196.284,310.923-292.121c43.413-54.944,80.908-102.395,117.275-128.11
					c41.147-29.092,82.793-29.639,120.42-1.567c67.646,50.459,99.585,176.54,110.176,228.406
					c20.605,100.881,21.206,199.575,1.567,257.566C2434.12,836.973,2427.729,841.289,2420.878,841.289z"/>
			</g>
			<g>
				<path style="fill:#FFF3E9;" d="M2133.017,601.236l268.886,161.255c-0.515-3.996-2.286-64.346-13.247-130.224
					c-4.79-28.948-11.373-58.937-20.4-85.679c-23.072-68.309-49.288-111.946-68.267-128.751c-5.38-4.747-10.166-7.344-14.139-7.751
					C2254.456,406.855,2220.789,484.135,2133.017,601.236z"/>
			</g>
			<g>
				<path style="fill:#F9D3B7;" d="M2133.017,601.236l268.886,161.255c-0.515-3.996-2.286-64.346-13.247-130.224
					c-11.769-1.698-26.548-6.187-42.439-16.573c-23.135-15.069-67.851-52.331-76.836-97.941
					c-4.771-24.147,10.749-65.708,30.608-99.916c-5.38-4.747-10.166-7.344-14.139-7.751
					C2254.456,406.855,2220.789,484.135,2133.017,601.236z"/>
			</g>
			<g>
				<path style="fill:#080808;" d="M2402.109,778.997c-2.993,0-5.996-0.813-8.662-2.412l-268.872-161.262
					c-3.989-2.393-6.777-6.362-7.671-10.925c-0.894-4.563,0.186-9.292,2.974-13.013c30.298-40.422,54.355-76.453,73.687-105.403
					c42.383-63.482,63.491-95.349,93.96-92.229c35.542,3.662,74.087,81.787,96.294,147.578
					c17.822,52.795,29.287,124.727,34.077,213.799c0.156,2.837,0.249,4.746,0.327,5.574c0.801,6.243-2.051,12.246-7.319,15.691
					C2408.237,778.14,2405.18,778.997,2402.109,778.997z M2157.001,596.465l226.563,135.884
					c-6.592-92.517-20.19-148.862-30.869-180.51c-29.668-87.893-60.547-122.4-68.862-125.425c-0.029-0.002-0.059-0.002-0.093-0.002
					c-10.898,0-38.481,41.311-62.856,77.813C2203.681,529.988,2182.778,561.294,2157.001,596.465z"/>
			</g>
			<g>
				<path style="fill:#080808;" d="M2234.233,677.764c-2.808,0-5.62-0.747-8.135-2.253l-101.216-60.713
					c-3.838-2.302-6.523-6.123-7.383-10.515c-0.864-4.395,0.176-8.945,2.861-12.527c23.564-31.462,42.876-59.656,55.352-78.125
					c1.255-1.86,2.896-3.43,4.805-4.609c24.194-14.917,44.551-18.032,60.547-9.263c13.188,7.222,17.988,17.419,19.688,24.7
					c2.119,9.067,0.605,18.171-2.266,26.26c11.528,0.808,23.198,4.104,31.88,12.317c7.046,6.663,14.736,19.146,11.392,40.776
					c-3.223,20.723-22.202,43.872-58.027,70.781C2240.932,676.697,2237.587,677.764,2234.233,677.764z M2156.103,596.641
					l76.992,46.184c32.251-25.808,36.797-39.939,37.407-43.86c0.684-4.443,0.923-10.31-1.875-12.954
					c-3.911-3.699-15.991-5.713-34.146-1.858c-1.055,0.222-1.729,0.327-1.958,0.356c-6.23,0.779-12.363-2.158-15.605-7.517
					c-5.41-8.948,0.117-16.848,2.202-19.822c10.957-15.657,11.489-22.705,10.835-25.513c-0.142-0.603-0.518-2.205-4.097-4.163
					c-4.634-2.551-14.185-0.01-25.908,6.76C2189.257,550.042,2174.203,571.946,2156.103,596.641z"/>
			</g>
			<g>
				<path style="fill:#FAA327;" d="M1427.312,1087.553l116.885-133.498l258.376-295.069
					c-150.714-163.871-358.985-221.493-421.148-185.543c-8.681,5.004-16.25,14.245-22.448,27.548
					C1323.63,576.473,1331.506,782.627,1427.312,1087.553z"/>
			</g>
			<g style="opacity:0.5;">
				<path style="fill:#FFFFFF;" d="M1343.733,558.411c2.958-12.956,6.583-24.02,10.881-33.157
					c6.198-13.303,13.768-22.544,22.448-27.548c60.98-35.268,262.526,19.512,412.392,176.251l13.119-14.972
					c-150.714-163.871-358.985-221.493-421.148-185.543c-8.681,5.004-16.25,14.245-22.448,27.548
					C1352.218,515.425,1347.028,534.639,1343.733,558.411z"/>
			</g>
			<g>
				<path style="fill:#EF7F25;" d="M1427.312,1087.553l116.885-133.498c9.751-60.846,15.257-151.346-15.657-231.997
					c-46.538-121.308-101.795-248.061-169.563-221.068C1323.63,576.473,1331.506,782.627,1427.312,1087.553z"/>
			</g>
			<g>
				<path style="fill:#080808;" d="M1427.299,1103.973c-6.982,0-13.462-4.49-15.664-11.506
					c-101.001-321.423-117.163-587.744-38.428-633.254c70.43-40.718,286.836,20.554,441.445,188.638
					c6.143,6.677,5.708,17.068-0.972,23.21c-6.67,6.14-17.065,5.711-23.208-0.969c-146.142-158.884-347.402-213.32-400.825-182.436
					c-18.14,10.483-37.617,61.335-32.817,170.146c3.525,79.958,21.333,218.565,86.142,424.817c2.72,8.655-2.09,17.876-10.747,20.596
					C1430.59,1103.728,1428.93,1103.973,1427.299,1103.973z"/>
			</g>
			<g>
				<g>
					<path style="fill:#FAA327;" d="M2670.196,1271.061c-0.323,12.842-1.51,25.583-3.571,38.173
						c-25.835,161.586-189.862,299.683-479.914,380.862l-177.987,34.236c-293.36,37.528-539.494-0.429-626.917-190.183
						c-16.192-35.154-29.849-77.956-39.361-125.851c-36.208-180.81-14.502-433.821,144.167-618.077
						c167.961-195.062,442.317-218.754,501.929-224.373c358.814-33.921,480.784,204.104,595.956,492.599
						c0.021,0.094,8.65,8.296,20.423,23.41c4.937,6.311,10.407,13.888,16.027,22.57
						C2645.079,1141.651,2672.056,1199.616,2670.196,1271.061z"/>
				</g>
			</g>
			<g>
				<g>
					<path style="fill:#FFFFFF;" d="M2670.196,1271.061c-4.592,177.881-170.854,331.529-483.485,419.036l-177.987,34.236
						c-293.36,37.528-539.494-0.429-626.917-190.183c-16.192-35.154-29.849-77.956-39.361-125.851
						c38.342-30.373,115.573-74.064,206.536-95.315c201.366-47.044,214.463,38.212,333.22,11.898
						c106.403-23.576,125.249-115.732,249.099-144.414c98.551-22.823,136.155,32.475,196.83,35.315
						c125.007,5.853,117.967-119.88,276.791-133.926C2630.943,1115.388,2672.502,1182.934,2670.196,1271.061z"/>
				</g>
			</g>
			<g style="opacity:0.2;">
				<g>
					<path style="fill:#080808;" d="M1342.432,1408.306c9.524,47.872,23.2,90.687,39.385,125.832
						c87.43,189.757,333.544,227.738,626.902,190.187l177.996-34.238c258.801-72.448,417.279-190.182,466.762-329.478
						c-75.936,111.09-226.498,204.173-446.671,265.816l-185.547,35.67c-305.87,39.128-562.467-0.434-653.621-198.26
						c-8.089-17.538-15.566-36.92-22.224-57.892C1344.386,1406.748,1343.394,1407.547,1342.432,1408.306z"/>
				</g>
			</g>
			<g>
				<path style="fill:#080808;" d="M2225.451,1322.687c-21.574,44.026,10.493,137.2-61.448,141.364
					c-74.369,4.304-66.27-93.357-107.459-129.613"/>
				<path style="fill:#080808;" d="M2159.213,1478.325c-52.417,0-69.541-44.673-83.398-80.81
					c-8.12-21.179-15.791-41.184-28.608-52.471c-5.859-5.156-6.431-14.087-1.274-19.946c5.156-5.854,14.082-6.436,19.946-1.27
					c18.047,15.884,27.344,40.125,36.333,63.567c15.366,40.076,26.489,64.59,60.977,62.546c31.504-1.824,35.938-23.132,38.54-71.318
					c1.187-21.909,2.412-44.563,11.035-62.158c3.438-7.012,11.899-9.912,18.911-6.47c7.007,3.435,9.907,11.902,6.47,18.911
					c-6.089,12.427-7.158,32.161-8.188,51.243c-2.158,39.897-5.112,94.538-65.137,98.01
					C2162.909,1478.272,2161.034,1478.325,2159.213,1478.325z"/>
			</g>
			<g>
				<path style="fill:#FFFFFF;" d="M2260.641,1287.207c0,0,17.49,32.188-10.318,53.748c-34.615,26.838-77.847-0.344-89.061-13.18
					c-2.608-2.986-9.016-1.659-9.621,2.259c-3.292,21.333-24.567,67.002-76.372,61.218c-20.358-2.273-43.125-20.701-39.696-45.732
					c0,0-19.107-99.657,70.352-133.027C2195.384,1179.124,2260.641,1287.207,2260.641,1287.207z"/>
			</g>
			<g style="opacity:0.2;">
				<path style="fill:#080808;" d="M2040.525,1369.279c7.477,12.32,21.642,20.516,34.757,21.961
					c51.772,5.789,73.068-39.853,76.364-61.229c0.602-3.909,6.989-5.224,9.633-2.221c11.182,12.841,54.433,40.004,89.024,13.182
					c12.619-9.748,15.919-21.698,15.757-31.844c-44.371,21.435-91.576,1.378-100.925-28.011c-1.638-5.15-50.082-12.85-48.573-7.657
					c14.735,50.714-5.13,103.773-75.838,95.852C2040.675,1369.315,2040.575,1369.275,2040.525,1369.279z"/>
			</g>
			<g>
				<path style="fill:#080808;" d="M2043.574,1346.617c1.498,17.637,19.257,29.858,35.818,29.092
					c4.091-0.01,8.607-0.408,12.512-1.161c16.283-2.997,30.008-13.856,37.488-28.824c3.572-6.789,5.262-13.718,6.655-20.787
					c2.889-10.075,13.22-15.99,22.991-15.167c5.393,0.235,11.341,3.182,15.276,7.709c12.314,11.419,33.204,19.81,49.102,17.75
					c25.429-4.012,35.515-21.234,29.851-45.927c-0.695-4.386,2.298-8.505,6.683-9.2c8.241-1.028,11.281,9.091,14.187,14.66
					c5.276,12.9,5.771,27.571-0.76,40.897c-5.703,11.267-14.468,19.317-24.749,24.99c-32.499,18.277-73.69,4.761-98.408-20.491
					c0,0-1.304-1.409-1.304-1.409c4.792,5.563,13.838,5.275,17.754-2.505c0.559-1.157,0.99-2.417,1.152-3.702l-0.042,0.212
					c-5.387,27.091-20.81,52.053-44.973,66.166c-23.79,13.092-56.518,12.34-77.601-5.162c-14.164-11.243-23.193-31.68-17.634-49.332
					c1.298-4.315,5.849-6.759,10.163-5.461C2041.252,1340.011,2043.419,1343.175,2043.574,1346.617L2043.574,1346.617z"/>
			</g>
			<g>
				<path style="fill:#080808;" d="M2216.394,1198.037c5.987,25.863-17.555,55.385-36.535,74.258
					c-13.142,13.067-32.594,17.57-50.141,11.607c-25.343-8.612-59.463-24.786-65.45-50.649
					C2054.543,1191.245,2206.669,1156.028,2216.394,1198.037z"/>
			</g>
			<g style="opacity:0.35;">
				<path style="fill:#FFFFFF;" d="M2178.209,1197.292c1.108,4.784-8.581,11.48-16.191,15.921c-5.27,3.074-12.466,4.74-18.551,4.295
					c-8.788-0.644-20.433-2.401-21.541-7.186C2120.127,1202.55,2176.41,1189.521,2178.209,1197.292z"/>
			</g>
			<g>
				<path style="fill:#080808;" d="M2166.459,1336.463l-29.639-12.856l-0.229,0.579c0.068-0.205,6.88-21.106-9.751-74.609
					c-2.646-8.52,2.114-17.571,10.63-20.22c8.535-2.651,17.573,2.117,20.22,10.63
					C2177.802,1304.69,2168.52,1331.704,2166.459,1336.463z"/>
			</g>
			<g>
				<path style="fill:#FF8080;" d="M2670.196,1271.061c-0.323,12.842-1.51,25.583-3.571,38.173
					c-16.613,8.201-35.074,14.788-54.904,19.258c-90.999,20.515-175.808-11.643-189.368-71.791s49.247-125.584,140.246-146.099
					c19.971-4.502,39.672-6.469,58.349-6.176C2645.079,1141.651,2672.056,1199.616,2670.196,1271.061z"/>
			</g>
			<g>
				
					<ellipse transform="matrix(0.9755 -0.2199 0.2199 0.9755 -274.5388 396.4784)" style="fill:#FF8080;" cx="1643.458" cy="1431.292" rx="168.961" ry="111.661"/>
			</g>
			<g>
				<g>
					<path style="fill:#080808;" d="M1418.333,903.147c-71.482,151.488-89.512,323.866-62.335,487.771
						c6.666,54.877,25.67,108.258,50.345,155.53c83.692,150.79,275.529,176.526,433.186,176.385
						c55.882,0.274,111.939-2.409,168.352-5.104c3.696-0.199,6.858,2.657,7.031,6.356c0.159,3.339-2.161,6.223-5.339,6.868
						c-165.92,31.623-352.156,37.003-506.639-44.722c-80.943-44.309-133.962-117.249-157.986-205.434
						c-43.665-137.438-45.522-287.658-7.13-426.706c15.493-55.414,37.636-109.038,67.129-158.15
						C1410.04,888.116,1422.281,894.091,1418.333,903.147L1418.333,903.147z"/>
				</g>
				<g>
					<path style="fill:#080808;" d="M2184.678,1682.772c140.597-51,286.527-106.667,388.563-219.818
						c101.557-113.083,108.995-266.62,8.382-382.944c-1.506-1.841-5.198-5.687-6.715-7.348c-1.96-2.206-2.098-1.583-4.72-5.504
						c-1.255-2.067-2.055-4.454-2.361-6.592l0.991,3.931c-102.317-268.921-236.802-514.106-565.089-483.788
						c-68.349,4.613-136.683,12.992-202.984,30.854c-22.182,5.726-44.25,12.034-66.04,19.337c-4.231,1.418-8.811-0.864-10.229-5.095
						c-1.343-4.01,0.664-8.345,4.478-9.993c42.965-18.824,87.717-33.49,133.396-44.268
						c433.079-106.663,607.788,133.526,736.752,478.528c-1.249-2.233-3.587-4.308-2.082-2.83
						c27.868,28.906,49.816,63.221,65.633,100.094c41.499,93.169,27.521,205.478-29.177,289.317
						c-54.702,82.666-137.956,141.728-225.491,185.556c-69.498,34.512-143.481,59.312-219.207,75.204
						C2179.632,1698.899,2175.783,1686.251,2184.678,1682.772L2184.678,1682.772z"/>
				</g>
			</g>
			<g>
				<path style="fill:#FFFFFF;" d="M1788.272,963.783c-10.27-22.639,47.441-119.133,98.334-110.787
					c50.893,8.346,56.104,61.21,31.729,82.803C1882.932,967.164,1798.543,986.422,1788.272,963.783z"/>
			</g>
			<g>
				<path style="fill:#FFFFFF;" d="M2293.959,854.453c-1.354-24.823-89.924-84.118-127.856-53.38
					c-37.933,30.738-19.456,80.099,9.713,88.117C2218.185,900.835,2295.313,879.275,2293.959,854.453z"/>
			</g>
			<g>
				<path style="fill:#FFF3E9;" d="M1422.887,822.476c5.382,14.354,11.51,27.376,18.453,38.491
					c104.687-137.154,192.857-126.155,180.32-193.843c-13.609-73.273-144.277-152.02-217.557-142.578
					c-4.552,0.586-8.159,9.599-10.688,24.514C1384.331,603.567,1390.458,736.651,1422.887,822.476z"/>
			</g>
			<g>
				<path style="fill:#F9D3B7;" d="M1422.887,822.476c5.382,14.354,11.51,27.376,18.453,38.491
					c104.687-137.154,192.857-126.155,180.32-193.843c-13.609-73.273-144.277-152.02-217.557-142.578
					c-4.552,0.586-8.159,9.599-10.688,24.514c37.469,6.511,99.488,26.46,114.579,87.39
					C1527.826,716.62,1454.693,751.864,1422.887,822.476z"/>
			</g>
			<g>
				<path style="fill:#080808;" d="M1441.332,877.132c-0.254,0-0.508-0.007-0.767-0.02c-5.298-0.249-10.137-3.088-12.944-7.59
					c-55.024-88.308-65.288-300.632-43.735-346.096c5.249-11.067,12.774-14.216,18.159-14.912l0,0
					c79.619-10.266,219.849,71.44,235.479,155.667c8.428,45.425-20.293,64.946-56.65,89.658
					c-32.842,22.322-77.817,52.893-126.699,116.941C1451.108,874.793,1446.352,877.132,1441.332,877.132z M1411.835,540.042
					c-11.172,31.577-9.16,200.398,32.212,291.626c45.928-55.105,87.48-83.35,118.667-104.546
					c36.968-25.127,47.432-33.423,43.052-57.048C1593.969,606.521,1476.791,536.497,1411.835,540.042z M1406.2,540.55
					c-0.01,0.002-0.02,0.002-0.024,0.005l0,0C1406.181,540.552,1406.191,540.552,1406.2,540.55z M1404.111,524.534h0.049H1404.111z"
					/>
			</g>
			<g>
				<path style="fill:#F9D3B7;" d="M1527.273,717.539c3.948,19.943,35.222,8.531,35.729,28.918
					c41.222-28.236,65.654-41.486,58.658-79.334c-2.99-16.075-11.629-32.412-24.029-48.052c-19.27-5.359-41.037-6.793-57.274,5.084
					c-18.395,13.497-12.042,27.443-3.552,35.215c12.541,11.524,34.923,14.716,34.923,14.716S1522.484,693.254,1527.273,717.539z"/>
			</g>
			<g>
				<path style="fill:#080808;" d="M1543.601,714.313c0.095-0.042,0.085-0.085-0.015-0.072c-0.066-0.024-0.073-0.426-0.303-0.507
					c-0.195-0.126-0.171-0.396-0.42-0.44c-0.146-0.062,0.051-0.074-0.02,0.005c7.039,3.214,21.203,4.6,28.872,13.408
					c4.844,5.325,7.24,12.317,7.434,19.347c0.008-0.005-25.306-12.922-25.268-12.929c11.14-7.649,22.322-14.962,32.129-22.442
					c8.12-6.474,16.485-13.418,19.365-22.706c5.345-19.111-7.581-42.868-20.403-58.87c0,0,8.33,5.526,8.33,5.526
					c-16.946-2.72-34.676-4.725-46.787,7.203c-0.613,0.794-0.991,1.209-1.118,1.189c-0.093-0.007-0.286-0.218-0.332,0.191
					c-0.134,0.811,1.211,3.513,3.662,6.101c5.531,6.457,18.347,12.118,26.99,19.238c3.391,2.937,3.759,8.067,0.825,11.459
					c-4.484,3.767-10.074,6.597-14.675,10.48c-6.865,5.302-15.205,12.512-18.152,19.916
					C1543.031,712.23,1543.091,713.481,1543.601,714.313L1543.601,714.313z M1510.945,720.765
					c-4.631-32.588,32.653-47.4,57.851-54.207c0.001,0,1.791,15.527,1.791,15.527c-14.49,1.77-27.518-0.385-40.513-8.337
					c-39.203-27.442-9.333-72.278,30.819-75.711c15.055-1.662,28.747,1.113,41.047,5.468c3.45,0.908,6.319,2.902,8.35,5.532
					c24.677,29.251,43.061,79.584,12.545,111.665c-14.822,16.202-33.778,27.167-50.702,39.081c0,0-25.276-12.924-25.276-12.924
					c-0.127,0.008-0.149,0.04-0.071,0.036c0.02,0.094,0.032,0.736,0.317,0.972c0.161,0.638,0.926,1.469,1.323,1.787
					c-7.549-2.927-13.398-2.594-22.898-8.119C1518.007,737.082,1512.706,729.286,1510.945,720.765L1510.945,720.765z"/>
			</g>
			<g>
				<path style="fill:#FF8080;" d="M2105.26,1429.592c48.38,34.371,16.864,139.404,94.521,123.42
					c30.28-6.235,44.997-35.682,46.864-67.473c2.052-34.661-11.08-72.206-35.754-85.821c-7.028-3.863-20.683-6.899-40.016,4.151
					c-35.098-6.102-52.182,6.302-59.914,15.929C2106.661,1425.125,2105.26,1429.592,2105.26,1429.592z"/>
			</g>
			<g>
				<path style="fill:#F26666;" d="M2105.26,1429.592c48.38,34.371,16.864,139.404,94.521,123.42
					c30.28-6.235,44.997-35.682,46.864-67.473c0,0-19.597,45.802-49.268,42.315c-36.763-4.292-35.118-28.546-51.48-71.238
					c-6.563-17.062-21.437-31.317-34.935-36.817C2106.661,1425.125,2105.26,1429.592,2105.26,1429.592z"/>
			</g>
			<g>
				<path style="fill:#080808;" d="M2184.77,1568.811c-43.638,0-53.481-40.415-60.898-70.833
					c-5.483-22.498-11.152-45.757-26.782-56.853c-5-3.55-7.139-9.922-5.298-15.771c4.966-15.737,27.271-42.795,76.582-36.157
					c24.932-12.363,42.642-5.544,49.341-1.848c35.127,19.375,47.769,71.448,41.831,110.603
					c-5.605,36.958-26.88,62.715-56.904,68.896C2196.127,1568.189,2190.185,1568.811,2184.77,1568.811z M2123.466,1426.824
					c16.421,17.502,22.451,42.236,27.866,64.46c10.049,41.216,15.82,54.019,45.605,47.878c25.869-5.327,32.856-33.557,34.658-45.449
					c5.127-33.799-7.227-70.41-27.534-81.614c-2.92-1.609-11.318-4.436-26.191,4.055c-2.856,1.626-6.187,2.217-9.429,1.648
					C2142.328,1413.267,2129.487,1420.537,2123.466,1426.824z"/>
			</g>
			<g>
				<path style="fill:#080808;" d="M2188.44,1485.077c-1.059-26.211-6.292-62.315-34.704-71.474
					c-15.078-5.29-7.88-27.649,7.488-23.087c32.504,12.518,42.221,49.967,41.581,81.224c-0.021,3.577-0.207,7.411-0.488,10.983
					c-0.017,0.167-0.044,0.728-0.056,0.571c-0.017-0.115-0.066-0.232-0.139-0.338
					C2203.364,1491.949,2189.992,1494.062,2188.44,1485.077L2188.44,1485.077z"/>
			</g>
			<g>
				<g>
					
						<ellipse transform="matrix(0.9958 -0.0919 0.0919 0.9958 -102.9355 176.6773)" style="fill:#080808;" cx="1867.288" cy="1206.242" rx="106.324" ry="132.747"/>
				</g>
				<g>
					
						<ellipse transform="matrix(0.9968 -0.0804 0.0804 0.9968 -89.2027 150.8489)" style="fill:#FFFFFF;" cx="1829.215" cy="1183.483" rx="35.755" ry="52.706"/>
				</g>
				<g style="opacity:0.35;">
					
						<ellipse transform="matrix(0.4056 -0.9141 0.9141 0.4056 -12.7156 2497.1257)" style="fill:#FFFFFF;" cx="1913.602" cy="1258.339" rx="34.053" ry="17.638"/>
				</g>
			</g>
			<g>
				<g>
					
						<ellipse transform="matrix(0.9958 -0.0919 0.0919 0.9958 -91.5533 220.2317)" style="fill:#080808;" cx="2345.972" cy="1104.398" rx="96.841" ry="120.907"/>
				</g>
				<g>
					
						<ellipse transform="matrix(0.9968 -0.0804 0.0804 0.9968 -79.6206 189.272)" style="fill:#FFFFFF;" cx="2311.295" cy="1083.669" rx="32.566" ry="48.005"/>
				</g>
				<g style="opacity:0.35;">
					
						<ellipse transform="matrix(0.4056 -0.9141 0.9141 0.4056 366.7084 2867.5977)" style="fill:#FFFFFF;" cx="2388.155" cy="1151.849" rx="31.016" ry="16.065"/>
				</g>
			</g>
		</g>
		<g>
			<g>
				<path style="fill:#FFAD40;" d="M2015.571,1804.519c69.351,147.237,157.338,216.636,216.936,260.087
					c48.997,35.721,93.032,53.976,131.612,87.509c36.031,31.318,58.624,71.142,43.058,132.64
					c-23.192,91.63-165.416,103.377-282.507,48.409c-88.453-41.524-227.796-148.55-287.811-314.191"/>
			</g>
			<g>
				<path style="fill:#FFAD40;" d="M2407.169,2284.763c-22.425,88.647-156.43,102.541-271.134,53.467
					c-3.801-1.605-7.602-3.294-11.361-5.068c-88.477-41.515-227.803-148.533-287.816-314.17l178.729-214.458
					c69.346,147.224,157.317,216.612,216.908,260.07c17.02,12.416,33.406,22.721,49.201,32.265
					c29.731,17.991,57.225,33.365,82.438,55.241C2400.158,2183.447,2422.753,2223.272,2407.169,2284.763z"/>
			</g>
			<g>
				<path style="fill:#FAA327;" d="M2407.169,2284.763c-22.425,88.647-156.43,102.541-271.134,53.467
					c-3.801-1.605-7.602-3.294-11.361-5.068c-88.435-41.515-227.719-148.448-287.732-314.001c-0.042-0.127-0.085-0.169-0.085-0.169
					l178.729-214.458c69.346,147.224,157.317,216.612,216.908,260.07c17.02,12.416,33.406,22.721,49.201,32.265
					c29.731,17.991,57.225,33.365,82.438,55.241c13.135,11.403,24.495,23.946,32.857,38.263
					C2411.562,2215.333,2417.094,2245.656,2407.169,2284.763z"/>
			</g>
			<g>
				<path style="fill:#EF7F25;" d="M2407.169,2284.763c-22.425,88.647-156.43,102.541-271.134,53.467
					c-3.801-1.605-7.602-3.294-11.361-5.068c-88.435-41.515-227.719-148.448-287.732-314.001
					c4.181,6.546,138.988,216.781,331.189,273.288c175.013,51.44,224.89-33.195,228.859-102.076
					C2411.562,2215.333,2417.094,2245.656,2407.169,2284.763z"/>
			</g>
			<g>
				<path style="fill:#F9D3B7;" d="M2412.195,2247.134c0,11.572-1.605,24.073-5.026,37.63
					c-22.425,88.647-156.43,102.541-271.134,53.467c-6.167-18.372-10.812-39.192-11.825-61.618
					c14.275,6.081,28.929,11.445,43.922,15.837c174.97,51.44,224.89-33.153,228.859-102.034c0.592,1.014,1.14,2.027,1.732,3.041
					c1.056,1.942,2.07,3.927,2.999,5.912c2.914,6.208,5.279,12.712,7.052,19.554c0.211,0.971,0.465,1.943,0.676,2.914
					c0.253,1.14,0.507,2.281,0.718,3.463c0.211,1.14,0.422,2.323,0.591,3.505c0.211,1.14,0.38,2.365,0.507,3.547
					c0.295,2.407,0.506,4.814,0.718,7.306C2412.111,2242.108,2412.195,2244.6,2412.195,2247.134z"/>
			</g>
			<g>
				<path style="fill:#FFFFFF;" d="M2407.169,2284.763c-22.425,88.647-156.43,102.541-271.134,53.467
					c-15.288-45.485-21.159-106.047,14.486-168.805c30.914-54.396,79.862-72.936,131.175-72.556
					c29.731,17.991,57.225,33.365,82.438,55.241C2400.158,2183.447,2422.753,2223.272,2407.169,2284.763z"/>
			</g>
			<g style="opacity:0.2;">
				<path style="fill:#080808;" d="M2412.195,2247.134c0,11.572-1.605,24.073-5.026,37.63
					c-22.425,88.647-156.43,102.541-271.134,53.467c-6.167-18.372-10.812-39.192-11.825-61.618
					c14.275,6.081,28.929,11.445,43.922,15.837c174.97,51.44,224.89-33.153,228.859-102.034c0.592,1.014,1.14,2.027,1.732,3.041
					c1.056,1.942,2.07,3.927,2.999,5.912c2.914,6.208,5.279,12.712,7.052,19.554c0.211,0.971,0.465,1.943,0.676,2.914
					c0.253,1.14,0.507,2.281,0.718,3.463c0.211,1.14,0.422,2.323,0.591,3.505c0.211,1.14,0.38,2.365,0.507,3.547
					c0.295,2.407,0.506,4.814,0.718,7.306C2412.111,2242.108,2412.195,2244.6,2412.195,2247.134z"/>
			</g>
			<g>
				<path style="fill:#080808;" d="M2022.878,1801.077c43.544,74.541,94.241,144.797,159.234,201.876
					c21.362,18.814,44.157,36.655,67.409,53.48c34.957,25.311,75.975,45.235,111.24,72.142c25.209,19.176,48.969,43.6,60.009,74.68
					c11.423,31.603,9.134,66.319-1.728,97.487c-11.554,32.181-40.361,56.228-71.331,67.852
					c-44.302,16.978-93.391,16.492-138.93,8.378c-60.206-10.563-116.491-38.365-166.033-73.082
					c-74.009-51.531-139.271-117.717-180.185-198.739c-13.793-26.648-25.119-54.602-33.296-83.429
					c-1.238-4.295,1.243-8.779,5.537-10.016c3.862-1.113,7.881,0.782,9.548,4.301c12.085,26.242,25.327,51.86,40.972,76.108
					c73.845,112.882,192.837,227.512,329.254,253.078c51.138,9.013,113.762,8.468,153.896-26.173
					c27.864-24.951,33.452-70.801,21.925-104.762c-24.827-63.406-106.965-91.791-159.861-130.771
					c-24.557-17.142-48.28-35.16-70.919-55.144c-22.649-19.844-43.547-41.781-62.6-65.1
					c-38.228-46.618-68.037-99.573-88.755-155.285C2005.008,1799.022,2017.705,1792.408,2022.878,1801.077L2022.878,1801.077z"/>
			</g>
			<g>
				<path style="fill:#080808;" d="M2343.179,2192.969c28.504,9.573,55.542,24.31,72.447,50.48
					c8.599,13.394,19.365,48.867-6.734,50.383c-9.859-0.005-17.535-9.185-15.845-18.882c2.294-13.405-5.383-26.703-14.868-37.133
					c-11.059-11.844-26.141-22.819-40.662-29.775C2328.651,2203.804,2333.76,2190.311,2343.179,2192.969L2343.179,2192.969z"/>
			</g>
			<g>
				<path style="fill:#080808;" d="M2293.459,2253.847c32.322,13.954,66.004,44.752,57.625,84.249
					c-3.149,13.734-11.089,25.275-19.968,34.215c-6.269,6.468-16.645,6.573-23.035,0.218c-6.924-6.772-6.199-18.399,1.482-24.28
					c13.259-10.079,19.771-23.411,13.862-39.674c-6.119-17.053-21.789-30.817-37.505-40.459
					C2277.456,2262.832,2284.351,2249.826,2293.459,2253.847L2293.459,2253.847z"/>
			</g>
		</g>
	</g>
</g>
</svg>
