<?xml version="1.0" encoding="utf-8"?>
<!-- Generator: Adobe Illustrator 27.5.0, SVG Export Plug-In . SVG Version: 6.00 Build 0)  -->
<svg version="1.1" id="Layer_1" xmlns="http://www.w3.org/2000/svg" xmlns:xlink="http://www.w3.org/1999/xlink" x="0px" y="0px"
	 viewBox="0 0 4000 4000" style="enable-background:new 0 0 4000 4000;" xml:space="preserve">
<g>
	<g>
		<g>
			<g>
				<rect style="fill:#00000000;" width="4000" height="4000"/>
			</g>
		</g>
	</g>
	<g>
		<g style="opacity:0.2;">
			<g>
				<g>
					<ellipse style="fill:#080808;" cx="1906.868" cy="3584.758" rx="1051.035" ry="122.742"/>
				</g>
			</g>
		</g>
		<g>
			<g>
				<g>
					<g>
						<path style="fill:#FFAD40;" d="M2695.126,3555.951c-76.135,36.571-146.611-9.905-185.577-45.605
							c-19.973-18.286-31.728-33.742-31.728-33.742c-6.477,3.538-12.898,6.857-19.32,9.959
							c-291.808,143.02-490.827-113.904-490.827-113.904l479.506-462.637l76.517,195.808l10.34,26.394
							c0,0,10.013-5.334,26.558-7.728c12.19-1.796,27.918-2.068,45.714,2.503c84.353,21.66,138.503,99.047,170.285,179.645
							C2815.832,3406.128,2784.268,3513.121,2695.126,3555.951z"/>
					</g>
				</g>
			</g>
			<g>
				<g>
					<g>
						<path style="fill:#FF9343;" d="M2509.549,3510.346c-19.973-18.286-31.728-33.742-31.728-33.742
							c-6.477,3.538-12.898,6.857-19.32,9.959c-291.808,143.02-490.827-113.904-490.827-113.904l479.506-462.637l76.517,195.808
							c-17.851,60.353-55.782,175.291-101.496,240.434c-63.999,91.319,80.163,90.013,151.781-33.523
							C2587.371,3366.346,2544.161,3451.734,2509.549,3510.346z"/>
					</g>
				</g>
			</g>
			<g>
				<g>
					<g>
						<path style="fill:#FFF3E9;" d="M2791.343,3419.461c-7.836,58.775-40.979,109.932-96.217,136.489
							c-115.155,55.292-217.304-79.347-217.304-79.347c-6.477,3.538-12.898,6.857-19.32,9.959c-0.164-0.545-0.272-0.816-0.272-0.816
							s73.469-41.905,107.047-130.992c9.686-25.687,16.055-55.292,16.381-88.925c0.544-55.945-8.49-103.074-21.061-141.332
							c12.19-1.796,27.918-2.068,45.714,2.503c84.353,21.66,138.503,99.047,170.285,179.645
							C2791.506,3344.469,2796.187,3383.435,2791.343,3419.461z"/>
					</g>
				</g>
			</g>
			<g>
				<g>
					<g>
						<path style="fill:#F9D3B7;" d="M2791.343,3419.461c-7.836,58.775-40.979,109.932-96.217,136.489
							c-115.155,55.292-217.304-79.347-217.304-79.347c-6.477,3.538-12.898,6.857-19.32,9.959c-0.164-0.545-0.272-0.816-0.272-0.816
							s73.469-41.905,107.047-130.992c2.231,50.449,17.143,115.7,76.843,132.462
							C2714.282,3507.461,2763.207,3467.353,2791.343,3419.461z"/>
					</g>
				</g>
			</g>
			<g>
				<g>
					<g>
						<path style="fill:#080808;" d="M2637.254,3588.627c-77.473,0-140.146-60.913-164.185-87.998
							c-157.383,79.663-288.928,45.894-372.48,2.573c-92.422-47.915-145.796-115.991-148.022-118.867
							c-6.453-8.33-4.932-20.317,3.401-26.768c8.325-6.45,20.3-4.941,26.755,3.379l0,0c0.503,0.645,51.277,65.107,136.655,109.009
							c112.786,57.993,230.322,54.585,349.346-10.142c8.291-4.512,18.623-2.28,24.321,5.234
							c0.918,1.201,94.224,121.548,193.838,73.691c78.32-37.612,108.586-132.271,71.965-225.083
							c-25.588-64.858-73.645-146.685-157.266-168.169c-33.723-8.677-57.81,3.179-58.816,3.687c-4.8,2.417-10.476,2.744-15.491,0.82
							c-5.02-1.924-9.075-5.83-11.03-10.835l-86.831-222.202c-3.835-9.814,1.013-20.879,10.828-24.717
							c9.819-3.833,20.884,1.016,24.719,10.83l80.154,205.117c15.439-3.911,38.708-6.665,65.967,0.337
							c99.204,25.493,154.417,118.008,183.264,191.128c44.175,111.948,5.928,226.968-90.945,273.491
							C2680.577,3584.106,2658.365,3588.627,2637.254,3588.627z"/>
					</g>
				</g>
			</g>
			<g>
				<g>
					<g>
						<g>
							<path style="fill:#FFAD40;" d="M2773.877,3252.167c-381.242-7.49-543.489-363.241-543.489-363.241l83.259-70.002
								c78.251,71.444,156.175,104.837,226.495,112.889c19.406,2.252,38.22,2.535,56.297,1.188
								c64.764-4.852,120.126-30.892,158.909-65.925c42.103-37.898,64.788-86.304,59.133-129.508
								c-4.314-32.742-26.762-53.677-54.744-43.677c-51.827,18.485-17.341,80.653-52.039,95.212
								c-30.719,12.855-93.137-7.041-116.212-59.598c-2.643-5.975-4.993-11.985-7.106-18.032l0.005-0.058
								c-2.075-5.812-3.862-11.6-5.47-17.431c-49.408-180.677,120.174-363.159,364.966-315.147
								c160.185,31.391,255.843,173.933,278.906,335.096C3258.575,2964.063,3119.128,3258.992,2773.877,3252.167z"/>
						</g>
					</g>
				</g>
				<g>
					<g>
						<g>
							<path style="fill:#FF9343;" d="M2755.348,2867.077c42.103-37.898,64.788-86.304,59.133-129.508
								c-4.314-32.742-26.762-53.677-54.744-43.677c-51.827,18.485-17.341,80.653-52.039,95.212
								c-30.719,12.855-93.137-7.041-116.212-59.598c-2.643-5.975-4.993-11.985-7.106-18.032l0.005-0.058
								c-2.075-5.812-3.862-11.6-5.47-17.431c23.806,30.466,68.682,78.846,89.113,40.776
								c25.457-47.479,61.581-172.968,154.471-134.261C2902.457,2633.889,2873.105,2807.325,2755.348,2867.077z"/>
						</g>
					</g>
				</g>
				<g>
					<g>
						<g>
							<path style="fill:#FF9343;" d="M2773.877,3252.167c-381.242-7.49-543.489-363.241-543.489-363.241l83.259-70.002
								c78.251,71.444,156.175,104.837,226.495,112.889c19.406,2.252,38.22,2.535,56.297,1.188
								c54.165,55.548,163.01,131.743,335.646,101.435c210.69-36.972,273.688-199.008,290.701-320.502
								C3258.575,2964.063,3119.128,3258.992,2773.877,3252.167z"/>
						</g>
					</g>
				</g>
				<g>
					<g>
						<g>
							<path style="fill:#F9D3B7;" d="M3226.339,2836.325c-17.832,214.625-162.584,421.554-452.462,415.843
								c-381.242-7.49-543.489-363.241-543.489-363.241l83.259-70.002c78.251,71.444,156.175,104.837,226.495,112.889
								c56.579,69.178,141.703,187.356,340.15,158.495c91.164-13.298,152.393-53.967,189.578-108.262
								c102.91-67.206,140.361-178.573,152.907-267.996c0.111,0.764,0.222,1.53,0.333,2.295c0.487,3.238,0.911,6.53,1.277,9.816
								c0.545,4.638,1.032,9.272,1.457,13.958c0.265,2.405,0.473,4.806,0.622,7.203c0.362,4.041,0.604,8.132,0.85,12.164
								c0.295,4.849,0.474,9.69,0.595,14.526c0.077,0.471,0.102,0.88,0.068,1.285c0.169,4.258,0.219,8.564,0.215,12.808l0,2.093
								c0.04,5.12-0.041,10.288-0.174,15.393c-0.138,5.163-0.33,10.263-0.641,15.411
								C3227.131,2826.099,3226.761,2831.243,3226.339,2836.325z"/>
						</g>
					</g>
				</g>
				<g>
					<g>
						<g>
							<path style="fill:#FFF3E9;" d="M2773.877,3252.167c-381.242-7.49-543.489-363.241-543.489-363.241l83.259-70.002
								c78.251,71.444,156.175,104.837,226.495,112.889c56.579,69.178,141.723,187.369,340.134,158.473
								c328.963-47.909,268.074-452.421,94.892-565.998c-141.535-92.806-405.896-20.06-390.784,187.127
								c-65.697-186.158,106.807-382.119,359.496-332.578C3352.75,2458.974,3341.497,3263.397,2773.877,3252.167z"/>
						</g>
					</g>
				</g>
				<g>
					<g>
						<g>
							<path style="fill:#F9D3B7;" d="M3226.339,2836.325c-17.832,214.625-162.584,421.554-452.462,415.843
								c-381.242-7.49-543.489-363.241-543.489-363.241l83.259-70.002c78.251,71.444,156.175,104.837,226.495,112.889
								c56.579,69.178,141.703,187.356,340.15,158.495c91.164-13.298,152.393-53.967,189.578-108.262
								c102.91-67.206,140.361-178.573,152.907-267.996c0.111,0.764,0.222,1.53,0.333,2.295c0.487,3.238,0.911,6.53,1.277,9.816
								c0.545,4.638,1.032,9.272,1.457,13.958c0.265,2.405,0.473,4.806,0.622,7.203c0.362,4.041,0.604,8.132,0.85,12.164
								c0.295,4.849,0.474,9.69,0.595,14.526c0.077,0.471,0.102,0.88,0.068,1.285c0.169,4.258,0.219,8.564,0.215,12.808l0,2.093
								c0.04,5.12-0.041,10.288-0.174,15.393c-0.138,5.163-0.33,10.263-0.641,15.411
								C3227.131,2826.099,3226.761,2831.243,3226.339,2836.325z"/>
						</g>
					</g>
				</g>
				<g>
					<g>
						<g>
							<path style="fill:#080808;" d="M2785.887,3271.386c-4.109,0-8.228-0.039-12.397-0.122
								c-203.381-4.014-344.98-105.635-427.954-190.176c-89.534-91.226-130.801-180.508-132.512-184.268
								c-4.373-9.585-0.144-20.903,9.443-25.278c9.58-4.365,20.896-0.151,25.273,9.434l0,0
								c0.398,0.869,40.75,87.842,125.962,174.331c113.274,114.971,248.035,174.795,400.54,177.803
								c3.811,0.073,7.61,0.112,11.365,0.112c279.639,0,401.372-206.86,420.554-386.03c20.205-188.75-66.13-410.483-265.933-449.644
								c-122.253-23.97-234.648,10.972-300.701,93.428c-53.35,66.606-64.768,152.905-30.547,230.859
								c19.153,43.643,70.706,58.291,91.331,49.658c4.392-1.841,5.696-7.729,7.383-24.497c2.278-22.642,5.723-56.86,45.615-71.079
								c16.763-5.977,33.848-4.458,48.105,4.263c17.109,10.469,28.76,30.493,31.96,54.927
								c8.784,67.026-40.947,142.949-120.938,184.634c-126.279,65.815-280.161,33.379-411.65-86.743
								c-7.778-7.109-8.325-19.175-1.216-26.958c7.104-7.783,19.175-8.33,26.958-1.216
								c119.148,108.853,256.819,139.16,368.271,81.074c66.052-34.419,107.478-94.39,100.737-145.83
								c-1.672-12.759-6.921-22.979-14.043-27.334c-4.409-2.705-9.436-2.979-15.376-0.869c-15.671,5.586-18.057,15.117-20.454,38.95
								c-1.909,18.97-4.524,44.941-30.601,55.874c-42.271,17.725-114.617-9.331-141.03-69.512
								c-40.037-91.206-26.687-192.163,35.708-270.059c75.095-93.755,201.377-133.765,337.825-107.021
								c101.877,19.971,184.409,82.607,238.674,181.147c49.16,89.268,69.709,199.365,57.864,310.01
								C3223.231,3046.244,3090.577,3271.386,2785.887,3271.386z"/>
						</g>
					</g>
				</g>
			</g>
			<g>
				<g>
					<g>
						<path style="fill:#FFAD40;" d="M1671.894,2033.293l-69.333,376.868c-170.013,119.836-666.663,137.578-821.491-236.243
							l159.128-229.224l74.503-107.319c0,0,39.837,79.837,118.857,152.979C1241.04,2089.783,1421.011,2176.694,1671.894,2033.293z"
							/>
					</g>
				</g>
			</g>
			<g>
				<g>
					<g>
						<path style="fill:#FF9343;" d="M1671.894,2033.293l-69.333,376.868c-170.013,119.836-666.663,137.578-821.491-236.243
							l159.128-229.224c51.646,9.851,153.305,33.034,173.332,66.395c48.054,80.054-84.517,140.843-114.122,219.481
							c-31.727,84.244,112.544,225.577,300.461,169.795c85.115-25.305,104.326-109.768,88-178.937
							c-21.116-89.469-186.339-122.884-254.311-231.073C1241.04,2089.783,1421.011,2176.694,1671.894,2033.293z"/>
					</g>
				</g>
			</g>
			<g>
				<g>
					<g>
						<path style="fill:#080808;" d="M1302.196,2505.776c-63.792,0-130.776-8.218-196.499-27.266
							c-113.591-32.93-265.176-111.235-342.244-297.314c-2.483-5.996-1.748-12.847,1.956-18.179l233.601-336.521
							c3.843-5.537,10.278-8.647,17.048-8.149c6.724,0.483,12.69,4.48,15.701,10.513c0.942,1.882,97.041,190.144,280.373,245.559
							c108.228,32.729,226.077,13.311,350.271-57.69c9.148-5.215,20.806-2.046,26.035,7.1s2.053,20.801-7.095,26.035
							c-133.772,76.475-261.807,96.992-380.571,60.991c-157.156-47.646-252.473-179.89-287.732-237.649l-210.271,302.912
							c72.444,165.249,209.961,235.708,313.552,265.737c187.852,54.458,385.071,16.289,475.256-47.271
							c8.616-6.064,20.52-4.009,26.589,4.604c6.069,8.613,4.009,20.518-4.607,26.587
							C1548.243,2471.806,1431.846,2505.776,1302.196,2505.776z"/>
					</g>
				</g>
			</g>
			<g>
				<g>
					<g>
						<path style="fill:#FFAD40;" d="M2491.97,2957.152c-45.115,238.53-259.481,359.889-483.099,373.712
							c-174.856,10.83-355.372-44.081-465.032-160.163c-168.271-178.176-231.4-654.636,31.674-1139.857l581.438-139.319
							c-4.408,79.51,1.959,149.17,15.673,211.646c29.769,135.672,94.149,237.604,158.204,332.896
							c82.611,122.884,164.625,234.829,171.155,394.011C2503.617,2869.261,2500.624,2911.329,2491.97,2957.152z"/>
					</g>
				</g>
			</g>
			<g>
				<g>
					<g>
						<path style="fill:#FFAD40;" d="M2230.313,2267.578c-86.041,23.564-185.142,37.007-290.666,37.007
							c-177.141,0-336.27-37.878-445.82-98.068c22.639-58.068,49.741-116.789,81.687-175.673l581.438-139.319
							c-4.408,79.51,1.959,149.17,15.673,211.646C2185.958,2163.905,2206.203,2217.891,2230.313,2267.578z"/>
					</g>
				</g>
			</g>
			<g>
				<g>
					<g>
						<path style="fill:#FF9343;" d="M2230.313,2267.578c-86.041,23.564-185.142,37.007-290.666,37.007
							c-177.141,0-336.27-37.878-445.82-98.068c22.639-58.068,49.741-116.789,81.687-175.673l581.438-139.319
							c-4.408,79.51,1.959,149.17,15.673,211.646C2185.958,2163.905,2206.203,2217.891,2230.313,2267.578z"/>
					</g>
				</g>
			</g>
			<g>
				<g>
					<g>
						<path style="fill:#F9D3B7;" d="M2172.625,2103.171c-44.244,26.067-136.435,90.938-182.584,200.379
							c-16.598,0.708-33.414,1.034-50.394,1.034c-177.141,0-336.324-37.878-445.875-98.122
							c22.693-58.068,49.85-116.788,81.741-175.618l581.438-139.319C2152.544,1971.035,2158.911,2040.695,2172.625,2103.171z"/>
					</g>
				</g>
			</g>
			<g>
				<g>
					<g>
						<path style="fill:#FF9343;" d="M2319.673,2237.592c-62.585,25.36-135.781,44.571-215.836,55.782l-54.258-168.325
							C2049.579,2125.048,2178.177,2162.49,2319.673,2237.592z"/>
					</g>
				</g>
			</g>
			<g>
				<g>
					<g>
						<path style="fill:#FF9343;" d="M2194.503,2857.56c0,0,93.605-190.856-20.68-347.046
							c15.293-53.115,80.544-71.945,157.006-74.448c82.611,122.884,164.625,234.829,171.155,394.011
							C2373.495,2843.411,2194.503,2857.56,2194.503,2857.56z"/>
					</g>
				</g>
			</g>
			<g>
				<g>
					<g>
						<path style="fill:#FFF3E9;" d="M2184.055,3089.287c-15.347,58.612-43.592,112.217-81.306,157.713
							c-26.885,32.49-58.612,60.788-93.877,83.864c-174.856,10.83-355.372-44.081-465.032-160.163
							c-81.469-86.204-138.23-242.284-145.305-435.481c-7.673-205.93,41.197-453.983,176.979-704.376l581.438-139.319
							c-4.408,79.51,1.959,149.17,15.673,211.646c-53.659,31.618-177.685,120.217-204.95,276.134
							C1915.157,2679.548,2255.727,2815.274,2184.055,3089.287z"/>
					</g>
				</g>
			</g>
			<g>
				<g>
					<g>
						<path style="fill:#F9D3B7;" d="M2172.625,2103.171c-44.244,26.067-136.435,90.938-182.584,200.379
							c-16.598,0.708-33.414,1.034-50.394,1.034c-177.141,0-336.324-37.878-445.875-98.122
							c22.693-58.068,49.85-116.788,81.741-175.618l581.438-139.319C2152.544,1971.035,2158.911,2040.695,2172.625,2103.171z"/>
					</g>
				</g>
			</g>
			<g>
				<g>
					<g>
						<path style="fill:#F9D3B7;" d="M2102.749,3247c-26.885,32.49-58.612,60.788-93.877,83.864
							c-174.856,10.83-355.372-44.081-465.032-160.163c-81.469-86.204-138.23-242.284-145.305-435.481
							c27.701,48.87,73.469,92.245,148.897,102.476c145.415,19.7,248.434-168.434,550.201-16.163
							C2148.572,2847.275,2127.728,3071.219,2102.749,3247z"/>
					</g>
				</g>
			</g>
			<g>
				<g>
					<g>
						<path style="fill:#080808;" d="M1583.914,2035.386c-119.957,260.933-203.907,552.025-150.169,839.913
							c20.047,103.671,55.795,208.576,129.187,285.505c125.816,126.606,318.643,167.088,491.791,145.289
							c207.277-25.776,391.932-155.91,421.555-372.469c19.663-116.782-3.878-229.394-62.258-331.939
							c-53.462-96.122-122.46-181.001-176.271-278.528c-36.367-65.112-65.443-135.42-82.202-208.884
							c-16.893-73.435-21.746-149.17-17.654-223.804c0.577-10.522,9.575-18.584,20.098-18.008s18.584,9.575,18.008,20.098
							c-9.413,143.83,23.276,286.959,95.112,412.065c88.326,159.11,230.229,302.819,247.752,493.023
							c28.366,303.266-165.438,508.612-458.798,548.529c-185.675,24.032-391.304-20.572-526.552-156.731
							c-128.989-138.083-158.978-348.483-155.061-529.991c8.911-221.783,68.932-445.279,188.685-633.163
							C1573.868,2016.85,1588.38,2024.418,1583.914,2035.386L1583.914,2035.386z"/>
					</g>
				</g>
			</g>
			<g>
				<g>
					<g>
						<path style="fill:#FFF3E9;" d="M1131,2010.164c0,0,0,0,0,0.054c-13.878,61.605-48.925,121.197-83.483,147.374
							c-61.932,46.91-182.639,30.748-182.639,30.748l-23.564,91.918c-48.435-68.081-91.047-135.455-68.19-239.781
							c5.55-25.47,15.02-53.17,29.333-83.646c53.715-114.611,178.666-183.781,287.944-103.836
							C1137.802,1887.607,1144.551,1949.865,1131,2010.164z"/>
					</g>
				</g>
			</g>
			<g>
				<g>
					<g>
						<path style="fill:#F9D3B7;" d="M1131,2010.219c-13.878,61.605-48.925,121.197-83.483,147.374
							c-61.932,46.91-182.639,30.748-182.639,30.748l-23.564,91.918c-48.435-68.081-91.047-135.455-68.19-239.781
							c12.516,34.72,44.298,74.23,122.067,90.394C1009.749,2154.653,1093.177,2102.408,1131,2010.219z"/>
					</g>
				</g>
			</g>
			<g>
				<g>
					<g>
						<path style="fill:#080808;" d="M825.737,2291.301c-49.524-67.12-88.161-139.806-76.245-226.551
							c7.09-53.943,26.808-106.008,55.35-152.087c44.455-70.215,126.259-125.624,212.559-111.835
							c57.519,9.487,115.634,44.774,132.459,102.959c26.652,86.359-20.068,209.138-88.278,265.174
							c-33.882,26.026-78.303,33.368-118.693,34.816c-26.797,0.537-52.815-1.046-79.296-5.791c-5.296-0.977-8.798-6.062-7.82-11.36
							c0.913-4.992,5.495-8.363,10.413-7.954c36.898,1.574,75.014-0.218,110.978-8.664c34.681-7.384,65.206-24.278,85.202-53.908
							c46-62.729,89.984-197.287,11.344-250.028c-59.973-43.475-134.821-32.961-189.483,14.14
							c-37.01,30.755-62.371,74.013-78.625,118.976c-27.519,69.412-26.864,142.939,10.644,207.126
							c11.672,21.426,25.842,42.078,40.598,62.879C870.833,2290.016,841.011,2311.492,825.737,2291.301L825.737,2291.301z"/>
					</g>
				</g>
			</g>
			<g>
				<g>
					<g>
						<path style="fill:#FFAD40;" d="M1888.491,3452.169c-67.483,95.564-179.809,169.469-218.23,173.442
							c-18.884,1.958-120.053-383.291-120.053-383.291c-7.728-73.632,1.034-141.387,22.313-200.87
							c84.135-235.318,363.971-342.256,591.833-180.733l35.21-23.891l263.237-178.502
							C2621.984,3000.307,2454.475,3549.475,1888.491,3452.169z"/>
					</g>
				</g>
			</g>
			<g>
				<g>
					<g>
						<path style="fill:#FF9343;" d="M1888.491,3452.169c-67.483,95.564-179.809,169.469-218.23,173.442
							c-18.884,1.958-120.053-383.291-120.053-383.291c-7.728-73.632,1.034-141.387,22.313-200.87
							c57.959,28.354,145.85,97.306,203.374,263.291c68.843,198.584,237.222-105.36,237.222-105.36s107.428,202.176,297.957,68.843
							c213.387-149.278-80.598-238.529-98.23-294.801c-14.803-47.401-17.252-94.204-13.279-136.598l263.237-178.502
							C2621.984,3000.307,2454.475,3549.475,1888.491,3452.169z"/>
					</g>
				</g>
			</g>
			<g>
				<g>
					<g>
						<path style="fill:#080808;" d="M2480.073,2650.251c133.516,284.487,40.454,697.677-281.151,803.622
							c-100.958,34.374-209.599,34.806-313.642,17.081c0,0,18.818-7.798,18.818-7.798c-17.282,24.419-36.791,46.863-57.682,67.744
							c-43.035,41.905-88.419,78.849-143.88,104.669c-8.752,3.813-19.435,7.719-30.171,9.008c-6.55,0.561-12.334-1.599-16.809-5.664
							c-5.765-5.155-9.302-12.978-12.121-18.84c-27.931-67.642-45.777-137.647-66.318-207.014
							c-15.679-56.167-31.626-112.205-45.901-168.755c-19.202-161.615,46.887-330.909,188.557-417.76
							c139.388-88.624,321.17-74.117,450.121,26.398c4.196,3.189,5.01,9.178,1.817,13.375c-3.054,4.014-8.698,4.912-12.852,2.19
							c-62.942-41.509-135.875-67.244-209.912-69.143c-239.796-5.645-407.504,209.537-379.776,440.948
							c26.147,94.366,59.387,222.541,94.282,325.514c5.589,15.625,10.79,31.804,18.296,45.31c0.169,0.256,0.365,0.508,0.116,0.193
							c-0.05-0.046-0.416-0.483-0.858-0.85c-1.275-1.197-2.292-1.712-4.054-2.552c-1.724-0.705-2.886-1.108-5.83-1.377
							c-0.647-0.037-1.297-0.034-1.937,0.005c-0.883,0.068-0.986,0.095-0.815,0.068l0.186-0.034
							c31.955-7.698,60.388-28.736,88.123-48.365c44.144-33.256,84.542-72.565,116.246-117.084c4.404-6.18,11.803-8.98,18.82-7.798
							c145.045,25.992,306.164,9.356,423.962-85.363c118.001-92.754,177.385-242.934,184.401-390.895
							c4.673-99.522-13.009-200.726-54.68-290.828C2435.417,2643.589,2468.611,2627.353,2480.073,2650.251L2480.073,2650.251z"/>
					</g>
				</g>
			</g>
			<g>
				<g>
					<g>
						<path style="fill:#FFF3E9;" d="M1756.782,3526.264c2.842,78.763-105.821,132.901-196.589,99.293
							c-140.374-51.975-286.073-342.043-215.873-513.6c46.183-112.865,187.244-131.917,264.208-19.053
							c47.164,69.164,84.369,155.034,106.73,258.126"/>
					</g>
				</g>
			</g>
			<g>
				<g>
					<g>
						<path style="fill:#FFAD40;" d="M2662.092,2691.629c-11.21,83.918-54.91,168.761-136.163,237.387
							c-24.381,20.571-52.189,39.727-83.536,56.925c-127.129,69.877-239.345,19.918-248.108-101.551
							c-0.979-13.986-0.218-27.7,1.905-41.142c10.394-65.142,53.496-122.884,85.605-163.155
							c9.633-12.082,18.285-22.586,24.816-31.238c-1.687-2.069-3.701-4.354-5.932-6.912
							c-29.442-33.524-102.204-106.721-121.904-126.421c-3.156-3.211-4.953-5.008-4.953-5.008l-124.244-385.466
							c0,0,375.834,109.495,549.493,329.412C2650.772,2519.984,2673.63,2605.263,2662.092,2691.629z"/>
					</g>
				</g>
			</g>
			<g>
				<g>
					<g>
						<path style="fill:#FF9343;" d="M2319.673,2237.592c-62.585,25.36-135.781,44.571-215.836,55.782l-54.258-168.325
							C2049.579,2125.048,2178.177,2162.49,2319.673,2237.592z"/>
					</g>
				</g>
			</g>
			<g>
				<g>
					<g>
						<path style="fill:#FF9343;" d="M2662.092,2691.629c-11.21,83.918-54.91,168.761-136.163,237.387
							c-24.381,20.571-52.189,39.727-83.536,56.925c-127.129,69.877-239.345,19.918-248.108-101.551
							c-0.979-13.986-0.218-27.7,1.905-41.142c15.891,36.571,50.395,89.904,121.033,110.802
							C2418.175,2983.873,2588.732,2864.037,2662.092,2691.629z"/>
					</g>
				</g>
			</g>
			<g>
				<g>
					<g>
						<path style="fill:#F9D3B7;" d="M2525.929,2929.016c-24.381,20.571-52.189,39.727-83.536,56.925
							c-127.129,69.877-239.345,19.918-248.108-101.551c-0.653-9.034-0.544-17.904,0.163-26.721
							c0.381-4.734,0.925-9.36,1.687-13.986c0-0.109,0-0.218,0.054-0.381c15.945,36.571,50.449,89.85,121.033,110.747
							c57.414,16.98,137.305-14.476,209.032-76.407C2527.889,2896.309,2527.344,2913.778,2525.929,2929.016z"/>
					</g>
				</g>
			</g>
			<g>
				<g>
					<g>
						<path style="fill:#FF9343;" d="M2371.264,2564.066c0,0-34.829,38.639-70.584,77.877
							c-29.442-33.524-102.204-106.721-121.904-126.421L2371.264,2564.066z"/>
					</g>
				</g>
			</g>
			<g>
				<g>
					<g>
						<path style="fill:#FFF3E9;" d="M2525.929,2929.016c-24.381,20.571-52.189,39.727-83.536,56.925
							c-127.129,69.877-239.345,19.918-248.108-101.551c-5.877-81.795,48.761-155.7,87.51-204.298
							c47.728,2.667,165.604,17.633,214.365,99.971C2526.964,2832.037,2529.739,2888.526,2525.929,2929.016z"/>
					</g>
				</g>
			</g>
			<g>
				<g>
					<g>
						<path style="fill:#FFF3E9;" d="M2525.929,2929.016c-24.381,20.571-52.189,39.727-83.536,56.925
							c-127.129,69.877-239.345,19.918-248.108-101.551c-5.877-81.795,48.761-155.7,87.51-204.298
							c47.728,2.667,165.604,17.633,214.365,99.971C2526.964,2832.037,2529.739,2888.526,2525.929,2929.016z"/>
					</g>
				</g>
			</g>
			<g>
				<g>
					<g>
						<path style="fill:#F9D3B7;" d="M2525.929,2929.016c-24.381,20.571-52.189,39.727-83.536,56.925
							c-127.129,69.877-239.345,19.918-248.108-101.551c-0.653-9.034-0.544-17.904,0.163-26.721c0.381-4.68,0.925-9.36,1.687-13.986
							c0-0.109,0-0.218,0.054-0.381c15.945,36.571,50.449,89.85,121.033,110.747c57.414,16.98,137.305-14.476,209.032-76.407
							C2527.889,2896.309,2527.344,2913.778,2525.929,2929.016z"/>
					</g>
				</g>
			</g>
			<g>
				<g>
					<g>
						<path style="fill:#080808;" d="M2054.929,2106.748c200.21,63.298,484.61,197.098,591.304,385.569
							c81.063,152.284,25.141,339.726-102.968,446.876c-47.1,39.442-99.472,74.74-159.622,90.734
							c-125.331,32.885-220.713-52.467-207.544-180.153c9.982-84.399,65.163-149.427,115.266-212.37c0,0,0.549,23.623,0.549,23.623
							c-19.037-18.397-44.94-49.993-62.804-70.528c-20.944-24.141-41.763-48.485-62.192-73.105
							c-3.463-4.148-2.906-10.317,1.243-13.779c3.678-3.069,8.964-2.961,12.523-0.015c24.743,20.558,48.848,41.723,72.552,63.44
							c21.285,20.301,51.092,45.366,68.089,69.666c5.952,6.776,6.485,16.96,0.549,23.625
							c-45.799,57.93-99.064,119.027-107.854,193.723c-10.229,100.972,60.763,165.239,160.243,138.878
							c83.639-23.427,170.817-94.02,217.526-166.629c72.2-107.656,74.26-260.701-9.524-362.245
							c-110.592-134.009-270.336-217.05-429.019-282.031c-36.03-14.258-72.982-27.695-109.435-38.778
							C2020.217,2135.476,2030.205,2100.14,2054.929,2106.748L2054.929,2106.748z"/>
					</g>
				</g>
			</g>
			<g>
				<g>
					<g>
						<path style="fill:#FFAD40;" d="M2154.667,853.479l-370.576,44.417l-501.515,60.057
							c-60.449-153.084-15.037-543.361,113.914-649.705c38.932-32.077,85.443-38.273,138.988-4.273
							C1670.232,389.578,1835.72,699.212,2154.667,853.479z"/>
					</g>
				</g>
			</g>
			<g style="opacity:0.5;">
				<g>
					<g>
						<path style="fill:#FFFFFF;" d="M2154.667,853.479l-66.572,7.999c-286.821-160.727-441.93-442.567-569.504-523.591
							c-53.544-34-100.056-27.804-138.987,4.273c-20.321,16.769-38.593,40.661-54.741,69.506
							c19.825-44.219,43.758-80.427,71.627-103.418c38.932-32.077,85.443-38.273,138.988-4.273
							C1670.232,389.578,1835.72,699.212,2154.667,853.479z"/>
					</g>
				</g>
			</g>
			<g>
				<g>
					<g>
						<path style="fill:#FF9343;" d="M1784.091,897.896l-501.515,60.057c-60.449-153.084-15.037-543.361,113.914-649.705
							c22.297-1.965,46.802,6.686,70.102,36.756C1526.232,421.882,1623.523,772.405,1784.091,897.896z"/>
					</g>
				</g>
			</g>
			<g>
				<g>
					<g>
						<path style="fill:#080808;" d="M1282.564,977.792c-7.898,0-15.364-4.753-18.44-12.546
							c-30.754-77.913-36.582-213.005-15.207-352.561c23.201-151.482,72.358-267.974,134.863-319.602
							c48.774-40.288,104.9-42.307,162.307-5.835c51.377,32.642,105.996,95.146,169.241,167.52
							c110.735,126.719,248.55,284.424,447.969,380.896c9.854,4.766,13.977,16.616,9.209,26.47
							c-4.766,9.853-16.616,13.982-26.47,9.209c-206.692-99.988-347.451-261.065-460.554-390.493
							c-61.226-70.064-114.102-130.571-160.65-160.144c-42.698-27.126-80.576-26.167-115.81,2.937
							c-54.292,44.846-99.497,155.142-120.925,295.044c-20.063,131.008-15.002,261.328,12.898,332.004
							c4.019,10.181-0.976,21.692-11.157,25.713C1287.447,977.346,1284.986,977.792,1282.564,977.792z"/>
					</g>
				</g>
			</g>
			<g>
				<g>
					<g>
						<path style="fill:#FFF3E9;" d="M1662.862,631.125l-358.474,239.858c0.436-5.525-1.237-88.567,9.34-179.828
							c4.611-40.1,11.617-81.753,22.2-119.11c27.053-95.425,60.104-157.166,85.037-181.548c7.069-6.888,13.468-10.783,18.899-11.612
							C1482.78,372.31,1534.296,476.201,1662.862,631.125z"/>
					</g>
				</g>
			</g>
			<g style="opacity:0.2;">
				<g>
					<g>
						<path style="fill:#080808;" d="M1662.862,631.125l-358.474,239.858c0.436-5.525-1.237-88.567,9.34-179.828
							c16.056-3.134,36.055-10.308,57.183-25.659c30.762-22.279,89.667-76.519,98.908-139.798
							c4.913-33.502-19.24-89.551-48.854-135.201c7.069-6.888,13.468-10.783,18.899-11.612
							C1482.78,372.31,1534.296,476.201,1662.862,631.125z"/>
					</g>
				</g>
			</g>
			<g>
				<g>
					<g>
						<path style="fill:#080808;" d="M1304.4,885.61c-2.549,0-5.103-0.667-7.388-2.004c-4.8-2.813-7.585-8.105-7.193-13.647
							c0.054-1.096,0.054-3.833,0.071-7.981c0.523-121.985,11.282-220.874,31.975-293.921
							c32.922-116.213,79.458-198.04,115.798-203.608c36.641-5.62,69.014,38.005,127.754,117.192
							c28.589,38.54,64.167,86.504,108.682,140.151c2.642,3.184,3.811,7.339,3.218,11.433c-0.596,4.097-2.898,7.747-6.338,10.046
							l-358.452,239.868C1310.074,884.782,1307.24,885.61,1304.4,885.61z M1443.826,393.215c-0.593,0-1.17,0.042-1.733,0.129
							c-10.811,1.655-54.47,49.846-92.102,182.681c-13.147,46.404-28.83,129.929-30.701,267.417l322.014-215.486
							c-40.234-49.187-72.795-93.081-99.363-128.899C1498.228,440.124,1463.431,393.215,1443.826,393.215z"/>
					</g>
				</g>
			</g>
			<g>
				<g>
					<g>
						<path style="fill:#080808;" d="M1527.923,736.047c-2.859,0-5.718-0.837-8.191-2.51
							c-48.747-32.981-76.184-62.864-81.545-88.818c-5.447-26.472,2.996-42.039,11.035-50.437
							c12.419-12.971,31.223-17.18,48.704-17.739c-6.375-11.855-11.411-26.428-8.772-40.935c1.582-8.689,6.699-21.033,22.1-30.486
							c19.011-11.685,44.793-8.726,76.626,8.789c1.816,0.999,3.401,2.375,4.646,4.033c18.45,24.595,46.98,62.119,81.587,103.85
							c2.641,3.186,3.809,7.339,3.213,11.433c-0.593,4.094-2.896,7.744-6.333,10.044l-134.939,90.305
							C1533.592,735.224,1530.757,736.047,1527.923,736.047z M1502.105,605.69c-14.785,0-26.257,3.052-31.768,8.806
							c-4.656,4.863-5.84,13.047-3.521,24.319c3.359,16.262,25.52,39.688,61.24,64.939l113.262-75.801
							c-29.226-35.754-53.511-67.617-70.247-89.893c-20.037-10.549-35.776-13.403-44.517-8.032
							c-6.736,4.133-8.157,8.152-8.643,10.813c-1.641,9.021,4.419,22.473,18.01,39.98c3.12,4.018,8.345,10.745,3.721,19.316
							c-2.749,5.095-8.323,8.113-14.08,7.656c-0.254-0.019-0.989-0.1-2.144-0.286C1515.821,606.286,1508.638,605.69,1502.105,605.69
							z"/>
					</g>
				</g>
			</g>
			<g>
				<g>
					<g>
						<path style="fill:#FFAD40;" d="M2665.582,1251.302l-169.682-175.472l-375.083-387.842
							c195.93-235.412,478.17-328.755,566.029-283.589c12.268,6.285,23.297,18.467,32.718,36.323
							C2773.266,542.03,2776.471,825.819,2665.582,1251.302z"/>
					</g>
				</g>
			</g>
			<g style="opacity:0.5;">
				<g>
					<g>
						<path style="fill:#FFFFFF;" d="M2744.416,518.581c-4.945-17.6-10.68-32.555-17.207-44.817
							c-9.421-17.857-20.45-30.038-32.718-36.323c-86.185-44.308-359.38,44.672-554.63,270.227l-19.043-19.678
							c195.93-235.412,478.17-328.755,566.029-283.589c12.268,6.285,23.297,18.467,32.718,36.323
							C2729.833,460.096,2738.271,486.142,2744.416,518.581z"/>
					</g>
				</g>
			</g>
			<g>
				<g>
					<g>
						<path style="fill:#FF9343;" d="M2665.582,1251.302l-169.682-175.472c-17.538-82.938-31.261-206.91,5.727-319.826
							c55.688-169.842,122.988-347.76,217.937-315.282C2773.266,542.03,2776.471,825.819,2665.582,1251.302z"/>
					</g>
				</g>
			</g>
			<g>
				<g>
					<g>
						<path style="fill:#080808;" d="M2665.604,1271.113c-1.655,0-3.337-0.21-5.015-0.647
							c-10.591-2.761-16.938-13.584-14.177-24.177c131.787-505.586,96.631-790.745,31.377-824.275
							c-76.221-39.17-350.908,49.39-541.724,278.633c-7.002,8.418-19.497,9.558-27.91,2.554c-8.413-7.002-9.556-19.497-2.554-27.91
							c200.166-240.474,491.545-339.27,590.303-288.53c50.596,25.996,78.899,121.545,79.695,269.045
							c0.608,112.634-14.656,308.242-90.833,600.483C2682.442,1265.202,2674.405,1271.11,2665.604,1271.113z"/>
					</g>
				</g>
			</g>
			<g>
				<g>
					<g>
						<g>
							<path style="fill:#FFAD40;" d="M970.358,1588.007c1.317,17.623,3.815,35.047,7.504,52.207
								c46.492,220.259,281.259,398.843,685.311,490.647l246.882,34.929c405.627,31.603,741.229-37.297,848.437-303.965
								c19.855-49.402,35.709-109.142,45.519-175.597c37.447-250.894-9.592-597.052-240.139-839.422
								c-244.049-256.585-622.623-270.47-704.912-274.134c-495.315-22.193-646.705,313.149-785.321,717.375
								c-0.023,0.131-11.321,11.987-26.469,33.554c-6.354,9.007-13.354,19.791-20.484,32.101
								C996.063,1408.491,962.942,1489.969,970.358,1588.007z"/>
						</g>
					</g>
				</g>
			</g>
			<g>
				<g>
					<g>
						<g>
							<path style="fill:#FFF3E9;" d="M970.358,1588.007c18.412,244.094,257.309,443.892,692.814,542.854l246.882,34.929
								c405.627,31.603,741.229-37.297,848.437-303.965c19.855-49.402,35.709-109.142,45.519-175.597
								c-54.749-39.123-144.867-87.603-290.263-116.909c-278.866-56.208-337.625,88.513-459.22,50.981
								c-119.099-36.763-124.21-182.975-338.63-188.915c-137.635-3.813-179.036,85.142-234.648,89.411
								c-143.053,10.982-214.901-188.702-434.079-197.196C1013.7,1371.444,961.193,1467.079,970.358,1588.007z"/>
						</g>
					</g>
				</g>
			</g>
			<g>
				<g>
					<g>
						<g>
							<path style="fill:#F9D3B7;" d="M2804.031,1686.239c-9.828,66.423-25.706,126.182-45.553,175.572
								c-107.217,266.673-442.791,335.604-848.416,303.97l-246.894-34.931c-360.52-81.934-586.277-232.917-663.744-420.941
								c111.894,147.47,325.099,265.121,631.808,334.837l257.367,36.385c422.925,32.95,772.794-38.867,884.579-316.879
								c9.92-24.647,18.876-51.787,26.597-81.055C2801.24,1684.231,2802.658,1685.261,2804.031,1686.239z"/>
						</g>
					</g>
				</g>
			</g>
			<g>
				<g>
					<g>
						<path style="fill:#FF8080;" d="M1828.185,1645.48c-47.427,54.613-14.974,205.296-108.16,219.754
							c-55.99,8.688-95.476-33.777-105.331-92.131c-3.254-18.82-3.381-39.28,0.058-60.232c3.326-20.719,10.074-41.942,20.729-62.422
							L1828.185,1645.48z"/>
					</g>
				</g>
			</g>
			<g style="opacity:0.2;">
				<g>
					<g>
						<path style="fill:#080808;" d="M1828.185,1645.48c-47.427,54.613-14.974,205.296-108.16,219.754
							c-55.99,8.688-95.476-33.777-105.331-92.131c14.394,23.469,48.914,68.201,97.34,56.742
							c55.27-13.047,50.311-76.478,50.311-76.478s-53.65-9.353-60.972-44.641c0,0-51.573,18.27-86.621,4.146
							c3.326-20.719,10.074-41.942,20.729-62.422L1828.185,1645.48z"/>
					</g>
				</g>
			</g>
			<g>
				<g>
					<g>
						<path style="fill:#080808;" d="M1747.078,1628.36c0,0-41.122,43.714-47.68,153.925c0,0-22.181-82.823,2.281-137.969
							C1727.568,1585.951,1747.078,1628.36,1747.078,1628.36z"/>
					</g>
				</g>
			</g>
			<g>
				<g>
					<g>
						<path style="fill:#080808;" d="M1705.999,1883.383c-32.773,0.002-62.283-15.452-82.693-43.857
							c-36.516-50.818-37.708-129.956-2.966-196.922c4.338-8.357,14.631-11.616,22.988-7.285
							c8.362,4.338,11.621,14.629,7.285,22.988c-28.521,54.973-28.359,121.309,0.388,161.318
							c11.516,16.03,32.383,34.023,66.418,28.755c41.482-6.433,51.318-46.26,62.588-111.084
							c6.665-38.333,13.557-77.974,35.293-103.018c6.174-7.107,16.943-7.873,24.055-1.702c7.112,6.172,7.874,16.943,1.702,24.055
							c-15.518,17.881-21.582,52.769-27.449,86.506c-10.454,60.134-22.305,128.293-90.959,138.943
							C1717.027,1882.953,1711.465,1883.383,1705.999,1883.383z"/>
					</g>
				</g>
			</g>
			<g>
				<g>
					<g>
						<path style="fill:#FFF3E9;" d="M1562.373,1595.337c0,0-21.841,45.416,17.834,73.148
							c49.386,34.519,106.938-5.77,121.472-24.168c3.381-4.28,12.275-2.893,13.373,2.45c5.975,29.088,38.314,90.389,109.099,78.917
							c27.816-4.508,57.844-31.377,51.43-65.537l-105.714-177.991L1562.373,1595.337z"/>
					</g>
				</g>
			</g>
			<g>
				<g>
					<g>
						<path style="fill:#F9D3B7;" d="M1870.394,1693.126c-9.435,17.436-28.341,29.661-46.262,32.539
							c-70.74,11.477-103.107-49.785-109.089-78.933c-1.092-5.33-9.958-6.702-13.386-2.396
							c-14.491,18.405-72.068,58.668-121.421,24.168c-18.002-12.535-23.349-28.729-23.816-42.682
							c62.424,26.433,125.918-4.337,136.764-45.354c1.901-7.187,67.937-21.063,66.218-13.826
							c-16.795,70.683,14.11,142.234,110.722,126.54C1870.19,1693.186,1870.325,1693.124,1870.394,1693.126z"/>
					</g>
				</g>
			</g>
			<g>
				<g>
					<g>
						<path style="fill:#080808;" d="M1885.157,1658.347c13.357,40.174-23.26,81.885-62.733,86.608
							c-5.35,0.936-12.189,1.836-17.546,1.651c-54.308,2.652-98.411-48.064-109.059-95.255c2.334,9.928,14.037,13.999,21,5.938
							c0.174-0.183,0.685-0.854,0.379-0.473l-1.638,1.946c-31.501,35.361-85.809,56.349-130.584,34.214
							c-19.701-9.139-37.219-27.475-41.631-49.883c-2.387-12.223-1.201-24.675,2.669-36.108c3.094-8.352,8.878-25.71,20.975-18.958
							c8.436,5.48,2.249,15.628,2.839,23.928c-1.278,19.413,7.722,36.08,25.758,43.828c30.166,15.276,69.2-1.215,91.399-24.916
							c12.35-13.622,35.498-11.342,44.712,4.709c1.816,3.022,2.602,6.701,3.402,10.108c1.833,7.393,5.149,15.337,9.221,22.49
							c16.046,28.44,44.606,41.861,76.518,38.989c22.993-2.129,45.585-21.181,45.181-45.912
							C1866.219,1650.354,1881.801,1648.135,1885.157,1658.347L1885.157,1658.347z"/>
					</g>
				</g>
			</g>
			<g>
				<g>
					<g>
						<path style="fill:#080808;" d="M1617.1,1469.808c-6.467,35.943,27.888,74.905,55.251,99.544
							c18.946,17.06,45.979,21.924,69.683,12.537c34.235-13.557,80.015-38.102,86.482-74.044
							C1839.019,1449.464,1627.604,1411.427,1617.1,1469.808z"/>
					</g>
				</g>
			</g>
			<g style="opacity:0.35;">
				<g>
					<g>
						<path style="fill:#FFFFFF;" d="M1669.516,1466.186c-1.196,6.649,12.571,15.19,23.33,20.773
							c7.45,3.866,17.451,5.665,25.781,4.638c12.031-1.483,27.911-4.69,29.107-11.339
							C1749.677,1469.459,1671.459,1455.386,1669.516,1466.186z"/>
					</g>
				</g>
			</g>
			<g>
				<g>
					<g>
						<path style="fill:#080808;" d="M1697.579,1655.395c-3.086-6.245-17.305-41.929,5.679-131.26
							c2.683-10.42,13.325-16.682,23.731-14.019c10.422,2.683,16.699,13.306,14.019,23.731
							c-19.543,75.959-8.318,104.609-8.201,104.89l-0.281-0.598L1697.579,1655.395z"/>
					</g>
				</g>
			</g>
			<g>
				<g>
					<g>
						<path style="fill:#FF8080;" d="M970.358,1588.007c1.317,17.623,3.815,35.047,7.504,52.207
							c23.384,10.137,49.198,17.932,76.748,22.725c126.427,21.996,240.766-27.959,255.305-111.525
							c14.539-83.566-76.21-169.2-202.637-191.196c-27.746-4.827-54.949-6.189-80.59-4.516
							C996.063,1408.491,962.942,1489.969,970.358,1588.007z"/>
					</g>
				</g>
			</g>
			<g>
				<g>
					<g>
						
							<ellipse transform="matrix(0.1714 -0.9852 0.9852 0.1714 269.4097 3796.9348)" style="fill:#FF8080;" cx="2391.989" cy="1738.303" rx="153.609" ry="232.435"/>
					</g>
				</g>
			</g>
			<g>
				<g>
					<g>
						<g>
							<path style="fill:#080808;" d="M2682.173,987.173c135.512,207.25,178.683,468.02,140.083,710.959
								c-0.001,0-2.417,14.678-2.417,14.678c-0.468,4.963-3.845,9.387-4.159,14.365c-11.518,59.05-25.484,116.783-52.209,171.785
								c-70.3,149.373-230.151,232.457-384.999,264.182c-154.363,32.955-313.719,33.096-469.044,10.679
								c-4.405-0.65-7.448-4.749-6.797-9.153c0.596-4.031,4.086-6.919,8.046-6.885c153.848,0.813,309.316,1.698,459.639-31.418
								c232.948-54.009,365.353-166.74,409.303-406.041c1.46-4.577-0.145-9.709,1.159-14.301l2.235-14.102
								c13.147-84.807,15.147-171.216,8.694-256.855c-11.146-152.287-51.504-303.091-125.249-438.438
								c-2.424-4.451-0.782-10.027,3.669-12.451C2674.335,981.885,2679.567,983.259,2682.173,987.173L2682.173,987.173z"/>
						</g>
					</g>
				</g>
				<g>
					<g>
						<g>
							<path style="fill:#080808;" d="M1661.118,2139.8c-246.94-41.835-551.183-162.512-669.37-398.839
								c-76.826-153.149-45.008-335.943,66.037-463.557c-0.002,0,0.449-0.5,0.449-0.5c0.817-0.898-1.509,1.477-2.719,3.953
								c-1.262,2.422-1.953,5.2-2.064,7.651l0.961-4.802c19.991-60.723,41.011-121.343,64.82-181.121
								c71.367-179.228,172.693-360.465,342.977-462.813c170.131-104.15,380.158-100.519,570.18-65.72
								c63.42,11.503,125.872,28.335,186.214,50.901c11.215,4.799,6.513,21.367-6,18.537c-30.428-8.72-61.178-16.084-92.066-22.588
								c-91.979-20.294-187.277-27.718-281.36-29.506c-462.921-19.599-625.017,339.863-745.318,700.207
								c0.215,3.787-4.112,11.52-5.607,12.521c0,0-0.376,0.418-0.376,0.418l-0.748,0.835l-1.482,1.68
								c-98.551,115.566-126.578,279.031-58.484,416.782c44.179,91.968,121.603,164.402,206.792,219.665
								c131.729,84.718,281.01,134.208,431.229,178.406c4.871,1.42,7.669,6.521,6.249,11.394
								C1670.116,2137.815,1665.638,2140.544,1661.118,2139.8L1661.118,2139.8z"/>
						</g>
					</g>
				</g>
			</g>
			<g>
				<g>
					<g>
						<path style="fill:#FFF3E9;" d="M2162.508,1212.086c11.674-32.145-77.763-158.341-146.675-141.47
							c-68.912,16.87-70.425,89.931-34.694,116.949C2033.039,1226.811,2150.834,1244.231,2162.508,1212.086z"/>
					</g>
				</g>
			</g>
			<g>
				<g>
					<g>
						<path style="fill:#FFF3E9;" d="M1435.505,1114.939c-0.788-34.189,114.37-124.954,169.672-86.838
							c55.302,38.116,35.22,107.786-3.932,121.891C1544.375,1170.479,1436.293,1149.128,1435.505,1114.939z"/>
					</g>
				</g>
			</g>
			<g>
				<g>
					<g>
						<path style="fill:#FFF3E9;" d="M2653.626,886.788c-6.418,20.089-13.952,38.397-22.735,54.142
							c-153.17-181.325-273.567-160.214-260.948-254.07c13.713-101.602,187.892-218.69,289.219-210.703
							c6.293,0.496,11.864,12.635,16.353,32.954C2691.707,583.386,2692.344,766.66,2653.626,886.788z"/>
					</g>
				</g>
			</g>
			<g style="opacity:0.2;">
				<g>
					<g>
						<path style="fill:#080808;" d="M2653.626,886.788c-6.418,20.089-13.952,38.397-22.735,54.142
							c-153.17-181.325-273.567-160.214-260.948-254.07c13.713-101.602,187.892-218.69,289.219-210.703
							c6.293,0.496,11.864,12.635,16.353,32.954c-51.039,11.495-134.895,43.125-151.485,127.87
							C2502.238,748.484,2605.121,791.933,2653.626,886.788z"/>
					</g>
				</g>
			</g>
			<g>
				<g>
					<g>
						<path style="fill:#080808;" d="M2630.899,955.563c-4.277,0-8.372-1.88-11.162-5.186
							c-72.322-85.615-136.809-124.932-183.894-153.638c-51.199-31.213-88.188-53.765-80.361-111.831
							c6.821-50.61,50.852-109.094,117.778-156.443c64.043-45.31,135.71-70.986,187.039-66.895
							c8.091,0.637,14.773,5.774,19.863,15.266c28.513,53.174,35.889,341.143-36.489,471.216c-2.334,4.194-6.58,6.977-11.357,7.441
							C2631.842,955.539,2631.37,955.563,2630.899,955.563z M2648.907,490.366c-44.17,0-103.911,23.159-158.765,61.965
							c-60.422,42.747-99.932,93.767-105.691,136.484c-5.02,37.244,13.196,50.4,66.609,82.964
							c45.645,27.83,107.065,65.273,176.509,143.039c58.75-132.319,47.488-392.058,26.929-424.326
							C2652.664,490.407,2650.799,490.366,2648.907,490.366z M2658.004,490.712h0.049H2658.004z"/>
					</g>
				</g>
			</g>
			<g>
				<g>
					<g>
						<path style="fill:#080808;" d="M2517.522,751.829c-2.454,18.669-19.205,28.481-34.593,32.348
							c-6.179,1.848-10.024,3.305-12.297,5.032c0.096,0.185-0.044,0.083-0.134,0.19c0.101,0.273-0.142,0.188-0.198,0.61
							c0.039,1.807-1.249,4.684-1.587,6.294c-2.108,7.177-9.637,11.289-16.815,9.18c-25.436-14.631-52.118-29.485-74.166-50.531
							c-41.201-39.6-19.172-104.667,10.423-144c1.777-2.56,4.307-4.345,7.074-5.213c16.093-6.143,33.773-10.396,52.855-9.17
							c47.559,1.893,88.823,50.672,43.212,87.315c-15.555,11.131-32.426,15.72-50.925,16.111c0,0,0.896-13.694,0.896-13.694
							C2471.669,694.641,2521.333,712.414,2517.522,751.829L2517.522,751.829z M2488.599,747.588
							c0.75-16.674-19.717-28.86-32.607-37.417c-6.159-3.762-12.786-7.399-19.21-10.41c-3.64-1.704-5.209-6.038-3.503-9.678
							c0.867-1.983,2.597-3.117,4.398-4.018c13.475-6.696,27.435-14.075,36.205-22.788c15.268-14.889,5.367-24.005-9.993-31.46
							c-18.897-7.836-39.14-4.365-59.726,0.847c0,0,7.064-5.207,7.064-5.207c-21.545,30.255-43.425,77.681-13.184,107.69
							c18.769,18.115,42.639,30.262,65.321,44.641c0,0-21.607,12.434-21.607,12.434c-0.853-21.012,15.911-31.325,32.415-35.629
							c5.361-1.68,9.781-3.319,11.856-4.847C2488.026,750.139,2487.965,749.976,2488.599,747.588L2488.599,747.588z"/>
					</g>
				</g>
			</g>
			<g>
				<g>
					<g>
						<g>
							<path style="fill:#FF8080;" d="M1458.473,3477.804c23.301,42.957,92.656,112.539,137.624,81.645
								c40.996-28.164,16.255-112.008-6.39-153.614c-22.655-41.625-80.467-109.493-125.943-90.155
								C1413.813,3336.922,1434.949,3434.434,1458.473,3477.804z"/>
						</g>
					</g>
				</g>
				<g>
					<g>
						<g>
							<path style="fill:#FF8080;" d="M1502.839,3253.801c6.37,26.773,24.399,44.93,39.126,40.801
								c14.728-4.131,20.834-28.082,14.735-53.726c-6.099-25.645-22.312-44.169-37.31-41.167
								C1504.393,3202.71,1496.469,3227.028,1502.839,3253.801z"/>
						</g>
					</g>
				</g>
				<g>
					<g>
						<g>
							<path style="fill:#FF8080;" d="M1401.978,3204.383c7.393,40.051,32.031,68.19,52.667,63.278
								c20.637-4.912,29.888-39.255,22.898-77.105c-6.99-37.851-27.894-66.615-48.934-63.902
								C1407.57,3129.367,1394.585,3164.333,1401.978,3204.383z"/>
						</g>
					</g>
				</g>
				<g>
					<g>
						<g>
							<path style="fill:#FF8080;" d="M1358.075,3283.92c6.434,27.384,23.525,46.457,37.104,42.832
								c13.579-3.624,18.711-27.806,12.497-54.235c-6.213-26.429-21.594-45.855-35.393-43.186
								C1358.486,3232.001,1351.642,3256.536,1358.075,3283.92z"/>
						</g>
					</g>
				</g>
			</g>
			<g>
				<g>
					<g>
						<g>
							<path style="fill:#FFAD40;" d="M2357.305,2585.408c0,0-17.92,24.01-50.686,63.459"/>
						</g>
					</g>
				</g>
				<g>
					<g>
						<g>
							<path style="fill:#080808;" d="M2365.115,2591.238c-14.111,23.757-28.764,46.763-43.832,69.846
								c-14.539,20.804-45.401,0.653-32.147-21.035c9.891-11.208,21.536-20.852,31.917-31.653
								c9.632-9.538,19.276-19.236,28.55-28.925C2357.622,2571.166,2370.935,2581.382,2365.115,2591.238L2365.115,2591.238z"/>
						</g>
					</g>
				</g>
			</g>
			<g>
				<g>
					<g>
						<g>
							<path style="fill:#FFAD40;" d="M1950.053,3369.077c0,0-19.557,24.376-61.539,83.071"/>
						</g>
					</g>
				</g>
				<g>
					<g>
						<g>
							<path style="fill:#080808;" d="M1957.653,3375.176c-18.272,28.36-36.505,58.988-53.62,88.074
								c-13.458,21.429-45.199,2.875-33.053-19.388c11.413-14.56,24.199-28.068,36.281-42.112
								c10.365-11.554,24.566-27.622,35.192-38.771C1950.689,3354.398,1964.238,3365.356,1957.653,3375.176L1957.653,3375.176z"/>
						</g>
					</g>
				</g>
			</g>
			<g>
				<g>
					<g>
						<path style="fill:#080808;" d="M1766.316,3525.92c9.743,53.947-36.443,101.506-84.439,117.836
							c-87.524,31.671-166.791-3.486-226.676-68.357c-85.619-93.353-139.745-217.195-147.882-343.357
							c-2.694-65.066,9.199-135.689,56.501-185.348c79.434-81.757,201.754-56.745,261.283,35.153
							c53.275,79.653,88.488,172.426,99.479,267.162c1.207,11.375-14.987,14.892-18.621,4.131
							c-9.565-28.902-19.243-57.467-30.051-85.476c-21.654-55.503-47.055-109.662-80.653-158.772
							c-14.898-22.705-34.866-43.026-58.668-56.021c-46.335-26.5-107.958-18.329-144.872,20.863
							c-38.91,40.092-48.758,101.363-45.902,156.437c7.748,115.968,60.406,231.429,138.898,317.12
							c38.504,40.739,87.021,73.073,144.54,68.384c51.755-3.893,109.334-33.532,117.994-89.066
							C1748.427,3515.528,1764.446,3515.234,1766.316,3525.92L1766.316,3525.92z"/>
					</g>
				</g>
			</g>
			<g>
				<g>
					<g>
						<path style="fill:#080808;" d="M2583.593,3314.194c-8.659,59.148-32.906,116.697-74.931,159.91
							c-2.361,2.625-6.805,6.88-9.567,9.152c0,0-10.039,8.76-10.039,8.76c-7.959,6.943-20.038,6.121-26.982-1.838
							c-7.399-8.388-5.873-21.577,3.217-28.079c3.695-2.66,11.109-7.995,14.76-10.586c2.587-2.239,9.917-8.576,12.617-10.913
							c0,0,7.854-8.01,7.854-8.01c21.029-22.086,37.221-48.933,49.233-77.195c6.072-14.457,11.295-29.889,14.703-44.69
							C2567.438,3298.867,2584.947,3301.998,2583.593,3314.194L2583.593,3314.194z"/>
					</g>
				</g>
			</g>
			<g>
				<g>
					<g>
						<path style="fill:#080808;" d="M1003.099,2028.569c59.329-2.648,109.715,29.215,99.365,94.371
							c-4.342,25.479-41.494,20.347-38.739-5.375c4.972-17.488,6.498-34.709-7.368-48.088c-13.256-12.9-35.342-19.453-53.897-21.492
							C990.652,2046.604,991.275,2029.143,1003.099,2028.569L1003.099,2028.569z"/>
					</g>
				</g>
			</g>
			<g>
				<g>
					<g>
						<path style="fill:#080808;" d="M1038.715,1906.538c60.25-5.101,114.385,25.366,114.444,91.116
							c-0.224,25.826-37.694,26.694-39.078,0.87c2.342-19.736-0.356-38.796-16.299-52.026
							c-15.232-13.093-38.597-19.34-58.767-20.528C1027.042,1925.123,1026.805,1907.736,1038.715,1906.538L1038.715,1906.538z"/>
					</g>
				</g>
			</g>
			<g>
				<g>
					<g>
						<path style="fill:#080808;" d="M2295.524,2875.334c-16.855,21.288-39.945,36.023-65.211,45.301
							c-8.407,3.156-17.106,5.381-25.922,7.317c-10.574,2.319-21.028-4.37-23.348-14.944c-2.322-10.574,4.369-21.028,14.943-23.347
							c8.48-1.063,17.105-0.381,25.604-1.995c14.34-2.005,28.385-6.495,41.277-13.232c6.48-3.316,13.446-7.966,18.734-12.478
							C2290.451,2854.662,2302.431,2866.295,2295.524,2875.334L2295.524,2875.334z"/>
					</g>
				</g>
			</g>
			<g>
				<g>
					<g>
						<path style="fill:#080808;" d="M2359.932,2958.867c-8.743,16.557-21.149,29.581-36.374,40.2
							c-15.138,10.524-32.692,17.332-50.74,21.079c-10.527,2.6-21.169-3.825-23.768-14.353c-2.6-10.527,3.826-21.169,14.353-23.77
							c5.108-1.128,10.353-0.494,15.543-1.052c17.426-1.458,34.42-7.362,48.699-17.71c5.85-4.108,11.918-9.793,16.228-15.083
							C2351.282,2939.471,2365.094,2948.764,2359.932,2958.867L2359.932,2958.867z"/>
					</g>
				</g>
			</g>
			<g>
				<g>
					<g>
						<path style="fill:#FF1B40;" d="M2867.207,1543.391c-0.326,3.102-0.708,6.15-1.197,9.034
							c-8.599,60.244-30.694,71.292-54.585,71.292c2.612-25.905,3.483-59.102,3.483-59.102
							c-336.706-398.637-986.716-586.881-1437.597-519.67c-81.251,12.136-145.088,29.823-186.938,51.211
							c-46.204,23.673-66.285,50.231-66.285,50.231c-14.857-5.66-15.511-32.435-5.987-68.027
							c8.599-32.435,25.687-72.272,48.109-110.095c7.02-11.864,14.585-23.619,22.53-34.83c17.035-23.891,36.028-45.66,56.054-62.476
							c79.02-66.231,288.815-150.748,815.995-54.585c456.161,83.264,728.595,403.862,761.9,468.677
							c18.721,36.408,32.49,95.292,39.782,150.095c0.436,2.938,0.762,5.877,1.143,8.761
							C2868.458,1483.364,2869.873,1519.881,2867.207,1543.391z"/>
					</g>
				</g>
			</g>
			<g style="opacity:0.5;">
				<g>
					<g>
						<path style="fill:#FFFFFF;" d="M2812.241,1615.173c2.34,2.667,4.68,5.333,6.966,8.054c-2.558,0.381-5.17,0.49-7.782,0.49
							C2811.696,1620.942,2811.969,1618.057,2812.241,1615.173z"/>
					</g>
				</g>
			</g>
			<g style="opacity:0.5;">
				<g>
					<g>
						<path style="fill:#FFFFFF;" d="M2867.696,1489.406c-7.51-55.021-21.333-113.687-40.108-150.204
							c-33.905-65.958-311.183-392.27-775.452-477.003c-536.595-97.904-750.09-11.864-830.526,55.564
							c-20.408,17.088-39.728,39.238-57.088,63.564c-8.054,11.429-15.782,23.401-22.911,35.483c-1.197,1.96-2.34,3.973-3.483,5.932
							c7.891-17.959,17.415-36.408,28.082-54.476c7.02-11.864,14.585-23.619,22.53-34.83c17.035-23.891,36.028-45.66,56.054-62.476
							c79.02-66.231,288.815-150.748,815.995-54.585c456.161,83.264,728.595,403.862,761.9,468.677
							c18.721,36.408,32.49,95.292,39.782,150.095c0.436,2.938,0.762,5.877,1.143,8.761
							C2865.574,1459.8,2866.935,1475.147,2867.696,1489.406z"/>
					</g>
				</g>
			</g>
			<g style="opacity:0.2;">
				<g>
					<g>
						<path style="fill:#080808;" d="M2867.207,1543.391c-0.326,3.102-0.708,6.15-1.197,9.034
							c-8.599,60.244-30.694,71.292-54.585,71.292c2.612-25.905,3.483-59.102,3.483-59.102
							c-336.706-398.637-986.716-586.881-1437.597-519.67c-81.251,12.136-145.088,29.823-186.938,51.211
							c-46.204,23.673-66.285,50.231-66.285,50.231c-14.857-5.66-15.511-32.435-5.987-68.027
							c8.599-32.435,25.687-72.272,48.109-110.095c7.02-11.864,14.585-23.619,22.53-34.83
							c-4.136,26.721,10.504,46.149,67.429,40.435c153.196-15.347,191.073-56.49,587.914-15.891
							c249.686,25.524,661.71,179.156,831.451,352.053c106.23,108.189,167.454,150.202,186.938,125.115
							c0.436,2.938,0.762,5.877,1.143,8.761C2868.458,1483.364,2869.873,1519.881,2867.207,1543.391z"/>
					</g>
				</g>
			</g>
			<g>
				<g>
					<g>
						<path style="fill:#EAE8E5;" d="M2867.207,1543.391c-0.326,3.102-0.708,6.15-1.197,9.034
							c-45.769-110.421-177.033-202.611-224.489-237.768c-322.611-239.073-746.009-348.352-1074.715-348.352
							c-69.442,0-136.434,4.735-199.127,14.041c-57.578,8.653-173.877,26.938-249.577,98.013
							c8.599-32.435,25.687-72.272,48.109-110.095c7.02-11.864,14.585-23.619,22.53-34.83c-1.034,6.639-0.87,12.843,0.763,18.286
							c5.006,16.544,23.89,26.449,66.666,22.15c153.196-15.347,191.073-56.49,587.914-15.891
							c249.686,25.524,661.71,179.156,831.451,352.053c102.53,104.434,163.155,147.21,184.76,127.454
							c0.762-0.708,1.524-1.469,2.177-2.34c0.436,2.938,0.762,5.877,1.143,8.761
							C2868.458,1483.364,2869.873,1519.881,2867.207,1543.391z"/>
					</g>
				</g>
			</g>
			<g>
				<g>
					<g>
						<path style="fill:#C63C3C;" d="M2867.207,1543.391c-0.326,3.102-0.708,6.15-1.197,9.034
							c-45.769-110.421-177.033-202.611-224.489-237.768c-322.611-239.073-746.009-348.352-1074.715-348.352
							c-69.442,0-136.434,4.735-199.127,14.041c-57.578,8.653-173.877,26.938-249.577,98.013
							c8.599-32.435,25.687-72.272,48.109-110.095c7.02-11.864,14.585-23.619,22.53-34.83c-1.034,6.639-0.87,12.843,0.763,18.286
							c5.006,16.544,23.89,26.449,66.666,22.15c153.196-15.347,191.073-56.49,587.914-15.891
							c249.686,25.524,661.71,179.156,831.451,352.053c102.53,104.434,163.155,147.21,184.76,127.454
							c0.762-0.708,1.524-1.469,2.177-2.34c0.436,2.938,0.762,5.877,1.143,8.761
							C2868.458,1483.364,2869.873,1519.881,2867.207,1543.391z"/>
					</g>
				</g>
			</g>
			<g>
				<g>
					<g>
						<path style="fill:#FFFFFF;" d="M2867.207,1543.391c-0.326,3.102-0.708,6.15-1.197,9.034
							c-45.769-110.421-177.033-202.611-224.489-237.768c-322.611-239.073-746.009-348.352-1074.715-348.352
							c-69.442,0-136.434,4.735-199.127,14.041c-57.578,8.653-173.877,26.938-249.577,98.013
							c8.599-32.435,25.687-72.272,48.109-110.095c7.564-5.715,15.347-11.211,23.293-16.544
							c110.149-74.068,258.393-113.36,452.623-113.36c116.244,0,253.169,14.204,406.964,42.285
							c233.903,42.667,414.31,149.442,535.615,247.074c91.483,73.577,210.883,185.414,275.59,309.766
							c1.143,2.123,2.231,4.3,3.32,6.421C2868.458,1483.364,2869.873,1519.881,2867.207,1543.391z"/>
					</g>
				</g>
			</g>
			<g style="opacity:0.2;">
				<g>
					<g>
						<path style="fill:#080808;" d="M2867.207,1543.391c-0.326,3.102-0.708,6.15-1.197,9.034
							c-45.769-110.421-177.033-202.611-224.489-237.768c-322.611-239.073-746.009-348.352-1074.715-348.352
							c-69.442,0-136.434,4.735-199.127,14.041c-57.578,8.653-173.877,26.938-249.577,98.013
							c8.599-32.435,25.687-72.272,48.109-110.095c7.564-5.715,15.347-11.211,23.293-16.544c5.006,16.544,23.89,26.449,66.666,22.15
							c153.196-15.347,191.073-56.49,587.914-15.891c249.686,25.524,641.874,201.169,831.451,352.053
							c107.786,85.787,163.155,147.21,184.76,127.454c1.143,2.123,2.231,4.3,3.32,6.421
							C2868.458,1483.364,2869.873,1519.881,2867.207,1543.391z"/>
					</g>
				</g>
			</g>
			<g>
				<g>
					<g>
						<path style="fill:#080808;" d="M2811.407,1642.824c-5.398,0-10.542-2.288-14.16-6.294c-3.618-4.006-5.371-9.356-4.822-14.727
							c1.814-17.764,2.778-39.404,3.184-50.449c-341.628-398.994-986.665-571.44-1415.466-507.519
							c-78.213,11.66-140.825,28.718-181.069,49.331c-41.167,21.082-59.675,44.585-59.856,44.822
							c-5.146,6.636-14.089,9.216-21.943,6.226c-7.229-2.754-19.902-10.598-23.538-32.18
							c-10.046-59.661,56.738-206.87,138.801-275.671c77.002-64.56,287.444-158.047,831.685-58.743
							c476.594,86.958,745.75,420.891,775.447,478.721c35.945,69.993,52.981,211.558,46.487,269.194
							C2881.448,1587.299,2868.58,1642.824,2811.407,1642.824z M1565.501,1012.651c184.614,0,387.317,34.18,579.553,99.365
							c282.454,95.776,525.527,252.139,684.446,440.283c3.02,3.574,4.619,8.135,4.497,12.81c-0.022,0.862-0.371,13.852-1.277,29.88
							c6.377-8.428,12.185-24.204,15.51-53.728c6.011-53.34-10.642-185.435-42.507-247.49
							c-14.661-28.545-89.648-123.823-216.97-220.977c-110.532-84.346-292.444-194.038-531.382-237.632
							c-528.901-96.504-728.445-9.819-800.317,50.442c-36.448,30.559-73.833,83.445-100.007,141.465
							c-17.498,38.796-24.548,68.12-26.013,85.544c11.794-10,28.506-22.08,50.642-33.416
							c43.894-22.48,110.576-40.845,192.837-53.108C1434.925,1017.082,1499.061,1012.651,1565.501,1012.651z"/>
					</g>
				</g>
			</g>
			<g>
				<g>
					<g>
						<g>
							<g>
								<g>
									<path style="fill:#080808;" d="M2072.015,1289.391c65.057,1.525,115.528,79.299,112.73,173.711
										c-2.798,94.413-57.806,169.713-122.864,168.188c-65.056-1.525-115.529-79.297-112.73-173.711
										C1951.949,1363.167,2006.958,1287.866,2072.015,1289.391z"/>
								</g>
							</g>
						</g>
					</g>
				</g>
				<g>
					<g>
						<g>
							<g>
								<g>
									<path style="fill:#FFFFFF;" d="M2071.616,1329.037c19.394,11.117,24.216,43.979,10.769,73.396
										c-13.447,29.419-40.069,44.253-59.464,33.135c-19.394-11.117-24.216-43.978-10.768-73.395
										C2025.599,1332.754,2052.221,1317.918,2071.616,1329.037z"/>
								</g>
							</g>
						</g>
					</g>
				</g>
				<g>
					<g>
						<g>
							<g>
								<g>
									<path style="fill:#B199C5;" d="M2115.292,1538.254c8.79,8.39,7.768,26.045-2.281,39.432
										c-10.048,13.389-25.319,17.44-34.106,9.049c-8.789-8.388-7.768-26.044,2.281-39.43
										C2091.232,1533.917,2106.504,1529.866,2115.292,1538.254z"/>
								</g>
							</g>
						</g>
					</g>
				</g>
			</g>
			<g>
				<g>
					<g>
						<g>
							<g>
								<g>
									<path style="fill:#080808;" d="M1516.839,1203.883c59.984,13.203,92.639,94.389,72.936,181.333
										c-19.702,86.945-84.301,146.724-144.286,133.521c-59.983-13.203-92.64-94.388-72.937-181.333
										C1392.255,1250.459,1456.855,1190.68,1516.839,1203.883z"/>
								</g>
							</g>
						</g>
					</g>
				</g>
				<g>
					<g>
						<g>
							<g>
								<g>
									<path style="fill:#FFFFFF;" d="M1509.284,1240.533c15.95,13.813,14.46,45.125-3.327,69.936
										c-17.787,24.812-45.135,33.728-61.085,19.915c-15.949-13.812-14.46-45.124,3.327-69.935
										C1465.987,1235.636,1493.334,1226.719,1509.284,1240.533z"/>
								</g>
							</g>
						</g>
					</g>
				</g>
				<g>
					<g>
						<g>
							<g>
								<g>
									<path style="fill:#B199C5;" d="M1511.823,1442.24c6.621,9.364,2.475,25.532-9.259,36.111
										c-11.733,10.58-26.612,11.565-33.231,2.201c-6.621-9.363-2.475-25.532,9.259-36.11
										C1490.324,1433.862,1505.204,1432.877,1511.823,1442.24z"/>
								</g>
							</g>
						</g>
					</g>
				</g>
			</g>
		</g>
	</g>
</g>
</svg>
